<svg id="레이어_1" data-name="레이어 1" xmlns="http://www.w3.org/2000/svg" xmlns:xlink="http://www.w3.org/1999/xlink" viewBox="0 0 56.69 56.69"><defs><style>.cls-1,.cls-18,.cls-20,.cls-22,.cls-24{fill:none;}.cls-2{clip-path:url(#clip-path);}.cls-10,.cls-11,.cls-12,.cls-13,.cls-14,.cls-15,.cls-16,.cls-17,.cls-18,.cls-19,.cls-20,.cls-21,.cls-22,.cls-23,.cls-26,.cls-3,.cls-4,.cls-5,.cls-6,.cls-7,.cls-9{stroke:#231916;}.cls-10,.cls-11,.cls-12,.cls-13,.cls-16,.cls-17,.cls-18,.cls-19,.cls-20,.cls-22,.cls-26,.cls-3,.cls-4,.cls-5,.cls-6,.cls-7,.cls-9{stroke-linecap:round;stroke-linejoin:round;}.cls-10,.cls-11,.cls-12,.cls-18,.cls-26,.cls-3,.cls-4,.cls-5,.cls-9{stroke-width:0.15px;}.cls-3{fill:url(#linear-gradient);}.cls-4{fill:url(#linear-gradient-2);}.cls-5{fill:url(#linear-gradient-3);}.cls-13,.cls-6,.cls-7{stroke-width:0.5px;}.cls-6{fill:url(#linear-gradient-4);}.cls-7{fill:url(#linear-gradient-5);}.cls-8{clip-path:url(#clip-path-2);}.cls-9{fill:url(#linear-gradient-6);}.cls-10{fill:url(#linear-gradient-7);}.cls-11{fill:url(#linear-gradient-8);}.cls-12{fill:url(#linear-gradient-9);}.cls-13{fill:url(#linear-gradient-10);}.cls-14,.cls-15,.cls-21,.cls-23{stroke-miterlimit:10;}.cls-14,.cls-15,.cls-16,.cls-17,.cls-19,.cls-21,.cls-22,.cls-23{stroke-width:0.3px;}.cls-14{fill:url(#linear-gradient-11);}.cls-15{fill:#887b50;}.cls-16{fill:url(#radial-gradient);}.cls-17{fill:url(#linear-gradient-12);}.cls-19{fill:url(#linear-gradient-13);}.cls-20{stroke-width:0.2px;}.cls-21{fill:url(#linear-gradient-14);}.cls-23{fill:url(#linear-gradient-15);}.cls-24{stroke:#9fa0a0;stroke-width:0.85px;}.cls-25{clip-path:url(#clip-path-3);}.cls-26{fill:url(#linear-gradient-16);}</style><clipPath id="clip-path"><path class="cls-1" d="M-67.34,4.5s-4.81,0-4.81,4.81v38s0,4.81,4.81,4.81h38s4.81,0,4.81-4.81v-38s0-4.81-4.81-4.81Z"/></clipPath><linearGradient id="linear-gradient" x1="-60.61" y1="52.25" x2="1.81" y2="52.25" gradientUnits="userSpaceOnUse"><stop offset="0" stop-color="#fff"/><stop offset="0.37" stop-color="#e6e6e6"/><stop offset="1" stop-color="#f2f2f3"/></linearGradient><linearGradient id="linear-gradient-2" x1="1.69" y1="54.57" x2="29.96" y2="54.57" xlink:href="#linear-gradient"/><linearGradient id="linear-gradient-3" x1="-41.97" y1="28.79" x2="30.07" y2="28.79" xlink:href="#linear-gradient"/><linearGradient id="linear-gradient-4" x1="-42.03" y1="34.36" x2="20.7" y2="34.36" gradientUnits="userSpaceOnUse"><stop offset="0" stop-color="#a5d8f5"/><stop offset="0.31" stop-color="#0067b6"/><stop offset="0.77" stop-color="#95d5f6"/><stop offset="1" stop-color="#008cd6"/></linearGradient><linearGradient id="linear-gradient-5" x1="-60.61" y1="41.64" x2="20.59" y2="41.64" xlink:href="#linear-gradient-4"/><clipPath id="clip-path-2"><path class="cls-1" d="M9.35,4.6s-4.81,0-4.81,4.8v38s0,4.8,4.81,4.8h38s4.81,0,4.81-4.8V9.4s0-4.8-4.81-4.8Z"/></clipPath><linearGradient id="linear-gradient-6" x1="52.9" y1="39.86" x2="78.87" y2="47.8" gradientUnits="userSpaceOnUse"><stop offset="0" stop-color="#fff"/><stop offset="1" stop-color="#d3d3d4"/></linearGradient><linearGradient id="linear-gradient-7" x1="-1.58" y1="24.12" x2="78.78" y2="24.12" gradientUnits="userSpaceOnUse"><stop offset="0" stop-color="#fff"/><stop offset="1" stop-color="#e6e6e6"/></linearGradient><linearGradient id="linear-gradient-8" x1="32.24" y1="34.76" x2="57.81" y2="54.74" xlink:href="#linear-gradient-6"/><linearGradient id="linear-gradient-9" x1="-1.8" y1="35.1" x2="17.18" y2="25.01" xlink:href="#linear-gradient-6"/><linearGradient id="linear-gradient-10" x1="16.31" y1="32.66" x2="39.68" y2="32.66" gradientUnits="userSpaceOnUse"><stop offset="0" stop-color="#0067b6"/><stop offset="0.55" stop-color="#a5d8f5"/><stop offset="0.68" stop-color="#95d5f6"/><stop offset="1" stop-color="#008cd6"/></linearGradient><linearGradient id="linear-gradient-11" x1="32.58" y1="12.45" x2="37.95" y2="12.45" gradientUnits="userSpaceOnUse"><stop offset="0" stop-color="#b5b3a0"/><stop offset="0" stop-color="#b4aa9a"/><stop offset="0.53" stop-color="#d9d0bd"/><stop offset="0.75" stop-color="#fff5e0"/><stop offset="1" stop-color="#b4aa9a"/></linearGradient><radialGradient id="radial-gradient" cx="28.66" cy="22.21" r="8.56" gradientUnits="userSpaceOnUse"><stop offset="0" stop-color="#fbc200"/><stop offset="1" stop-color="#f7dd3d"/></radialGradient><linearGradient id="linear-gradient-12" x1="19.08" y1="18.21" x2="24.81" y2="18.21" gradientUnits="userSpaceOnUse"><stop offset="0" stop-color="#f7dd3d"/><stop offset="1" stop-color="#4f3800"/></linearGradient><linearGradient id="linear-gradient-13" x1="19.3" y1="26.56" x2="26.3" y2="22.52" gradientUnits="userSpaceOnUse"><stop offset="0" stop-color="#f7dd3d"/><stop offset="1" stop-color="#281000"/></linearGradient><linearGradient id="linear-gradient-14" x1="18.98" y1="-17.71" x2="38.34" y2="-17.71" xlink:href="#linear-gradient-11"/><linearGradient id="linear-gradient-15" x1="28.44" y1="16.49" x2="31.44" y2="16.49" gradientUnits="userSpaceOnUse"><stop offset="0" stop-color="#dcd7d2"/><stop offset="1" stop-color="#9e9076"/></linearGradient><clipPath id="clip-path-3"><path class="cls-1" d="M86,4.54s-4.8,0-4.8,4.81v38s0,4.81,4.8,4.81h38s4.81,0,4.81-4.81v-38s0-4.81-4.81-4.81Z"/></clipPath><linearGradient id="linear-gradient-16" x1="79.72" y1="20.67" x2="92.2" y2="-0.32" gradientTransform="matrix(0.99, 0.17, -0.16, 0.93, -13.74, -18.69)" gradientUnits="userSpaceOnUse"><stop offset="0" stop-color="#fff"/><stop offset="0.3" stop-color="#e6e6e6"/><stop offset="1" stop-color="#ebecec"/></linearGradient></defs><title>대지 3</title><g class="cls-2"><polygon class="cls-3" points="-60.61 31.88 -60.61 45.01 1.69 72.63 1.69 56.35 -60.61 31.88"/><polygon class="cls-4" points="29.96 36.5 20.78 39.81 20.8 48.84 1.69 56.35 1.69 72.63 29.85 60.13 29.96 36.5"/><polygon class="cls-5" points="29.96 36.5 -33.07 17.77 -41.97 19.91 20.78 39.81 29.96 36.5"/><polyline class="cls-6" points="-41.98 26.98 -42.03 20.04 20.7 39.91 20.64 48.67"/><polyline class="cls-7" points="-41.8 27.04 20.59 48.74 1.71 56.25 -60.61 31.78 -42.04 27.04"/></g><g class="cls-8"><polygon class="cls-9" points="78.61 28 53.74 37.1 53.8 59.86 78.57 48.8 78.61 28"/><path class="cls-10" d="M78.66,28,22.78,11.25-1.58,17.11,16.3,23.55A28.26,28.26,0,0,1,26.13,22c7.51,0,13.59,2.25,13.59,5,0,1.38-1.51,2.63-3.95,3.54L53.65,37Z"/><polygon class="cls-11" points="35.65 30.58 35.65 51.86 53.66 59.9 53.66 37.07 35.65 30.58"/><polygon class="cls-12" points="-1.58 17.13 -1.58 35.35 16.39 43.29 16.39 23.66 -1.58 17.13"/><path class="cls-13" d="M35.62,43.3a28.78,28.78,0,0,0-9.5-1.44,29.66,29.66,0,0,0-9.73,1.43l-.08-19.71A28.18,28.18,0,0,1,26.12,22c7.49,0,13.56,2.25,13.56,5,0,1.38-1.5,2.63-3.94,3.54Z"/><path class="cls-14" d="M35.46,17.61H38S37,10.41,35.7,7.3l-2.8,6.62-.32,3.16Z"/><path class="cls-15" d="M36.59,17.61l-.08-1.16a.83.83,0,0,0,0-1,.74.74,0,0,0-1.28.33c-.11.56.29.69.29.69l.43.15v.8"/><path class="cls-16" d="M38.38,18.3a74,74,0,0,1,.16,7.7L32,28.33l-3,.77A3.64,3.64,0,0,1,28,29c-.42-.13-8.91-3-8.91-3a.67.67,0,0,1-.34-.64A66.27,66.27,0,0,1,19,18.66L22,17.92l2.18-1.22,3.43-1.37,7.88.11.73.63.12,1.85Z"/><path class="cls-17" d="M19.08,18.63l2.25-.54L22.67,18a1.63,1.63,0,0,1,1.7-.52c1,.33-.09,1.53-.09,1.53l-.23.07L22,19Z"/><path class="cls-18" d="M37.72,18.21a78.09,78.09,0,0,1,.2,8"/><path class="cls-19" d="M28.93,29.1A3.64,3.64,0,0,1,28,29c-.42-.13-8.91-3-8.91-3a.67.67,0,0,1-.34-.64A66.27,66.27,0,0,1,19,18.66l2.39-.15,2.72.16-.13,2-.64,3.85s.95,1.39,1.25,1.9a2,2,0,0,0,.86.72l2.1.58A2.71,2.71,0,0,0,28.93,29.1Z"/><polyline class="cls-20" points="21.75 18.53 21.95 24.2 23.3 24.52"/><polyline class="cls-20" points="27.51 27.72 29.92 24.27 30.77 20.35"/><path class="cls-20" d="M29.92,24.27a1,1,0,0,0,1.34.43l1.05-.43L29,29.08"/><path class="cls-21" d="M36-56.73s2.54,7.77,2.37,14,0,9.27-.36,11.39v16.41s-.1,14.9-.82,18.8a2,2,0,0,0,0,.54A110.52,110.52,0,0,1,31.52,21.6a20.54,20.54,0,0,1-3.08.15c-2,0-4.62,0-4.62,0l.12-1.12.13-2s0-.78-.59-.86a.76.76,0,0,0-.79.5l-1.62-.11a9.13,9.13,0,0,1-1.74-.31,65.83,65.83,0,0,1,2.1-9.62s-2.1-6.11-2.1-17.57V-31.55a92.83,92.83,0,0,1-.27-11.23c.29-5.06.81-10.22,2.32-14.39Z"/><path class="cls-22" d="M38.34-42.3s-.43,10.56-3.84,19.22S24.38-.45,21.27,8.74"/><path class="cls-20" d="M38-31.84a69.46,69.46,0,0,1-4.39,16.53C30.05-6.27,26.31,1,26.31,1s-1.23,2.84.61,3.31,8.62,0,8.62,0l1.62-.12"/><path class="cls-22" d="M36.11-57.41S32.51-45.48,28.39-36,20.77-14.46,20.58-3.8A72.06,72.06,0,0,0,22,6.83"/><path class="cls-23" d="M31.26,21.63c.17-.9.23-7.28.15-8.86s-.45-2.43-1.31-.32-1.66,9.3-1.66,9.3A10.89,10.89,0,0,0,31.26,21.63Z"/></g><path class="cls-24" d="M9.35,4.45s-4.81,0-4.81,4.8v38s0,4.81,4.81,4.81h38s4.81,0,4.81-4.81v-38s0-4.8-4.81-4.8Z"/><g class="cls-25"><polygon class="cls-26" points="58.38 -18.69 96.62 9.79 80.03 30.03 41.05 0.64 58.38 -18.69"/></g></svg>