<?xml version="1.0" encoding="utf-8"?>
<!-- Generator: Adobe Illustrator 25.3.1, SVG Export Plug-In . SVG Version: 6.00 Build 0)  -->
<svg version="1.1" id="레이어_1" xmlns="http://www.w3.org/2000/svg" xmlns:xlink="http://www.w3.org/1999/xlink" x="0px"
	 y="0px" viewBox="0 0 56.7 56.7" style="enable-background:new 0 0 56.7 56.7;" xml:space="preserve">
<style type="text/css">
	.st0{clip-path:url(#SVGID_2_);}
	.st1{fill:none;}
	.st2{clip-path:url(#SVGID_4_);}
	.st3{fill:url(#SVGID_5_);stroke:#000000;stroke-width:0.332;stroke-linecap:round;stroke-linejoin:round;}
	.st4{fill:url(#SVGID_6_);stroke:#000000;stroke-width:0.332;stroke-linecap:round;stroke-linejoin:round;}
	.st5{fill:url(#SVGID_7_);stroke:#000000;stroke-width:0.332;stroke-linecap:round;stroke-linejoin:round;}
	.st6{fill:url(#SVGID_8_);stroke:#000000;stroke-width:0.332;stroke-linecap:round;stroke-linejoin:round;}
	.st7{fill:url(#SVGID_9_);stroke:#000000;stroke-width:0.332;stroke-linecap:round;stroke-linejoin:round;}
	.st8{fill:url(#SVGID_10_);stroke:#000000;stroke-width:0.332;stroke-linecap:round;stroke-linejoin:round;}
	.st9{clip-path:url(#SVGID_12_);fill:url(#SVGID_13_);}
	.st10{fill:url(#SVGID_14_);stroke:#000000;stroke-width:0.332;stroke-linecap:round;stroke-linejoin:round;}
	.st11{clip-path:url(#SVGID_16_);fill:url(#SVGID_17_);}
	.st12{fill:none;stroke:#000000;stroke-width:0.332;stroke-linecap:round;stroke-linejoin:round;}
	.st13{clip-path:url(#SVGID_19_);fill:url(#SVGID_20_);}
	.st14{fill:#FFFFFF;}
	.st15{fill:url(#SVGID_21_);stroke:#000000;stroke-width:0.332;stroke-linecap:round;stroke-linejoin:round;}
	.st16{fill:none;stroke:#9FA0A0;stroke-width:0.847;}
</style>
<g>
	<g>
		<defs>
			<path id="SVGID_1_" d="M9.3,4.5c0,0-4.8,0-4.8,4.8v38c0,0,0,4.8,4.8,4.8h38c0,0,4.8,0,4.8-4.8v-38c0,0,0-4.8-4.8-4.8
				C47.3,4.5,9.3,4.5,9.3,4.5z"/>
		</defs>
		<clipPath id="SVGID_2_">
			<use xlink:href="#SVGID_1_"  style="overflow:visible;"/>
		</clipPath>
		<g class="st0">
			<path class="st1" d="M9.3,4.6c0,0-4.8,0-4.8,4.8l0.1,38c0,0,0,4.8,4.8,4.8l38-0.1c0,0,4.8,0,4.8-4.8l-0.1-38c0,0,0-4.8-4.8-4.8
				L9.3,4.6z"/>
		</g>
	</g>
	<g>
		<defs>
			<path id="SVGID_3_" d="M9.3,4.5c0,0-4.8,0-4.8,4.8v38c0,0,0,4.8,4.8,4.8h38c0,0,4.8,0,4.8-4.8v-38c0,0,0-4.8-4.8-4.8
				C47.3,4.5,9.3,4.5,9.3,4.5z"/>
		</defs>
		<clipPath id="SVGID_4_">
			<use xlink:href="#SVGID_3_"  style="overflow:visible;"/>
		</clipPath>
		<g class="st2">
			<g>
				
					<linearGradient id="SVGID_5_" gradientUnits="userSpaceOnUse" x1="52.6" y1="12.1646" x2="76.8" y2="12.1646" gradientTransform="matrix(1 0 0 -1 0 57.4646)">
					<stop  offset="0" style="stop-color:#FFFFFF"/>
					<stop  offset="1" style="stop-color:#DCDDDD"/>
				</linearGradient>
				<polygon class="st3" points="76.8,29.8 52.6,38.7 52.6,60.8 76.8,50.1 				"/>
			</g>
			<g>
				
					<linearGradient id="SVGID_6_" gradientUnits="userSpaceOnUse" x1="-1.2" y1="31.4146" x2="77.0081" y2="31.4146" gradientTransform="matrix(1 0 0 -1 0 57.4646)">
					<stop  offset="0" style="stop-color:#FFFFFF"/>
					<stop  offset="1" style="stop-color:#DCDDDD"/>
				</linearGradient>
				<path class="st4" d="M76.8,29.8L22.5,13.5l-23.7,5.7l17.4,6.3c2.4-0.9,5.8-1.5,9.6-1.5C33,24,39,26.2,39,28.9
					c0,1.3-1.5,2.6-3.8,3.4l17.4,6.3L76.8,29.8z"/>
			</g>
			<g>
				
					<linearGradient id="SVGID_7_" gradientUnits="userSpaceOnUse" x1="16.167" y1="23.1146" x2="38.9111" y2="23.1146" gradientTransform="matrix(1 0 0 -1 0 57.4646)">
					<stop  offset="0" style="stop-color:#E8F5FD"/>
					<stop  offset="0.4172" style="stop-color:#00A9EB"/>
					<stop  offset="0.7178" style="stop-color:#ADDEF8"/>
				</linearGradient>
				<path class="st5" d="M35,44.7c-2.4-0.9-5.6-1.4-9.2-1.4s-7.1,0.5-9.5,1.4l-0.1-19.2c2.4-0.9,5.8-1.5,9.5-1.5
					c7.3,0,13.2,2.2,13.2,4.9c0,1.3-1.5,2.6-3.8,3.4L35,44.7z"/>
			</g>
			<g>
				
					<linearGradient id="SVGID_8_" gradientUnits="userSpaceOnUse" x1="34.925" y1="10.8646" x2="52.5644" y2="10.8646" gradientTransform="matrix(1 0 0 -1 0 57.4646)">
					<stop  offset="0" style="stop-color:#FFFFFF"/>
					<stop  offset="1" style="stop-color:#DCDDDD"/>
				</linearGradient>
				<polygon class="st6" points="35,32.3 35,53 52.5,60.9 52.5,38.6 				"/>
			</g>
			<g>
				
					<linearGradient id="SVGID_9_" gradientUnits="userSpaceOnUse" x1="-1.3092" y1="25.5146" x2="16.2947" y2="25.5146" gradientTransform="matrix(1 0 0 -1 0 57.4646)">
					<stop  offset="0" style="stop-color:#FFFFFF"/>
					<stop  offset="1" style="stop-color:#DCDDDD"/>
				</linearGradient>
				<polygon class="st7" points="-1.2,19.2 -1.2,37 16.2,44.7 16.2,25.6 				"/>
			</g>
			<g>
				
					<linearGradient id="SVGID_10_" gradientUnits="userSpaceOnUse" x1="19" y1="34.3146" x2="37.1335" y2="34.3146" gradientTransform="matrix(1 0 0 -1 0 57.4646)">
					<stop  offset="0" style="stop-color:#E2E2E3"/>
					<stop  offset="0.1472" style="stop-color:#ACADAE"/>
					<stop  offset="0.717" style="stop-color:#6B6969"/>
					<stop  offset="1" style="stop-color:#C1C2C2"/>
				</linearGradient>
				<path class="st8" d="M36.8,22.2l0.3,0.6L37,26.2c0,0,0,0.6-0.5,0.7s-8.3,2.8-8.3,2.8l-2.8-0.4c0,0-3.9-1.4-4.8-1.7
					c-0.9-0.3-1.4-0.4-1.4-0.4S19,26.7,19,26.3c0-0.4,0.2-4.2,0.2-4.2l0.5-0.8l11.1-4.7l4.1,2.5L36.8,22.2z"/>
			</g>
			<g>
				<g>
					<defs>
						<path id="SVGID_11_" d="M25.4,20.6l-4.7,0.9l-1,3.1c0,0,6.8,2.5,7.2,2.6c0.4,0.1,0.7-0.2,0.7-0.2l1.7-2.5l0.5-1l0.9-3.5
							L25.4,20.6z"/>
					</defs>
					<clipPath id="SVGID_12_">
						<use xlink:href="#SVGID_11_"  style="overflow:visible;"/>
					</clipPath>
					
						<radialGradient id="SVGID_13_" cx="-281.9117" cy="-373.9713" r="0.9994" gradientTransform="matrix(5.5629 0 0 5.5629 1593.4305 2103.9692)" gradientUnits="userSpaceOnUse">
						<stop  offset="0" style="stop-color:#FFFFFF"/>
						<stop  offset="1" style="stop-color:#C9CACA"/>
					</radialGradient>
					<rect x="19.7" y="20" class="st9" width="11" height="7.3"/>
				</g>
			</g>
			<g>
				
					<linearGradient id="SVGID_14_" gradientUnits="userSpaceOnUse" x1="19.7441" y1="33.8544" x2="30.6865" y2="33.8544" gradientTransform="matrix(1 0 0 -1 0 57.4646)">
					<stop  offset="0" style="stop-color:#FFFFFF"/>
					<stop  offset="0.251" style="stop-color:#FFFFFF"/>
					<stop  offset="0.717" style="stop-color:#AEAB9C"/>
					<stop  offset="1" style="stop-color:#D1D0C1"/>
				</linearGradient>
				<path class="st10" d="M30.7,20l-0.9,3.5l-0.5,1L27.6,27c0,0-0.3,0.3-0.7,0.2c-0.4-0.1-7.1-2.4-7.1-2.4l0.9-3.3l4.7-0.9L30.7,20z
					"/>
			</g>
			<g>
				<g>
					<defs>
						<path id="SVGID_15_" d="M20.1-25.5c0,0-0.4,10.9-0.4,19s1.8,15.2,1.8,15.2s-1.4,5.7-1.7,7.9c-0.3,2.2-0.1,8.1-0.1,8.1
							c0.4-1,2.7-1.8,2.7-1.8c3.3-0.8,5.3,0.6,5.3,0.6l3.7-4.5l5.5,3.2c0-1.2-0.2-3.3-0.7-5.7s-2.3-7.1-2.3-7.1
							C37.1,3,36.8-7.9,36.8-7.9v-17.7L20.1-25.5L20.1-25.5z"/>
					</defs>
					<clipPath id="SVGID_16_">
						<use xlink:href="#SVGID_15_"  style="overflow:visible;"/>
					</clipPath>
					
						<linearGradient id="SVGID_17_" gradientUnits="userSpaceOnUse" x1="-323.6712" y1="-337.0832" x2="-322.6712" y2="-337.0832" gradientTransform="matrix(17.3687 0 0 17.3687 5641.3408 5854.2461)">
						<stop  offset="0" style="stop-color:#FFFFFF"/>
						<stop  offset="0.251" style="stop-color:#FFFFFF"/>
						<stop  offset="0.717" style="stop-color:#AEAB9C"/>
						<stop  offset="1" style="stop-color:#D1D0C1"/>
					</linearGradient>
					<rect x="19.5" y="-25.5" class="st11" width="17.6" height="50.1"/>
				</g>
			</g>
			<g>
				<path class="st12" d="M20.1-25.5h16.7v17.7c0,0,0.4,10.9-2.9,17.3c0,0,1.8,4.7,2.3,7.1s0.7,4.5,0.7,5.7l-5.5-3.2l-3.7,4.5
					c0,0-1.9-1.4-5.3-0.6c0,0-2.4,0.8-2.7,1.8c0,0-0.2-5.9,0.1-8.1c0.3-2.2,1.7-7.9,1.7-7.9s-1.8-7-1.8-15.2
					C19.7-14.6,20.1-25.5,20.1-25.5z"/>
				<path class="st12" d="M36.9-31.8c0,0-3.4,14.3-8.4,21.8s-7,18.6-7,18.6"/>
				<path class="st12" d="M36.8-26.3c0,0-2.6,10.3-5.6,15.2c-3,4.8-9.1,19.4-9.5,23.7L21.6,14c0,0,0.1,0.5,0.6,0.6
					c0.5,0,1.1-0.3,1.7-0.3c0.7-0.1,6.9-0.2,6.9-0.2s0.4,0.1,0.4,0.6s0.1,4.5,0.1,4.5"/>
				<path class="st12" d="M31.2,14.7c0,0,0-1.1,0.3-1.6c0.3-0.6,2.1-2.8,2.4-3.7"/>
			</g>
			<g>
				<g>
					<defs>
						<path id="SVGID_18_" d="M26,18.2c0,1.1,0.9,2,2,2s2-0.9,2-2s-0.9-2-2-2S26,17.1,26,18.2"/>
					</defs>
					<clipPath id="SVGID_19_">
						<use xlink:href="#SVGID_18_"  style="overflow:visible;"/>
					</clipPath>
					
						<linearGradient id="SVGID_20_" gradientUnits="userSpaceOnUse" x1="-261.4342" y1="-393.2646" x2="-260.4644" y2="-393.2646" gradientTransform="matrix(4.177 0 0 4.177 1118.027 1660.916)">
						<stop  offset="0" style="stop-color:#C3C4C4"/>
						<stop  offset="1" style="stop-color:#5F5C52"/>
					</linearGradient>
					<rect x="26" y="16.2" class="st13" width="4.1" height="4.1"/>
				</g>
			</g>
			<g>
				<path class="st12" d="M28,20.2c1.1,0,2-0.9,2-2s-0.9-2-2-2s-2,0.9-2,2C26,19.3,26.9,20.2,28,20.2z"/>
				<path class="st14" d="M25,24.7c0.7,0.2,1.3,0,1.4-0.4s-0.4-0.8-1.1-0.9c-0.7-0.2-1.3,0-1.4,0.4C23.8,24.1,24.3,24.5,25,24.7"/>
				
					<linearGradient id="SVGID_21_" gradientUnits="userSpaceOnUse" x1="23.8873" y1="33.4146" x2="26.3442" y2="33.4146" gradientTransform="matrix(1 0 0 -1 0 57.4646)">
					<stop  offset="0" style="stop-color:#A2A2A3"/>
					<stop  offset="1" style="stop-color:#CBCBC3"/>
				</linearGradient>
				<path class="st15" d="M25,24.7c0.7,0.2,1.3,0,1.4-0.4s-0.4-0.8-1.1-0.9c-0.7-0.2-1.3,0-1.4,0.4C23.8,24.1,24.3,24.5,25,24.7z"/>
			</g>
			<line class="st12" x1="27.7" y1="23.4" x2="27.1" y2="27.1"/>
			<g>
				<path class="st12" d="M29.7,23.7c0,0,0.4,0.3,0.8,0.4s0.4,0.8,0.4,0.8l0.1,0.9l0.9,2.6"/>
				<path class="st12" d="M26.7,27.2l0.6,1.4c0,0,0.3,0.9,0.8,1"/>
			</g>
		</g>
	</g>
</g>
<g>
	<path class="st16" d="M9.3,4.5c0,0-4.8,0-4.8,4.8v38c0,0,0,4.8,4.8,4.8h38c0,0,4.8,0,4.8-4.8v-38c0,0,0-4.8-4.8-4.8
		C47.3,4.5,9.3,4.5,9.3,4.5z"/>
</g>
</svg>
