<?xml version="1.0" encoding="utf-8"?>
<!-- Generator: Adobe Illustrator 22.0.1, SVG Export Plug-In . SVG Version: 6.00 Build 0)  -->
<svg version="1.1" id="레이어_1" xmlns="http://www.w3.org/2000/svg" xmlns:xlink="http://www.w3.org/1999/xlink" x="0px"
	 y="0px" viewBox="0 0 56.7 56.7" style="enable-background:new 0 0 56.7 56.7;" xml:space="preserve">
<style type="text/css">
	.st0{fill:none;}
	.st1{fill:none;stroke:#9FA0A0;stroke-width:0.847;}
	.st2{clip-path:url(#SVGID_2_);}
	.st3{fill:url(#SVGID_3_);stroke:#000000;stroke-width:0.415;stroke-linecap:round;stroke-linejoin:round;}
	.st4{fill:url(#SVGID_6_);stroke:#000000;stroke-width:0.415;stroke-linecap:round;stroke-linejoin:round;}
	.st5{fill:url(#SVGID_7_);stroke:#000000;stroke-width:0.415;stroke-linecap:round;stroke-linejoin:round;}
	.st6{fill:url(#SVGID_8_);}
	.st7{fill:none;stroke:#000000;stroke-width:0.415;stroke-linecap:round;stroke-linejoin:round;}
	.st8{fill:url(#SVGID_11_);stroke:#000000;stroke-width:0.415;stroke-linecap:round;stroke-linejoin:round;}
	.st9{clip-path:url(#SVGID_13_);fill:url(#SVGID_14_);}
	.st10{fill:none;stroke:#000000;stroke-width:0.332;stroke-linecap:round;stroke-linejoin:round;}
	.st11{fill:url(#SVGID_17_);stroke:#000000;stroke-width:0.332;stroke-linecap:round;stroke-linejoin:round;}
	.st12{fill:url(#SVGID_20_);stroke:#000000;stroke-width:0.332;stroke-linecap:round;stroke-linejoin:round;stroke-miterlimit:10;}
	.st13{clip-path:url(#SVGID_22_);fill:url(#SVGID_23_);}
	.st14{clip-path:url(#SVGID_25_);fill:url(#SVGID_26_);}
	.st15{fill:url(#SVGID_29_);stroke:#000000;stroke-width:0.332;stroke-linecap:round;stroke-linejoin:round;}
	.st16{fill:url(#SVGID_32_);stroke:#000000;stroke-width:0.332;stroke-linecap:round;stroke-linejoin:round;}
	.st17{fill:none;stroke:#000000;stroke-width:0.166;stroke-linecap:round;stroke-linejoin:round;}
	.st18{fill:url(#SVGID_35_);stroke:#000000;stroke-width:0.332;stroke-linecap:round;stroke-linejoin:round;}
	.st19{clip-path:url(#SVGID_37_);fill:url(#SVGID_38_);}
	.st20{clip-path:url(#SVGID_40_);}
	
		.st21{clip-path:url(#SVGID_44_);fill:url(#SVGID_45_);stroke:#000000;stroke-width:0.332;stroke-linecap:round;stroke-linejoin:round;}
	
		.st22{clip-path:url(#SVGID_47_);fill:url(#SVGID_48_);stroke:#000000;stroke-width:0.332;stroke-linecap:round;stroke-linejoin:round;}
	
		.st23{clip-path:url(#SVGID_52_);fill:url(#SVGID_53_);stroke:#000000;stroke-width:0.332;stroke-linecap:round;stroke-linejoin:round;}
	.st24{fill:url(#SVGID_56_);stroke:#000000;stroke-width:0.332;stroke-linecap:round;stroke-linejoin:round;}
	.st25{fill:url(#SVGID_59_);stroke:#000000;stroke-width:0.332;stroke-linecap:round;stroke-linejoin:round;}
	.st26{clip-path:url(#SVGID_61_);fill:none;stroke:#000000;stroke-width:0.332;stroke-linecap:round;stroke-linejoin:round;}
	.st27{clip-path:url(#SVGID_63_);fill:url(#SVGID_64_);}
	.st28{clip-path:url(#SVGID_66_);fill:none;stroke:#000000;stroke-width:0.332;stroke-linecap:round;stroke-linejoin:round;}
	.st29{clip-path:url(#SVGID_70_);fill:url(#SVGID_71_);stroke:#000000;stroke-width:0.332;}
	.st30{clip-path:url(#SVGID_70_);fill:none;stroke:#000000;stroke-width:0.332;}
	.st31{clip-path:url(#SVGID_75_);fill:url(#SVGID_76_);stroke:#000000;stroke-width:0.332;}
	.st32{clip-path:url(#SVGID_80_);fill:url(#SVGID_81_);stroke:#000000;stroke-width:0.332;}
	.st33{clip-path:url(#SVGID_80_);fill:none;stroke:#000000;stroke-width:0.332;}
	.st34{clip-path:url(#SVGID_83_);fill:url(#SVGID_84_);}
	.st35{clip-path:url(#SVGID_86_);fill:none;stroke:#000000;stroke-width:0.332;}
	.st36{clip-path:url(#SVGID_90_);fill:url(#SVGID_91_);stroke:#000000;stroke-width:0.332;}
	.st37{clip-path:url(#SVGID_93_);fill:url(#SVGID_94_);}
	.st38{clip-path:url(#SVGID_96_);fill:none;stroke:#000000;stroke-width:0.332;}
	.st39{clip-path:url(#SVGID_100_);fill:url(#SVGID_101_);stroke:#000000;stroke-width:0.332;}
	.st40{clip-path:url(#SVGID_100_);fill:none;stroke:#000000;stroke-width:0.332;}
	.st41{clip-path:url(#SVGID_103_);fill:url(#SVGID_104_);}
	.st42{clip-path:url(#SVGID_106_);fill:none;stroke:#000000;stroke-width:0.332;}
	.st43{clip-path:url(#SVGID_106_);fill:none;stroke:#000000;stroke-width:0.332;stroke-linecap:round;stroke-linejoin:round;}
	.st44{clip-path:url(#SVGID_108_);fill:url(#SVGID_109_);}
	.st45{clip-path:url(#SVGID_111_);fill:none;stroke:#000000;stroke-width:0.332;stroke-linecap:round;stroke-linejoin:round;}
	.st46{clip-path:url(#SVGID_113_);}
	.st47{fill:url(#SVGID_114_);stroke:#000000;stroke-width:0.332;stroke-linecap:round;stroke-linejoin:round;}
	.st48{fill:url(#SVGID_117_);stroke:#000000;stroke-width:0.332;stroke-linecap:round;stroke-linejoin:round;}
	.st49{fill:url(#SVGID_120_);stroke:#000000;stroke-width:0.332;stroke-linecap:round;stroke-linejoin:round;}
	.st50{fill:url(#SVGID_123_);stroke:#000000;stroke-width:0.332;stroke-linecap:round;stroke-linejoin:round;}
	.st51{fill:url(#SVGID_126_);stroke:#000000;stroke-width:0.332;stroke-linecap:round;stroke-linejoin:round;}
	.st52{fill:url(#SVGID_129_);stroke:#000000;stroke-width:0.332;stroke-linecap:round;stroke-linejoin:round;}
	.st53{clip-path:url(#SVGID_131_);fill:url(#SVGID_132_);}
	.st54{fill:url(#SVGID_133_);stroke:#000000;stroke-width:0.332;stroke-linecap:round;stroke-linejoin:round;}
	.st55{clip-path:url(#SVGID_135_);fill:url(#SVGID_136_);}
	.st56{clip-path:url(#SVGID_138_);fill:url(#SVGID_139_);}
	.st57{fill:#FFFFFF;}
	.st58{fill:url(#SVGID_140_);stroke:#000000;stroke-width:0.332;stroke-linecap:round;stroke-linejoin:round;}
	.st59{clip-path:url(#SVGID_142_);}
	.st60{fill:url(#SVGID_145_);stroke:#000000;stroke-width:0.332;stroke-linecap:round;stroke-linejoin:round;}
	.st61{fill:url(#SVGID_146_);}
	.st62{fill:url(#SVGID_147_);stroke:#000000;stroke-width:0.332;stroke-linecap:round;stroke-linejoin:round;}
	.st63{fill:url(#SVGID_148_);stroke:#000000;stroke-width:0.332;stroke-linecap:round;stroke-linejoin:round;}
	.st64{clip-path:url(#SVGID_150_);fill:url(#SVGID_151_);}
	.st65{clip-path:url(#SVGID_153_);fill:url(#SVGID_154_);}
	.st66{fill:url(#SVGID_161_);stroke:#000000;stroke-width:0.332;stroke-linecap:round;stroke-linejoin:round;}
	.st67{fill:url(#SVGID_164_);stroke:#000000;stroke-width:0.332;stroke-linecap:round;stroke-linejoin:round;}
	.st68{fill:url(#SVGID_167_);stroke:#000000;stroke-width:0.332;stroke-linecap:round;stroke-linejoin:round;}
	.st69{clip-path:url(#SVGID_169_);fill:url(#SVGID_170_);}
	.st70{fill:#9FA0A0;}
	.st71{fill:url(#SVGID_171_);stroke:#000000;stroke-width:0.332;stroke-linecap:round;stroke-linejoin:round;}
	.st72{clip-path:url(#SVGID_173_);}
	.st73{opacity:0.61;}
	.st74{filter:url(#Adobe_OpacityMaskFilter);}
	.st75{fill:url(#SVGID_175_);}
	.st76{mask:url(#SVGID_174_);}
	.st77{fill:url(#SVGID_176_);}
	.st78{fill:url(#SVGID_179_);stroke:#000000;stroke-width:0.332;stroke-linecap:round;stroke-linejoin:round;}
	.st79{clip-path:url(#SVGID_181_);fill:url(#SVGID_182_);}
	.st80{clip-path:url(#SVGID_184_);fill:url(#SVGID_185_);}
	.st81{clip-path:url(#SVGID_187_);fill:url(#SVGID_188_);}
	.st82{fill:url(#SVGID_191_);stroke:#000000;stroke-width:0.332;stroke-linecap:round;stroke-linejoin:round;}
	.st83{fill:url(#SVGID_194_);stroke:#000000;stroke-width:0.332;stroke-linecap:round;stroke-linejoin:round;}
	.st84{fill:url(#SVGID_197_);stroke:#000000;stroke-width:0.332;stroke-linecap:round;stroke-linejoin:round;}
	.st85{fill:url(#SVGID_198_);stroke:#000000;stroke-width:0.332;stroke-linecap:round;stroke-linejoin:round;}
	.st86{fill:url(#SVGID_201_);stroke:#000000;stroke-width:0.332;stroke-linecap:round;stroke-linejoin:round;}
	.st87{fill:url(#SVGID_204_);stroke:#000000;stroke-width:0.332;stroke-linecap:round;stroke-linejoin:round;}
	.st88{fill:url(#SVGID_207_);stroke:#000000;stroke-width:0.332;stroke-linecap:round;stroke-linejoin:round;}
	.st89{fill:url(#SVGID_210_);stroke:#000000;stroke-width:0.332;stroke-linecap:round;stroke-linejoin:round;}
	.st90{clip-path:url(#SVGID_212_);}
	.st91{clip-path:url(#SVGID_214_);fill:url(#SVGID_215_);}
	.st92{clip-path:url(#SVGID_217_);fill:url(#SVGID_218_);}
	.st93{clip-path:url(#SVGID_220_);fill:url(#SVGID_221_);}
	.st94{fill:url(#SVGID_224_);stroke:#000000;stroke-width:0.332;stroke-linecap:round;stroke-linejoin:round;}
	.st95{clip-path:url(#SVGID_226_);fill:url(#SVGID_227_);}
	.st96{clip-path:url(#SVGID_229_);fill:url(#SVGID_230_);}
	.st97{clip-path:url(#SVGID_232_);fill:url(#SVGID_233_);}
	.st98{fill:url(#SVGID_238_);stroke:#000000;stroke-width:0.332;stroke-linecap:round;stroke-linejoin:round;}
	.st99{fill:url(#SVGID_241_);stroke:#000000;stroke-width:0.332;stroke-linecap:round;stroke-linejoin:round;}
	.st100{fill:url(#SVGID_244_);stroke:#000000;stroke-width:0.332;stroke-linecap:round;stroke-linejoin:round;}
	.st101{fill:url(#SVGID_247_);stroke:#000000;stroke-width:0.332;stroke-linecap:round;stroke-linejoin:round;}
	.st102{fill:url(#SVGID_250_);stroke:#000000;stroke-width:0.332;stroke-linecap:round;stroke-linejoin:round;}
	.st103{fill:url(#SVGID_253_);stroke:#000000;stroke-width:0.332;stroke-linecap:round;stroke-linejoin:round;}
	.st104{fill:url(#SVGID_256_);stroke:#000000;stroke-width:0.332;stroke-linecap:round;stroke-linejoin:round;}
	.st105{fill:url(#SVGID_259_);stroke:#000000;stroke-width:0.332;stroke-linecap:round;stroke-linejoin:round;}
	.st106{clip-path:url(#SVGID_261_);fill:url(#SVGID_262_);}
	.st107{fill:url(#SVGID_265_);stroke:#000000;stroke-width:0.332;stroke-linecap:round;stroke-linejoin:round;}
	.st108{fill:url(#SVGID_268_);stroke:#000000;stroke-width:0.332;stroke-linecap:round;stroke-linejoin:round;}
	.st109{fill:url(#SVGID_269_);stroke:#000000;stroke-width:0.332;stroke-linecap:round;stroke-linejoin:round;}
	.st110{clip-path:url(#SVGID_273_);}
	.st111{fill:url(#SVGID_274_);stroke:#000000;stroke-width:0.415;stroke-linecap:round;stroke-linejoin:round;}
	.st112{fill:url(#SVGID_277_);stroke:#000000;stroke-width:0.415;stroke-linecap:round;stroke-linejoin:round;}
	.st113{fill:url(#SVGID_278_);stroke:#000000;stroke-width:0.415;stroke-linecap:round;stroke-linejoin:round;}
	.st114{fill:url(#SVGID_281_);stroke:#000000;stroke-width:0.415;stroke-linecap:round;stroke-linejoin:round;}
	.st115{clip-path:url(#SVGID_283_);}
	.st116{fill:url(#SVGID_286_);stroke:#000000;stroke-width:0.415;stroke-linecap:round;stroke-linejoin:round;}
	.st117{fill:url(#SVGID_289_);stroke:#000000;stroke-width:0.415;stroke-linecap:round;stroke-linejoin:round;}
	.st118{fill:url(#SVGID_292_);stroke:#000000;stroke-width:0.415;stroke-linecap:round;stroke-linejoin:round;}
	.st119{fill:url(#SVGID_297_);stroke:#000000;stroke-width:0.415;stroke-linecap:round;stroke-linejoin:round;}
	.st120{fill:url(#SVGID_298_);stroke:#000000;stroke-width:0.415;stroke-linecap:round;stroke-linejoin:round;}
	.st121{clip-path:url(#SVGID_300_);}
	.st122{fill:url(#SVGID_303_);stroke:#000000;stroke-width:0.415;stroke-linecap:round;stroke-linejoin:round;}
	.st123{fill:url(#SVGID_306_);stroke:#000000;stroke-width:0.415;stroke-linecap:round;stroke-linejoin:round;}
	.st124{fill:url(#SVGID_309_);stroke:#000000;stroke-width:0.415;stroke-linecap:round;stroke-linejoin:round;}
	.st125{fill:url(#SVGID_312_);stroke:#000000;stroke-width:0.415;stroke-linecap:round;stroke-linejoin:round;}
	.st126{fill:url(#SVGID_315_);stroke:#000000;stroke-width:0.415;stroke-linecap:round;stroke-linejoin:round;}
	.st127{fill:url(#SVGID_319_);stroke:#000000;stroke-width:0.415;stroke-linecap:round;stroke-linejoin:round;}
	.st128{fill:url(#SVGID_326_);stroke:#000000;stroke-width:0.415;stroke-linecap:round;stroke-linejoin:round;}
	.st129{fill:url(#SVGID_327_);stroke:#000000;stroke-width:0.415;stroke-linecap:round;stroke-linejoin:round;}
	.st130{fill:url(#SVGID_328_);stroke:#000000;stroke-width:0.415;stroke-linecap:round;stroke-linejoin:round;}
	.st131{fill:url(#SVGID_329_);stroke:#000000;stroke-width:0.415;stroke-linecap:round;stroke-linejoin:round;}
	.st132{fill:url(#SVGID_330_);stroke:#000000;stroke-width:0.415;stroke-linecap:round;stroke-linejoin:round;}
	.st133{fill:url(#SVGID_331_);stroke:#000000;stroke-width:0.415;stroke-linecap:round;stroke-linejoin:round;}
	.st134{fill:url(#SVGID_332_);stroke:#000000;stroke-width:0.415;stroke-linecap:round;stroke-linejoin:round;}
	.st135{clip-path:url(#SVGID_334_);}
	.st136{fill:url(#SVGID_337_);stroke:#000000;stroke-width:0.415;stroke-linecap:round;stroke-linejoin:round;}
	.st137{fill:url(#SVGID_340_);stroke:#000000;stroke-width:0.415;stroke-linecap:round;stroke-linejoin:round;}
	.st138{fill:url(#SVGID_343_);stroke:#000000;stroke-width:0.415;stroke-linecap:round;stroke-linejoin:round;}
	.st139{fill:url(#SVGID_346_);stroke:#000000;stroke-width:0.415;stroke-linecap:round;stroke-linejoin:round;}
	.st140{fill:url(#SVGID_349_);stroke:#000000;stroke-width:0.415;stroke-linecap:round;stroke-linejoin:round;}
	.st141{fill:url(#SVGID_352_);stroke:#000000;stroke-width:0.415;stroke-linecap:round;stroke-linejoin:round;}
	.st142{clip-path:url(#SVGID_354_);}
	.st143{filter:url(#Adobe_OpacityMaskFilter_1_);}
	.st144{fill:url(#SVGID_356_);}
	.st145{mask:url(#SVGID_355_);}
	.st146{fill:url(#SVGID_357_);stroke:#000000;stroke-width:0.415;stroke-linecap:round;stroke-linejoin:round;}
	.st147{fill:url(#SVGID_358_);stroke:#000000;stroke-width:0.415;stroke-linecap:round;stroke-linejoin:round;}
	.st148{fill:url(#SVGID_361_);stroke:#000000;stroke-width:0.415;stroke-linecap:round;stroke-linejoin:round;}
	.st149{fill:url(#SVGID_362_);stroke:#000000;stroke-width:0.415;stroke-linecap:round;stroke-linejoin:round;}
	.st150{fill:url(#SVGID_365_);stroke:#000000;stroke-width:0.415;stroke-linecap:round;stroke-linejoin:round;}
	.st151{filter:url(#Adobe_OpacityMaskFilter_2_);}
	.st152{fill:url(#SVGID_367_);}
	.st153{mask:url(#SVGID_366_);}
	.st154{fill:url(#SVGID_368_);stroke:#000000;stroke-width:0.415;stroke-linecap:round;stroke-linejoin:round;}
</style>
<path class="st0" d="M9.3,4.5c0,0-4.8,0-4.8,4.8v38c0,0,0,4.8,4.8,4.8h38c0,0,4.8,0,4.8-4.8v-38c0,0,0-4.8-4.8-4.8H9.3z"/>
<g>
	<defs>
		<path id="SVGID_1_" d="M9.3,4.5c0,0-4.8,0-4.8,4.8v38c0,0,0,4.8,4.8,4.8h38c0,0,4.8,0,4.8-4.8v-38c0,0,0-4.8-4.8-4.8H9.3z"/>
	</defs>
	<clipPath id="SVGID_2_">
		<use xlink:href="#SVGID_1_"  style="overflow:visible;"/>
	</clipPath>
	<g class="st2">
		<g>
			<g>
				<g>
					<g>
						<linearGradient id="SVGID_3_" gradientUnits="userSpaceOnUse" x1="-16.7083" y1="4.5163" x2="17.1398" y2="4.5163">
							<stop  offset="0" style="stop-color:#FFFFFF"/>
							<stop  offset="1" style="stop-color:#D5D5D6"/>
						</linearGradient>
						<polygon class="st3" points="-6.7,-14.5 20.5,-0.3 8,23.6 -20,8.6 						"/>
					</g>
					<g>
						<defs>
							<path id="SVGID_4_" d="M9.9,9.2c-3.6,6.5-4.6,12.9-2.2,14.2c2.4,1.3,7.2-2.9,10.8-9.5c3.6-6.5,4.6-12.9,2.2-14.2
								c-0.3-0.2-0.6-0.2-1-0.2C17.1-0.5,13,3.5,9.9,9.2"/>
						</defs>
						<clipPath id="SVGID_5_">
							<use xlink:href="#SVGID_4_"  style="overflow:visible;"/>
						</clipPath>
					</g>
					<g>
						<linearGradient id="SVGID_6_" gradientUnits="userSpaceOnUse" x1="6.4078" y1="11.6165" x2="22.0077" y2="11.6165">
							<stop  offset="0" style="stop-color:#FFFFFF"/>
							<stop  offset="0.3742" style="stop-color:#D5D5D6"/>
							<stop  offset="1" style="stop-color:#EBECEC"/>
						</linearGradient>
						<path class="st4" d="M7.7,23.4c2.4,1.3,7.2-2.9,10.8-9.5c3.6-6.5,4.6-12.9,2.2-14.2c-2.4-1.3-7.2,2.9-10.8,9.5
							C6.3,15.8,5.3,22.1,7.7,23.4z"/>
						<linearGradient id="SVGID_7_" gradientUnits="userSpaceOnUse" x1="13.7106" y1="25.1837" x2="25.8282" y2="4.1954">
							<stop  offset="0" style="stop-color:#FFFFFF"/>
							<stop  offset="0.3742" style="stop-color:#D5D5D6"/>
							<stop  offset="1" style="stop-color:#EBECEC"/>
						</linearGradient>
						<path class="st5" d="M22,2c-2.1-1.2-6.5,2.6-9.7,8.5C9,16.3,8.2,22,10.3,23.2l11,1.2c1.4,0.7,4.1-1.8,6-5.7
							c1.9-3.8,2.3-7.5,0.9-8.2L22,2z"/>
						<linearGradient id="SVGID_8_" gradientUnits="userSpaceOnUse" x1="31.2162" y1="29.8159" x2="38.513" y2="16.0928">
							<stop  offset="3.067480e-02" style="stop-color:#CAE9FA"/>
							<stop  offset="0.3313" style="stop-color:#00A1E9"/>
							<stop  offset="0.9877" style="stop-color:#85D0F4"/>
						</linearGradient>
						<path class="st6" d="M40.9,34.9C40.9,34.9,41,34.9,40.9,34.9c1.4,0.8,4.1-1.6,6.1-5.3c2-3.7,2.6-7.2,1.2-7.9
							c0,0-19.4-10.7-19.6-10.8c-1.4-0.7-4.1,1.8-6,5.6c-1.9,3.8-2.3,7.5-0.9,8.2C21.8,24.7,40.6,34.9,40.9,34.9"/>
						<path class="st7" d="M40.9,34.9C40.9,34.9,41,34.9,40.9,34.9c1.4,0.8,4.1-1.6,6.1-5.3c2-3.7,2.6-7.2,1.2-7.9
							c0,0-19.4-10.7-19.6-10.8c-1.4-0.7-4.1,1.8-6,5.6c-1.9,3.8-2.3,7.5-0.9,8.2C21.8,24.7,40.6,34.9,40.9,34.9z"/>
					</g>
					<g>
						<defs>
							<path id="SVGID_9_" d="M42.7,27.4c-1.8,3.7-2.3,7.2-1,7.8c1.3,0.6,3.8-1.9,5.6-5.6c1.8-3.7,2.3-7.2,1-7.8
								c-0.1-0.1-0.3-0.1-0.4-0.1C46.5,21.7,44.3,24.1,42.7,27.4"/>
						</defs>
						<clipPath id="SVGID_10_">
							<use xlink:href="#SVGID_9_"  style="overflow:visible;"/>
						</clipPath>
					</g>
					<g>
						<linearGradient id="SVGID_11_" gradientUnits="userSpaceOnUse" x1="40.9288" y1="28.507" x2="48.9982" y2="28.507">
							<stop  offset="0" style="stop-color:#FFFFFF"/>
							<stop  offset="1" style="stop-color:#D5D5D6"/>
						</linearGradient>
						<path class="st8" d="M41.6,35.2c1.3,0.6,3.8-1.9,5.6-5.6c1.8-3.7,2.3-7.2,1-7.8c-1.3-0.6-3.8,1.9-5.6,5.6
							C40.8,31.1,40.4,34.6,41.6,35.2z"/>
					</g>
					<g>
						<defs>
							<path id="SVGID_12_" d="M22.6,33.3l-10,2.4l-1.9,1.4l13.8,5.1l3.4-10.3c0,0-0.7-0.8-0.7-1.5l-0.3-0.2L22.6,33.3z"/>
						</defs>
						<clipPath id="SVGID_13_">
							<use xlink:href="#SVGID_12_"  style="overflow:visible;"/>
						</clipPath>
						
							<linearGradient id="SVGID_14_" gradientUnits="userSpaceOnUse" x1="179.3907" y1="96.5214" x2="180.3906" y2="96.5214" gradientTransform="matrix(16.8604 1.179 1.179 -16.8604 -3127.7275 1451.5132)">
							<stop  offset="0" style="stop-color:#FFFFFF"/>
							<stop  offset="1" style="stop-color:#B5B4AA"/>
						</linearGradient>
						<polygon class="st9" points="10.7,29.1 28.7,30.3 27.7,43.4 9.8,42.1 						"/>
					</g>
					<g>
						<path class="st10" d="M27.8,31.9c0,0-0.7-0.8-0.7-1.4l-0.3-0.2l-4.3,3l-10,2.4l-1.9,1.4l13.8,5.1L27.8,31.9z"/>
					</g>
					<g>
						<defs>
							<polygon id="SVGID_15_" points="29,28.1 30.4,37.4 29.4,42.2 29.9,45.6 27.7,56.9 25.2,48.1 25.4,47.2 24.5,42.2 							"/>
						</defs>
						<clipPath id="SVGID_16_">
							<use xlink:href="#SVGID_15_"  style="overflow:visible;"/>
						</clipPath>
					</g>
					<linearGradient id="SVGID_17_" gradientUnits="userSpaceOnUse" x1="24.4565" y1="42.532" x2="30.3696" y2="42.532">
						<stop  offset="0" style="stop-color:#B5B4AA"/>
						<stop  offset="1" style="stop-color:#FFFFFF"/>
					</linearGradient>
					<polygon class="st11" points="29,28.1 30.4,37.4 29.4,42.2 29.9,45.6 27.8,56.9 25.2,48.1 25.4,47.3 24.5,42.2 					"/>
					<g>
						<defs>
							<polygon id="SVGID_18_" points="10.6,37.1 13.3,42.2 25.4,47.3 24.5,42.2 							"/>
						</defs>
						<clipPath id="SVGID_19_">
							<use xlink:href="#SVGID_18_"  style="overflow:visible;"/>
						</clipPath>
					</g>
					<linearGradient id="SVGID_20_" gradientUnits="userSpaceOnUse" x1="10.6323" y1="42.1641" x2="25.3833" y2="42.1641">
						<stop  offset="0" style="stop-color:#FFFFFF"/>
						<stop  offset="1" style="stop-color:#B5B4AA"/>
					</linearGradient>
					<polygon class="st12" points="10.6,37.1 13.3,42.2 25.4,47.3 24.5,42.2 					"/>
					<g>
						<defs>
							<polygon id="SVGID_21_" points="13.3,42.2 -9.5,62.4 -1.3,71.6 25.2,48.1 25.4,47.2 							"/>
						</defs>
						<clipPath id="SVGID_22_">
							<use xlink:href="#SVGID_21_"  style="overflow:visible;"/>
						</clipPath>
						
							<linearGradient id="SVGID_23_" gradientUnits="userSpaceOnUse" x1="185.6955" y1="96.5595" x2="186.6952" y2="96.5595" gradientTransform="matrix(33.7051 2.3569 2.3569 -33.7051 -6495.5503 2872.6206)">
							<stop  offset="0" style="stop-color:#FFFFFF"/>
							<stop  offset="1" style="stop-color:#B5B4AA"/>
						</linearGradient>
						<polygon class="st13" points="-9.3,39.8 27.4,42.4 25.2,74.1 -11.5,71.5 						"/>
					</g>
					<polygon class="st10" points="13.3,42.2 -9.5,62.4 -1.3,71.6 25.2,48.1 25.4,47.2 					"/>
					<g>
						<defs>
							<polygon id="SVGID_24_" points="25.2,48.1 27.8,56.9 4.2,77.9 -1.4,71.6 							"/>
						</defs>
						<clipPath id="SVGID_25_">
							<use xlink:href="#SVGID_24_"  style="overflow:visible;"/>
						</clipPath>
						
							<linearGradient id="SVGID_26_" gradientUnits="userSpaceOnUse" x1="184.4203" y1="96.6764" x2="185.4205" y2="96.6764" gradientTransform="matrix(28.0845 1.9639 1.9639 -28.0845 -5370.0107 2414.9438)">
							<stop  offset="0" style="stop-color:#FFFFFF"/>
							<stop  offset="1" style="stop-color:#B5B4AA"/>
						</linearGradient>
						<polygon class="st14" points="-1.2,46.1 29.8,48.3 27.6,79.9 -3.5,77.7 						"/>
					</g>
					<g>
						<polygon class="st10" points="25.2,48.1 27.8,56.9 4.2,77.9 -1.4,71.6 						"/>
					</g>
					<g>
						<defs>
							<path id="SVGID_27_" d="M27.9,26l-1.2,4.2l0.4,0.3c0,0.8,0.8,1.5,0.8,1.5l1.7-5.1l-0.4-2.3L27.9,26z"/>
						</defs>
						<clipPath id="SVGID_28_">
							<use xlink:href="#SVGID_27_"  style="overflow:visible;"/>
						</clipPath>
					</g>
					<g>
						<linearGradient id="SVGID_29_" gradientUnits="userSpaceOnUse" x1="26.6753" y1="28.2446" x2="29.5581" y2="28.2446">
							<stop  offset="0" style="stop-color:#DCCD00"/>
							<stop  offset="1" style="stop-color:#FFFFFF"/>
						</linearGradient>
						<path class="st15" d="M29.2,24.5l0.4,2.3l-1.7,5.1c0,0-0.8-0.6-0.8-1.5l-0.4-0.3l1.2-4.2L29.2,24.5z"/>
					</g>
					<g>
						<defs>
							<path id="SVGID_30_" d="M28.4,24.6L23,28.4l1.7,3.3l2.9-2l1.6-5.2c0-0.2-0.1-0.2-0.2-0.2C28.7,24.3,28.4,24.6,28.4,24.6"/>
						</defs>
						<clipPath id="SVGID_31_">
							<use xlink:href="#SVGID_30_"  style="overflow:visible;"/>
						</clipPath>
					</g>
					<g>
						<radialGradient id="SVGID_32_" cx="26.0938" cy="28.0299" r="3.4091" gradientUnits="userSpaceOnUse">
							<stop  offset="0" style="stop-color:#FFDC00"/>
							<stop  offset="1" style="stop-color:#F7F2C2"/>
						</radialGradient>
						<path class="st16" d="M23,28.4l5.4-3.9c0,0,0.7-0.5,0.8,0l-1.6,5.2l-2.9,2L23,28.4z"/>
						<path class="st17" d="M24.7,28.1l3.3-2.5c0,0,0.2-0.1,0.2,0.1l-1.2,3.9l-1.3,0.7"/>
					</g>
					<g>
						<defs>
							<path id="SVGID_33_" d="M23.1,27.5c-1.2,0.2-3.9,0.4-7.2,3l-1.4,1.2l-1.6,1.2c0,0-0.6,0.5-0.8,1.7l-0.2,2.1
								c0,0-0.1,0.6,0.5,1.5c0.6,0.9,1.1,1.3,1.1,1.3l0.6,0.2l0.4,1.8l1.3,0.4l-0.3-1.7l0.6,0.2c0,0,0.7-0.4,1-0.8
								c0.3-0.5,0.5-0.8,0.7-1.2c0,0,0.6-0.2,1.2-0.6c0.5-0.4,4-3.4,4-3.4s1.1-1.4,1.6-2.2c0.5-0.7,1.1-1.7,1.1-1.7s0.1-0.1,0.3,0
								c0,0,0.3-0.4,0.3-0.8c0-0.4,0-0.9-0.2-1.1l-0.8-0.7c0,0-0.7-0.4-1.7-0.4C23.5,27.4,23.3,27.4,23.1,27.5"/>
						</defs>
						<clipPath id="SVGID_34_">
							<use xlink:href="#SVGID_33_"  style="overflow:visible;"/>
						</clipPath>
					</g>
					<g>
						<linearGradient id="SVGID_35_" gradientUnits="userSpaceOnUse" x1="11.9138" y1="34.6573" x2="26.2788" y2="34.6573">
							<stop  offset="0" style="stop-color:#DCDDDD"/>
							<stop  offset="1" style="stop-color:#FFFFFF"/>
						</linearGradient>
						<path class="st18" d="M26.1,28.5l-0.8-0.7c0,0-1-0.6-2.2-0.4c-1.2,0.2-3.9,0.4-7.2,3l-1.4,1.2l-1.6,1.2c0,0-0.6,0.5-0.8,1.7
							l-0.2,2.1c0,0-0.1,0.6,0.5,1.5c0.6,0.9,1.1,1.3,1.1,1.3l0.7,0.3l0.7,1.8l1.3,0.4l-0.6-1.8l0.6,0.2c0,0,0.7-0.4,1-0.8
							c0.3-0.5,0.5-0.8,0.7-1.2c0,0,0.6-0.2,1.2-0.6c0.5-0.4,4-3.4,4-3.4s1.1-1.4,1.6-2.2c0.5-0.7,1.1-1.7,1.1-1.7s0.1-0.1,0.3,0
							c0,0,0.3-0.4,0.3-0.8C26.3,29.1,26.3,28.7,26.1,28.5z"/>
						<path class="st10" d="M16.3,30.5c0,0,1-1.2,2.8-0.6c1.8,0.5,0.4,2.5,0.2,2.7c-0.2,0.2-0.9,0.7-0.9,0.7s-0.4,0.4-1.9,0.3
							c0,0-0.7,0-1.1,0.1c-0.3,0.1-1.3-0.1-1.6-0.5c-0.3-0.4-0.3-0.6-0.1-0.8C14.1,32.1,16.3,30.5,16.3,30.5z"/>
					</g>
					<g>
						<defs>
							<path id="SVGID_36_" d="M16.6,30.2c-1.3,0.3-2.3,1.2-2.1,2c0.2,0.7,0.3,1.5,0.3,1.5c0.3,0.1,0.6,0.1,0.7,0
								c0.3-0.1,1.1-0.1,1.1-0.1c1.5,0.1,1.9-0.3,1.9-0.3s0.7-0.5,0.9-0.7c0,0,0.2-0.2,0.3-0.4c0,0-0.1-0.3-0.3-1.1
								c-0.1-0.5-0.8-0.9-1.7-0.9C17.3,30.1,17,30.1,16.6,30.2"/>
						</defs>
						<clipPath id="SVGID_37_">
							<use xlink:href="#SVGID_36_"  style="overflow:visible;"/>
						</clipPath>
						
							<linearGradient id="SVGID_38_" gradientUnits="userSpaceOnUse" x1="152.4956" y1="96.9011" x2="153.4958" y2="96.9011" gradientTransform="matrix(5.3705 0.3755 0.3755 -5.3705 -840.9755 494.8677)">
							<stop  offset="0" style="stop-color:#B5B6B6"/>
							<stop  offset="1" style="stop-color:#68666C"/>
						</linearGradient>
						<polygon class="st19" points="14.3,29.7 19.9,30.1 19.6,34.1 14.1,33.7 						"/>
					</g>
					<g>
						<path class="st10" d="M19.7,32.1c-0.1,0.2-0.3,0.4-0.3,0.4c-0.2,0.2-0.9,0.7-0.9,0.7s-0.4,0.4-1.9,0.3c0,0-0.7,0-1.1,0.1
							c-0.1,0.1-0.4,0.1-0.7,0c0,0-0.1-0.7-0.3-1.5c-0.2-0.7,0.8-1.6,2.1-2c1.3-0.3,2.6,0,2.8,0.7C19.5,31.7,19.7,32.1,19.7,32.1z"
							/>
						<path class="st17" d="M13,35.7c0.3,0.1,2.2,0.8,2.2,0.8s0.2,0.1,0.4,0.5c0.2,0.3,1.3,2.5,1.3,2.5"/>
						<path class="st10" d="M17.8,38.2L16.1,35c0,0-0.3-0.5-0.7-0.6c-0.4-0.2-2.2-0.7-2.2-0.7s-0.8,0-1,0.4"/>
						<path class="st17" d="M17.1,32.3c1-0.3,1.8-0.9,1.6-1.5c-0.1-0.6-1.1-0.8-2.1-0.6c-1,0.3-1.8,0.9-1.6,1.5
							C15.1,32.3,16.1,32.5,17.1,32.3z"/>
					</g>
				</g>
			</g>
		</g>
	</g>
</g>
<g>
	<path class="st1" d="M9.3,4.5c0,0-4.8,0-4.8,4.8v38c0,0,0,4.8,4.8,4.8h38c0,0,4.8,0,4.8-4.8v-38c0,0,0-4.8-4.8-4.8H9.3z"/>
</g>
</svg>
