<svg id="레이어_1" data-name="레이어 1" xmlns="http://www.w3.org/2000/svg" xmlns:xlink="http://www.w3.org/1999/xlink" viewBox="0 0 56.69 56.69"><defs><style>.cls-1,.cls-10,.cls-19,.cls-23,.cls-7{fill:none;}.cls-2{clip-path:url(#clip-path);}.cls-10,.cls-11,.cls-12,.cls-17,.cls-18,.cls-19,.cls-20,.cls-25,.cls-3,.cls-4,.cls-5,.cls-6,.cls-7{stroke:#231916;stroke-linecap:round;stroke-linejoin:round;}.cls-25,.cls-3,.cls-4,.cls-7{stroke-width:0.15px;}.cls-3{fill:url(#linear-gradient);}.cls-4{fill:url(#linear-gradient-2);}.cls-5,.cls-6{stroke-width:0.5px;}.cls-5{fill:url(#linear-gradient-3);}.cls-6{fill:url(#linear-gradient-4);}.cls-8{clip-path:url(#clip-path-2);}.cls-9{fill:url(#linear-gradient-5);}.cls-10,.cls-11,.cls-12,.cls-17,.cls-18,.cls-20{stroke-width:0.3px;}.cls-11{fill:url(#linear-gradient-6);}.cls-12{fill:url(#linear-gradient-7);}.cls-13{clip-path:url(#clip-path-3);}.cls-14{fill:url(#linear-gradient-8);}.cls-15{clip-path:url(#clip-path-4);}.cls-16{fill:url(#linear-gradient-9);}.cls-17{fill:url(#linear-gradient-10);}.cls-18{fill:url(#radial-gradient);}.cls-19{stroke-width:0.17px;}.cls-20{fill:url(#linear-gradient-11);}.cls-21{clip-path:url(#clip-path-5);}.cls-22{fill:url(#linear-gradient-12);}.cls-23{stroke:#9fa0a0;stroke-width:0.85px;}.cls-24{clip-path:url(#clip-path-6);}.cls-25{fill:url(#linear-gradient-13);}</style><clipPath id="clip-path"><path class="cls-1" d="M9.35,4.47s-4.81,0-4.81,4.8v38s0,4.81,4.81,4.81h38s4.81,0,4.81-4.81v-38s0-4.8-4.81-4.8Z"/></clipPath><linearGradient id="linear-gradient" x1="-0.67" y1="20.97" x2="13.53" y2="-5.72" gradientUnits="userSpaceOnUse"><stop offset="0" stop-color="#fff"/><stop offset="0.37" stop-color="#e6e6e6"/><stop offset="1" stop-color="#f2f2f3"/></linearGradient><linearGradient id="linear-gradient-2" x1="13.97" y1="16.06" x2="30.4" y2="16.06" gradientUnits="userSpaceOnUse"><stop offset="0" stop-color="#fff"/><stop offset="1" stop-color="#dcdddd"/></linearGradient><linearGradient id="linear-gradient-3" x1="29.21" y1="28.13" x2="36.27" y2="14.84" gradientUnits="userSpaceOnUse"><stop offset="0" stop-color="#a5d8f5"/><stop offset="0.31" stop-color="#0067b6"/><stop offset="0.77" stop-color="#95d5f6"/><stop offset="1" stop-color="#008cd6"/></linearGradient><linearGradient id="linear-gradient-4" x1="38.63" y1="26.87" x2="46.43" y2="26.87" xlink:href="#linear-gradient-2"/><clipPath id="clip-path-2"><path class="cls-1" d="M24,37.81,12.89,40.53l-2.15,1.55L26.1,47.72l3.75-11.44a2.74,2.74,0,0,1-.76-1.61l-.36-.18Z"/></clipPath><linearGradient id="linear-gradient-5" x1="179.42" y1="96.24" x2="180.53" y2="96.24" gradientTransform="matrix(0, 16.9, 16.9, 0, -1606, -3001.01)" gradientUnits="userSpaceOnUse"><stop offset="0" stop-color="#fff"/><stop offset="0.86" stop-color="#b4aa9a"/></linearGradient><linearGradient id="linear-gradient-6" x1="26.11" y1="48.12" x2="32.68" y2="48.12" gradientUnits="userSpaceOnUse"><stop offset="0.25" stop-color="#b4aa9a"/><stop offset="1" stop-color="#fff"/></linearGradient><linearGradient id="linear-gradient-7" x1="10.74" y1="47.71" x2="27.14" y2="47.71" gradientUnits="userSpaceOnUse"><stop offset="0" stop-color="#fff"/><stop offset="1" stop-color="#b4aa9a"/></linearGradient><clipPath id="clip-path-3"><polygon class="cls-1" points="13.76 47.78 -11.6 70.16 -2.57 80.46 26.96 54.3 27.1 53.35 13.76 47.78"/></clipPath><linearGradient id="linear-gradient-8" x1="185.65" y1="96.35" x2="186.76" y2="96.35" gradientTransform="matrix(0, 33.79, 33.79, 0, -3247.4, -6227.5)" gradientUnits="userSpaceOnUse"><stop offset="0" stop-color="#b4aa9a"/><stop offset="0.58" stop-color="#efeee8"/><stop offset="1" stop-color="#b4aa9a"/></linearGradient><clipPath id="clip-path-4"><polygon class="cls-1" points="26.94 54.32 29.78 64.1 3.63 87.42 -2.62 80.46 26.94 54.32"/></clipPath><linearGradient id="linear-gradient-9" x1="184.4" y1="96.4" x2="185.51" y2="96.4" gradientTransform="matrix(0, 28.15, 28.15, 0, -2700.03, -5136.25)" xlink:href="#linear-gradient-7"/><linearGradient id="linear-gradient-10" x1="28.57" y1="32.24" x2="31.78" y2="32.24" gradientUnits="userSpaceOnUse"><stop offset="0" stop-color="#ffde00"/><stop offset="1" stop-color="#ffe156"/></linearGradient><radialGradient id="radial-gradient" cx="27.93" cy="32" r="3.79" gradientUnits="userSpaceOnUse"><stop offset="0" stop-color="#fbc200"/><stop offset="1" stop-color="#f7dd3d"/></radialGradient><linearGradient id="linear-gradient-11" x1="12.16" y1="39.36" x2="28.13" y2="39.36" gradientUnits="userSpaceOnUse"><stop offset="0" stop-color="#dcdddd"/><stop offset="1" stop-color="#fff"/></linearGradient><clipPath id="clip-path-5"><path class="cls-1" d="M17.37,34.44c-1.5.37-2.54,1.35-2.33,2.17s.33,1.62.33,1.62a1.33,1.33,0,0,0,.77,0,4.07,4.07,0,0,1,1.18-.16c1.7.12,2.14-.35,2.14-.35s.79-.6,1-.77a2.51,2.51,0,0,0,.34-.49s-.12-.38-.33-1.21c-.15-.61-.93-1-1.93-1a4.64,4.64,0,0,0-1.14.15"/></clipPath><linearGradient id="linear-gradient-12" x1="152.65" y1="96.1" x2="153.76" y2="96.1" gradientTransform="matrix(0, 5.38, 5.38, 0, -499.35, -788.52)" gradientUnits="userSpaceOnUse"><stop offset="0" stop-color="#b5b6b6"/><stop offset="1" stop-color="#68666c"/></linearGradient><clipPath id="clip-path-6"><path class="cls-1" d="M9.35,81.23s-4.81,0-4.81,4.81v38s0,4.81,4.81,4.81h38s4.81,0,4.81-4.81V86s0-4.81-4.81-4.81Z"/></clipPath><linearGradient id="linear-gradient-13" x1="93.96" y1="-48.93" x2="105.22" y2="-70.09" gradientTransform="translate(23.76 -45.99) rotate(108.49)" xlink:href="#linear-gradient"/></defs><title>대지 1</title><g class="cls-2"><polygon class="cls-3" points="-1.45 -13.34 29.1 2.56 15.08 29.35 -16.41 12.59 -1.45 -13.34"/><path class="cls-4" d="M15.48,29.58c2.62,1.3,7.74-3.7,11.44-11.17s4.59-14.57,2-15.87-7.74,3.7-11.45,11.17S12.86,28.28,15.48,29.58Z"/><path class="cls-5" d="M38.62,33l0,0c1.29.71,3.9-1.59,5.85-5.13s2.47-7,1.18-7.68c0,0-18.77-10.39-19-10.49-1.38-.68-4,1.76-5.82,5.47s-2.21,7.26-.83,7.94C20.06,23.17,38.32,33.09,38.62,33Z"/><path class="cls-6" d="M39.31,33.35C40.53,34,43,31.54,44.74,28s2.22-7,1-7.57-3.65,1.8-5.42,5.38S38.09,32.74,39.31,33.35Z"/><path class="cls-7" d="M22.72-.71C20.11-2,15,3,11.28,10.46S6.7,25,9.32,26.33"/><g class="cls-8"><rect class="cls-9" x="13.03" y="31.11" width="14.53" height="19.99" transform="translate(-22.13 58.49) rotate(-86.01)"/></g><path class="cls-10" d="M29.85,36.28a2.74,2.74,0,0,1-.76-1.61l-.36-.18L24,37.81l-11.1,2.72-2.15,1.55L26.1,47.72Z"/><polygon class="cls-11" points="31.21 32.13 32.68 42.42 31.58 47.78 32.19 51.53 29.77 64.11 26.94 54.31 27.14 53.37 26.11 47.71 31.21 32.13"/><polygon class="cls-12" points="10.74 42.05 13.75 47.77 27.14 53.37 26.12 47.73 10.74 42.05"/><g class="cls-13"><rect class="cls-14" x="-9.9" y="43.68" width="35.3" height="40.89" transform="translate(-56.76 67.38) rotate(-86)"/></g><polygon class="cls-10" points="13.76 47.78 -11.6 70.16 -2.57 80.46 26.96 54.3 27.1 53.35 13.76 47.78"/><g class="cls-15"><rect class="cls-16" x="-4.06" y="53.56" width="35.28" height="34.62" transform="translate(-58.06 79.47) rotate(-86)"/></g><polygon class="cls-10" points="26.94 54.32 29.77 64.1 3.63 87.42 -2.62 80.46 26.94 54.32"/><path class="cls-17" d="M31.36,28.12l.42,2.57-1.89,5.66A2.49,2.49,0,0,1,29,34.73l-.47-.31,1.34-4.69Z"/><path class="cls-18" d="M24.49,32.45l6-4.3s.78-.58.9,0l-1.75,5.76-3.23,2.23Z"/><path class="cls-19" d="M26.36,32l3.69-2.78s.22-.1.18.1l-1.38,4.3-1.44.75"/><path class="cls-20" d="M27.94,32.53l-.89-.77a4.13,4.13,0,0,0-2.43-.41,14.66,14.66,0,0,0-8,3.34L15.09,36l-1.78,1.36a3,3,0,0,0-.89,1.88l-.25,2.3a2.68,2.68,0,0,0,.6,1.64A6.87,6.87,0,0,0,14,44.57l.74.37.74,2,1.39.49-.64-2,.67.19A3.42,3.42,0,0,0,18,44.74a7.22,7.22,0,0,0,.74-1.38A3.52,3.52,0,0,0,20,42.69c.59-.49,4.44-3.8,4.44-3.8s1.26-1.58,1.78-2.4,1.2-1.85,1.2-1.85a.25.25,0,0,1,.34,0,1.87,1.87,0,0,0,.36-.92A1.81,1.81,0,0,0,27.94,32.53Z"/><path class="cls-10" d="M17,34.72A3,3,0,0,1,20.19,34c2,.6.42,2.78.24,3s-1,.77-1,.77-.44.47-2.14.35a4.07,4.07,0,0,0-1.18.16,1.89,1.89,0,0,1-1.74-.55c-.29-.46-.38-.67-.1-.93S17,34.72,17,34.72Z"/><g class="cls-21"><rect class="cls-22" x="15.59" y="33.2" width="4.42" height="6.21" transform="translate(-19.65 51.54) rotate(-86.01)"/></g><path class="cls-10" d="M20.77,36.47a2.51,2.51,0,0,1-.34.49c-.18.17-1,.77-1,.77s-.44.47-2.14.35a4.07,4.07,0,0,0-1.18.16,1.33,1.33,0,0,1-.77,0s-.13-.79-.33-1.62.83-1.8,2.33-2.17,2.87,0,3.07.82S20.77,36.47,20.77,36.47Z"/><path class="cls-10" d="M13.42,40.54l2.47.9a1.36,1.36,0,0,1,.4.54c.18.39,1.44,2.83,1.44,2.83"/><path class="cls-10" d="M18.67,43.31,16.84,39.8a2.22,2.22,0,0,0-.81-.69c-.45-.18-2.4-.78-2.4-.78s-.91,0-1.13.48"/><path class="cls-10" d="M17.94,36.73c1.16-.29,2-1,1.81-1.67s-1.22-.91-2.38-.62-2,1-1.82,1.67S16.78,37,17.94,36.73Z"/></g><path class="cls-23" d="M9.35,4.47s-4.81,0-4.81,4.8v38s0,4.81,4.81,4.81h38s4.81,0,4.81-4.81v-38s0-4.8-4.81-4.8Z"/><g class="cls-24"><polygon class="cls-25" points="66.36 66.69 46.41 85.95 29.98 68.5 50.83 48.74 66.36 66.69"/></g></svg>