<svg id="레이어_1" data-name="레이어 1" xmlns="http://www.w3.org/2000/svg" xmlns:xlink="http://www.w3.org/1999/xlink" viewBox="0 0 56.69 56.69"><defs><style>.cls-1,.cls-10,.cls-23,.cls-7{fill:none;}.cls-2{clip-path:url(#clip-path);}.cls-10,.cls-11,.cls-12,.cls-15,.cls-18,.cls-20,.cls-3,.cls-4,.cls-5,.cls-6,.cls-7{stroke:#231916;}.cls-3,.cls-4,.cls-5,.cls-6,.cls-7{stroke-linecap:round;stroke-linejoin:round;}.cls-3,.cls-4{stroke-width:0.15px;}.cls-3{fill:url(#linear-gradient);}.cls-4{fill:url(#linear-gradient-2);}.cls-5,.cls-6{stroke-width:0.5px;}.cls-5{fill:url(#linear-gradient-3);}.cls-6{fill:url(#linear-gradient-4);}.cls-10,.cls-11,.cls-12,.cls-15,.cls-18,.cls-20,.cls-7{stroke-width:0.3px;}.cls-8{clip-path:url(#clip-path-2);}.cls-9{fill:url(#linear-gradient-5);}.cls-11{fill:url(#radial-gradient);}.cls-12{fill:url(#linear-gradient-6);}.cls-13{clip-path:url(#clip-path-3);}.cls-14{fill:url(#linear-gradient-7);}.cls-15{fill:url(#linear-gradient-8);}.cls-16{clip-path:url(#clip-path-4);}.cls-17{fill:url(#linear-gradient-9);}.cls-18{fill:url(#linear-gradient-10);}.cls-19{clip-path:url(#clip-path-5);}.cls-20{fill:url(#linear-gradient-11);}.cls-21{clip-path:url(#clip-path-6);}.cls-22{fill:url(#linear-gradient-12);}.cls-23{stroke:#9fa0a0;stroke-width:0.85px;}.cls-24{clip-path:url(#clip-path-7);}</style><clipPath id="clip-path"><path class="cls-1" d="M9.35,4.5s-4.81,0-4.81,4.81v38s0,4.81,4.81,4.81h38s4.81,0,4.81-4.81v-38s0-4.81-4.81-4.81Z"/></clipPath><linearGradient id="linear-gradient" x1="16.08" y1="52.25" x2="78.5" y2="52.25" gradientUnits="userSpaceOnUse"><stop offset="0" stop-color="#fff"/><stop offset="0.37" stop-color="#e6e6e6"/><stop offset="1" stop-color="#f2f2f3"/></linearGradient><linearGradient id="linear-gradient-2" x1="34.72" y1="28.79" x2="106.76" y2="28.79" xlink:href="#linear-gradient"/><linearGradient id="linear-gradient-3" x1="34.66" y1="34.36" x2="97.39" y2="34.36" gradientUnits="userSpaceOnUse"><stop offset="0" stop-color="#a5d8f5"/><stop offset="0.31" stop-color="#0067b6"/><stop offset="0.77" stop-color="#95d5f6"/><stop offset="1" stop-color="#008cd6"/></linearGradient><linearGradient id="linear-gradient-4" x1="16.08" y1="41.64" x2="97.28" y2="41.64" xlink:href="#linear-gradient-3"/><clipPath id="clip-path-2"><path class="cls-1" d="M-3.47,4.77V9.5a5.81,5.81,0,0,0,.56,1.25,3.48,3.48,0,0,1,.6,3,3.55,3.55,0,0,1-2.16,2.3,4.56,4.56,0,0,0-2.4,3.86v7s-.4,2.5,1.35,3.71a13,13,0,0,0,5.66,3,30.07,30.07,0,0,0,4.21.5,8.15,8.15,0,0,0,2.45-.4c1.06-.4,3-1.1,3-1.1a2.17,2.17,0,0,1,2.51.8c1.1,1.4,1.1.85,1.1.85a1.82,1.82,0,0,0,2,1c1.4-.31,5.51-.56,5.91-1.06a5.4,5.4,0,0,0,.85-2.3c0-.5,1.46-.05,1.46-.05l5.7-1.2c1.75-1.21,1.35-3.71,1.35-3.71v-7a4.56,4.56,0,0,0-2.4-3.86,3.55,3.55,0,0,1-2.16-2.3,3.48,3.48,0,0,1,.6-3,5.81,5.81,0,0,0,.56-1.25V4.77c0-3.6-6.88-6.52-15.38-6.52S-3.47,1.17-3.47,4.77"/></clipPath><linearGradient id="linear-gradient-5" x1="112.08" y1="97.19" x2="113.08" y2="97.19" gradientTransform="matrix(37.88, 0, 0, -37.88, -4252.15, 3697.92)" gradientUnits="userSpaceOnUse"><stop offset="0" stop-color="#b5b3a0"/><stop offset="0" stop-color="#b4aa9a"/><stop offset="0.49" stop-color="#c5bbaa"/><stop offset="0.8" stop-color="#fff5e0"/><stop offset="1" stop-color="#b4aa9a"/></linearGradient><radialGradient id="radial-gradient" cx="24.39" cy="21.88" r="1.8" gradientUnits="userSpaceOnUse"><stop offset="0" stop-color="#fff"/><stop offset="1" stop-color="#747268"/></radialGradient><linearGradient id="linear-gradient-6" x1="23.19" y1="27.48" x2="30.23" y2="27.48" gradientUnits="userSpaceOnUse"><stop offset="0" stop-color="#ffea9b"/><stop offset="1" stop-color="#fdd000"/></linearGradient><clipPath id="clip-path-3"><path class="cls-1" d="M25.14,27.51a1.61,1.61,0,1,0,1.6-1.7,1.66,1.66,0,0,0-1.6,1.7"/></clipPath><linearGradient id="linear-gradient-7" x1="78.55" y1="104.37" x2="79.56" y2="104.37" gradientTransform="matrix(3.33, 0, 0, -3.33, -236.74, 375.38)" gradientUnits="userSpaceOnUse"><stop offset="0" stop-color="#fff"/><stop offset="1" stop-color="#626063"/></linearGradient><linearGradient id="linear-gradient-8" x1="10.78" y1="30.79" x2="16.63" y2="30.79" gradientUnits="userSpaceOnUse"><stop offset="0" stop-color="#fff"/><stop offset="0.37" stop-color="#ffe65e"/><stop offset="1" stop-color="#ffdc00"/></linearGradient><clipPath id="clip-path-4"><path class="cls-1" d="M1.7,24.94a2.37,2.37,0,0,0-.77,2.81,5.18,5.18,0,0,0,1.69,2.17L4.1,30s3-.26,3.25-2.07-2.07-3.14-3.89-3.45a3.36,3.36,0,0,0-1.76.49"/></clipPath><linearGradient id="linear-gradient-9" x1="78.58" y1="103.71" x2="80.67" y2="103.71" gradientTransform="matrix(3.43, 0, 0, -3.43, -268.84, 382.58)" gradientUnits="userSpaceOnUse"><stop offset="0" stop-color="#dcd7cd"/><stop offset="1" stop-color="#867d65"/></linearGradient><linearGradient id="linear-gradient-10" x1="2.15" y1="30.27" x2="4.84" y2="30.27" gradientTransform="matrix(1, 0, 0, 1, 0, 0)" xlink:href="#linear-gradient-9"/><clipPath id="clip-path-5"><path class="cls-1" d="M7.58,29.82a1.17,1.17,0,0,0,.91,1.35,1.32,1.32,0,0,0,.18-2.55H8.61a1.2,1.2,0,0,0-1,1.21"/></clipPath><linearGradient id="linear-gradient-11" x1="57.26" y1="104.78" x2="58.34" y2="104.78" gradientTransform="matrix(0, 2.13, 2.13, 0, -214.84, -93.28)" xlink:href="#linear-gradient-9"/><clipPath id="clip-path-6"><path class="cls-1" d="M-3.42-23V2.42c0,3.59,6.85,6.5,15.31,6.5S27.21,6,27.21,2.42L27.16-23Z"/></clipPath><linearGradient id="linear-gradient-12" x1="111.34" y1="97.38" x2="112.34" y2="97.38" gradientTransform="matrix(30.76, 0, 0, -30.76, -3427.89, 2988.1)" gradientUnits="userSpaceOnUse"><stop offset="0" stop-color="#b5b3a0"/><stop offset="0" stop-color="#b4aa9a"/><stop offset="0.53" stop-color="#d9d0bd"/><stop offset="0.75" stop-color="#fff5e0"/><stop offset="1" stop-color="#b4aa9a"/></linearGradient><clipPath id="clip-path-7"><path class="cls-1" d="M-67.34,81.23s-4.81,0-4.81,4.81v38s0,4.81,4.81,4.81h38s4.81,0,4.81-4.81V86s0-4.81-4.81-4.81Z"/></clipPath></defs><title>대지 2</title><g class="cls-2"><polygon class="cls-3" points="16.08 31.88 16.08 45.01 78.38 72.63 78.38 56.35 16.08 31.88"/><polygon class="cls-4" points="106.65 36.5 43.62 17.77 34.72 19.91 97.47 39.81 106.65 36.5"/><polyline class="cls-5" points="34.71 26.98 34.66 20.04 97.39 39.91 97.33 48.67"/><polyline class="cls-6" points="34.89 27.04 97.28 48.74 78.4 56.25 16.08 31.78 34.65 27.04"/><path class="cls-7" d="M-3.42,9.07c0,3.57,6.85,6.46,15.31,6.46s15.32-2.89,15.32-6.46"/><g class="cls-8"><rect class="cls-9" x="-7.27" y="-1.75" width="38.36" height="37.3"/></g><path class="cls-7" d="M29.34,30.64c1.75-1.21,1.35-3.71,1.35-3.71v-7a4.56,4.56,0,0,0-2.4-3.86,3.55,3.55,0,0,1-2.16-2.3,3.48,3.48,0,0,1,.6-3,5.3,5.3,0,0,0,.56-1.25V4.77c0-3.61-6.89-6.52-15.39-6.52S-3.47,1.16-3.47,4.77V9.5a5.81,5.81,0,0,0,.56,1.25,3.48,3.48,0,0,1,.6,3,3.55,3.55,0,0,1-2.16,2.3,4.56,4.56,0,0,0-2.4,3.86v7s-.4,2.5,1.35,3.71a13,13,0,0,0,5.66,3,30.07,30.07,0,0,0,4.21.5,8.15,8.15,0,0,0,2.45-.4c1.06-.4,3-1.1,3-1.1a2.15,2.15,0,0,1,2.5.8c1.11,1.4,1.11.85,1.11.85a1.82,1.82,0,0,0,2,1c1.4-.31,5.51-.56,5.91-1.06a5.4,5.4,0,0,0,.85-2.3c0-.5,1.46-.05,1.46-.05Z"/><path class="cls-10" d="M29.31,23.63a6.08,6.08,0,0,0-.93-2.87,11.11,11.11,0,0,0-2.22-1.83S25,17.76,24.74,17.4s-.5-.62-.7-.62a.82.82,0,0,0-.6.67,2.54,2.54,0,0,1-.35.83,11,11,0,0,0-1.74,4.84l-.05,1.31a9.63,9.63,0,0,1,.35,2.36c0,1.16-.25,3.12-.25,3.12v1.71l0,1.19a6.28,6.28,0,0,0,0,1.32"/><path class="cls-10" d="M21.27,24.47A4.47,4.47,0,0,0,19,25.81a2.76,2.76,0,0,0-.25,2.49,3.21,3.21,0,0,0,1.39,1.45"/><path class="cls-10" d="M21.37,29.93a4.53,4.53,0,0,0-.74-.65c-.22-.1-.61-.25-.59.06s.15.28.13.59-.05.92.24,1.16a3.82,3.82,0,0,0,.62.38.66.66,0,0,1,.35.62"/><circle class="cls-11" cx="24.39" cy="21.88" r="1.8"/><path class="cls-12" d="M23.89,21l1.56.1a6.77,6.77,0,0,1,.86.23c.18.08,2.65.86,2.86.9a1.92,1.92,0,0,1,.92.52,8.41,8.41,0,0,1,.14,1.69c0,.37-.18,6.89-.26,7.31a1.59,1.59,0,0,1-.19.62c-.14.2-1,1.17-1,1.17a1.11,1.11,0,0,1-.87.41c-.51,0-1.31-.06-1.31-.06a5.69,5.69,0,0,1-.91-.27c-.18-.1-.86-.57-1.11-.68s-.78-.27-.78-.27a.74.74,0,0,1-.45-.57c-.06-.44,0-5.27-.08-6s-.06-4.57-.06-4.57A.61.61,0,0,1,23.89,21Z"/><path class="cls-10" d="M29.7,22.46a.85.85,0,0,1,.1.48c0,.29-.37,4.55-.37,4.55l-.73,5.15s-.13,1.17-.51,1.29"/><path class="cls-10" d="M26.5,29.57a2,2,0,1,0-1.84-2A1.92,1.92,0,0,0,26.5,29.57Z"/><g class="cls-13"><rect class="cls-14" x="25.14" y="25.81" width="3.21" height="3.41"/></g><path class="cls-10" d="M26.74,29.22a1.71,1.71,0,1,0-1.6-1.71A1.66,1.66,0,0,0,26.74,29.22Z"/><path class="cls-10" d="M16.64,26.9a1,1,0,0,0-.54-1.77l-1.78-.51a.58.58,0,0,1-.28-.46c0-.3.37-5.37-1.63-5.77a3.77,3.77,0,0,0-2.2.75,12.05,12.05,0,0,1-3.55,1.3A5.17,5.17,0,0,0,3.51,25c-.25,3.1-.2,7.55-.2,7.55s.1,1.2.9,1.45"/><path class="cls-15" d="M10.78,36.32s0,.47.25.4l4.18-1a.66.66,0,0,0,.25-.43c0-.25,1.17-9,1.17-9a.61.61,0,0,0-.29-.43c-.25-.11-2.05-1-2.05-1s-.43,0-.49.28L12.8,30,12,32.35C11.8,32.9,10.78,36.32,10.78,36.32Z"/><g class="cls-16"><rect class="cls-17" x="0.42" y="24.45" width="7.16" height="5.52"/></g><path class="cls-10" d="M3.46,24.45a3.36,3.36,0,0,0-1.76.49,2.37,2.37,0,0,0-.77,2.81,5.18,5.18,0,0,0,1.69,2.17L4.1,30s3-.26,3.25-2.07S5.28,24.76,3.46,24.45Z"/><path class="cls-18" d="M3.08,31.36a1.15,1.15,0,0,0,1.23-1.94s.14.1-.39-.24a1.15,1.15,0,1,0-1.24,1.93Z"/><path class="cls-10" d="M3.25,29s.39.71,0,1.19a1.41,1.41,0,0,1-1,.51"/><g class="cls-19"><rect class="cls-20" x="7.21" y="28.77" width="2.74" height="2.29" transform="translate(-21.89 36.24) rotate(-85.74)"/></g><path class="cls-10" d="M8.48,31.17a1.31,1.31,0,0,0,.19-2.55,1.32,1.32,0,0,0-.19,2.55Z"/><path class="cls-10" d="M10.44,18.94a6.39,6.39,0,0,0-.5,2.39V32.6"/><g class="cls-21"><rect class="cls-22" x="-3.42" y="-23" width="30.63" height="31.92"/></g><path class="cls-7" d="M27.16-23H-3.42V2.43c0,3.58,6.86,6.49,15.31,6.49S27.21,6,27.21,2.43Z"/><path class="cls-7" d="M-3.15,10.37c1.57,2.87,7.71,5,15,5s13.45-2.13,15-5"/></g><path class="cls-23" d="M9.35,4.5s-4.81,0-4.81,4.81v38s0,4.81,4.81,4.81h38s4.81,0,4.81-4.81v-38s0-4.81-4.81-4.81Z"/></svg>