<svg id="레이어_1" data-name="레이어 1" xmlns="http://www.w3.org/2000/svg" xmlns:xlink="http://www.w3.org/1999/xlink" viewBox="0 0 56.69 56.69"><defs><style>.cls-1,.cls-31,.cls-5{fill:none;}.cls-2{clip-path:url(#clip-path);}.cls-3{clip-path:url(#clip-path-2);}.cls-4{fill:url(#linear-gradient);}.cls-10,.cls-11,.cls-12,.cls-13,.cls-14,.cls-15,.cls-16,.cls-17,.cls-18,.cls-19,.cls-20,.cls-21,.cls-22,.cls-23,.cls-24,.cls-25,.cls-28,.cls-29,.cls-30,.cls-5,.cls-9{stroke:#231916;stroke-linecap:round;stroke-linejoin:round;}.cls-20,.cls-21,.cls-22,.cls-23,.cls-24,.cls-25,.cls-28,.cls-29,.cls-30,.cls-5{stroke-width:0.3px;}.cls-6{clip-path:url(#clip-path-3);}.cls-7{fill:url(#linear-gradient-2);}.cls-8{clip-path:url(#clip-path-4);}.cls-10,.cls-11,.cls-12,.cls-13,.cls-15,.cls-16,.cls-18,.cls-19,.cls-9{stroke-width:0.15px;}.cls-9{fill:url(#linear-gradient-3);}.cls-10{fill:url(#linear-gradient-4);}.cls-11{fill:url(#linear-gradient-5);}.cls-12{fill:url(#linear-gradient-6);}.cls-13{fill:url(#linear-gradient-7);}.cls-14,.cls-17{stroke-width:0.5px;}.cls-14{fill:url(#linear-gradient-8);}.cls-15{fill:url(#linear-gradient-9);}.cls-16{fill:url(#linear-gradient-10);}.cls-17{fill:url(#linear-gradient-11);}.cls-18{fill:url(#linear-gradient-12);}.cls-19{fill:url(#linear-gradient-13);}.cls-20{fill:url(#linear-gradient-14);}.cls-21{fill:url(#linear-gradient-15);}.cls-22{fill:url(#linear-gradient-16);}.cls-23{fill:url(#linear-gradient-17);}.cls-24{fill:url(#linear-gradient-18);}.cls-25{fill:url(#linear-gradient-19);}.cls-26{clip-path:url(#clip-path-5);}.cls-27{fill:url(#linear-gradient-20);}.cls-28{fill:url(#linear-gradient-21);}.cls-29{fill:url(#linear-gradient-22);}.cls-30{fill:url(#linear-gradient-23);}.cls-31{stroke:#9fa0a0;stroke-width:0.85px;}</style><clipPath id="clip-path"><path class="cls-1" d="M9.35-72.22s-4.81,0-4.81,4.8v38s0,4.81,4.81,4.81h38s4.81,0,4.81-4.81v-38s0-4.8-4.81-4.8Z"/></clipPath><clipPath id="clip-path-2"><polygon class="cls-1" points="13.76 -28.91 -11.6 -6.53 -2.57 3.77 26.96 -22.39 27.1 -23.34 13.76 -28.91"/></clipPath><linearGradient id="linear-gradient" x1="185.65" y1="19.66" x2="186.76" y2="19.66" gradientTransform="matrix(0, 33.79, 33.79, 0, -656.26, -6304.13)" gradientUnits="userSpaceOnUse"><stop offset="0" stop-color="#b4aa9a"/><stop offset="0.58" stop-color="#efeee8"/><stop offset="1" stop-color="#b4aa9a"/></linearGradient><clipPath id="clip-path-3"><polygon class="cls-1" points="26.94 -22.37 29.78 -12.59 3.63 10.73 -2.62 3.77 26.94 -22.37"/></clipPath><linearGradient id="linear-gradient-2" x1="184.4" y1="19.71" x2="185.51" y2="19.71" gradientTransform="matrix(0, 28.15, 28.15, 0, -540.99, -5212.81)" gradientUnits="userSpaceOnUse"><stop offset="0" stop-color="#fff"/><stop offset="1" stop-color="#b4aa9a"/></linearGradient><clipPath id="clip-path-4"><path class="cls-1" d="M9.35,4.54s-4.81,0-4.81,4.81v38s0,4.81,4.81,4.81h38s4.81,0,4.81-4.81v-38s0-4.81-4.81-4.81Z"/></clipPath><linearGradient id="linear-gradient-3" x1="93.96" y1="-125.62" x2="105.22" y2="-146.78" gradientTransform="translate(-48.97 -147) rotate(108.49)" gradientUnits="userSpaceOnUse"><stop offset="0" stop-color="#fff"/><stop offset="0.37" stop-color="#e6e6e6"/><stop offset="1" stop-color="#f2f2f3"/></linearGradient><linearGradient id="linear-gradient-4" x1="101.8" y1="-127.42" x2="115.03" y2="-127.42" gradientTransform="matrix(-0.32, 0.97, -0.93, -0.31, -45.08, -144.22)" gradientUnits="userSpaceOnUse"><stop offset="0" stop-color="#fff"/><stop offset="1" stop-color="#dcdddd"/></linearGradient><linearGradient id="linear-gradient-5" x1="114.82" y1="-117.32" x2="123.81" y2="-134.23" xlink:href="#linear-gradient-3"/><linearGradient id="linear-gradient-6" x1="118.39" y1="-121.2" x2="136.9" y2="-121.2" gradientTransform="translate(-48.97 -147) rotate(108.49)" xlink:href="#linear-gradient-4"/><linearGradient id="linear-gradient-7" x1="123.64" y1="-119.9" x2="136.87" y2="-119.9" gradientTransform="translate(-48.97 -147) rotate(108.49)" xlink:href="#linear-gradient-4"/><linearGradient id="linear-gradient-8" x1="130.94" y1="-108.94" x2="139.84" y2="-125.68" gradientTransform="translate(-48.97 -147) rotate(108.49)" gradientUnits="userSpaceOnUse"><stop offset="0" stop-color="#a5d8f5"/><stop offset="0.31" stop-color="#0067b6"/><stop offset="0.77" stop-color="#95d5f6"/><stop offset="1" stop-color="#008cd6"/></linearGradient><linearGradient id="linear-gradient-9" x1="128.43" y1="-115.75" x2="146.94" y2="-115.75" gradientTransform="translate(-48.97 -147) rotate(108.49)" xlink:href="#linear-gradient-4"/><linearGradient id="linear-gradient-10" x1="133.68" y1="-114.45" x2="146.91" y2="-114.45" gradientTransform="translate(-48.97 -147) rotate(108.49)" xlink:href="#linear-gradient-4"/><linearGradient id="linear-gradient-11" x1="133.64" y1="-114.44" x2="146.87" y2="-114.44" xlink:href="#linear-gradient-8"/><linearGradient id="linear-gradient-12" x1="160.1" y1="-63.42" x2="176.81" y2="-63.42" gradientTransform="translate(-58.25 -131.51) rotate(88.65)" xlink:href="#linear-gradient-4"/><linearGradient id="linear-gradient-13" x1="163.55" y1="-62.58" x2="176.78" y2="-62.58" gradientTransform="translate(-58.25 -131.51) rotate(88.65)" xlink:href="#linear-gradient-4"/><linearGradient id="linear-gradient-14" x1="27.65" y1="23.67" x2="34.64" y2="23.67" gradientUnits="userSpaceOnUse"><stop offset="0" stop-color="#fff"/><stop offset="0.15" stop-color="#fff6bc"/><stop offset="1" stop-color="#fdd000"/></linearGradient><linearGradient id="linear-gradient-15" x1="27.65" y1="21.14" x2="31.34" y2="21.14" gradientUnits="userSpaceOnUse"><stop offset="0.42" stop-color="#fdd000"/><stop offset="1" stop-color="#fff"/></linearGradient><linearGradient id="linear-gradient-16" x1="28.08" y1="48.81" x2="70.71" y2="48.81" gradientUnits="userSpaceOnUse"><stop offset="0" stop-color="#b4aa9a"/><stop offset="1" stop-color="#e9e5df"/></linearGradient><linearGradient id="linear-gradient-17" x1="37.52" y1="48.18" x2="88.61" y2="48.18" gradientTransform="matrix(1, 0, 0, 1, 0, 0)" xlink:href="#linear-gradient-2"/><linearGradient id="linear-gradient-18" x1="35.75" y1="34.46" x2="49.17" y2="34.46" gradientUnits="userSpaceOnUse"><stop offset="0" stop-color="#fff"/><stop offset="1" stop-color="#9e9582"/></linearGradient><linearGradient id="linear-gradient-19" x1="30.3" y1="22.55" x2="38.74" y2="22.55" gradientUnits="userSpaceOnUse"><stop offset="0" stop-color="#fff"/><stop offset="1" stop-color="#aaa892"/></linearGradient><clipPath id="clip-path-5"><path class="cls-1" d="M28.91,38.06,33,40.47a2.09,2.09,0,0,0,.31.73c.45.64,1.16.91,1.6.6a1.24,1.24,0,0,0,0-1.71,1.26,1.26,0,0,0-1.61-.6.91.91,0,0,0-.18.21L28.75,37Z"/></clipPath><linearGradient id="linear-gradient-20" x1="-64.63" y1="462.1" x2="-63.64" y2="462.1" gradientTransform="matrix(6.86, 0, 0, -6.86, 472.07, 3210.44)" gradientUnits="userSpaceOnUse"><stop offset="0" stop-color="#e9eaea"/><stop offset="1" stop-color="#68666c"/></linearGradient><linearGradient id="linear-gradient-21" x1="28.08" y1="28.51" x2="48.25" y2="28.51" gradientUnits="userSpaceOnUse"><stop offset="0" stop-color="#fff"/><stop offset="0" stop-color="#d6d1c5"/><stop offset="0.3" stop-color="#e8e5de"/><stop offset="1" stop-color="#a9a08d"/></linearGradient><linearGradient id="linear-gradient-22" x1="35.95" y1="26.19" x2="43.05" y2="26.19" gradientUnits="userSpaceOnUse"><stop offset="0" stop-color="#e9eaea"/><stop offset="1" stop-color="#4d4042"/></linearGradient><linearGradient id="linear-gradient-23" x1="37.52" y1="25.78" x2="41.3" y2="25.78" gradientUnits="userSpaceOnUse"><stop offset="0" stop-color="#68666c"/><stop offset="1" stop-color="#e9eaea"/></linearGradient></defs><title>대지 7</title><g class="cls-2"><g class="cls-3"><rect class="cls-4" x="-9.9" y="-33.01" width="35.3" height="40.89" transform="translate(19.74 -3.96) rotate(-86)"/></g><polygon class="cls-5" points="13.76 -28.91 -11.6 -6.53 -2.57 3.77 26.96 -22.39 27.1 -23.34 13.76 -28.91"/><g class="cls-6"><rect class="cls-7" x="-4.06" y="-23.13" width="35.28" height="34.62" transform="translate(18.44 8.13) rotate(-86)"/></g><polygon class="cls-5" points="26.94 -22.37 29.77 -12.59 3.63 10.73 -2.62 3.77 26.94 -22.37"/></g><g class="cls-8"><polygon class="cls-9" points="66.36 -10 46.41 9.27 29.98 -8.19 50.83 -27.95 66.36 -10"/><path class="cls-10" d="M30.06-8.31c-1.66,1.71.76,7,5.39,11.71s9.73,7.22,11.39,5.51-.76-7-5.4-11.71S31.71-10,30.06-8.31Z"/><path class="cls-11" d="M20.88,4l-.05,0c-1.36,1.26.34,5.32,3.8,9.06s7.37,5.76,8.73,4.5c0,0,10.76-9.34,11-9.54,1.37-1.37-.52-5.47-4.22-9.16s-7.81-5.55-9.18-4.18C30.92-5.34,20.93,3.58,20.88,4Z"/><path class="cls-12" d="M36.19,19c1.66-1.67-.85-6.86-5.6-11.59S20.62.17,19,1.84L14.79,6c-1.66,1.66.85,6.86,5.61,11.59s10,7.22,11.62,5.56Z"/><path class="cls-13" d="M14.81,6c-1.65,1.67.85,6.86,5.61,11.6s10,7.22,11.62,5.55-.85-6.86-5.6-11.59S16.48,4.32,14.81,6Z"/><path class="cls-14" d="M9.65,14.93,9.6,15c-1.36,1.26.34,5.32,3.81,9.06s7.36,5.76,8.72,4.5c0,0,7-6.12,7.2-6.32,1.37-1.38-.52-5.48-4.22-9.16S17.3,7.48,15.93,8.86C15.93,8.86,9.7,14.55,9.65,14.93Z"/><path class="cls-15" d="M27.84,26.78c1.66-1.66-.85-6.86-5.61-11.59S12.27,8,10.61,9.63L6.44,13.81c-1.66,1.67.85,6.86,5.61,11.59S22,32.63,23.67,31Z"/><path class="cls-16" d="M6.46,13.78c-1.66,1.67.85,6.86,5.61,11.6s10,7.22,11.62,5.55-.85-6.86-5.6-11.59S8.12,12.11,6.46,13.78Z"/><path class="cls-17" d="M6.46,13.74c-1.66,1.67.85,6.86,5.61,11.6s10,7.22,11.62,5.55S22.84,24,18.09,19.3,8.12,12.07,6.46,13.74Z"/><path class="cls-18" d="M21,38.8c1-2.14-3.13-6.17-9.21-9S-.07,26.38-1.07,28.51L-2.69,32c-1,2.13,3.13,6.16,9.21,9s11.82,3.41,12.82,1.28Z"/><path class="cls-19" d="M-2.68,32c-1,2.13,3.13,6.16,9.21,9s11.82,3.41,12.82,1.28-3.13-6.17-9.21-9S-1.68,29.87-2.68,32Z"/><polygon class="cls-20" points="34.64 24.77 30.26 22.11 29.65 22.32 28.66 21.96 27.65 21.33 28.3 22.66 28.37 23.2 33.16 26.01 34.64 24.77"/><path class="cls-21" d="M31.34,21.1l-.9.95-.74.27L28.64,22l-1-.65L29.29,20l1,.47S30.87,21.1,31.34,21.1Z"/><polygon class="cls-22" points="37.52 42.96 35.72 37.48 28.08 32.8 30.41 47.73 53.62 64.28 70.71 64.82 37.52 42.96"/><polygon class="cls-23" points="70.71 64.82 37.52 42.96 49.13 31.54 88.61 54.11 81.42 64.73 70.71 64.82"/><polygon class="cls-24" points="37.54 42.94 35.74 37.5 48.22 25.98 49.17 31.58 37.54 42.94"/><polygon class="cls-25" points="30.3 22.11 34.76 24.81 36.02 24.61 38.74 22.27 35.41 20.3 33 20.3 30.3 22.11"/><g class="cls-26"><rect class="cls-27" x="28.75" y="37.02" width="6.59" height="5.08"/></g><path class="cls-5" d="M34.9,40.09a1.26,1.26,0,0,0-1.61-.6.91.91,0,0,0-.18.21L28.75,37l.16,1L33,40.47a2.09,2.09,0,0,0,.31.73c.45.64,1.16.91,1.6.6A1.24,1.24,0,0,0,34.9,40.09Z"/><path class="cls-28" d="M35.75,37.52l-7.67-4.7V30.21l9.64-7.89L35.05,21s-2-.94-4.77,1.17L31.45,21S34.37,18.52,37.3,20l11,6.05Z"/><path class="cls-29" d="M39.5,28.88c2,0,3.55-1.2,3.55-2.69s-1.59-2.7-3.55-2.7S36,24.7,36,26.19,37.54,28.88,39.5,28.88Z"/><polygon class="cls-30" points="37.86 24.81 37.52 26.3 38.96 27.24 41.03 26.64 41.3 25.18 39.77 24.32 37.86 24.81"/></g><path class="cls-31" d="M9.35,4.54s-4.81,0-4.81,4.81v38s0,4.81,4.81,4.81h38s4.81,0,4.81-4.81v-38s0-4.81-4.81-4.81Z"/></svg>