<?xml version="1.0" encoding="utf-8"?>
<!-- Generator: Adobe Illustrator 22.0.1, SVG Export Plug-In . SVG Version: 6.00 Build 0)  -->
<svg version="1.1" id="레이어_1" xmlns="http://www.w3.org/2000/svg" xmlns:xlink="http://www.w3.org/1999/xlink" x="0px"
	 y="0px" viewBox="0 0 56.7 56.7" style="enable-background:new 0 0 56.7 56.7;" xml:space="preserve">
<style type="text/css">
	.st0{fill:none;}
	.st1{fill:none;stroke:#9FA0A0;stroke-width:0.847;}
	.st2{clip-path:url(#SVGID_2_);}
	.st3{fill:url(#SVGID_3_);stroke:#000000;stroke-width:0.415;stroke-linecap:round;stroke-linejoin:round;}
	.st4{fill:url(#SVGID_6_);stroke:#000000;stroke-width:0.415;stroke-linecap:round;stroke-linejoin:round;}
	.st5{fill:url(#SVGID_7_);stroke:#000000;stroke-width:0.415;stroke-linecap:round;stroke-linejoin:round;}
	.st6{fill:url(#SVGID_8_);}
	.st7{fill:none;stroke:#000000;stroke-width:0.415;stroke-linecap:round;stroke-linejoin:round;}
	.st8{fill:url(#SVGID_11_);stroke:#000000;stroke-width:0.415;stroke-linecap:round;stroke-linejoin:round;}
	.st9{clip-path:url(#SVGID_13_);fill:url(#SVGID_14_);}
	.st10{fill:none;stroke:#000000;stroke-width:0.332;stroke-linecap:round;stroke-linejoin:round;}
	.st11{fill:url(#SVGID_17_);stroke:#000000;stroke-width:0.332;stroke-linecap:round;stroke-linejoin:round;}
	.st12{fill:url(#SVGID_20_);stroke:#000000;stroke-width:0.332;stroke-linecap:round;stroke-linejoin:round;stroke-miterlimit:10;}
	.st13{clip-path:url(#SVGID_22_);fill:url(#SVGID_23_);}
	.st14{clip-path:url(#SVGID_25_);fill:url(#SVGID_26_);}
	.st15{fill:url(#SVGID_29_);stroke:#000000;stroke-width:0.332;stroke-linecap:round;stroke-linejoin:round;}
	.st16{fill:url(#SVGID_32_);stroke:#000000;stroke-width:0.332;stroke-linecap:round;stroke-linejoin:round;}
	.st17{fill:none;stroke:#000000;stroke-width:0.166;stroke-linecap:round;stroke-linejoin:round;}
	.st18{fill:url(#SVGID_35_);stroke:#000000;stroke-width:0.332;stroke-linecap:round;stroke-linejoin:round;}
	.st19{clip-path:url(#SVGID_37_);fill:url(#SVGID_38_);}
	.st20{clip-path:url(#SVGID_40_);}
	
		.st21{clip-path:url(#SVGID_44_);fill:url(#SVGID_45_);stroke:#000000;stroke-width:0.332;stroke-linecap:round;stroke-linejoin:round;}
	
		.st22{clip-path:url(#SVGID_47_);fill:url(#SVGID_48_);stroke:#000000;stroke-width:0.332;stroke-linecap:round;stroke-linejoin:round;}
	
		.st23{clip-path:url(#SVGID_52_);fill:url(#SVGID_53_);stroke:#000000;stroke-width:0.332;stroke-linecap:round;stroke-linejoin:round;}
	.st24{fill:url(#SVGID_56_);stroke:#000000;stroke-width:0.332;stroke-linecap:round;stroke-linejoin:round;}
	.st25{fill:url(#SVGID_59_);stroke:#000000;stroke-width:0.332;stroke-linecap:round;stroke-linejoin:round;}
	.st26{clip-path:url(#SVGID_61_);fill:none;stroke:#000000;stroke-width:0.332;stroke-linecap:round;stroke-linejoin:round;}
	.st27{clip-path:url(#SVGID_63_);fill:url(#SVGID_64_);}
	.st28{clip-path:url(#SVGID_66_);fill:none;stroke:#000000;stroke-width:0.332;stroke-linecap:round;stroke-linejoin:round;}
	.st29{clip-path:url(#SVGID_70_);fill:url(#SVGID_71_);stroke:#000000;stroke-width:0.332;}
	.st30{clip-path:url(#SVGID_70_);fill:none;stroke:#000000;stroke-width:0.332;}
	.st31{clip-path:url(#SVGID_75_);fill:url(#SVGID_76_);stroke:#000000;stroke-width:0.332;}
	.st32{clip-path:url(#SVGID_80_);fill:url(#SVGID_81_);stroke:#000000;stroke-width:0.332;}
	.st33{clip-path:url(#SVGID_80_);fill:none;stroke:#000000;stroke-width:0.332;}
	.st34{clip-path:url(#SVGID_83_);fill:url(#SVGID_84_);}
	.st35{clip-path:url(#SVGID_86_);fill:none;stroke:#000000;stroke-width:0.332;}
	.st36{clip-path:url(#SVGID_90_);fill:url(#SVGID_91_);stroke:#000000;stroke-width:0.332;}
	.st37{clip-path:url(#SVGID_93_);fill:url(#SVGID_94_);}
	.st38{clip-path:url(#SVGID_96_);fill:none;stroke:#000000;stroke-width:0.332;}
	.st39{clip-path:url(#SVGID_100_);fill:url(#SVGID_101_);stroke:#000000;stroke-width:0.332;}
	.st40{clip-path:url(#SVGID_100_);fill:none;stroke:#000000;stroke-width:0.332;}
	.st41{clip-path:url(#SVGID_103_);fill:url(#SVGID_104_);}
	.st42{clip-path:url(#SVGID_106_);fill:none;stroke:#000000;stroke-width:0.332;}
	.st43{clip-path:url(#SVGID_106_);fill:none;stroke:#000000;stroke-width:0.332;stroke-linecap:round;stroke-linejoin:round;}
	.st44{clip-path:url(#SVGID_108_);fill:url(#SVGID_109_);}
	.st45{clip-path:url(#SVGID_111_);fill:none;stroke:#000000;stroke-width:0.332;stroke-linecap:round;stroke-linejoin:round;}
	.st46{clip-path:url(#SVGID_113_);}
	.st47{fill:url(#SVGID_114_);stroke:#000000;stroke-width:0.332;stroke-linecap:round;stroke-linejoin:round;}
	.st48{fill:url(#SVGID_117_);stroke:#000000;stroke-width:0.332;stroke-linecap:round;stroke-linejoin:round;}
	.st49{fill:url(#SVGID_120_);stroke:#000000;stroke-width:0.332;stroke-linecap:round;stroke-linejoin:round;}
	.st50{fill:url(#SVGID_123_);stroke:#000000;stroke-width:0.332;stroke-linecap:round;stroke-linejoin:round;}
	.st51{fill:url(#SVGID_126_);stroke:#000000;stroke-width:0.332;stroke-linecap:round;stroke-linejoin:round;}
	.st52{fill:url(#SVGID_129_);stroke:#000000;stroke-width:0.332;stroke-linecap:round;stroke-linejoin:round;}
	.st53{clip-path:url(#SVGID_131_);fill:url(#SVGID_132_);}
	.st54{fill:url(#SVGID_133_);stroke:#000000;stroke-width:0.332;stroke-linecap:round;stroke-linejoin:round;}
	.st55{clip-path:url(#SVGID_135_);fill:url(#SVGID_136_);}
	.st56{clip-path:url(#SVGID_138_);fill:url(#SVGID_139_);}
	.st57{fill:#FFFFFF;}
	.st58{fill:url(#SVGID_140_);stroke:#000000;stroke-width:0.332;stroke-linecap:round;stroke-linejoin:round;}
	.st59{clip-path:url(#SVGID_142_);}
	.st60{fill:url(#SVGID_145_);stroke:#000000;stroke-width:0.332;stroke-linecap:round;stroke-linejoin:round;}
	.st61{fill:url(#SVGID_146_);}
	.st62{fill:url(#SVGID_147_);stroke:#000000;stroke-width:0.332;stroke-linecap:round;stroke-linejoin:round;}
	.st63{fill:url(#SVGID_148_);stroke:#000000;stroke-width:0.332;stroke-linecap:round;stroke-linejoin:round;}
	.st64{clip-path:url(#SVGID_150_);fill:url(#SVGID_151_);}
	.st65{clip-path:url(#SVGID_153_);fill:url(#SVGID_154_);}
	.st66{fill:url(#SVGID_161_);stroke:#000000;stroke-width:0.332;stroke-linecap:round;stroke-linejoin:round;}
	.st67{fill:url(#SVGID_164_);stroke:#000000;stroke-width:0.332;stroke-linecap:round;stroke-linejoin:round;}
	.st68{fill:url(#SVGID_167_);stroke:#000000;stroke-width:0.332;stroke-linecap:round;stroke-linejoin:round;}
	.st69{clip-path:url(#SVGID_169_);fill:url(#SVGID_170_);}
	.st70{fill:#9FA0A0;}
	.st71{fill:url(#SVGID_171_);stroke:#000000;stroke-width:0.332;stroke-linecap:round;stroke-linejoin:round;}
	.st72{clip-path:url(#SVGID_173_);}
	.st73{opacity:0.61;}
	.st74{filter:url(#Adobe_OpacityMaskFilter);}
	.st75{fill:url(#SVGID_175_);}
	.st76{mask:url(#SVGID_174_);}
	.st77{fill:url(#SVGID_176_);}
	.st78{fill:url(#SVGID_179_);stroke:#000000;stroke-width:0.332;stroke-linecap:round;stroke-linejoin:round;}
	.st79{clip-path:url(#SVGID_181_);fill:url(#SVGID_182_);}
	.st80{clip-path:url(#SVGID_184_);fill:url(#SVGID_185_);}
	.st81{clip-path:url(#SVGID_187_);fill:url(#SVGID_188_);}
	.st82{fill:url(#SVGID_191_);stroke:#000000;stroke-width:0.332;stroke-linecap:round;stroke-linejoin:round;}
	.st83{fill:url(#SVGID_194_);stroke:#000000;stroke-width:0.332;stroke-linecap:round;stroke-linejoin:round;}
	.st84{fill:url(#SVGID_197_);stroke:#000000;stroke-width:0.332;stroke-linecap:round;stroke-linejoin:round;}
	.st85{fill:url(#SVGID_198_);stroke:#000000;stroke-width:0.332;stroke-linecap:round;stroke-linejoin:round;}
	.st86{fill:url(#SVGID_201_);stroke:#000000;stroke-width:0.332;stroke-linecap:round;stroke-linejoin:round;}
	.st87{fill:url(#SVGID_204_);stroke:#000000;stroke-width:0.332;stroke-linecap:round;stroke-linejoin:round;}
	.st88{fill:url(#SVGID_207_);stroke:#000000;stroke-width:0.332;stroke-linecap:round;stroke-linejoin:round;}
	.st89{fill:url(#SVGID_210_);stroke:#000000;stroke-width:0.332;stroke-linecap:round;stroke-linejoin:round;}
	.st90{clip-path:url(#SVGID_212_);}
	.st91{clip-path:url(#SVGID_214_);fill:url(#SVGID_215_);}
	.st92{clip-path:url(#SVGID_217_);fill:url(#SVGID_218_);}
	.st93{clip-path:url(#SVGID_220_);fill:url(#SVGID_221_);}
	.st94{fill:url(#SVGID_224_);stroke:#000000;stroke-width:0.332;stroke-linecap:round;stroke-linejoin:round;}
	.st95{clip-path:url(#SVGID_226_);fill:url(#SVGID_227_);}
	.st96{clip-path:url(#SVGID_229_);fill:url(#SVGID_230_);}
	.st97{clip-path:url(#SVGID_232_);fill:url(#SVGID_233_);}
	.st98{fill:url(#SVGID_238_);stroke:#000000;stroke-width:0.332;stroke-linecap:round;stroke-linejoin:round;}
	.st99{fill:url(#SVGID_241_);stroke:#000000;stroke-width:0.332;stroke-linecap:round;stroke-linejoin:round;}
	.st100{fill:url(#SVGID_244_);stroke:#000000;stroke-width:0.332;stroke-linecap:round;stroke-linejoin:round;}
	.st101{fill:url(#SVGID_247_);stroke:#000000;stroke-width:0.332;stroke-linecap:round;stroke-linejoin:round;}
	.st102{fill:url(#SVGID_250_);stroke:#000000;stroke-width:0.332;stroke-linecap:round;stroke-linejoin:round;}
	.st103{fill:url(#SVGID_253_);stroke:#000000;stroke-width:0.332;stroke-linecap:round;stroke-linejoin:round;}
	.st104{fill:url(#SVGID_256_);stroke:#000000;stroke-width:0.332;stroke-linecap:round;stroke-linejoin:round;}
	.st105{fill:url(#SVGID_259_);stroke:#000000;stroke-width:0.332;stroke-linecap:round;stroke-linejoin:round;}
	.st106{clip-path:url(#SVGID_261_);fill:url(#SVGID_262_);}
	.st107{fill:url(#SVGID_265_);stroke:#000000;stroke-width:0.332;stroke-linecap:round;stroke-linejoin:round;}
	.st108{fill:url(#SVGID_268_);stroke:#000000;stroke-width:0.332;stroke-linecap:round;stroke-linejoin:round;}
	.st109{fill:url(#SVGID_269_);stroke:#000000;stroke-width:0.332;stroke-linecap:round;stroke-linejoin:round;}
	.st110{clip-path:url(#SVGID_273_);}
	.st111{fill:url(#SVGID_274_);stroke:#000000;stroke-width:0.415;stroke-linecap:round;stroke-linejoin:round;}
	.st112{fill:url(#SVGID_277_);stroke:#000000;stroke-width:0.415;stroke-linecap:round;stroke-linejoin:round;}
	.st113{fill:url(#SVGID_278_);stroke:#000000;stroke-width:0.415;stroke-linecap:round;stroke-linejoin:round;}
	.st114{fill:url(#SVGID_281_);stroke:#000000;stroke-width:0.415;stroke-linecap:round;stroke-linejoin:round;}
	.st115{clip-path:url(#SVGID_283_);}
	.st116{fill:url(#SVGID_286_);stroke:#000000;stroke-width:0.415;stroke-linecap:round;stroke-linejoin:round;}
	.st117{fill:url(#SVGID_289_);stroke:#000000;stroke-width:0.415;stroke-linecap:round;stroke-linejoin:round;}
	.st118{fill:url(#SVGID_292_);stroke:#000000;stroke-width:0.415;stroke-linecap:round;stroke-linejoin:round;}
	.st119{fill:url(#SVGID_297_);stroke:#000000;stroke-width:0.415;stroke-linecap:round;stroke-linejoin:round;}
	.st120{fill:url(#SVGID_298_);stroke:#000000;stroke-width:0.415;stroke-linecap:round;stroke-linejoin:round;}
	.st121{clip-path:url(#SVGID_300_);}
	.st122{fill:url(#SVGID_303_);stroke:#000000;stroke-width:0.415;stroke-linecap:round;stroke-linejoin:round;}
	.st123{fill:url(#SVGID_306_);stroke:#000000;stroke-width:0.415;stroke-linecap:round;stroke-linejoin:round;}
	.st124{fill:url(#SVGID_309_);stroke:#000000;stroke-width:0.415;stroke-linecap:round;stroke-linejoin:round;}
	.st125{fill:url(#SVGID_312_);stroke:#000000;stroke-width:0.415;stroke-linecap:round;stroke-linejoin:round;}
	.st126{fill:url(#SVGID_315_);stroke:#000000;stroke-width:0.415;stroke-linecap:round;stroke-linejoin:round;}
	.st127{fill:url(#SVGID_319_);stroke:#000000;stroke-width:0.415;stroke-linecap:round;stroke-linejoin:round;}
	.st128{fill:url(#SVGID_326_);stroke:#000000;stroke-width:0.415;stroke-linecap:round;stroke-linejoin:round;}
	.st129{fill:url(#SVGID_327_);stroke:#000000;stroke-width:0.415;stroke-linecap:round;stroke-linejoin:round;}
	.st130{fill:url(#SVGID_328_);stroke:#000000;stroke-width:0.415;stroke-linecap:round;stroke-linejoin:round;}
	.st131{fill:url(#SVGID_329_);stroke:#000000;stroke-width:0.415;stroke-linecap:round;stroke-linejoin:round;}
	.st132{fill:url(#SVGID_330_);stroke:#000000;stroke-width:0.415;stroke-linecap:round;stroke-linejoin:round;}
	.st133{fill:url(#SVGID_331_);stroke:#000000;stroke-width:0.415;stroke-linecap:round;stroke-linejoin:round;}
	.st134{fill:url(#SVGID_332_);stroke:#000000;stroke-width:0.415;stroke-linecap:round;stroke-linejoin:round;}
	.st135{clip-path:url(#SVGID_334_);}
	.st136{fill:url(#SVGID_337_);stroke:#000000;stroke-width:0.415;stroke-linecap:round;stroke-linejoin:round;}
	.st137{fill:url(#SVGID_340_);stroke:#000000;stroke-width:0.415;stroke-linecap:round;stroke-linejoin:round;}
	.st138{fill:url(#SVGID_343_);stroke:#000000;stroke-width:0.415;stroke-linecap:round;stroke-linejoin:round;}
	.st139{fill:url(#SVGID_346_);stroke:#000000;stroke-width:0.415;stroke-linecap:round;stroke-linejoin:round;}
	.st140{fill:url(#SVGID_349_);stroke:#000000;stroke-width:0.415;stroke-linecap:round;stroke-linejoin:round;}
	.st141{fill:url(#SVGID_352_);stroke:#000000;stroke-width:0.415;stroke-linecap:round;stroke-linejoin:round;}
	.st142{clip-path:url(#SVGID_354_);}
	.st143{filter:url(#Adobe_OpacityMaskFilter_1_);}
	.st144{fill:url(#SVGID_356_);}
	.st145{mask:url(#SVGID_355_);}
	.st146{fill:url(#SVGID_357_);stroke:#000000;stroke-width:0.415;stroke-linecap:round;stroke-linejoin:round;}
	.st147{fill:url(#SVGID_358_);stroke:#000000;stroke-width:0.415;stroke-linecap:round;stroke-linejoin:round;}
	.st148{fill:url(#SVGID_361_);stroke:#000000;stroke-width:0.415;stroke-linecap:round;stroke-linejoin:round;}
	.st149{fill:url(#SVGID_362_);stroke:#000000;stroke-width:0.415;stroke-linecap:round;stroke-linejoin:round;}
	.st150{fill:url(#SVGID_365_);stroke:#000000;stroke-width:0.415;stroke-linecap:round;stroke-linejoin:round;}
	.st151{filter:url(#Adobe_OpacityMaskFilter_2_);}
	.st152{fill:url(#SVGID_367_);}
	.st153{mask:url(#SVGID_366_);}
	.st154{fill:url(#SVGID_368_);stroke:#000000;stroke-width:0.415;stroke-linecap:round;stroke-linejoin:round;}
</style>
<g>
	<defs>
		<path id="SVGID_172_" d="M9.3,4.5c0,0-4.8,0-4.8,4.8v38c0,0,0,4.8,4.8,4.8h38c0,0,4.8,0,4.8-4.8v-38c0,0,0-4.8-4.8-4.8H9.3z"/>
	</defs>
	<clipPath id="SVGID_2_">
		<use xlink:href="#SVGID_172_"  style="overflow:visible;"/>
	</clipPath>
	<g class="st2">
		<path class="st0" d="M9.3,4.4c0,0-4.8,0-4.8,4.8v38c0,0,0,4.8,4.8,4.8h38c0,0,4.8,0,4.8-4.8v-38c0,0,0-4.8-4.8-4.8H9.3z"/>
	</g>
	<g class="st2">
		<g>
			<g>
				<path class="st57" d="M42.5,35.8L41.1,35c-0.2-0.1-0.7,0.2-1.3,0.9l-0.7-0.4c0,0,0,0-0.1,0c0.2-0.9,0.3-1.5,0-1.6L37.7,33
					c-0.2-0.1-0.7,0.2-1.3,0.9l-0.7-0.4c0.2-0.9,0.3-1.5,0-1.6l-1.4-0.8C34.1,31,33.6,31.3,33,32l-0.7-0.4c0,0,0,0-0.1,0
					c0.2-0.9,0.3-1.5,0-1.6l-1.4-0.8c-0.2-0.1-0.7,0.2-1.3,0.9l-0.7-0.4c0,0,0,0-0.1,0c0.2-0.9,0.2-1.4,0-1.6c0,0-0.1-0.1-0.1-0.1
					c0-0.1-0.1-0.1-0.1-0.1c-0.7-0.4-24.3-13-24.3-13c-0.7-0.4-3.5,3.4-6.2,8.5c-2.7,5.1-4.3,9.5-3.6,9.9c0,0,23.6,12.6,24.3,13
					c0,0,0,0.1,0.1,0.1c0,0.1,0.1,0.1,0.2,0.1c0.2,0.1,0.6-0.2,1.2-0.8c0,0,0,0.1,0.1,0.1c0,0,0.3,0.2,0.8,0.5
					c-0.1,0.7-0.1,1.1,0.1,1.2c0,0,0.6,0.4,1.3,0.8c0,0,0,0.1,0,0.1l0,0c0,0,0,0,0.1,0c0.2,0.1,0.6-0.2,1.1-0.7c0,0,0,0.1,0.1,0.1
					c0,0,0.3,0.2,0.8,0.5c-0.1,0.7-0.1,1.1,0.1,1.2c0,0,0.6,0.4,1.3,0.8c0,0,0,0.1,0,0.1l0,0c0,0,0,0,0.1,0c0.2,0.1,0.6-0.2,1.1-0.7
					c0,0,0,0,0,0.1c0,0,0.3,0.2,0.8,0.5c-0.1,0.7-0.1,1.1,0.1,1.2c0,0,0.6,0.4,1.3,0.8c0,0,0,0.1,0,0.1l0,0c0,0,0,0,0.1,0
					c0.2,0.1,0.6-0.2,1.1-0.7c0,0,0,0.1,0.1,0.1c0,0,0.3,0.2,0.8,0.5c-0.1,0.7-0.1,1.1,0.1,1.2c0,0,0.6,0.4,1.3,0.8c0,0,0,0.1,0,0.1
					l0,0c0,0,0,0,0.1,0c0.7,0.4,3.5-3.4,6.2-8.5C41.6,40.6,43.2,36.2,42.5,35.8"/>
				<path class="st10" d="M42.5,35.8L41.1,35c-0.2-0.1-0.7,0.2-1.3,0.9l-0.7-0.4c0,0,0,0-0.1,0c0.2-0.9,0.3-1.5,0-1.6L37.7,33
					c-0.2-0.1-0.7,0.2-1.3,0.9l-0.7-0.4c0.2-0.9,0.3-1.5,0-1.6l-1.4-0.8C34.1,31,33.6,31.3,33,32l-0.7-0.4c0,0,0,0-0.1,0
					c0.2-0.9,0.3-1.5,0-1.6l-1.4-0.8c-0.2-0.1-0.7,0.2-1.3,0.9l-0.7-0.4c0,0,0,0-0.1,0c0.2-0.9,0.2-1.4,0-1.6c0,0-0.1-0.1-0.1-0.1
					c0-0.1-0.1-0.1-0.1-0.1c-0.7-0.4-24.3-13-24.3-13c-0.7-0.4-3.5,3.4-6.2,8.5c-2.7,5.1-4.3,9.5-3.6,9.9c0,0,23.6,12.6,24.3,13
					c0,0,0,0.1,0.1,0.1c0,0.1,0.1,0.1,0.2,0.1c0.2,0.1,0.6-0.2,1.2-0.8c0,0,0,0.1,0.1,0.1c0,0,0.3,0.2,0.8,0.5
					c-0.1,0.7-0.1,1.1,0.1,1.2c0,0,0.6,0.4,1.3,0.8c0,0,0,0.1,0,0.1l0,0c0,0,0,0,0.1,0c0.2,0.1,0.6-0.2,1.1-0.7c0,0,0,0.1,0.1,0.1
					c0,0,0.3,0.2,0.8,0.5c-0.1,0.7-0.1,1.1,0.1,1.2c0,0,0.6,0.4,1.3,0.8c0,0,0,0.1,0,0.1l0,0c0,0,0,0,0.1,0c0.2,0.1,0.6-0.2,1.1-0.7
					c0,0,0,0,0,0.1c0,0,0.3,0.2,0.8,0.5c-0.1,0.7-0.1,1.1,0.1,1.2c0,0,0.6,0.4,1.3,0.8c0,0,0,0.1,0,0.1l0,0c0,0,0,0,0.1,0
					c0.2,0.1,0.6-0.2,1.1-0.7c0,0,0,0.1,0.1,0.1c0,0,0.3,0.2,0.8,0.5c-0.1,0.7-0.1,1.1,0.1,1.2c0,0,0.6,0.4,1.3,0.8c0,0,0,0.1,0,0.1
					l0,0c0,0,0,0,0.1,0c0.7,0.4,3.5-3.4,6.2-8.5C41.6,40.6,43.2,36.2,42.5,35.8z"/>
				<g class="st73">
					<g>
						<defs>
							<filter id="Adobe_OpacityMaskFilter" filterUnits="userSpaceOnUse" x="-5.8" y="14.6" width="48.7" height="39.7">
								<feFlood  style="flood-color:white;flood-opacity:1" result="back"/>
								<feBlend  in="SourceGraphic" in2="back" mode="normal"/>
							</filter>
						</defs>
						<mask maskUnits="userSpaceOnUse" x="-5.8" y="14.6" width="48.7" height="39.7" id="SVGID_3_">
							<g class="st74">
								
									<linearGradient id="SVGID_5_" gradientUnits="userSpaceOnUse" x1="-409.7638" y1="492.9914" x2="-408.7637" y2="492.9914" gradientTransform="matrix(-10.0765 19.0513 19.0513 10.0765 -13497.5195 2863.8982)">
									<stop  offset="0" style="stop-color:#424242"/>
									<stop  offset="0.118" style="stop-color:#424242"/>
									<stop  offset="0.5871" style="stop-color:#FFFFFF"/>
									<stop  offset="0.8421" style="stop-color:#4F4F4F"/>
									<stop  offset="0.9777" style="stop-color:#4F4F4F"/>
									<stop  offset="1" style="stop-color:#4F4F4F"/>
								</linearGradient>
								<polygon style="fill:url(#SVGID_5_);" points="74.1,20 37.8,88.6 -37,49 -0.7,-19.5 								"/>
							</g>
						</mask>
						<g style="mask:url(#SVGID_3_);">
							<g>
								<linearGradient id="SVGID_6_" gradientUnits="userSpaceOnUse" x1="13.5503" y1="43.9287" x2="23.5559" y2="25.1108">
									<stop  offset="0" style="stop-color:#FFFFFF"/>
									<stop  offset="0.3742" style="stop-color:#ACADAE"/>
									<stop  offset="1" style="stop-color:#C9CACA"/>
								</linearGradient>
								<path style="fill:url(#SVGID_6_);" d="M42.5,35.8L41.2,35c-0.2-0.1-0.7,0.2-1.3,0.9l-0.7-0.4c0,0,0,0-0.1,0
									c0.2-0.9,0.3-1.5,0-1.6L37.7,33c-0.2-0.1-0.7,0.2-1.3,0.9l-0.7-0.4c0.2-0.9,0.3-1.5,0-1.6l-1.4-0.8C34.1,31,33.7,31.3,33,32
									l-0.7-0.4c0,0,0,0-0.1,0c0.2-0.9,0.3-1.5,0-1.6l-1.4-0.8c-0.2-0.1-0.7,0.2-1.3,0.9l-0.7-0.4c0,0,0,0-0.1,0
									c0.2-0.9,0.2-1.4,0-1.6c0,0-0.1-0.1-0.1-0.1c0-0.1-0.1-0.1-0.1-0.1c-0.7-0.4-24.3-13-24.3-13c-0.7-0.4-3.5,3.4-6.2,8.5
									c-2.7,5.1-4.3,9.5-3.6,9.9c0,0,23.6,12.6,24.3,13c0,0,0,0.1,0.1,0.1c0,0.1,0.1,0.1,0.2,0.1c0.2,0.1,0.6-0.2,1.2-0.8
									c0,0,0,0.1,0.1,0.1c0,0,0.3,0.2,0.8,0.5c-0.1,0.7-0.1,1.1,0.1,1.2c0,0,0.6,0.4,1.3,0.8c0,0,0,0.1,0,0.1l0,0c0,0,0,0,0.1,0
									c0.2,0.1,0.6-0.2,1.1-0.7c0,0,0,0.1,0.1,0.1c0,0,0.3,0.2,0.8,0.5c-0.1,0.7-0.1,1.1,0.1,1.2c0,0,0.6,0.4,1.3,0.8
									c0,0,0,0.1,0,0.1l0,0c0,0,0,0,0.1,0c0.2,0.1,0.6-0.2,1.1-0.7c0,0,0,0,0,0.1c0,0,0.3,0.2,0.8,0.5c-0.1,0.7-0.1,1.1,0.1,1.2
									c0,0,0.6,0.4,1.3,0.8c0,0,0,0.1,0,0.1l0,0c0,0,0,0,0.1,0c0.2,0.1,0.6-0.2,1.1-0.7c0,0,0,0.1,0.1,0.1c0,0,0.3,0.2,0.8,0.5
									c-0.1,0.7-0.1,1.1,0.1,1.2c0,0,0.6,0.4,1.3,0.8c0,0,0,0.1,0,0.1l0,0c0,0,0,0,0.1,0c0.7,0.4,3.5-3.4,6.2-8.5
									C41.7,40.6,43.3,36.2,42.5,35.8"/>
								<path class="st7" d="M42.5,35.8L41.2,35c-0.2-0.1-0.7,0.2-1.3,0.9l-0.7-0.4c0,0,0,0-0.1,0c0.2-0.9,0.3-1.5,0-1.6L37.7,33
									c-0.2-0.1-0.7,0.2-1.3,0.9l-0.7-0.4c0.2-0.9,0.3-1.5,0-1.6l-1.4-0.8C34.1,31,33.7,31.3,33,32l-0.7-0.4c0,0,0,0-0.1,0
									c0.2-0.9,0.3-1.5,0-1.6l-1.4-0.8c-0.2-0.1-0.7,0.2-1.3,0.9l-0.7-0.4c0,0,0,0-0.1,0c0.2-0.9,0.2-1.4,0-1.6
									c0,0-0.1-0.1-0.1-0.1c0-0.1-0.1-0.1-0.1-0.1c-0.7-0.4-24.3-13-24.3-13c-0.7-0.4-3.5,3.4-6.2,8.5c-2.7,5.1-4.3,9.5-3.6,9.9
									c0,0,23.6,12.6,24.3,13c0,0,0,0.1,0.1,0.1c0,0.1,0.1,0.1,0.2,0.1c0.2,0.1,0.6-0.2,1.2-0.8c0,0,0,0.1,0.1,0.1
									c0,0,0.3,0.2,0.8,0.5c-0.1,0.7-0.1,1.1,0.1,1.2c0,0,0.6,0.4,1.3,0.8c0,0,0,0.1,0,0.1l0,0c0,0,0,0,0.1,0
									c0.2,0.1,0.6-0.2,1.1-0.7c0,0,0,0.1,0.1,0.1c0,0,0.3,0.2,0.8,0.5c-0.1,0.7-0.1,1.1,0.1,1.2c0,0,0.6,0.4,1.3,0.8
									c0,0,0,0.1,0,0.1l0,0c0,0,0,0,0.1,0c0.2,0.1,0.6-0.2,1.1-0.7c0,0,0,0,0,0.1c0,0,0.3,0.2,0.8,0.5c-0.1,0.7-0.1,1.1,0.1,1.2
									c0,0,0.6,0.4,1.3,0.8c0,0,0,0.1,0,0.1l0,0c0,0,0,0,0.1,0c0.2,0.1,0.6-0.2,1.1-0.7c0,0,0,0.1,0.1,0.1c0,0,0.3,0.2,0.8,0.5
									c-0.1,0.7-0.1,1.1,0.1,1.2c0,0,0.6,0.4,1.3,0.8c0,0,0,0.1,0,0.1l0,0c0,0,0,0,0.1,0c0.7,0.4,3.5-3.4,6.2-8.5
									C41.7,40.6,43.3,36.2,42.5,35.8z"/>
							</g>
						</g>
					</g>
				</g>
			</g>
			<g>
				<defs>
					<polygon id="SVGID_177_" points="55.7,-8.5 40.2,-15.1 29.3,5.8 29.8,23.8 34.2,26.2 40.5,14.4 41.2,14.7 41.1,15.1 42.7,16 
											"/>
				</defs>
				<clipPath id="SVGID_7_">
					<use xlink:href="#SVGID_177_"  style="overflow:visible;"/>
				</clipPath>
			</g>
			<g>
				<linearGradient id="SVGID_8_" gradientUnits="userSpaceOnUse" x1="30.9101" y1="2.3232" x2="47.1661" y2="9.9035">
					<stop  offset="0" style="stop-color:#FFFFFF"/>
					<stop  offset="1" style="stop-color:#AAA892"/>
				</linearGradient>
				<polygon style="fill:url(#SVGID_8_);stroke:#000000;stroke-width:0.332;stroke-linecap:round;stroke-linejoin:round;" points="
					55.7,-8.5 40.2,-15.1 29.3,5.8 29.8,23.8 34.2,26.2 40.5,14.4 41.2,14.7 41.1,15.1 42.7,16 				"/>
			</g>
			<g>
				<defs>
					<polygon id="SVGID_180_" points="37.7,28.4 38.4,28.4 39.7,26.8 57.7,-7.2 55.7,-8.5 42.7,16.1 42.1,19.5 37.8,27.7 					"/>
				</defs>
				<clipPath id="SVGID_10_">
					<use xlink:href="#SVGID_180_"  style="overflow:visible;"/>
				</clipPath>
				
					<linearGradient id="SVGID_11_" gradientUnits="userSpaceOnUse" x1="-364.9577" y1="510.4924" x2="-363.958" y2="510.4924" gradientTransform="matrix(20.0992 0 0 -20.0992 7373.0132 10270.4434)">
					<stop  offset="0" style="stop-color:#FFFFFF"/>
					<stop  offset="1" style="stop-color:#B5B4AA"/>
				</linearGradient>
				<rect x="37.7" y="-8.5" style="clip-path:url(#SVGID_10_);fill:url(#SVGID_11_);" width="20" height="36.8"/>
			</g>
			<g>
				<polygon class="st10" points="37.7,28.4 38.4,28.4 39.7,26.8 57.7,-7.2 55.7,-8.5 42.7,16.1 42.1,19.5 37.8,27.7 				"/>
			</g>
			<g>
				<defs>
					<polygon id="SVGID_183_" points="36.8,21.4 40.5,14.4 43.2,15.1 42.7,19.9 37.4,21.7 					"/>
				</defs>
				<clipPath id="SVGID_13_">
					<use xlink:href="#SVGID_183_"  style="overflow:visible;"/>
				</clipPath>
				
					<linearGradient id="SVGID_14_" gradientUnits="userSpaceOnUse" x1="-326.2913" y1="554.502" x2="-325.2916" y2="554.502" gradientTransform="matrix(6.5761 0 0 -6.5761 2182.4026 3664.4824)">
					<stop  offset="0" style="stop-color:#FFFFFF"/>
					<stop  offset="1" style="stop-color:#B5B4AA"/>
				</linearGradient>
				<rect x="36.8" y="14.4" class="st9" width="6.4" height="7.3"/>
			</g>
			<polygon class="st10" points="36.8,21.4 40.5,14.4 43.2,15.1 42.7,19.9 37.4,21.7 			"/>
			<line class="st10" x1="40.5" y1="14.4" x2="39.6" y2="18.2"/>
			<g>
				<defs>
					<path id="SVGID_186_" d="M40,17.3l-0.2-0.1l-2.3,3.5L37,20.8l-2.9,5.4l0,0.6L32,31.4l1,0.5c0.5-0.8,1.3-1,1.3-1l0.2,0.1
						l1.9-2.7l1.2,0.4l1.6-1.8l2.8-6.3l0.4-2l-0.7-0.6l0.5-1.9L41,15.5L40,17.3z"/>
				</defs>
				<clipPath id="SVGID_16_">
					<use xlink:href="#SVGID_186_"  style="overflow:visible;"/>
				</clipPath>
				
					<linearGradient id="SVGID_17_" gradientUnits="userSpaceOnUse" x1="-347.8669" y1="529.9645" x2="-346.8668" y2="529.9645" gradientTransform="matrix(10.5317 0 0 -10.5317 3695.5457 5605.1255)">
					<stop  offset="0" style="stop-color:#B5B6B6"/>
					<stop  offset="1" style="stop-color:#68666C"/>
				</linearGradient>
				<rect x="32" y="15.5" style="clip-path:url(#SVGID_16_);fill:url(#SVGID_17_);" width="10.4" height="16.4"/>
			</g>
			<g>
				<path class="st10" d="M41,15.5l1.1,0.7l-0.5,1.9l0.7,0.6l-0.4,2L39.2,27l-1.6,1.8l-1.2-0.4L34.5,31l-0.2-0.1c0,0-0.8,0.3-1.3,1
					l-1-0.5l2.1-4.5l0-0.6l2.9-5.4l0.4-0.1l2.3-3.5l0.2,0.1L41,15.5z"/>
			</g>
			<line class="st17" x1="40.3" y1="16.8" x2="41.3" y2="17.4"/>
			<g>
				<path class="st17" d="M42.1,16.2l-3.9,6.6c0,0-0.3,0.6,0,0.7l0.8,0.4"/>
				<path class="st17" d="M42.4,18.7l-3.3,4.9l-2.2,4.2c0,0,0.6,0.5,0.7,0.9"/>
				<path class="st17" d="M36.9,27.8l-0.6-0.3c0,0-0.3-0.2-0.5,0.2c-0.3,0.4-1.5,3.1-1.5,3.1"/>
			</g>
			<polyline class="st17" points="34.1,26.3 35.1,26.8 35.1,27.4 33,31.9 			"/>
			<line class="st17" x1="34.1" y1="26.9" x2="35.1" y2="27.4"/>
			<line class="st17" x1="35.1" y1="26.8" x2="36.5" y2="23.8"/>
			<line class="st17" x1="40" y1="17.2" x2="37.4" y2="22.8"/>
			<g>
				<defs>
					<path id="SVGID_189_" d="M32.6,13.8c0,0.6,0.5,1.1,1.1,1.1c0.6,0,1.1-0.5,1.1-1.1c0-0.6-0.5-1.1-1.1-1.1
						C33.1,12.7,32.6,13.2,32.6,13.8"/>
				</defs>
				<clipPath id="SVGID_19_">
					<use xlink:href="#SVGID_189_"  style="overflow:visible;"/>
				</clipPath>
			</g>
			<g>
				<linearGradient id="SVGID_20_" gradientUnits="userSpaceOnUse" x1="32.5684" y1="13.7612" x2="34.7813" y2="13.7612">
					<stop  offset="0" style="stop-color:#68666C"/>
					<stop  offset="1" style="stop-color:#E9EAEA"/>
				</linearGradient>
				<path style="fill:url(#SVGID_20_);stroke:#000000;stroke-width:0.332;stroke-linecap:round;stroke-linejoin:round;" d="
					M33.7,14.9c0.6,0,1.1-0.5,1.1-1.1c0-0.6-0.5-1.1-1.1-1.1c-0.6,0-1.1,0.5-1.1,1.1C32.6,14.4,33.1,14.9,33.7,14.9z"/>
			</g>
			<g>
				<defs>
					<path id="SVGID_192_" d="M31.1,16.4c0,0.1-0.1,0.5,0.1,0.9c0.1,0.4,0.8,2.1,2.1,3.7l2.6,3.7c0,0,0.2,0.2,0.4,0.1
						c0.2,0,1.2-0.4,1.2-0.4s0.2-0.1,0.2-0.4c0-0.3-0.3-4-0.3-5.1c0-1,0.1-1.7,0.1-1.7c0-0.2,0-0.3,0-0.5c0-1.8-1.4-3.2-3.2-3.2
						C32.7,13.5,31.3,14.8,31.1,16.4"/>
				</defs>
				<clipPath id="SVGID_22_">
					<use xlink:href="#SVGID_192_"  style="overflow:visible;"/>
				</clipPath>
			</g>
			<g>
				<linearGradient id="SVGID_23_" gradientUnits="userSpaceOnUse" x1="31.0888" y1="19.1892" x2="37.7002" y2="19.1892">
					<stop  offset="0" style="stop-color:#FFFFFF"/>
					<stop  offset="0.4714" style="stop-color:#C7C8C8"/>
					<stop  offset="0.6747" style="stop-color:#EDEDED"/>
					<stop  offset="1" style="stop-color:#AAABAB"/>
				</linearGradient>
				<path style="fill:url(#SVGID_23_);stroke:#000000;stroke-width:0.332;stroke-linecap:round;stroke-linejoin:round;" d="
					M37.5,17.3c0-0.2,0-0.3,0-0.5c0-1.8-1.4-3.2-3.2-3.2c-1.6,0-3,1.2-3.2,2.8c0,0.1-0.1,0.5,0.1,0.9c0.1,0.4,0.8,2.1,2.1,3.7
					l2.6,3.7c0,0,0.2,0.2,0.4,0.1c0.2,0,1.2-0.4,1.2-0.4s0.3-0.1,0.3-0.4c0-0.3-0.3-4-0.3-5.1C37.4,17.9,37.5,17.3,37.5,17.3z"/>
				<path class="st10" d="M35.4,24c0.1,0.1,0.4,0,0.4,0s0.8-0.2,1.1-0.3c0.3-0.1,0.3-0.3,0.3-0.3l-0.1-0.5c-0.3-1.7-0.2-2.6-0.3-3.3
					c-0.1-0.7,0-1.5,0-3.1c0-1.6-1.1-2.8-2.7-2.8c-0.5,0-1,0.1-1.4,0.4"/>
			</g>
			<g>
				<defs>
					<path id="SVGID_195_" d="M32.1,16.5c0,1,0.8,1.9,1.9,1.9c1,0,1.9-0.8,1.9-1.9s-0.8-1.9-1.9-1.9C32.9,14.7,32.1,15.5,32.1,16.5"
						/>
				</defs>
				<clipPath id="SVGID_25_">
					<use xlink:href="#SVGID_195_"  style="overflow:visible;"/>
				</clipPath>
			</g>
			<g>
				<linearGradient id="SVGID_26_" gradientUnits="userSpaceOnUse" x1="32.0508" y1="16.542" x2="35.8233" y2="16.542">
					<stop  offset="0" style="stop-color:#E9EAEA"/>
					<stop  offset="1" style="stop-color:#68666C"/>
				</linearGradient>
				<path style="fill:url(#SVGID_26_);stroke:#000000;stroke-width:0.332;stroke-linecap:round;stroke-linejoin:round;" d="
					M33.9,18.4c1,0,1.9-0.8,1.9-1.9c0-1-0.8-1.9-1.9-1.9c-1,0-1.9,0.8-1.9,1.9C32.1,17.6,32.9,18.4,33.9,18.4z"/>
			</g>
			<linearGradient id="SVGID_28_" gradientUnits="userSpaceOnUse" x1="32.7588" y1="16.5308" x2="34.96" y2="16.5308">
				<stop  offset="0" style="stop-color:#68666C"/>
				<stop  offset="1" style="stop-color:#E9EAEA"/>
			</linearGradient>
			<polygon style="fill:url(#SVGID_28_);stroke:#000000;stroke-width:0.332;stroke-linecap:round;stroke-linejoin:round;" points="
				33.2,15.6 32.8,16.7 33.4,17.6 34.5,17.4 35,16.4 34.3,15.5 			"/>
			<g>
				<path class="st10" d="M28.7,28.1c-0.7-0.4-3.5,3.4-6.2,8.5c-2.7,5.1-4.3,9.5-3.6,9.9"/>
			</g>
			<g>
				<defs>
					<path id="SVGID_199_" d="M23.4,37.1c-2.4,4.5-3.8,8.3-3.1,8.7c0,0,0.3,0.2,0.8,0.5c0.3-1.7,1.7-5,3.6-8.6
						c1.8-3.4,3.6-6.2,4.8-7.6l-0.7-0.4c0,0-0.1,0-0.1,0C28,29.6,25.7,32.8,23.4,37.1"/>
				</defs>
				<clipPath id="SVGID_29_">
					<use xlink:href="#SVGID_199_"  style="overflow:visible;"/>
				</clipPath>
			</g>
			<g>
				<linearGradient id="SVGID_31_" gradientUnits="userSpaceOnUse" x1="20.1646" y1="37.9231" x2="29.5547" y2="37.9231">
					<stop  offset="0" style="stop-color:#FFFFFF"/>
					<stop  offset="0.2945" style="stop-color:#B5E1F8"/>
					<stop  offset="0.6748" style="stop-color:#00ADEC"/>
					<stop  offset="1" style="stop-color:#B5E1F8"/>
				</linearGradient>
				<path style="fill:url(#SVGID_31_);stroke:#000000;stroke-width:0.332;stroke-linecap:round;stroke-linejoin:round;" d="
					M29.6,30.1l-0.7-0.4c-0.6-0.3-3,3-5.4,7.5s-3.8,8.3-3.1,8.7c0,0,0.3,0.2,0.8,0.5c0.3-1.7,1.7-5,3.6-8.6
					C26.5,34.2,28.3,31.4,29.6,30.1z"/>
				<path class="st10" d="M30.9,29.1c-0.7-0.4-3.5,3.4-6.2,8.5c-2.7,5.1-4.3,9.5-3.6,9.9"/>
				<path class="st10" d="M32.2,29.9c-0.7-0.4-3.5,3.4-6.2,8.5c-2.7,5.1-4.3,9.5-3.6,9.9"/>
			</g>
			<g>
				<defs>
					<path id="SVGID_202_" d="M26.9,39.1c-2.4,4.5-3.8,8.3-3.1,8.7c0,0,0.3,0.2,0.8,0.5c0.3-1.7,1.7-5,3.6-8.6
						c1.8-3.4,3.6-6.2,4.8-7.6l-0.7-0.4c0,0-0.1,0-0.1,0C31.4,31.6,29.1,34.8,26.9,39.1"/>
				</defs>
				<clipPath id="SVGID_32_">
					<use xlink:href="#SVGID_202_"  style="overflow:visible;"/>
				</clipPath>
			</g>
			<g>
				<linearGradient id="SVGID_34_" gradientUnits="userSpaceOnUse" x1="23.6015" y1="39.9124" x2="32.9922" y2="39.9124">
					<stop  offset="0" style="stop-color:#FFFFFF"/>
					<stop  offset="0.2945" style="stop-color:#B5E1F8"/>
					<stop  offset="0.6748" style="stop-color:#00ADEC"/>
					<stop  offset="1" style="stop-color:#B5E1F8"/>
				</linearGradient>
				<path style="fill:url(#SVGID_34_);stroke:#000000;stroke-width:0.332;stroke-linecap:round;stroke-linejoin:round;" d="M33,32
					l-0.7-0.4c-0.6-0.3-3,3-5.4,7.5c-2.4,4.5-3.8,8.3-3.1,8.7c0,0,0.3,0.2,0.8,0.5c0.3-1.7,1.7-5,3.6-8.6C30,36.2,31.8,33.4,33,32z"
					/>
				<path class="st10" d="M34.3,31.1c-0.7-0.4-3.5,3.4-6.2,8.5c-2.7,5.1-4.3,9.5-3.6,9.9"/>
				<path class="st10" d="M35.6,31.9c-0.7-0.4-3.5,3.4-6.2,8.5c-2.7,5.1-4.3,9.5-3.6,9.9"/>
			</g>
			<g>
				<defs>
					<path id="SVGID_205_" d="M30.3,41c-2.4,4.5-3.8,8.3-3.1,8.7c0,0,0.3,0.2,0.8,0.5c0.3-1.7,1.7-5,3.6-8.6
						c1.8-3.4,3.6-6.2,4.8-7.6l-0.7-0.4c0,0-0.1,0-0.1,0C34.8,33.5,32.5,36.7,30.3,41"/>
				</defs>
				<clipPath id="SVGID_35_">
					<use xlink:href="#SVGID_205_"  style="overflow:visible;"/>
				</clipPath>
			</g>
			<g>
				<linearGradient id="SVGID_37_" gradientUnits="userSpaceOnUse" x1="26.9979" y1="41.7962" x2="36.3887" y2="41.7962">
					<stop  offset="0" style="stop-color:#FFFFFF"/>
					<stop  offset="0.2945" style="stop-color:#B5E1F8"/>
					<stop  offset="0.6748" style="stop-color:#00ADEC"/>
					<stop  offset="1" style="stop-color:#B5E1F8"/>
				</linearGradient>
				<path style="fill:url(#SVGID_37_);stroke:#000000;stroke-width:0.332;stroke-linecap:round;stroke-linejoin:round;" d="
					M36.4,33.9l-0.7-0.4c-0.6-0.3-3,3-5.4,7.5s-3.8,8.3-3.1,8.7c0,0,0.3,0.2,0.8,0.5c0.3-1.7,1.7-5,3.6-8.6
					C33.4,38.1,35.2,35.3,36.4,33.9z"/>
				<path class="st10" d="M37.7,33c-0.7-0.4-3.5,3.4-6.2,8.5c-2.7,5.1-4.3,9.5-3.6,9.9"/>
				<path class="st10" d="M39,33.8c-0.7-0.4-3.5,3.4-6.2,8.5c-2.7,5.1-4.3,9.5-3.6,9.9"/>
			</g>
			<g>
				<defs>
					<path id="SVGID_208_" d="M33.7,42.9c-2.4,4.5-3.8,8.3-3.1,8.7c0,0,0.3,0.2,0.8,0.5c0.3-1.7,1.7-5,3.6-8.6
						c1.8-3.4,3.6-6.2,4.8-7.6l-0.7-0.4c0,0-0.1,0-0.1,0C38.2,35.4,35.9,38.7,33.7,42.9"/>
				</defs>
				<clipPath id="SVGID_38_">
					<use xlink:href="#SVGID_208_"  style="overflow:visible;"/>
				</clipPath>
			</g>
			<g>
				<linearGradient id="SVGID_40_" gradientUnits="userSpaceOnUse" x1="30.3818" y1="43.7503" x2="39.7725" y2="43.7503">
					<stop  offset="0" style="stop-color:#FFFFFF"/>
					<stop  offset="0.2945" style="stop-color:#B5E1F8"/>
					<stop  offset="0.6748" style="stop-color:#00ADEC"/>
					<stop  offset="1" style="stop-color:#B5E1F8"/>
				</linearGradient>
				<path style="fill:url(#SVGID_40_);stroke:#000000;stroke-width:0.332;stroke-linecap:round;stroke-linejoin:round;" d="
					M39.8,35.9l-0.7-0.4c-0.6-0.3-3,3-5.4,7.5c-2.4,4.5-3.8,8.3-3.1,8.7c0,0,0.3,0.2,0.8,0.5c0.3-1.7,1.7-5,3.6-8.6
					C36.7,40.1,38.5,37.3,39.8,35.9z"/>
				<path class="st10" d="M41.1,34.9c-0.7-0.4-3.5,3.4-6.2,8.5c-2.7,5.1-4.3,9.5-3.6,9.9"/>
				<path class="st10" d="M42.4,35.7c-0.7-0.4-3.5,3.4-6.2,8.5c-2.7,5.1-4.3,9.5-3.6,9.9"/>
			</g>
		</g>
	</g>
</g>
<g>
	<path class="st1" d="M9.3,4.5c0,0-4.8,0-4.8,4.8v38c0,0,0,4.8,4.8,4.8h38c0,0,4.8,0,4.8-4.8v-38c0,0,0-4.8-4.8-4.8H9.3z"/>
</g>
</svg>
