<?xml version="1.0" encoding="utf-8"?>
<!-- Generator: Adobe Illustrator 25.4.1, SVG Export Plug-In . SVG Version: 6.00 Build 0)  -->
<svg version="1.1" id="레이어_1" xmlns="http://www.w3.org/2000/svg" xmlns:xlink="http://www.w3.org/1999/xlink" x="0px"
	 y="0px" viewBox="0 0 56.7 56.7" style="enable-background:new 0 0 56.7 56.7;" xml:space="preserve">
<style type="text/css">
	.st0{clip-path:url(#SVGID_00000091714487706847653930000007459336556234090638_);}
	
		.st1{fill:url(#SVGID_00000085939224412143367820000003163994812338329764_);stroke:#231916;stroke-width:0.15;stroke-linecap:round;stroke-linejoin:round;}
	
		.st2{fill:url(#SVGID_00000078736782798316500400000009655603871049277110_);stroke:#231916;stroke-width:0.15;stroke-linecap:round;stroke-linejoin:round;}
	
		.st3{fill:url(#SVGID_00000090257109348413879610000004350425039714907302_);stroke:#231916;stroke-width:0.15;stroke-linecap:round;stroke-linejoin:round;}
	.st4{fill:none;stroke:#010100;stroke-width:0.15;stroke-miterlimit:10;}
	
		.st5{fill:url(#SVGID_00000041987672911237850240000016285122442952194236_);stroke:#231916;stroke-width:0.15;stroke-linecap:round;stroke-linejoin:round;}
	
		.st6{fill:url(#SVGID_00000087392122539476411110000006923256231440940723_);stroke:#231916;stroke-width:0.15;stroke-linecap:round;stroke-linejoin:round;}
	
		.st7{fill:url(#SVGID_00000062880877318388495450000014269336999759540114_);stroke:#231916;stroke-width:0.15;stroke-linecap:round;stroke-linejoin:round;}
	
		.st8{fill:url(#SVGID_00000027599808685216875000000013991649105069272202_);stroke:#231916;stroke-width:0.15;stroke-linecap:round;stroke-linejoin:round;}
	
		.st9{fill:url(#SVGID_00000140733732754368517850000010786507252462413982_);stroke:#231916;stroke-width:0.15;stroke-linecap:round;stroke-linejoin:round;}
	
		.st10{fill:url(#SVGID_00000063598609699627106670000012430317559744394887_);stroke:#231916;stroke-width:0.15;stroke-linecap:round;stroke-linejoin:round;}
	
		.st11{fill:url(#SVGID_00000015342667940398754460000002955213782511396251_);stroke:#231916;stroke-width:0.15;stroke-linecap:round;stroke-linejoin:round;}
	
		.st12{fill:url(#SVGID_00000050664413348919583770000017547418011038336662_);stroke:#231916;stroke-width:0.15;stroke-linecap:round;stroke-linejoin:round;}
	
		.st13{fill:url(#SVGID_00000085933674577765012760000003486237313244407196_);stroke:#231916;stroke-width:0.15;stroke-linecap:round;stroke-linejoin:round;}
	
		.st14{fill:url(#SVGID_00000100340981726383515640000002206364959116444342_);stroke:#231916;stroke-width:0.15;stroke-linecap:round;stroke-linejoin:round;}
	
		.st15{fill:url(#SVGID_00000169541449021614704670000001370082515415920267_);stroke:#231916;stroke-width:0.15;stroke-linecap:round;stroke-linejoin:round;}
	
		.st16{fill:url(#SVGID_00000116925245882737700870000009564261323541442703_);stroke:#231916;stroke-width:0.15;stroke-linecap:round;stroke-linejoin:round;}
	
		.st17{fill:url(#SVGID_00000085251932501340344190000007152402656564331438_);stroke:#231916;stroke-width:0.15;stroke-linecap:round;stroke-linejoin:round;}
	
		.st18{fill:url(#SVGID_00000127753062400614948110000014761216828194314128_);stroke:#231916;stroke-width:0.15;stroke-linecap:round;stroke-linejoin:round;}
	
		.st19{fill:url(#SVGID_00000163775245889052950210000018049453428232209589_);stroke:#231916;stroke-width:0.15;stroke-linecap:round;stroke-linejoin:round;}
	
		.st20{fill:url(#SVGID_00000131359602546132634330000014590641418885751693_);stroke:#231916;stroke-width:0.15;stroke-linecap:round;stroke-linejoin:round;}
	
		.st21{fill:url(#SVGID_00000061438991474372858610000016149042715264463532_);stroke:#231916;stroke-width:0.15;stroke-linecap:round;stroke-linejoin:round;}
	
		.st22{fill:url(#SVGID_00000009563686140290255990000008484797747409256361_);stroke:#231916;stroke-width:0.15;stroke-linecap:round;stroke-linejoin:round;}
	
		.st23{fill:url(#SVGID_00000067931096659425049280000005332046280006127295_);stroke:#231916;stroke-width:0.15;stroke-linecap:round;stroke-linejoin:round;}
	
		.st24{fill:url(#SVGID_00000116934906340877165880000005624514309378491802_);stroke:#231916;stroke-width:0.15;stroke-linecap:round;stroke-linejoin:round;}
	
		.st25{fill:url(#SVGID_00000150095799506006924410000009521007826296761223_);stroke:#231916;stroke-width:0.15;stroke-linecap:round;stroke-linejoin:round;}
	
		.st26{fill:url(#SVGID_00000010279455685448541160000005316651568025633456_);stroke:#231916;stroke-width:0.15;stroke-linecap:round;stroke-linejoin:round;}
	
		.st27{fill:url(#SVGID_00000177458607132034290710000009862765358127911845_);stroke:#231916;stroke-width:0.15;stroke-linecap:round;stroke-linejoin:round;}
	.st28{fill:url(#SVGID_00000146458543369758814130000010310199578007443640_);}
	.st29{fill:none;stroke:#231916;stroke-width:0.5;stroke-linecap:round;stroke-linejoin:round;}
	.st30{clip-path:url(#SVGID_00000126307121396903725500000007453502937462271899_);}
	.st31{fill:url(#SVGID_00000080200683417488551920000005887081555219980437_);}
	.st32{fill:none;stroke:#231916;stroke-width:0.3;stroke-linecap:round;stroke-linejoin:round;}
	.st33{clip-path:url(#SVGID_00000138554035779298587720000002643289850970235582_);}
	.st34{fill:url(#SVGID_00000168826752846553732620000009498224226379006389_);}
	
		.st35{fill:url(#SVGID_00000174579981163705745630000016858668988999508909_);stroke:#231916;stroke-width:0.3;stroke-linecap:round;stroke-linejoin:round;}
	
		.st36{fill:url(#SVGID_00000147221806946586324080000011858333152607880379_);stroke:#231916;stroke-width:0.3;stroke-linecap:round;stroke-linejoin:round;}
	
		.st37{fill:url(#SVGID_00000162333501056016566890000002545755882843604630_);stroke:#231916;stroke-width:0.3;stroke-linecap:round;stroke-linejoin:round;}
	.st38{clip-path:url(#SVGID_00000142896263282525214350000007434902223597948290_);}
	.st39{fill:url(#SVGID_00000093156493459593150050000009338130379031316107_);}
	.st40{fill:#9FA0A0;}
	
		.st41{fill:url(#SVGID_00000085942016699239468560000008173967154751284917_);stroke:#231916;stroke-width:0.3;stroke-miterlimit:10;}
	.st42{fill:none;stroke:#9FA0A0;stroke-width:0.85;}
</style>
<g>
	<defs>
		<path id="SVGID_1_" d="M9.4,4.5c0,0-4.8,0-4.8,4.8v38c0,0,0,4.8,4.8,4.8h38c0,0,4.8,0,4.8-4.8v-38c0,0,0-4.8-4.8-4.8L9.4,4.5z"/>
	</defs>
	<clipPath id="SVGID_00000159446716540930144630000015422442048750516903_">
		<use xlink:href="#SVGID_1_"  style="overflow:visible;"/>
	</clipPath>
	<g style="clip-path:url(#SVGID_00000159446716540930144630000015422442048750516903_);">
		
			<linearGradient id="SVGID_00000114772166539109488480000006860529462889833097_" gradientUnits="userSpaceOnUse" x1="21.1558" y1="53.6645" x2="33.6358" y2="74.6545" gradientTransform="matrix(0.99 0.17 0.16 -0.93 -44.74 60.54)">
			<stop  offset="0" style="stop-color:#FFFFFF"/>
			<stop  offset="0.3" style="stop-color:#E6E6E6"/>
			<stop  offset="1" style="stop-color:#EBECEC"/>
		</linearGradient>
		
			<polygon style="fill:url(#SVGID_00000114772166539109488480000006860529462889833097_);stroke:#231916;stroke-width:0.15;stroke-linecap:round;stroke-linejoin:round;" points="
			-18.3,-18.7 19.9,9.8 3.3,30 -35.6,0.6 		"/>
		
			<linearGradient id="SVGID_00000034788809791461675100000011828979448943521450_" gradientUnits="userSpaceOnUse" x1="5.2016" y1="26.2663" x2="22.7233" y2="45.7282" gradientTransform="matrix(1 0 0 -1 0 58)">
			<stop  offset="0" style="stop-color:#FFFFFF"/>
			<stop  offset="0.3" style="stop-color:#E6E6E6"/>
			<stop  offset="1" style="stop-color:#EBECEC"/>
		</linearGradient>
		
			<path style="fill:url(#SVGID_00000034788809791461675100000011828979448943521450_);stroke:#231916;stroke-width:0.15;stroke-linecap:round;stroke-linejoin:round;" d="
			M3.3,30l10.1,1.5c1.6,1.3,5.2-0.3,8-3.8s3.8-7.3,2.2-8.6L20,9.8c-2.6-2.2-8.5,0.6-13.1,6.1S0.6,27.8,3.3,30"/>
		
			<linearGradient id="SVGID_00000116939227151789245470000004835545252366420661_" gradientUnits="userSpaceOnUse" x1="13.0655" y1="27.0723" x2="24.1523" y2="38.1691" gradientTransform="matrix(1 0 0 -1 0 58)">
			<stop  offset="0.44" style="stop-color:#95D5F6"/>
			<stop  offset="1" style="stop-color:#0056A8"/>
		</linearGradient>
		
			<path style="fill:url(#SVGID_00000116939227151789245470000004835545252366420661_);stroke:#231916;stroke-width:0.15;stroke-linecap:round;stroke-linejoin:round;" d="
			M13.6,31.4c1.6,1.3,5.1-0.3,7.9-3.7s3.7-7.1,2.1-8.4s-5.1,0.3-7.9,3.7S12,30.1,13.6,31.4"/>
		<path class="st4" d="M13.6,31.4c1.6,1.3,5.1-0.3,7.9-3.7s3.7-7.1,2.1-8.4s-5.1,0.3-7.9,3.7S12,30.1,13.6,31.4z"/>
		
			<linearGradient id="SVGID_00000151542432071973772050000017955702396446517429_" gradientUnits="userSpaceOnUse" x1="13.4936" y1="26.9664" x2="23.4685" y2="36.9413" gradientTransform="matrix(1 0 0 -1 0 58)">
			<stop  offset="0" style="stop-color:#0067B6"/>
			<stop  offset="0.25" style="stop-color:#73C1EC"/>
			<stop  offset="0.73" style="stop-color:#A5D8F5"/>
			<stop  offset="1" style="stop-color:#008CD6"/>
		</linearGradient>
		
			<path style="fill:url(#SVGID_00000151542432071973772050000017955702396446517429_);stroke:#231916;stroke-width:0.15;stroke-linecap:round;stroke-linejoin:round;" d="
			M21.5,27.7c2.6-3.4,2.7-6.1,1.4-7.3c-1.2-1-3.9,0-6.5,3s-3.7,6.4-2.5,8.1C15.4,32.8,18.8,31.1,21.5,27.7"/>
		
			<linearGradient id="SVGID_00000067941320682451959060000009322014201381486747_" gradientUnits="userSpaceOnUse" x1="14.9223" y1="31.135" x2="26.4898" y2="31.135" gradientTransform="matrix(1 0 0 -1 0 58)">
			<stop  offset="0" style="stop-color:#0067B6"/>
			<stop  offset="0.42" style="stop-color:#95D5F6"/>
			<stop  offset="0.82" style="stop-color:#0056A8"/>
		</linearGradient>
		
			<path style="fill:url(#SVGID_00000067941320682451959060000009322014201381486747_);stroke:#231916;stroke-width:0.15;stroke-linecap:round;stroke-linejoin:round;" d="
			M15.7,32.9c1.6,1.3,5.1-0.3,7.9-3.7s3.7-7.1,2.1-8.4s-5.1,0.3-7.9,3.7S14.1,31.6,15.7,32.9"/>
		<path class="st4" d="M15.7,32.9c1.6,1.3,5.1-0.3,7.9-3.7s3.7-7.1,2.1-8.4s-5.1,0.3-7.9,3.7S14.1,31.6,15.7,32.9z"/>
		
			<linearGradient id="SVGID_00000075158011626023290700000014720729589392708507_" gradientUnits="userSpaceOnUse" x1="15.5862" y1="25.4738" x2="25.5662" y2="35.4538" gradientTransform="matrix(1 0 0 -1 0 58)">
			<stop  offset="0" style="stop-color:#0067B6"/>
			<stop  offset="0.25" style="stop-color:#73C1EC"/>
			<stop  offset="0.73" style="stop-color:#A5D8F5"/>
			<stop  offset="1" style="stop-color:#008CD6"/>
		</linearGradient>
		
			<path style="fill:url(#SVGID_00000075158011626023290700000014720729589392708507_);stroke:#231916;stroke-width:0.15;stroke-linecap:round;stroke-linejoin:round;" d="
			M23.6,29.2c2.6-3.4,2.7-6.1,1.4-7.3c-1.2-1-3.9,0-6.5,2.9S14.8,31.3,16,33C17.5,34.3,20.9,32.6,23.6,29.2z"/>
		
			<linearGradient id="SVGID_00000119821315401943595190000011455435009471743872_" gradientUnits="userSpaceOnUse" x1="17.0193" y1="29.6571" x2="28.5852" y2="29.6571" gradientTransform="matrix(1 0 0 -1 0 58)">
			<stop  offset="0" style="stop-color:#0067B6"/>
			<stop  offset="0.42" style="stop-color:#95D5F6"/>
			<stop  offset="0.82" style="stop-color:#0056A8"/>
		</linearGradient>
		
			<path style="fill:url(#SVGID_00000119821315401943595190000011455435009471743872_);stroke:#231916;stroke-width:0.15;stroke-linecap:round;stroke-linejoin:round;" d="
			M17.8,34.4c1.6,1.3,5.1-0.3,7.9-3.7s3.7-7.1,2.1-8.4s-5.1,0.3-7.9,3.7S16.2,33.1,17.8,34.4"/>
		<path class="st4" d="M17.8,34.4c1.6,1.3,5.1-0.3,7.9-3.7s3.7-7.1,2.1-8.4s-5.1,0.3-7.9,3.7S16.2,33.1,17.8,34.4z"/>
		
			<linearGradient id="SVGID_00000138531628456581689050000000857844945112863619_" gradientUnits="userSpaceOnUse" x1="17.6736" y1="23.9969" x2="27.6581" y2="33.9714" gradientTransform="matrix(1 0 0 -1 0 58)">
			<stop  offset="0" style="stop-color:#0067B6"/>
			<stop  offset="0.25" style="stop-color:#73C1EC"/>
			<stop  offset="0.73" style="stop-color:#A5D8F5"/>
			<stop  offset="1" style="stop-color:#008CD6"/>
		</linearGradient>
		
			<path style="fill:url(#SVGID_00000138531628456581689050000000857844945112863619_);stroke:#231916;stroke-width:0.15;stroke-linecap:round;stroke-linejoin:round;" d="
			M25.7,30.7c2.6-3.4,2.7-6.1,1.4-7.3c-1.2-1-3.9,0-6.5,3s-3.7,6.4-2.5,8.1C19.6,35.7,23,34,25.7,30.7z"/>
		
			<linearGradient id="SVGID_00000166665748105149315040000014052378004143831712_" gradientUnits="userSpaceOnUse" x1="19.12" y1="28.177" x2="30.68" y2="28.177" gradientTransform="matrix(1 0 0 -1 0 58)">
			<stop  offset="0" style="stop-color:#0067B6"/>
			<stop  offset="0.42" style="stop-color:#95D5F6"/>
			<stop  offset="0.82" style="stop-color:#0056A8"/>
		</linearGradient>
		
			<path style="fill:url(#SVGID_00000166665748105149315040000014052378004143831712_);stroke:#231916;stroke-width:0.15;stroke-linecap:round;stroke-linejoin:round;" d="
			M19.9,35.9c1.6,1.3,5.1-0.3,7.9-3.7s3.7-7.1,2.1-8.5s-5.1,0.3-7.9,3.7S18.3,34.6,19.9,35.9"/>
		<path class="st4" d="M19.9,35.9c1.6,1.3,5.1-0.3,7.9-3.7s3.7-7.1,2.1-8.5s-5.1,0.3-7.9,3.7S18.3,34.6,19.9,35.9z"/>
		
			<linearGradient id="SVGID_00000175318504398151394730000005386755843621639327_" gradientUnits="userSpaceOnUse" x1="19.7268" y1="22.5032" x2="29.7323" y2="32.5087" gradientTransform="matrix(1 0 0 -1 0 58)">
			<stop  offset="0" style="stop-color:#0067B6"/>
			<stop  offset="0.25" style="stop-color:#73C1EC"/>
			<stop  offset="0.73" style="stop-color:#A5D8F5"/>
			<stop  offset="1" style="stop-color:#008CD6"/>
		</linearGradient>
		
			<path style="fill:url(#SVGID_00000175318504398151394730000005386755843621639327_);stroke:#231916;stroke-width:0.15;stroke-linecap:round;stroke-linejoin:round;" d="
			M27.7,32.2c2.6-3.4,2.8-6.1,1.4-7.3c-1.2-1-4,0-6.5,2.9s-3.7,6.4-2.5,8C21.7,37.2,25,35.5,27.7,32.2"/>
		
			<linearGradient id="SVGID_00000093173823974167477170000008564068353856560569_" gradientUnits="userSpaceOnUse" x1="21.2111" y1="26.6879" x2="32.7797" y2="26.6879" gradientTransform="matrix(1 0 0 -1 0 58)">
			<stop  offset="0" style="stop-color:#0067B6"/>
			<stop  offset="0.42" style="stop-color:#95D5F6"/>
			<stop  offset="0.82" style="stop-color:#0056A8"/>
		</linearGradient>
		
			<path style="fill:url(#SVGID_00000093173823974167477170000008564068353856560569_);stroke:#231916;stroke-width:0.15;stroke-linecap:round;stroke-linejoin:round;" d="
			M22,37.4c1.6,1.3,5.1-0.3,7.9-3.7s3.7-7.1,2.1-8.4s-5.1,0.3-7.9,3.7S20.4,36.1,22,37.4"/>
		<path class="st4" d="M22,37.4c1.6,1.3,5.1-0.3,7.9-3.7s3.7-7.1,2.1-8.4s-5.1,0.3-7.9,3.7S20.4,36.1,22,37.4z"/>
		
			<linearGradient id="SVGID_00000170961136393770095400000002856190809734455430_" gradientUnits="userSpaceOnUse" x1="21.7715" y1="21.0185" x2="31.8115" y2="31.0485" gradientTransform="matrix(1 0 0 -1 0 58)">
			<stop  offset="0" style="stop-color:#0067B6"/>
			<stop  offset="0.25" style="stop-color:#73C1EC"/>
			<stop  offset="0.73" style="stop-color:#A5D8F5"/>
			<stop  offset="1" style="stop-color:#008CD6"/>
		</linearGradient>
		
			<path style="fill:url(#SVGID_00000170961136393770095400000002856190809734455430_);stroke:#231916;stroke-width:0.15;stroke-linecap:round;stroke-linejoin:round;" d="
			M29.8,33.7c2.6-3.4,2.8-6.1,1.4-7.3c-1.2-1-4,0-6.6,2.9s-3.8,6.4-2.5,8C23.7,38.7,27.1,37,29.8,33.7"/>
		
			<linearGradient id="SVGID_00000065069314971411767980000001029992257527623578_" gradientUnits="userSpaceOnUse" x1="23.3102" y1="25.1968" x2="34.8807" y2="25.1968" gradientTransform="matrix(1 0 0 -1 0 58)">
			<stop  offset="0" style="stop-color:#0067B6"/>
			<stop  offset="0.42" style="stop-color:#95D5F6"/>
			<stop  offset="0.82" style="stop-color:#0056A8"/>
		</linearGradient>
		
			<path style="fill:url(#SVGID_00000065069314971411767980000001029992257527623578_);stroke:#231916;stroke-width:0.15;stroke-linecap:round;stroke-linejoin:round;" d="
			M24.1,38.9c1.6,1.3,5.1-0.3,7.9-3.7s3.7-7.2,2.1-8.4s-5.1,0.3-7.9,3.7S22.5,37.5,24.1,38.9"/>
		<path class="st4" d="M24.1,38.9c1.6,1.3,5.1-0.3,7.9-3.7s3.7-7.2,2.1-8.4s-5.1,0.3-7.9,3.7S22.5,37.5,24.1,38.9z"/>
		
			<linearGradient id="SVGID_00000103970724765237591680000004101042544107074434_" gradientUnits="userSpaceOnUse" x1="23.9477" y1="19.5419" x2="33.9336" y2="29.5378" gradientTransform="matrix(1 0 0 -1 0 58)">
			<stop  offset="0" style="stop-color:#0067B6"/>
			<stop  offset="0.25" style="stop-color:#73C1EC"/>
			<stop  offset="0.73" style="stop-color:#A5D8F5"/>
			<stop  offset="1" style="stop-color:#008CD6"/>
		</linearGradient>
		
			<path style="fill:url(#SVGID_00000103970724765237591680000004101042544107074434_);stroke:#231916;stroke-width:0.15;stroke-linecap:round;stroke-linejoin:round;" d="
			M31.9,35.1c2.6-3.4,2.8-6.1,1.4-7.3c-1.2-1-3.9,0-6.5,2.9s-3.7,6.4-2.5,8C25.9,40.2,29.3,38.5,31.9,35.1"/>
		
			<linearGradient id="SVGID_00000120523381968326522390000012311214013570936728_" gradientUnits="userSpaceOnUse" x1="25.4093" y1="23.725" x2="36.9798" y2="23.725" gradientTransform="matrix(1 0 0 -1 0 58)">
			<stop  offset="0" style="stop-color:#0067B6"/>
			<stop  offset="0.42" style="stop-color:#95D5F6"/>
			<stop  offset="0.82" style="stop-color:#0056A8"/>
		</linearGradient>
		
			<path style="fill:url(#SVGID_00000120523381968326522390000012311214013570936728_);stroke:#231916;stroke-width:0.15;stroke-linecap:round;stroke-linejoin:round;" d="
			M26.2,40.3c1.6,1.3,5.1-0.3,7.9-3.7s3.7-7.1,2.1-8.4s-5.1,0.3-7.9,3.7S24.6,39,26.2,40.3"/>
		<path class="st4" d="M26.2,40.3c1.6,1.3,5.1-0.3,7.9-3.7s3.7-7.1,2.1-8.4s-5.1,0.3-7.9,3.7S24.6,39,26.2,40.3z"/>
		
			<linearGradient id="SVGID_00000083050444593960014130000004831157232156857011_" gradientUnits="userSpaceOnUse" x1="25.9406" y1="18.0294" x2="35.9916" y2="28.0803" gradientTransform="matrix(1 0 0 -1 0 58)">
			<stop  offset="0" style="stop-color:#0067B6"/>
			<stop  offset="0.25" style="stop-color:#73C1EC"/>
			<stop  offset="0.73" style="stop-color:#A5D8F5"/>
			<stop  offset="1" style="stop-color:#008CD6"/>
		</linearGradient>
		
			<path style="fill:url(#SVGID_00000083050444593960014130000004831157232156857011_);stroke:#231916;stroke-width:0.15;stroke-linecap:round;stroke-linejoin:round;" d="
			M34,36.6c2.7-3.4,2.8-6.1,1.4-7.3c-1.2-1-4,0-6.6,2.9s-3.8,6.4-2.5,8C27.9,41.7,31.3,40,34,36.6"/>
		
			<linearGradient id="SVGID_00000183955808154790108090000017250059751589700994_" gradientUnits="userSpaceOnUse" x1="27.5049" y1="22.2429" x2="39.0752" y2="22.2429" gradientTransform="matrix(1 0 0 -1 0 58)">
			<stop  offset="0" style="stop-color:#0067B6"/>
			<stop  offset="0.73" style="stop-color:#A5D8F5"/>
			<stop  offset="1" style="stop-color:#008CD6"/>
		</linearGradient>
		
			<path style="fill:url(#SVGID_00000183955808154790108090000017250059751589700994_);stroke:#231916;stroke-width:0.15;stroke-linecap:round;stroke-linejoin:round;" d="
			M28.3,41.8c1.6,1.3,5.1-0.3,7.9-3.7s3.7-7.1,2.2-8.4s-5.1,0.3-7.9,3.7S26.7,40.5,28.3,41.8"/>
		<path class="st4" d="M28.3,41.8c1.6,1.3,5.1-0.3,7.9-3.7s3.7-7.1,2.2-8.4s-5.1,0.3-7.9,3.7S26.7,40.5,28.3,41.8z"/>
		
			<linearGradient id="SVGID_00000030444978021921756710000010640206105221973914_" gradientUnits="userSpaceOnUse" x1="28.1856" y1="16.5944" x2="38.1456" y2="26.5644" gradientTransform="matrix(1 0 0 -1 0 58)">
			<stop  offset="0" style="stop-color:#0067B6"/>
			<stop  offset="0.25" style="stop-color:#73C1EC"/>
			<stop  offset="0.73" style="stop-color:#A5D8F5"/>
			<stop  offset="1" style="stop-color:#008CD6"/>
		</linearGradient>
		
			<path style="fill:url(#SVGID_00000030444978021921756710000010640206105221973914_);stroke:#231916;stroke-width:0.15;stroke-linecap:round;stroke-linejoin:round;" d="
			M36.2,38.1c2.6-3.4,2.7-6.1,1.4-7.3c-1.2-1-3.9,0-6.5,2.9s-3.7,6.4-2.5,8C30.1,43.1,33.5,41.4,36.2,38.1z"/>
		
			<linearGradient id="SVGID_00000044885244346154104870000002302775688835520182_" gradientUnits="userSpaceOnUse" x1="29.6048" y1="20.7579" x2="41.1707" y2="20.7579" gradientTransform="matrix(1 0 0 -1 0 58)">
			<stop  offset="0" style="stop-color:#0067B6"/>
			<stop  offset="0.42" style="stop-color:#95D5F6"/>
			<stop  offset="0.82" style="stop-color:#0056A8"/>
		</linearGradient>
		
			<path style="fill:url(#SVGID_00000044885244346154104870000002302775688835520182_);stroke:#231916;stroke-width:0.15;stroke-linecap:round;stroke-linejoin:round;" d="
			M30.4,43.3c1.6,1.3,5.1-0.3,7.9-3.7s3.7-7.1,2.2-8.4s-5.1,0.3-7.9,3.7S28.8,42,30.4,43.3"/>
		<path class="st4" d="M30.4,43.3c1.6,1.3,5.1-0.3,7.9-3.7s3.7-7.1,2.2-8.4s-5.1,0.3-7.9,3.7S28.8,42,30.4,43.3z"/>
		
			<linearGradient id="SVGID_00000150066976785559658760000013547344624245869202_" gradientUnits="userSpaceOnUse" x1="30.3702" y1="15.1498" x2="40.2802" y2="25.0598" gradientTransform="matrix(1 0 0 -1 0 58)">
			<stop  offset="0" style="stop-color:#0067B6"/>
			<stop  offset="0.25" style="stop-color:#73C1EC"/>
			<stop  offset="0.73" style="stop-color:#A5D8F5"/>
			<stop  offset="1" style="stop-color:#008CD6"/>
		</linearGradient>
		
			<path style="fill:url(#SVGID_00000150066976785559658760000013547344624245869202_);stroke:#231916;stroke-width:0.15;stroke-linecap:round;stroke-linejoin:round;" d="
			M38.3,39.6c2.6-3.4,2.7-6.1,1.4-7.3c-1.2-1-3.9,0-6.4,3s-3.6,6.4-2.4,8C32.3,44.6,35.6,42.9,38.3,39.6"/>
		
			<linearGradient id="SVGID_00000034786395667776723410000007799412614485859749_" gradientUnits="userSpaceOnUse" x1="31.707" y1="19.2812" x2="43.2677" y2="19.2812" gradientTransform="matrix(1 0 0 -1 0 58)">
			<stop  offset="0" style="stop-color:#0067B6"/>
			<stop  offset="0.73" style="stop-color:#A5D8F5"/>
			<stop  offset="1" style="stop-color:#008CD6"/>
		</linearGradient>
		
			<path style="fill:url(#SVGID_00000034786395667776723410000007799412614485859749_);stroke:#231916;stroke-width:0.15;stroke-linecap:round;stroke-linejoin:round;" d="
			M32.5,44.8c1.6,1.3,5.1-0.3,7.9-3.7s3.7-7.1,2.1-8.4s-5.1,0.3-7.9,3.7S30.9,43.5,32.5,44.8"/>
		<path class="st4" d="M32.5,44.8c1.6,1.3,5.1-0.3,7.9-3.7s3.7-7.1,2.1-8.4s-5.1,0.3-7.9,3.7S30.9,43.5,32.5,44.8z"/>
		
			<linearGradient id="SVGID_00000068675748570262702420000002869642199460593331_" gradientUnits="userSpaceOnUse" x1="32.3288" y1="13.6112" x2="42.3288" y2="23.6112" gradientTransform="matrix(1 0 0 -1 0 58)">
			<stop  offset="0" style="stop-color:#0067B6"/>
			<stop  offset="0.25" style="stop-color:#73C1EC"/>
			<stop  offset="0.73" style="stop-color:#A5D8F5"/>
			<stop  offset="1" style="stop-color:#008CD6"/>
		</linearGradient>
		
			<path style="fill:url(#SVGID_00000068675748570262702420000002869642199460593331_);stroke:#231916;stroke-width:0.15;stroke-linecap:round;stroke-linejoin:round;" d="
			M40.3,41.1c2.7-3.4,2.8-6.1,1.4-7.3c-1.2-1-4,0-6.5,2.9s-3.7,6.4-2.5,8C34.3,46.1,37.6,44.4,40.3,41.1z"/>
		
			<linearGradient id="SVGID_00000159434919479967749320000006954967740394694068_" gradientUnits="userSpaceOnUse" x1="33.8112" y1="17.795" x2="45.3698" y2="17.795" gradientTransform="matrix(1 0 0 -1 0 58)">
			<stop  offset="0" style="stop-color:#0067B6"/>
			<stop  offset="0.42" style="stop-color:#95D5F6"/>
			<stop  offset="0.82" style="stop-color:#0056A8"/>
		</linearGradient>
		
			<path style="fill:url(#SVGID_00000159434919479967749320000006954967740394694068_);stroke:#231916;stroke-width:0.15;stroke-linecap:round;stroke-linejoin:round;" d="
			M34.6,46.3c1.6,1.3,5.1-0.3,7.9-3.7s3.7-7.1,2.1-8.4s-5.1,0.3-7.9,3.7S33,45,34.6,46.3"/>
		<path class="st4" d="M34.6,46.3c1.6,1.3,5.1-0.3,7.9-3.7s3.7-7.1,2.1-8.4s-5.1,0.3-7.9,3.7S33,45,34.6,46.3z"/>
		
			<linearGradient id="SVGID_00000060723212012972504110000011763451734192253850_" gradientUnits="userSpaceOnUse" x1="34.2291" y1="12.0713" x2="44.3508" y2="22.183" gradientTransform="matrix(1 0 0 -1 0 58)">
			<stop  offset="0" style="stop-color:#0067B6"/>
			<stop  offset="0.25" style="stop-color:#73C1EC"/>
			<stop  offset="0.73" style="stop-color:#A5D8F5"/>
			<stop  offset="1" style="stop-color:#008CD6"/>
		</linearGradient>
		
			<path style="fill:url(#SVGID_00000060723212012972504110000011763451734192253850_);stroke:#231916;stroke-width:0.15;stroke-linecap:round;stroke-linejoin:round;" d="
			M42.4,42.5c2.7-3.4,2.8-6.1,1.4-7.3c-1.2-1-4,0-6.7,2.9s-3.8,6.4-2.5,8C36.2,47.6,39.6,45.9,42.4,42.5"/>
		<path class="st4" d="M42.4,42.5c2.7-3.4,2.8-6.1,1.4-7.3c-1.2-1-4,0-6.7,2.9s-3.8,6.4-2.5,8C36.2,47.6,39.6,45.9,42.4,42.5z"/>
		
			<linearGradient id="SVGID_00000108283040777474501560000011615618832967453336_" gradientUnits="userSpaceOnUse" x1="35.1973" y1="16.555" x2="47.4327" y2="16.555" gradientTransform="matrix(1 0 0 -1 0 58)">
			<stop  offset="0" style="stop-color:#0067B6"/>
			<stop  offset="0.55" style="stop-color:#A5D8F5"/>
			<stop  offset="0.68" style="stop-color:#95D5F6"/>
			<stop  offset="1" style="stop-color:#008CD6"/>
		</linearGradient>
		
			<path style="fill:url(#SVGID_00000108283040777474501560000011615618832967453336_);stroke:#231916;stroke-width:0.15;stroke-linecap:round;stroke-linejoin:round;" d="
			M45.3,35.2c-1.5-1.2-4.8,0.3-7.4,3.5s-3.5,6.7-2,7.9l1.3,1c1.5,1.2,4.8-0.3,7.4-3.5s3.5-6.7,2-7.9L45.3,35.2z"/>
		
			<linearGradient id="SVGID_00000092452215248796134590000002701502185859695005_" gradientUnits="userSpaceOnUse" x1="36.0162" y1="11.2515" x2="46.6462" y2="21.8915" gradientTransform="matrix(1 0 0 -1 0 58)">
			<stop  offset="0" style="stop-color:#0067B6"/>
			<stop  offset="0.25" style="stop-color:#73C1EC"/>
			<stop  offset="0.73" style="stop-color:#A5D8F5"/>
			<stop  offset="1" style="stop-color:#008CD6"/>
		</linearGradient>
		
			<path style="fill:url(#SVGID_00000092452215248796134590000002701502185859695005_);stroke:#231916;stroke-width:0.15;stroke-linecap:round;stroke-linejoin:round;" d="
			M45.3,35.2c-1.5-1.2-4.8,0.3-7.4,3.5s-3.5,6.7-2,7.9l1.3,1c1.5,1.2,4.8-0.3,7.4-3.5s3.5-6.7,2-7.9L45.3,35.2z"/>
		
			<linearGradient id="SVGID_00000082361730495127027340000009657890754755383693_" gradientUnits="userSpaceOnUse" x1="36.53" y1="16.1071" x2="47.41" y2="16.1071" gradientTransform="matrix(1 0 0 -1 0 58)">
			<stop  offset="0" style="stop-color:#FFFFFF"/>
			<stop  offset="0.3" style="stop-color:#D5D5D6"/>
			<stop  offset="1" style="stop-color:#EBECEC"/>
		</linearGradient>
		<path style="fill:url(#SVGID_00000082361730495127027340000009657890754755383693_);" d="M37.2,47.6c1.5,1.2,4.8-0.3,7.4-3.5
			s3.5-6.7,2-7.9s-4.8,0.3-7.4,3.5S35.7,46.4,37.2,47.6"/>
		<path class="st4" d="M37.2,47.6c1.5,1.2,4.8-0.3,7.4-3.5s3.5-6.7,2-7.9s-4.8,0.3-7.4,3.5S35.8,46.4,37.2,47.6z"/>
		<path class="st29" d="M37.1,47.6c1.5,1.2,4.8-0.3,7.4-3.5s3.5-6.7,2-7.9s-4.8,0.3-7.4,3.5S35.6,46.4,37.1,47.6"/>
		<path class="st29" d="M46.6,36.2l-1.3-1l-0.2-0.1c-0.1-0.4-0.3-0.7-0.6-1c-0.4-0.3-0.9-0.5-1.5-0.5c-0.1-0.4-0.3-0.7-0.6-1
			c-0.4-0.3-1-0.5-1.5-0.5c-0.1-0.4-0.3-0.7-0.6-1c-0.4-0.3-1-0.5-1.5-0.5c-0.1-0.4-0.3-0.7-0.6-1c-0.4-0.3-1-0.5-1.5-0.4
			c-0.1-0.4-0.3-0.7-0.6-1c-0.4-0.3-1-0.5-1.5-0.5c-0.1-0.4-0.3-0.7-0.6-1c-0.4-0.3-1-0.5-1.5-0.5c-0.1-0.4-0.3-0.7-0.6-1
			C31.5,25.1,31,25,30.4,25c-0.1-0.4-0.3-0.7-0.6-1c-0.4-0.3-1-0.5-1.5-0.4c-0.1-0.4-0.3-0.7-0.6-1c-0.4-0.3-1-0.5-1.5-0.5
			c-0.1-0.4-0.3-0.7-0.6-1c-0.4-0.3-1-0.5-1.5-0.5c-0.1-0.4-0.3-0.7-0.6-1c-1.6-1.3-5.1,0.3-7.9,3.7s-3.7,7.1-2.1,8.4
			c0.4,0.3,1,0.5,1.5,0.5c0.1,0.4,0.3,0.7,0.6,1c0.4,0.3,0.8,0.4,1.3,0.4h0.2c0.1,0.4,0.3,0.7,0.6,1c0.4,0.3,1,0.5,1.5,0.5
			c0.1,0.4,0.3,0.7,0.6,1c0.4,0.3,1,0.5,1.5,0.5c0.1,0.4,0.3,0.7,0.6,1c0.4,0.3,1,0.5,1.5,0.5c0.1,0.4,0.3,0.7,0.6,1
			c0.4,0.3,1,0.5,1.5,0.5c0.1,0.4,0.3,0.7,0.6,1c0.4,0.3,1,0.5,1.5,0.5c0.1,0.4,0.3,0.7,0.6,1c0.4,0.3,1,0.5,1.5,0.5
			c0.1,0.4,0.3,0.7,0.6,1c0.4,0.3,1,0.5,1.5,0.5c0.1,0.4,0.3,0.7,0.6,1c0.4,0.3,1,0.5,1.5,0.5c0.1,0.4,0.3,0.7,0.6,1
			c0.1,0.1,0.2,0.1,0.3,0.2c0.3,0.2,0.7,0.3,1.1,0.2l1.2,0.9c1.5,1.2,4.8-0.3,7.4-3.5S48.1,37.4,46.6,36.2z"/>
		<g>
			<defs>
				<polygon id="SVGID_00000037679082169016438260000007523027198428487065_" points="39.7,26.8 39.9,26.8 45.8,24.1 56.2,11.8 
					54.7,8.7 78.5,-19.3 66.5,-20.5 40.2,15.1 				"/>
			</defs>
			<clipPath id="SVGID_00000057147315699377576590000003059629609945601949_">
				<use xlink:href="#SVGID_00000037679082169016438260000007523027198428487065_"  style="overflow:visible;"/>
			</clipPath>
			<g style="clip-path:url(#SVGID_00000057147315699377576590000003059629609945601949_);">
				
					<linearGradient id="SVGID_00000030469120161185189380000006638035504021043632_" gradientUnits="userSpaceOnUse" x1="-419.3712" y1="-339.7794" x2="-417.3412" y2="-338.8293" gradientTransform="matrix(-21.9598 -4.3681 4.3681 -21.9598 -7645.2671 -9273.8262)">
					<stop  offset="0.42" style="stop-color:#FFFFFF"/>
					<stop  offset="0.6" style="stop-color:#B4AA9A"/>
				</linearGradient>
				<polygon style="fill:url(#SVGID_00000030469120161185189380000006638035504021043632_);" points="37.9,26.4 48.2,-25.3 
					78.5,-19.3 68.2,32.4 				"/>
			</g>
		</g>
		<polygon class="st32" points="39.7,26.8 39.9,26.8 45.8,24.1 56.2,11.8 54.7,8.7 78.5,-19.3 66.5,-20.5 40.2,15.1 		"/>
		<g>
			<defs>
				<path id="SVGID_00000027570291943120254520000011082566147910549392_" d="M33,23.5c0.3-0.1,2.7-1.9,2.7-1.9l1.7-0.8l0.9-0.4
					l3.5,0.9c0.2,0.1,0.4,0,0.5-0.2c0.2-0.4,6.1-8.1,6.1-8.1L48,9.3l23.7-29.5l-21.4-5.5L33.5-4.2l-2.7,1l-6.5,9.5
					C24,6.7,24,7.2,24.1,7.6c0.3,0.8,4.4,11.7,4.4,11.7c0.2,0.4,0.5,0.7,0.8,1c0.4,0.3,3.1,3.1,3.1,3.1c0,0,0.1,0,0.2,0
					C32.8,23.4,32.9,23.4,33,23.5"/>
			</defs>
			<clipPath id="SVGID_00000096744832316353974840000016557988838345043899_">
				<use xlink:href="#SVGID_00000027570291943120254520000011082566147910549392_"  style="overflow:visible;"/>
			</clipPath>
			<g style="clip-path:url(#SVGID_00000096744832316353974840000016557988838345043899_);">
				
					<linearGradient id="SVGID_00000121964494513588192970000017820844444878528938_" gradientUnits="userSpaceOnUse" x1="-421.497" y1="-331.794" x2="-419.737" y2="-331.154" gradientTransform="matrix(-29.5707 -5.882 5.882 -29.5707 -10440.0332 -12275.0469)">
					<stop  offset="0.16" style="stop-color:#FFFFFF"/>
					<stop  offset="0.72" style="stop-color:#B4AA9A"/>
				</linearGradient>
				<polygon style="fill:url(#SVGID_00000121964494513588192970000017820844444878528938_);" points="21,21.2 31.1,-29.5 72,-21.3 
					61.9,29.3 				"/>
			</g>
		</g>
		<path class="st32" d="M48,9.3l23.7-29.5l-21.4-5.5L33.5-4.2l-2.7,1l-6.5,9.5C24,6.7,24,7.2,24.1,7.6c0.3,0.8,4.4,11.7,4.4,11.7
			c0.2,0.4,0.5,0.7,0.8,1c0.4,0.3,3.1,3.1,3.1,3.1c0.2,0.1,0.3,0.1,0.5,0c0.3-0.1,2.7-1.9,2.7-1.9l1.7-0.8l0.9-0.4l3.5,0.9
			c0.2,0.1,0.4,0,0.5-0.2c0.2-0.4,6.1-8.1,6.1-8.1L48,9.3z"/>
		<path class="st32" d="M32.4,17.9c-1,0.2-1.7,1.2-1.6,2.2c0.2,1,1.2,1.7,2.2,1.6c1-0.2,1.7-1.1,1.6-2.2
			C34.4,18.4,33.5,17.7,32.4,17.9z"/>
		<path class="st32" d="M34.8,11.1c-1,0.1-1.7,1-1.6,2c0.1,1,1,1.7,2,1.6c1-0.1,1.7-1,1.6-2c0,0,0,0,0,0
			C36.7,11.7,35.9,11,34.8,11.1C34.9,11.1,34.9,11.1,34.8,11.1z"/>
		
			<linearGradient id="SVGID_00000100351589791151245390000017682833301425072028_" gradientUnits="userSpaceOnUse" x1="-177.881" y1="396.1255" x2="-174.011" y2="396.1255" gradientTransform="matrix(-0.9808 -0.1951 -0.1951 0.9808 -55.0338 -397.6665)">
			<stop  offset="0" style="stop-color:#FFFFFF"/>
			<stop  offset="1" style="stop-color:#FFE100"/>
		</linearGradient>
		
			<path style="fill:url(#SVGID_00000100351589791151245390000017682833301425072028_);stroke:#231916;stroke-width:0.3;stroke-linecap:round;stroke-linejoin:round;" d="
			M37.5,28.9l1.8-1.5l1.5-2v-2.3l0.1-0.3h0.8l1.2-0.6l-0.5-0.8c-0.1,0.1-0.3,0.2-0.4,0.2c-0.3-0.1-2.2-0.6-2.2-0.6l-0.9,3.2
			L37.5,28.9z"/>
		
			<linearGradient id="SVGID_00000102521538800365903220000006938574429424546445_" gradientUnits="userSpaceOnUse" x1="-176.8806" y1="396.6743" x2="-167.5249" y2="396.6743" gradientTransform="matrix(-0.9808 -0.1951 -0.1951 0.9808 -55.0338 -397.6665)">
			<stop  offset="0" style="stop-color:#FAD432"/>
			<stop  offset="0.66" style="stop-color:#F3E876"/>
			<stop  offset="1" style="stop-color:#BF9500"/>
		</linearGradient>
		
			<polygon style="fill:url(#SVGID_00000102521538800365903220000006938574429424546445_);stroke:#231916;stroke-width:0.3;stroke-linecap:round;stroke-linejoin:round;" points="
			34,20.8 38.4,20.5 40.3,21 41.7,22.7 40.2,23.3 39.8,25.7 37.5,28.9 35.3,29.6 35.6,27.6 33.8,25.5 33.1,23.7 32.6,23.2 
			32.3,22.3 32.3,21.8 33.2,20.9 		"/>
		<path class="st32" d="M36.1,22c-1,0.2-1.7,1.2-1.5,2.3c0.3,1,1.3,1.5,2.2,1.3s1.5-1.3,1.3-2.2C37.8,22.4,37,21.9,36.1,22z"/>
		
			<linearGradient id="SVGID_00000177461786641881937790000010204244890803927691_" gradientUnits="userSpaceOnUse" x1="-173.751" y1="395.2663" x2="-170.761" y2="395.2663" gradientTransform="matrix(-0.9808 -0.1951 -0.1951 0.9808 -55.0338 -397.6665)">
			<stop  offset="0.15" style="stop-color:#E8E7DA"/>
			<stop  offset="0.78" style="stop-color:#64604C"/>
		</linearGradient>
		
			<path style="fill:url(#SVGID_00000177461786641881937790000010204244890803927691_);stroke:#231916;stroke-width:0.3;stroke-linecap:round;stroke-linejoin:round;" d="
			M36.1,22c-0.6,0-0.8,1-0.7,1.7c0.1,0.9,0.9,1.5,1.7,1.5c0.4-0.1,0.8-0.3,1-0.7c0.1-0.6,0-1.2-0.4-1.7C37.3,22.2,36.7,22,36.1,22z"
			/>
		<g>
			<defs>
				<path id="SVGID_00000056400682068694484870000003149784035283717306_" d="M34.7,23.9c1,0.1,1.9-0.5,2.1-1.5
					c0.1-0.4,1.3-5.7,1.4-6.2s0.1-0.9,0.1-0.9c-0.2-2-1.9-3.4-3.9-3.3c0,0,0,0,0,0c-0.2,0-0.4,0-0.6,0.1c-0.7,0.4-1.4,1-2,1.6
					c-0.8,0.8-1.2,1.9-1,3l2,5.9c0.3,0.6,0.8,1.1,1.5,1.2C34.4,23.8,34.5,23.8,34.7,23.9"/>
			</defs>
			<clipPath id="SVGID_00000139291618594871154970000003037772763734395817_">
				<use xlink:href="#SVGID_00000056400682068694484870000003149784035283717306_"  style="overflow:visible;"/>
			</clipPath>
			<g style="clip-path:url(#SVGID_00000139291618594871154970000003037772763734395817_);">
				
					<linearGradient id="SVGID_00000049196085977187767590000011089303061834579087_" gradientUnits="userSpaceOnUse" x1="-350.7941" y1="-410.627" x2="-349.4141" y2="-410.627" gradientTransform="matrix(-5.4198 0.81 -0.81 -5.4198 -2195.3391 -1924.5188)">
					<stop  offset="0" style="stop-color:#FFFFFF"/>
					<stop  offset="0.25" style="stop-color:#F7F8F8"/>
					<stop  offset="0.67" style="stop-color:#F7F8F8"/>
					<stop  offset="1" style="stop-color:#AAABAB"/>
				</linearGradient>
				<polygon style="fill:url(#SVGID_00000049196085977187767590000011089303061834579087_);" points="27.4,11.4 38.6,9.7 40.6,23.6 
					29.5,25.3 				"/>
			</g>
		</g>
		<path class="st32" d="M33.7,12.1c-0.7,0.4-1.4,1-2,1.6c-0.8,0.8-1.2,1.9-1,3l2,5.9c0.3,0.8,1.1,1.3,1.9,1.3c1,0.1,1.9-0.5,2.1-1.5
			c0.1-0.4,1.3-5.7,1.4-6.2s0.1-0.9,0.1-0.9c-0.2-2-1.9-3.4-3.9-3.2C34.1,12,33.9,12,33.7,12.1z"/>
		<path class="st40" d="M33.2,13.8c-1.2,0.3-2,1.5-1.7,2.7c0,1.2,1,2.1,2.2,2.1c1.2,0,2.1-1,2.1-2.2c0-0.2,0-0.4-0.1-0.5
			C35.5,14.6,34.4,13.7,33.2,13.8"/>
		
			<linearGradient id="SVGID_00000173868963390295870340000006215388226846060929_" gradientUnits="userSpaceOnUse" x1="-169.701" y1="388.5851" x2="-165.431" y2="388.5851" gradientTransform="matrix(-0.9808 -0.1951 -0.1951 0.9808 -55.0338 -397.6665)">
			<stop  offset="0" style="stop-color:#B5B6B6"/>
			<stop  offset="1" style="stop-color:#68666C"/>
		</linearGradient>
		
			<path style="fill:url(#SVGID_00000173868963390295870340000006215388226846060929_);stroke:#231916;stroke-width:0.3;stroke-miterlimit:10;" d="
			M33.2,13.8c-1.2,0.3-2,1.5-1.7,2.7c0,1.2,1,2.1,2.2,2.1c1.2,0,2.1-1,2.1-2.2c0-0.2,0-0.4-0.1-0.5C35.5,14.6,34.4,13.7,33.2,13.8z"
			/>
		<path class="st32" d="M33.3,23.4c0,0,1.2,0.9,1.9-0.2c0.2-0.4,0.3-0.7,0.4-1.1c0.1-0.6,1-5.1,1-5.1c0.1-0.4,0.1-0.8,0-1.2
			c-0.2-1.7-1.7-2.9-3.4-2.8c-1.7,0.4-2.8,2-2.4,3.7"/>
		<polyline class="st32" points="56.2,11.8 48.6,13 30.8,-3.2 		"/>
		<polyline class="st32" points="54.6,8.7 48.1,9.4 33.5,-4.2 		"/>
	</g>
</g>
<path class="st42" d="M9.4,4.5c0,0-4.8,0-4.8,4.8v38c0,0,0,4.8,4.8,4.8h38c0,0,4.8,0,4.8-4.8v-38c0,0,0-4.8-4.8-4.8L9.4,4.5z"/>
</svg>
