<?xml version="1.0" encoding="utf-8"?>
<!-- Generator: Adobe Illustrator 25.3.1, SVG Export Plug-In . SVG Version: 6.00 Build 0)  -->
<svg version="1.1" id="레이어_1" xmlns="http://www.w3.org/2000/svg" xmlns:xlink="http://www.w3.org/1999/xlink" x="0px"
	 y="0px" viewBox="0 0 162 64.7" style="enable-background:new 0 0 162 64.7;" xml:space="preserve">
<style type="text/css">
	.st0{fill:#EFEFEF;stroke:#000000;stroke-width:0.9;stroke-miterlimit:5;}
	.st1{fill:none;stroke:#000000;stroke-width:0.165;stroke-linecap:round;stroke-linejoin:round;stroke-miterlimit:10;}
	
		.st2{fill:none;stroke:#000000;stroke-width:0.165;stroke-linecap:round;stroke-linejoin:round;stroke-miterlimit:10;stroke-dasharray:1.078,0.539;}
	
		.st3{fill:none;stroke:#000000;stroke-width:0.165;stroke-linecap:round;stroke-linejoin:round;stroke-miterlimit:10;stroke-dasharray:0.981,0.49;}
	
		.st4{fill:none;stroke:#000000;stroke-width:0.165;stroke-linecap:round;stroke-linejoin:round;stroke-miterlimit:10;stroke-dasharray:1.800000e-02,0;}
	
		.st5{fill:none;stroke:#000000;stroke-width:0.165;stroke-linecap:round;stroke-linejoin:round;stroke-miterlimit:10;stroke-dasharray:7.400000e-02,1.900000e-02;}
	
		.st6{fill:none;stroke:#000000;stroke-width:0.165;stroke-linecap:round;stroke-linejoin:round;stroke-miterlimit:10;stroke-dasharray:5.39,1.078,1.078,1.078;}
	.st7{fill:none;stroke:#000000;stroke-width:0.165;stroke-miterlimit:10;}
	.st8{clip-path:url(#SVGID_2_);fill:none;stroke:#000000;stroke-width:0.25;stroke-miterlimit:500;}
</style>
<path class="st0" d="M66.9,11.1L4.1,20.3c0,0-1.2,0.6-1.2,1.6v20.1c0,0,0.7,1.5,1.2,1.6c0.5,0.1,62.8,9.2,62.8,9.2l0.6-0.3h1.9
	l0.5,0.5v7.8h4.1l1.6-2.8v-0.8h3.4v0.8l1.7,2.8h4V49.1c0,0,0.4-1.8,2.1-2.3c1.7-0.5,2.7,0.1,2.7,0.1h30.8c0,0,1,0,1-0.9v0.9h14.3
	l2.5-2.2h1.2l5.1,1.4h4.6l5.4-1.4h2.1l0.3-0.7V24.8l-1.9-1.1h4.4v-7.5l-0.9,0.5l-4.9,0.5h-3.1l-0.3-0.3h-7.5l-0.4,0.4h-3v4.7h-5.4
	l-3-5.1h-9.7v0.6c0,0-0.1-0.6-0.9-0.6h-4.3c0,0-4.3,1.1-9.8,0H89.6L88,17.2c0,0-3.2,0-3.2-2.4V3.2h-4.2L79,5.9v0.8h-3.5V5.9
	l-1.6-2.8H70v8.1l-0.6,0.2h-2.1L66.9,11.1z"/>
<line class="st1" x1="59.9" y1="12.8" x2="59.9" y2="51.2"/>
<line class="st1" x1="58.2" y1="13" x2="58.2" y2="51"/>
<line class="st1" x1="2.9" y1="21.6" x2="2.9" y2="42.4"/>
<line class="st1" x1="38.2" y1="32" x2="38.2" y2="37.7"/>
<line class="st1" x1="27.4" y1="32" x2="27.4" y2="38.5"/>
<line class="st1" x1="78.9" y1="18.4" x2="78.9" y2="45.6"/>
<line class="st1" x1="3.9" y1="32" x2="3.9" y2="38.8"/>
<line class="st1" x1="7.3" y1="32" x2="7.3" y2="39.1"/>
<line class="st1" x1="8.9" y1="32" x2="8.9" y2="39.1"/>
<line class="st1" x1="9.7" y1="32" x2="9.7" y2="37.7"/>
<line class="st1" x1="3.9" y1="38.8" x2="2.9" y2="39.3"/>
<line class="st1" x1="7.3" y1="38.8" x2="3.9" y2="38.8"/>
<line class="st1" x1="8.9" y1="39.1" x2="7.3" y2="39.1"/>
<line class="st1" x1="9.7" y1="37.7" x2="8.9" y2="38.5"/>
<line class="st1" x1="38.2" y1="37.7" x2="9.7" y2="37.7"/>
<line class="st1" x1="39.2" y1="37.4" x2="38.4" y2="37.4"/>
<line class="st1" x1="38.4" y1="32" x2="38.4" y2="37.4"/>
<line class="st2" x1="118.1" y1="26.7" x2="118.1" y2="37.3"/>
<line class="st3" x1="130.8" y1="38" x2="121.4" y2="38"/>
<line class="st3" x1="130.8" y1="26" x2="121.4" y2="26"/>
<line class="st2" x1="119.3" y1="26.2" x2="121.4" y2="26"/>
<line class="st2" x1="119.3" y1="37.8" x2="121.4" y2="38"/>
<line class="st2" x1="119.3" y1="37.8" x2="119" y2="37.9"/>
<line class="st2" x1="119.3" y1="26.2" x2="119.3" y2="37.7"/>
<line class="st2" x1="121.4" y1="26" x2="121.4" y2="38"/>
<line class="st2" x1="39.2" y1="37.4" x2="108.7" y2="37.4"/>
<line class="st2" x1="108.7" y1="37.4" x2="110.6" y2="34.3"/>
<line class="st2" x1="110.6" y1="34.3" x2="118.1" y2="34.3"/>
<line class="st2" x1="108.7" y1="37.4" x2="108.7" y2="32"/>
<line class="st2" x1="110.6" y1="34.3" x2="110.6" y2="32"/>
<line class="st4" x1="119.3" y1="26.2" x2="119" y2="26.1"/>
<path class="st2" d="M118,37.3c0,0.4,0.3,0.7,0.7,0.7c0.1,0,0.2,0,0.3-0.1"/>
<path class="st5" d="M119,26.1c-0.3-0.2-0.7,0-0.9,0.3c0,0.1-0.1,0.2-0.1,0.3"/>
<line class="st6" x1="158.8" y1="32" x2="1.3" y2="32"/>
<path class="st1" d="M33.9,47.4c0.8-0.7,1.5-1.4,2-2.4c1.2-2.2,1.5-5.3,3.1-7.3c1.9-2.4,5.5-3.2,8.7-4.2c1.7-0.5,3.2-1,4.8-1.5"/>
<line class="st1" x1="38.2" y1="37.7" x2="38.4" y2="37.4"/>
<line class="st1" x1="8.9" y1="38.5" x2="27.4" y2="38.5"/>
<line class="st1" x1="27.4" y1="38.5" x2="28.8" y2="37.7"/>
<line class="st7" x1="121.2" y1="45.9" x2="121.2" y2="17.9"/>
<path class="st7" d="M87.5,17.2c-1.5,0-2.8-1.3-2.8-2.8"/>
<path class="st7" d="M84.7,49.4c0-1.5,1.3-2.8,2.8-2.8"/>
<line class="st7" x1="84.7" y1="49.2" x2="84.7" y2="3.5"/>
<line class="st7" x1="84.7" y1="60.3" x2="84.7" y2="55.6"/>
<line class="st7" x1="69.9" y1="60.3" x2="69.9" y2="55.6"/>
<line class="st7" x1="69.9" y1="49.2" x2="69.9" y2="3.5"/>
<line class="st7" x1="106.1" y1="16.9" x2="89.4" y2="16.9"/>
<line class="st7" x1="120.3" y1="16.9" x2="115.9" y2="16.9"/>
<line class="st7" x1="120.3" y1="46.9" x2="89.4" y2="46.9"/>
<path class="st7" d="M69.4,52.4c0.3,0,0.5,0.2,0.5,0.5"/>
<path class="st7" d="M69.9,10.9c0,0.3-0.2,0.5-0.5,0.5"/>
<line class="st7" x1="69.4" y1="11.4" x2="67.5" y2="11.4"/>
<line class="st7" x1="69.4" y1="52.4" x2="67.5" y2="52.4"/>
<path class="st7" d="M67.2,52.5c0.1,0,0.1-0.1,0.2-0.1"/>
<path class="st7" d="M67.5,11.4c-0.1,0-0.2,0-0.2-0.1"/>
<line class="st7" x1="67.2" y1="11.3" x2="66.9" y2="11.1"/>
<line class="st7" x1="67.2" y1="52.5" x2="66.9" y2="52.7"/>
<path class="st7" d="M4.1,43.5c-0.7-0.4-1-0.8-1.2-1.6"/>
<path class="st7" d="M2.9,21.9c0.2-0.8,0.5-1.2,1.2-1.6"/>
<line class="st7" x1="84.7" y1="55.6" x2="84.7" y2="49.2"/>
<line class="st7" x1="79" y1="51.7" x2="79" y2="52.7"/>
<path class="st7" d="M84.6,3.2C84.6,3.2,84.6,3.2,84.6,3.2c0.1,0.1,0.1,0.1,0.1,0.2c0,0.1,0,0.1,0,0.2"/>
<polyline class="st7" points="84.7,49.2 84.7,49.2 84.6,49.2 84.6,49.2 "/>
<line class="st7" x1="75.5" y1="51.7" x2="79" y2="51.7"/>
<line class="st7" x1="75.5" y1="52.7" x2="75.5" y2="51.7"/>
<path class="st7" d="M69.9,55.6c0,0.1,0,0.2,0,0.2c0,0.1,0.1,0.1,0.1,0.2c0,0,0,0,0,0"/>
<line class="st7" x1="69.9" y1="49.2" x2="69.9" y2="55.6"/>
<path class="st7" d="M84.6,56.1C84.6,56.1,84.6,56.1,84.6,56.1c0.1-0.1,0.1-0.1,0.1-0.2c0-0.1,0-0.2,0-0.2"/>
<path class="st7" d="M70,60.7C70,60.7,70,60.6,70,60.7c-0.1-0.1-0.1-0.1-0.1-0.2c0-0.1,0-0.1,0-0.2"/>
<line class="st7" x1="75.5" y1="6.7" x2="79" y2="6.7"/>
<path class="st7" d="M69.9,3.5c0-0.1,0-0.1,0-0.2c0-0.1,0.1-0.1,0.1-0.2c0,0,0,0,0,0"/>
<polyline class="st7" points="70,49.2 70,49.2 69.9,49.2 69.9,49.2 "/>
<line class="st7" x1="79" y1="49.2" x2="75.5" y2="49.2"/>
<path class="st7" d="M84.7,60.3c0,0.1,0,0.1,0,0.2c0,0.1-0.1,0.1-0.1,0.2c0,0,0,0,0,0"/>
<line class="st7" x1="79" y1="57.1" x2="75.5" y2="57.1"/>
<line class="st7" x1="4.1" y1="43.5" x2="4.1" y2="20.3"/>
<line class="st7" x1="66.9" y1="11.1" x2="66.9" y2="52.7"/>
<line class="st7" x1="80.6" y1="49.2" x2="84.6" y2="49.2"/>
<line class="st7" x1="80.6" y1="3.2" x2="80.6" y2="49.2"/>
<line class="st7" x1="84.6" y1="3.2" x2="80.6" y2="3.2"/>
<line class="st7" x1="84.6" y1="56.1" x2="80.6" y2="56.1"/>
<line class="st7" x1="80.6" y1="60.7" x2="84.6" y2="60.7"/>
<line class="st7" x1="80.6" y1="56.1" x2="80.6" y2="60.7"/>
<line class="st7" x1="79" y1="49.2" x2="80.6" y2="49.2"/>
<line class="st7" x1="79" y1="49.2" x2="79" y2="5.9"/>
<path class="st7" d="M80.6,3.2C80,4.1,79.5,5,79,5.9"/>
<path class="st7" d="M80.6,56.1c-0.5-1.1-1-2.3-1.6-3.4"/>
<path class="st7" d="M79,57.9c0.5,0.9,1,1.9,1.6,2.8"/>
<line class="st7" x1="79" y1="57.9" x2="79" y2="52.7"/>
<line class="st7" x1="73.9" y1="49.2" x2="75.5" y2="49.2"/>
<line class="st7" x1="73.9" y1="3.2" x2="73.9" y2="49.2"/>
<path class="st7" d="M75.5,5.9c-0.5-0.9-1-1.9-1.6-2.8"/>
<line class="st7" x1="75.5" y1="5.9" x2="75.5" y2="49.2"/>
<path class="st7" d="M75.5,52.7c-0.5,1.1-1,2.3-1.6,3.4"/>
<line class="st7" x1="75.5" y1="52.7" x2="75.5" y2="57.9"/>
<path class="st7" d="M73.9,60.7c0.5-0.9,1-1.9,1.6-2.8"/>
<line class="st7" x1="73.9" y1="56.1" x2="73.9" y2="60.7"/>
<line class="st7" x1="70" y1="49.2" x2="73.9" y2="49.2"/>
<line class="st7" x1="70" y1="49.2" x2="70" y2="3.2"/>
<line class="st7" x1="73.9" y1="3.2" x2="70" y2="3.2"/>
<line class="st7" x1="73.9" y1="56.1" x2="70" y2="56.1"/>
<line class="st7" x1="70" y1="60.7" x2="73.9" y2="60.7"/>
<line class="st7" x1="70" y1="60.7" x2="70" y2="56.1"/>
<line class="st7" x1="2.9" y1="21.9" x2="2.9" y2="41.9"/>
<line class="st7" x1="4.1" y1="43.5" x2="66.9" y2="52.7"/>
<line class="st7" x1="4.1" y1="20.3" x2="66.9" y2="11.1"/>
<line class="st7" x1="138.1" y1="44.6" x2="154.3" y2="44.6"/>
<path class="st7" d="M155.6,44.6c0.3,0,0.6,0,0.9,0"/>
<polyline class="st7" points="154.3,44.6 154.7,44.6 155.2,44.6 155.5,44.6 155.6,44.6 "/>
<line class="st7" x1="138.1" y1="44.6" x2="135.8" y2="46.9"/>
<line class="st7" x1="152.1" y1="22.1" x2="154.3" y2="23.4"/>
<path class="st7" d="M155.6,24.1c-0.1,0-0.1-0.1-0.2-0.1c-0.1-0.1-0.3-0.2-0.4-0.2c-0.2-0.1-0.4-0.2-0.6-0.3"/>
<path class="st7" d="M156.7,24.8c-0.4-0.2-0.8-0.4-1.2-0.7"/>
<path class="st7" d="M156.8,24.8C156.8,24.8,156.8,24.8,156.8,24.8C156.7,24.8,156.7,24.8,156.8,24.8"/>
<line class="st7" x1="156.8" y1="43.9" x2="156.8" y2="24.8"/>
<path class="st7" d="M156.7,44.2c0-0.1,0.1-0.1,0.1-0.2"/>
<line class="st7" x1="156.7" y1="44.2" x2="156.4" y2="44.6"/>
<line class="st7" x1="130.6" y1="16.9" x2="130.9" y2="16.9"/>
<line class="st7" x1="130.6" y1="46.9" x2="135.8" y2="46.9"/>
<line class="st7" x1="130.6" y1="46.9" x2="130.6" y2="16.9"/>
<line class="st7" x1="130.9" y1="16.9" x2="133.8" y2="22.1"/>
<line class="st7" x1="152.1" y1="22.1" x2="133.8" y2="22.1"/>
<path class="st7" d="M142.6,45.6C142.6,45.6,142.6,45.6,142.6,45.6"/>
<line class="st7" x1="142.6" y1="45.6" x2="142.6" y2="45.6"/>
<path class="st7" d="M143.2,45.7c0,0,0.1,0,0.1,0"/>
<line class="st7" x1="143.3" y1="45.7" x2="143.3" y2="45.7"/>
<path class="st7" d="M142.5,45.5c-0.1,0-0.1,0-0.2,0"/>
<line class="st7" x1="142.4" y1="45.5" x2="142.4" y2="45.5"/>
<path class="st7" d="M142.4,45.5c-0.1,0-0.3-0.1-0.4-0.1"/>
<line class="st7" x1="141.9" y1="45.4" x2="141.9" y2="45.4"/>
<path class="st7" d="M141.9,45.4C141.9,45.4,141.9,45.4,141.9,45.4"/>
<line class="st7" x1="141.9" y1="45.4" x2="142.3" y2="45.5"/>
<line class="st7" x1="142.3" y1="45.5" x2="142.3" y2="45.5"/>
<path class="st7" d="M142.3,45.5C142.3,45.5,142.3,45.5,142.3,45.5"/>
<path class="st7" d="M115.9,16.9c0,0,0,0-0.1,0c-0.1,0-0.2,0-0.4,0.1c-0.3,0.1-0.7,0.1-1.2,0.2c-0.4,0.1-1,0.1-1.5,0.2
	c-0.6,0-1.2,0.1-1.7,0.1c-0.5,0-1.1,0-1.7-0.1c-0.6,0-1.1-0.1-1.5-0.2c-0.5-0.1-0.9-0.1-1.2-0.2c-0.2,0-0.3-0.1-0.4-0.1
	c-0.1,0-0.1,0-0.1,0"/>
<path class="st7" d="M142.3,45.5C142.3,45.5,142.3,45.5,142.3,45.5C142.3,45.5,142.3,45.5,142.3,45.5
	C142.2,45.4,142.2,45.4,142.3,45.5C142.2,45.4,142.2,45.4,142.3,45.5"/>
<path class="st7" d="M120.3,46.9c0.5,0,0.9-0.4,0.9-0.9"/>
<path class="st7" d="M142.2,45.4C142.2,45.4,142.2,45.4,142.2,45.4c-0.1,0-0.2,0-0.2-0.1"/>
<line class="st7" x1="142" y1="45.4" x2="142" y2="45.4"/>
<path class="st7" d="M142,45.4C142,45.4,141.9,45.4,142,45.4"/>
<path class="st7" d="M143.3,45.7c-0.2-0.1-0.5-0.1-0.7-0.2"/>
<path class="st7" d="M143.5,45.8c-0.1,0-0.2,0-0.2-0.1"/>
<path class="st7" d="M143.5,45.8C143.5,45.8,143.5,45.8,143.5,45.8"/>
<path class="st7" d="M142.6,45.5c0.3,0.1,0.6,0.1,0.9,0.2"/>
<path class="st7" d="M142.5,45.5C142.6,45.5,142.6,45.5,142.5,45.5"/>
<path class="st7" d="M142.6,45.5C142.6,45.5,142.6,45.5,142.6,45.5C142.5,45.5,142.5,45.5,142.6,45.5L142.6,45.5
	C142.5,45.5,142.5,45.5,142.6,45.5"/>
<line class="st7" x1="142.6" y1="45.5" x2="142.6" y2="45.5"/>
<path class="st7" d="M142.8,45.6c0,0-0.1,0-0.1,0c0,0-0.1,0-0.1,0"/>
<path class="st7" d="M142.8,45.6C142.8,45.6,142.8,45.6,142.8,45.6"/>
<path class="st7" d="M141.9,45.4c0.3,0.1,0.6,0.1,0.9,0.2"/>
<path class="st7" d="M148.9,45.5C148.9,45.5,148.9,45.5,148.9,45.5"/>
<path class="st7" d="M149,45.7c-0.1,0-0.1,0-0.1,0c0,0,0,0,0,0"/>
<path class="st7" d="M149,45.7C149,45.7,149,45.7,149,45.7"/>
<path class="st7" d="M149,45.6C149,45.6,149,45.6,149,45.6L149,45.6"/>
<path class="st7" d="M149.1,45.5C149.1,45.6,149.1,45.6,149.1,45.5"/>
<path class="st7" d="M148.1,45.8c0,0-0.1,0-0.1,0"/>
<path class="st7" d="M149.8,45.6C149.8,45.6,149.8,45.6,149.8,45.6C149.7,45.6,149.7,45.6,149.8,45.6"/>
<line class="st7" x1="149.8" y1="45.6" x2="149.8" y2="45.5"/>
<path class="st7" d="M121.2,17.9c0-0.5-0.4-0.9-0.9-0.9"/>
<path class="st7" d="M149.7,45.6C149.7,45.6,149.7,45.6,149.7,45.6C149.7,45.6,149.7,45.6,149.7,45.6
	C149.7,45.6,149.7,45.6,149.7,45.6"/>
<path class="st7" d="M149.7,45.6C149.7,45.6,149.7,45.6,149.7,45.6C149.7,45.5,149.7,45.5,149.7,45.6"/>
<path class="st7" d="M149.7,45.5C149.7,45.5,149.8,45.5,149.7,45.5C149.8,45.5,149.8,45.5,149.7,45.5c0.1,0,0.1,0,0.2,0"/>
<path class="st7" d="M149.9,45.5C149.9,45.5,149.9,45.5,149.9,45.5c0.1,0,0.1,0,0.2,0"/>
<path class="st7" d="M150,45.5c0,0,0.1,0,0.1,0c0,0,0,0,0,0c0,0,0,0,0,0"/>
<line class="st7" x1="150.2" y1="45.5" x2="150.2" y2="45.5"/>
<path class="st7" d="M150.2,45.5C150.2,45.5,150.2,45.5,150.2,45.5c-0.1,0-0.1,0.1-0.1,0.1c0,0-0.1,0-0.1,0"/>
<line class="st7" x1="88.5" y1="46.6" x2="89.4" y2="46.9"/>
<path class="st7" d="M149.9,45.6c-0.1,0-0.1,0-0.2,0.1c-0.1,0-0.1,0-0.2,0c-0.1,0-0.1,0-0.2,0"/>
<line class="st7" x1="149.4" y1="45.8" x2="149.4" y2="45.7"/>
<path class="st7" d="M149.4,45.8c0,0-0.1,0-0.1,0c0,0-0.1,0-0.1,0c-0.1,0-0.1,0-0.2,0"/>
<line class="st7" x1="88.5" y1="17.2" x2="89.4" y2="16.9"/>
<path class="st7" d="M149,45.8c-0.1,0-0.1,0-0.1,0c0,0-0.1,0-0.1,0"/>
<line class="st7" x1="88.5" y1="17.2" x2="87.5" y2="17.2"/>
<path class="st7" d="M148.8,45.8C148.8,45.8,148.8,45.8,148.8,45.8c0-0.1,0-0.1,0.1-0.1"/>
<path class="st7" d="M148.8,45.7C148.9,45.7,148.9,45.7,148.8,45.7c0.1-0.1,0.1-0.1,0.1-0.1"/>
<path class="st7" d="M148.9,45.6C148.9,45.6,148.9,45.6,148.9,45.6C148.9,45.5,148.9,45.5,148.9,45.6"/>
<line class="st7" x1="148.9" y1="45.5" x2="148.9" y2="45.5"/>
<path class="st7" d="M148.9,45.5c-0.2,0.1-0.4,0.1-0.6,0.2"/>
<line class="st7" x1="88.5" y1="46.6" x2="87.5" y2="46.6"/>
<path class="st7" d="M148.3,45.7C148.3,45.7,148.3,45.7,148.3,45.7c-0.1,0-0.2,0.1-0.2,0.1"/>
<line class="st7" x1="148.1" y1="45.8" x2="148.1" y2="45.7"/>
<path class="st7" d="M148.1,45.8C148.2,45.8,148.2,45.8,148.1,45.8c0.1,0,0.1,0,0.1,0.1"/>
<path class="st7" d="M149.8,45.6C149.8,45.6,149.8,45.6,149.8,45.6C149.8,45.6,149.8,45.6,149.8,45.6"/>
<line class="st7" x1="149.8" y1="45.6" x2="149.8" y2="45.5"/>
<path class="st7" d="M149.9,45.5C149.9,45.5,149.9,45.5,149.9,45.5C149.8,45.5,149.8,45.6,149.9,45.5"/>
<line class="st7" x1="149.9" y1="45.5" x2="149.9" y2="45.5"/>
<path class="st7" d="M150,45.5C150,45.5,149.9,45.5,150,45.5C149.9,45.5,149.9,45.5,150,45.5"/>
<line class="st7" x1="89.4" y1="46.9" x2="89.4" y2="16.9"/>
<path class="st7" d="M150,45.5C150,45.5,150,45.5,150,45.5C150,45.5,150,45.5,150,45.5C150,45.5,150,45.5,150,45.5"/>
<path class="st7" d="M149.8,45.6C149.9,45.6,149.9,45.6,149.8,45.6c0.1,0,0.2-0.1,0.2-0.1"/>
<path class="st7" d="M149.5,45.7c0,0,0.1,0,0.1,0c0.1,0,0.1,0,0.2-0.1"/>
<path class="st7" d="M149.2,45.8c0,0,0.1,0,0.2,0c0,0,0.1,0,0.1,0c0,0,0.1,0,0.1,0"/>
<path class="st7" d="M149,45.8C149.1,45.8,149.1,45.8,149,45.8c0.1,0,0.1,0,0.2,0"/>
<path class="st7" d="M149,45.7C149,45.7,149,45.7,149,45.7C149,45.7,149,45.8,149,45.7"/>
<line class="st7" x1="149" y1="45.7" x2="149" y2="45.6"/>
<path class="st7" d="M149.1,45.6C149.1,45.6,149.1,45.6,149.1,45.6c0,0.1,0,0.1,0,0.1"/>
<path class="st7" d="M149,45.5C149,45.5,149,45.5,149,45.5c0.1,0.1,0.1,0.1,0.1,0.1"/>
<path class="st7" d="M148.9,45.5C148.9,45.5,148.9,45.5,148.9,45.5"/>
<path class="st7" d="M147.9,45.8c0.3-0.1,0.7-0.2,1-0.3"/>
<path class="st7" d="M148.2,45.9c-0.1,0-0.2,0-0.3-0.1"/>
<line class="st7" x1="148.2" y1="45.9" x2="148.2" y2="45.8"/>
<path class="st7" d="M148.3,45.8C148.2,45.8,148.2,45.9,148.3,45.8"/>
<path class="st7" d="M145.2,45.6C145.2,45.6,145.2,45.6,145.2,45.6C145.2,45.6,145.2,45.6,145.2,45.6"/>
<line class="st7" x1="144.1" y1="45.4" x2="144.1" y2="45.4"/>
<path class="st7" d="M144.1,45.5C144,45.5,144,45.5,144.1,45.5"/>
<path class="st7" d="M144.1,45.5C144.1,45.5,144.1,45.5,144.1,45.5"/>
<path class="st7" d="M145.4,45.7C145.3,45.7,145.3,45.7,145.4,45.7c-0.1,0-0.1,0-0.1,0c0,0,0,0,0,0"/>
<line class="st7" x1="145.4" y1="45.7" x2="145.4" y2="45.7"/>
<path class="st7" d="M146.4,45.6C146.3,45.6,146.3,45.6,146.4,45.6C146.3,45.6,146.3,45.6,146.4,45.6c-0.1,0-0.1,0.1-0.2,0.1"/>
<line class="st7" x1="146.2" y1="45.5" x2="146.2" y2="45.5"/>
<path class="st7" d="M146.4,45.7C146.4,45.7,146.3,45.7,146.4,45.7c-0.1,0-0.1,0.1-0.2,0.1c0,0-0.1,0-0.1,0"/>
<line class="st7" x1="146.4" y1="45.7" x2="146.4" y2="45.6"/>
<line class="st7" x1="88.5" y1="17.2" x2="88.5" y2="46.6"/>
<path class="st7" d="M146.1,45.8c-0.1,0-0.1,0-0.2,0c0,0-0.1,0-0.1,0c0,0-0.1,0-0.1,0"/>
<line class="st7" x1="145.7" y1="45.7" x2="145.7" y2="45.7"/>
<path class="st7" d="M145.7,45.7c-0.1,0-0.1,0-0.2,0c-0.1,0-0.1,0-0.2,0"/>
<line class="st7" x1="145.4" y1="45.7" x2="145.4" y2="45.6"/>
<path class="st7" d="M145.4,45.7C145.4,45.7,145.4,45.7,145.4,45.7C145.4,45.7,145.4,45.7,145.4,45.7
	C145.4,45.7,145.4,45.8,145.4,45.7"/>
<line class="st7" x1="145.4" y1="45.8" x2="145.4" y2="45.7"/>
<path class="st7" d="M145.4,45.8C145.3,45.8,145.3,45.8,145.4,45.8c-0.1,0-0.1,0-0.2,0c0,0-0.1,0-0.1,0"/>
<path class="st7" d="M84.7,14.4c0,1.5,1.3,2.8,2.8,2.8"/>
<path class="st7" d="M145.1,45.8c-0.1,0-0.2,0-0.3,0c0,0-0.1,0-0.1,0c0,0-0.1,0-0.1,0"/>
<line class="st7" x1="144.5" y1="45.7" x2="144.5" y2="45.7"/>
<path class="st7" d="M144.5,45.7c-0.1,0-0.1,0-0.2,0c-0.1,0-0.1,0-0.1-0.1c0,0-0.1,0-0.1-0.1"/>
<line class="st7" x1="128.4" y1="42.2" x2="128.4" y2="42.1"/>
<path class="st7" d="M144.1,45.6C144,45.6,144,45.6,144.1,45.6c-0.1-0.1-0.1-0.1-0.1-0.1c0,0,0,0,0,0"/>
<path class="st7" d="M144,45.5C144,45.5,144,45.5,144,45.5c0.1,0,0.1,0,0.1,0c0,0,0.1,0,0.1,0"/>
<path class="st7" d="M144.2,45.4C144.3,45.4,144.3,45.4,144.2,45.4c0.1,0,0.1,0,0.1,0c0,0,0,0,0,0"/>
<path class="st7" d="M144.4,45.5C144.4,45.5,144.4,45.5,144.4,45.5C144.5,45.5,144.5,45.5,144.4,45.5"/>
<path class="st7" d="M144.5,45.5C144.5,45.5,144.5,45.5,144.5,45.5C144.5,45.5,144.5,45.5,144.5,45.5"/>
<line class="st7" x1="144.5" y1="45.5" x2="144.5" y2="45.5"/>
<path class="st7" d="M144.5,45.5C144.5,45.5,144.5,45.5,144.5,45.5C144.5,45.5,144.5,45.5,144.5,45.5
	C144.4,45.5,144.4,45.5,144.5,45.5"/>
<line class="st7" x1="144.4" y1="45.5" x2="144.4" y2="45.5"/>
<path class="st7" d="M144.4,45.5C144.4,45.5,144.4,45.5,144.4,45.5"/>
<line class="st7" x1="144.3" y1="45.5" x2="144.3" y2="45.4"/>
<path class="st7" d="M144.3,45.5c0,0-0.1,0-0.1,0c0,0-0.1,0-0.1,0"/>
<line class="st7" x1="144.1" y1="45.5" x2="144.1" y2="45.4"/>
<path class="st7" d="M144.1,45.5C144.1,45.5,144.1,45.5,144.1,45.5C144.1,45.5,144.1,45.5,144.1,45.5
	C144.1,45.6,144.2,45.6,144.1,45.5"/>
<path class="st7" d="M144.2,45.6C144.2,45.6,144.3,45.6,144.2,45.6c0.1,0.1,0.2,0.1,0.2,0.1c0,0,0.1,0,0.1,0"/>
<path class="st7" d="M144.5,45.7c0.1,0,0.1,0,0.2,0c0.1,0,0.2,0,0.3,0"/>
<path class="st7" d="M145,45.7c0.1,0,0.1,0,0.2,0c0,0,0,0,0.1,0c0,0,0,0,0,0"/>
<path class="st7" d="M145.2,45.7C145.2,45.7,145.2,45.7,145.2,45.7c0-0.1,0-0.1-0.1-0.1"/>
<path class="st7" d="M146.3,45.5C146.3,45.6,146.3,45.6,146.3,45.5C146.4,45.6,146.4,45.6,146.3,45.5c0.1,0.1,0.1,0.1,0.1,0.1"/>
<path class="st7" d="M145.9,45.4c0.1,0,0.1,0,0.2,0c0.1,0,0.1,0,0.2,0.1"/>
<path class="st7" d="M145.6,45.4c0,0,0.1,0,0.1,0c0,0,0.1,0,0.1,0c0,0,0.1,0,0.1,0"/>
<path class="st7" d="M145.4,45.4C145.4,45.4,145.5,45.4,145.4,45.4C145.5,45.4,145.5,45.4,145.4,45.4c0.1,0,0.1,0,0.1,0"/>
<path class="st7" d="M145.5,45.5C145.4,45.5,145.4,45.5,145.5,45.5C145.4,45.5,145.4,45.5,145.5,45.5"/>
<line class="st7" x1="123.4" y1="42.2" x2="123.4" y2="42.1"/>
<path class="st7" d="M145.6,45.5C145.5,45.5,145.5,45.5,145.6,45.5C145.5,45.5,145.5,45.5,145.6,45.5c-0.1,0-0.1,0-0.1,0"/>
<line class="st7" x1="145.6" y1="45.5" x2="145.6" y2="45.4"/>
<path class="st7" d="M145.7,45.5C145.7,45.5,145.7,45.5,145.7,45.5c-0.1,0-0.1,0-0.1,0"/>
<line class="st7" x1="145.7" y1="45.5" x2="145.7" y2="45.4"/>
<path class="st7" d="M145.8,45.5C145.7,45.5,145.7,45.5,145.8,45.5"/>
<line class="st7" x1="145.8" y1="45.5" x2="145.8" y2="45.4"/>
<path class="st7" d="M145.9,45.5C145.9,45.5,145.9,45.5,145.9,45.5C145.9,45.5,145.9,45.5,145.9,45.5c-0.1,0-0.1,0-0.2,0"/>
<line class="st7" x1="145.9" y1="45.5" x2="145.9" y2="45.4"/>
<path class="st7" d="M146.2,45.6C146.1,45.5,146.1,45.5,146.2,45.6c-0.1,0-0.1-0.1-0.2-0.1c0,0,0,0,0,0c0,0,0,0,0,0"/>
<path class="st7" d="M128.4,42.1c0-1.3-1.5-1.8-2.5-1.8c-1,0-2.5,0.5-2.5,1.8"/>
<path class="st7" d="M146.2,45.6C146.2,45.6,146.2,45.6,146.2,45.6C146.2,45.6,146.2,45.6,146.2,45.6
	C146.2,45.6,146.2,45.6,146.2,45.6"/>
<path class="st7" d="M145.9,45.7c0.1,0,0.1,0,0.1,0c0,0,0,0,0.1,0c0,0,0,0,0,0"/>
<path class="st7" d="M145.6,45.7c0,0,0.1,0,0.2,0c0,0,0.1,0,0.1,0c0,0,0.1,0,0.1,0"/>
<path class="st7" d="M145.3,45.6C145.3,45.6,145.3,45.6,145.3,45.6c0.1,0.1,0.2,0.1,0.2,0.1c0,0,0.1,0,0.1,0"/>
<path class="st7" d="M145.2,45.6C145.2,45.6,145.2,45.6,145.2,45.6C145.3,45.6,145.3,45.6,145.2,45.6"/>
<path class="st7" d="M145.1,45.5C145.1,45.5,145.1,45.5,145.1,45.5C145.2,45.5,145.2,45.5,145.1,45.5
	C145.2,45.5,145.2,45.5,145.1,45.5C145.2,45.5,145.2,45.6,145.1,45.5"/>
<path class="st7" d="M145.1,45.6C145.1,45.6,145.1,45.6,145.1,45.6C145.1,45.5,145.1,45.5,145.1,45.6
	C145.1,45.5,145.1,45.5,145.1,45.6C145.1,45.5,145.1,45.5,145.1,45.6"/>
<line class="st7" x1="145.1" y1="45.6" x2="145.1" y2="45.5"/>
<path class="st7" d="M145.1,45.6C145.1,45.6,145.1,45.6,145.1,45.6C145.1,45.6,145.1,45.6,145.1,45.6"/>
<line class="st7" x1="145.1" y1="45.6" x2="145.1" y2="45.5"/>
<line class="st7" x1="145.1" y1="45.6" x2="145.1" y2="45.6"/>
<line class="st7" x1="142.5" y1="45.5" x2="142.5" y2="45.5"/>
<line class="st7" x1="148.9" y1="45.6" x2="148.9" y2="45.5"/>
<line class="st7" x1="150" y1="45.5" x2="150" y2="45.5"/>
<line class="st7" x1="149" y1="45.7" x2="149" y2="45.6"/>
<line class="st7" x1="144.1" y1="45.5" x2="144.1" y2="45.4"/>
<line class="st7" x1="145.2" y1="45.7" x2="145.2" y2="45.6"/>
<line class="st7" x1="146.2" y1="45.6" x2="146.2" y2="45.5"/>
<line class="st7" x1="148.6" y1="46" x2="144.3" y2="46"/>
<line class="st7" x1="152.1" y1="44.7" x2="151.6" y2="44.7"/>
<line class="st7" x1="151.5" y1="44.7" x2="150.9" y2="44.7"/>
<line class="st7" x1="150.8" y1="44.7" x2="150.1" y2="44.7"/>
<line class="st7" x1="150" y1="44.7" x2="149.3" y2="44.7"/>
<line class="st7" x1="149.1" y1="44.7" x2="148.4" y2="44.7"/>
<line class="st7" x1="148.2" y1="44.7" x2="147.5" y2="44.7"/>
<line class="st7" x1="147.3" y1="44.7" x2="146.6" y2="44.7"/>
<line class="st7" x1="146.4" y1="44.7" x2="145.6" y2="44.7"/>
<line class="st7" x1="145.5" y1="44.7" x2="144.7" y2="44.7"/>
<line class="st7" x1="144.5" y1="44.7" x2="143.8" y2="44.7"/>
<line class="st7" x1="143.7" y1="44.7" x2="143" y2="44.7"/>
<line class="st7" x1="142.8" y1="44.7" x2="142.2" y2="44.7"/>
<line class="st7" x1="142" y1="44.7" x2="141.5" y2="44.7"/>
<line class="st7" x1="141.3" y1="44.7" x2="140.8" y2="44.7"/>
<line class="st7" x1="140.7" y1="44.7" x2="140.3" y2="44.7"/>
<line class="st7" x1="140.2" y1="44.7" x2="139.8" y2="44.7"/>
<line class="st7" x1="139.7" y1="44.7" x2="139.5" y2="44.7"/>
<line class="st7" x1="139.4" y1="44.7" x2="139.2" y2="44.7"/>
<line class="st7" x1="139.2" y1="44.7" x2="139.1" y2="44.7"/>
<line class="st7" x1="139.1" y1="44.7" x2="139.1" y2="44.7"/>
<line class="st7" x1="153.9" y1="44.7" x2="153.9" y2="44.7"/>
<line class="st7" x1="153.9" y1="44.7" x2="153.8" y2="44.7"/>
<line class="st7" x1="153.7" y1="44.7" x2="153.6" y2="44.7"/>
<line class="st7" x1="153.5" y1="44.7" x2="153.2" y2="44.7"/>
<line class="st7" x1="153.1" y1="44.7" x2="152.8" y2="44.7"/>
<line class="st7" x1="152.7" y1="44.7" x2="152.2" y2="44.7"/>
<line class="st7" x1="144.3" y1="46" x2="143.3" y2="45.7"/>
<line class="st7" x1="142.4" y1="45.5" x2="139.1" y2="44.7"/>
<line class="st7" x1="148.6" y1="46" x2="153.9" y2="44.7"/>
<line class="st7" x1="143.2" y1="45.7" x2="142.6" y2="45.6"/>
<line class="st7" x1="139.1" y1="44.7" x2="139.1" y2="44.6"/>
<line class="st7" x1="153.9" y1="44.7" x2="153.9" y2="44.6"/>
<line class="st7" x1="150" y1="45.4" x2="150.7" y2="45.1"/>
<line class="st7" x1="150.7" y1="45.1" x2="151.1" y2="45"/>
<line class="st7" x1="151.1" y1="45" x2="152.1" y2="44.7"/>
<line class="st7" x1="151.6" y1="44.7" x2="150.7" y2="45"/>
<path class="st7" d="M150.7,45C150.7,45,150.6,45,150.7,45"/>
<path class="st7" d="M150.6,45C150.6,45,150.6,45,150.6,45"/>
<line class="st7" x1="150.6" y1="45" x2="151.5" y2="44.7"/>
<line class="st7" x1="150.9" y1="44.7" x2="150.1" y2="45"/>
<path class="st7" d="M150.1,45C150.1,45,150.1,45,150.1,45"/>
<path class="st7" d="M150,45C150,45,150,45,150,45"/>
<line class="st7" x1="150" y1="45" x2="150.8" y2="44.7"/>
<line class="st7" x1="150.1" y1="44.7" x2="149.5" y2="45"/>
<path class="st7" d="M149.5,45C149.4,45,149.4,45,149.5,45"/>
<path class="st7" d="M149.4,45C149.4,45,149.3,45,149.4,45"/>
<line class="st7" x1="149.3" y1="45" x2="150" y2="44.7"/>
<line class="st7" x1="149.3" y1="44.7" x2="148.8" y2="45"/>
<path class="st7" d="M148.8,45C148.8,45,148.7,45,148.8,45"/>
<path class="st7" d="M148.7,45C148.7,45,148.6,45,148.7,45"/>
<line class="st7" x1="148.6" y1="45" x2="149.1" y2="44.7"/>
<line class="st7" x1="148.4" y1="44.7" x2="148.1" y2="45"/>
<line class="st7" x1="148.1" y1="45" x2="148" y2="45.1"/>
<line class="st7" x1="147.8" y1="45.1" x2="147.9" y2="45"/>
<line class="st7" x1="147.9" y1="45" x2="148.2" y2="44.7"/>
<line class="st7" x1="147.5" y1="44.7" x2="147.3" y2="45"/>
<path class="st7" d="M147.3,45C147.3,45,147.3,45,147.3,45"/>
<path class="st7" d="M147.2,45C147.2,45,147.2,45,147.2,45"/>
<line class="st7" x1="147.1" y1="45" x2="147.3" y2="44.7"/>
<line class="st7" x1="146.6" y1="44.7" x2="146.6" y2="45"/>
<path class="st7" d="M146.6,45C146.5,45,146.5,45,146.6,45"/>
<path class="st7" d="M146.5,45C146.4,45,146.4,45,146.5,45"/>
<line class="st7" x1="146.4" y1="45" x2="146.4" y2="44.7"/>
<line class="st7" x1="145.6" y1="44.7" x2="145.8" y2="45"/>
<path class="st7" d="M145.8,45C145.8,45,145.7,45,145.8,45"/>
<path class="st7" d="M145.7,45C145.7,45,145.7,45,145.7,45"/>
<line class="st7" x1="145.6" y1="45" x2="145.5" y2="44.7"/>
<line class="st7" x1="144.7" y1="44.7" x2="145.1" y2="45"/>
<path class="st7" d="M145.1,45C145,45,145,45,145.1,45"/>
<path class="st7" d="M145,45C144.9,45,144.9,45,145,45"/>
<line class="st7" x1="144.9" y1="45" x2="144.5" y2="44.7"/>
<line class="st7" x1="143.8" y1="44.7" x2="144.3" y2="45"/>
<line class="st7" x1="144.3" y1="45" x2="144.5" y2="45.1"/>
<line class="st7" x1="144.5" y1="45.1" x2="144.8" y2="45.4"/>
<line class="st7" x1="144.7" y1="45.4" x2="144.3" y2="45.1"/>
<line class="st7" x1="144.3" y1="45.1" x2="144.2" y2="45"/>
<line class="st7" x1="144.2" y1="45" x2="143.7" y2="44.7"/>
<line class="st7" x1="143" y1="44.7" x2="143.6" y2="45"/>
<path class="st7" d="M143.6,45C143.6,45,143.6,45,143.6,45"/>
<path class="st7" d="M143.6,45C143.5,45,143.5,45,143.6,45"/>
<line class="st7" x1="143.5" y1="45" x2="142.8" y2="44.7"/>
<line class="st7" x1="142.2" y1="44.7" x2="143" y2="45"/>
<path class="st7" d="M143,45C143,45,142.9,45,143,45"/>
<path class="st7" d="M142.9,45C142.9,45,142.9,45,142.9,45"/>
<line class="st7" x1="142.8" y1="45" x2="142" y2="44.7"/>
<line class="st7" x1="141.5" y1="44.7" x2="142.4" y2="45"/>
<path class="st7" d="M142.4,45C142.4,45,142.4,45,142.4,45"/>
<path class="st7" d="M142.3,45C142.3,45,142.3,45,142.3,45"/>
<line class="st7" x1="142.3" y1="45" x2="141.3" y2="44.7"/>
<line class="st7" x1="140.8" y1="44.7" x2="141.9" y2="45"/>
<path class="st7" d="M141.9,45C141.9,45,141.8,45,141.9,45"/>
<path class="st7" d="M141.8,45C141.8,45,141.8,45,141.8,45"/>
<line class="st7" x1="141.8" y1="45" x2="140.7" y2="44.7"/>
<line class="st7" x1="140.3" y1="44.7" x2="141.4" y2="45"/>
<line class="st7" x1="141.4" y1="45" x2="141.8" y2="45.1"/>
<line class="st7" x1="141.7" y1="45.1" x2="141.3" y2="45"/>
<line class="st7" x1="141.3" y1="45" x2="140.2" y2="44.7"/>
<line class="st7" x1="139.8" y1="44.7" x2="141" y2="45"/>
<path class="st7" d="M141,45C141,45,141,45,141,45"/>
<path class="st7" d="M141,45C141,45,141,45,141,45"/>
<line class="st7" x1="141" y1="45" x2="139.7" y2="44.7"/>
<line class="st7" x1="139.5" y1="44.7" x2="140.7" y2="45"/>
<path class="st7" d="M140.7,45C140.7,45,140.7,45,140.7,45"/>
<path class="st7" d="M140.7,45C140.7,45,140.7,45,140.7,45"/>
<line class="st7" x1="140.7" y1="45" x2="139.4" y2="44.7"/>
<line class="st7" x1="139.2" y1="44.7" x2="140.5" y2="45"/>
<path class="st7" d="M140.5,45C140.5,45,140.5,45,140.5,45"/>
<path class="st7" d="M140.5,45C140.5,45,140.5,45,140.5,45"/>
<line class="st7" x1="140.5" y1="45" x2="139.2" y2="44.7"/>
<line class="st7" x1="139.1" y1="44.7" x2="140.4" y2="45"/>
<line class="st7" x1="140.4" y1="45" x2="140.4" y2="45"/>
<line class="st7" x1="140.4" y1="45" x2="140.4" y2="45"/>
<line class="st7" x1="140.4" y1="45" x2="139.1" y2="44.7"/>
<line class="st7" x1="153.9" y1="44.7" x2="152.5" y2="45"/>
<line class="st7" x1="152.5" y1="45" x2="152.1" y2="45.1"/>
<line class="st7" x1="152.1" y1="45.1" x2="152.5" y2="45"/>
<line class="st7" x1="152.5" y1="45" x2="153.9" y2="44.7"/>
<line class="st7" x1="153.8" y1="44.7" x2="152.4" y2="45"/>
<path class="st7" d="M152.4,45C152.4,45,152.4,45,152.4,45"/>
<path class="st7" d="M152.4,45C152.4,45,152.4,45,152.4,45"/>
<line class="st7" x1="152.4" y1="45" x2="153.7" y2="44.7"/>
<line class="st7" x1="153.6" y1="44.7" x2="152.3" y2="45"/>
<path class="st7" d="M152.3,45C152.3,45,152.2,45,152.3,45"/>
<path class="st7" d="M152.2,45C152.2,45,152.2,45,152.2,45"/>
<line class="st7" x1="152.2" y1="45" x2="153.5" y2="44.7"/>
<line class="st7" x1="153.2" y1="44.7" x2="152" y2="45"/>
<path class="st7" d="M152,45C152,45,152,45,152,45"/>
<path class="st7" d="M152,45C151.9,45,151.9,45,152,45"/>
<line class="st7" x1="151.9" y1="45" x2="153.1" y2="44.7"/>
<line class="st7" x1="152.8" y1="44.7" x2="151.6" y2="45"/>
<path class="st7" d="M151.6,45C151.6,45,151.6,45,151.6,45"/>
<path class="st7" d="M151.6,45C151.6,45,151.6,45,151.6,45"/>
<line class="st7" x1="151.5" y1="45" x2="152.7" y2="44.7"/>
<line class="st7" x1="152.2" y1="44.7" x2="151.2" y2="45"/>
<line class="st7" x1="151.2" y1="45" x2="150.8" y2="45.1"/>
<line class="st7" x1="150.8" y1="45.1" x2="150.1" y2="45.4"/>
<line class="st7" x1="153.9" y1="44.7" x2="153.9" y2="44.6"/>
<line class="st7" x1="153.9" y1="44.6" x2="153.9" y2="44.6"/>
<line class="st7" x1="153.9" y1="44.6" x2="153.9" y2="44.7"/>
<line class="st7" x1="153.7" y1="44.7" x2="153.7" y2="44.6"/>
<line class="st7" x1="153.7" y1="44.6" x2="153.8" y2="44.6"/>
<line class="st7" x1="152.4" y1="45" x2="152.4" y2="45"/>
<line class="st7" x1="153.8" y1="44.6" x2="153.8" y2="44.7"/>
<line class="st7" x1="153.5" y1="44.7" x2="153.5" y2="44.6"/>
<line class="st7" x1="153.5" y1="44.6" x2="153.5" y2="44.6"/>
<line class="st7" x1="152.3" y1="45" x2="152.3" y2="45"/>
<line class="st7" x1="153.6" y1="44.6" x2="153.6" y2="44.7"/>
<line class="st7" x1="153.1" y1="44.7" x2="153.1" y2="44.6"/>
<line class="st7" x1="153.1" y1="44.6" x2="153.2" y2="44.6"/>
<line class="st7" x1="152" y1="45" x2="152" y2="45"/>
<line class="st7" x1="153.2" y1="44.6" x2="153.2" y2="44.7"/>
<line class="st7" x1="152.7" y1="44.7" x2="152.7" y2="44.6"/>
<line class="st7" x1="152.7" y1="44.7" x2="152.8" y2="44.6"/>
<line class="st7" x1="151.6" y1="45" x2="151.6" y2="45"/>
<line class="st7" x1="152.8" y1="44.6" x2="152.8" y2="44.7"/>
<line class="st7" x1="152.1" y1="44.7" x2="152.1" y2="44.6"/>
<line class="st7" x1="152.1" y1="44.7" x2="152.2" y2="44.6"/>
<line class="st7" x1="152.2" y1="44.6" x2="152.2" y2="44.7"/>
<line class="st7" x1="151.5" y1="44.7" x2="151.5" y2="44.6"/>
<line class="st7" x1="150.7" y1="45" x2="150.7" y2="45"/>
<line class="st7" x1="150.7" y1="45" x2="151.6" y2="44.6"/>
<line class="st7" x1="150.7" y1="45" x2="150.7" y2="45"/>
<line class="st7" x1="151.6" y1="44.6" x2="151.6" y2="44.7"/>
<line class="st7" x1="150.8" y1="44.7" x2="150.8" y2="44.6"/>
<line class="st7" x1="150.1" y1="45" x2="150.1" y2="45"/>
<line class="st7" x1="150.1" y1="45" x2="150.9" y2="44.6"/>
<line class="st7" x1="150.1" y1="45" x2="150.1" y2="45"/>
<line class="st7" x1="150.9" y1="44.6" x2="150.9" y2="44.7"/>
<line class="st7" x1="150" y1="44.7" x2="150" y2="44.6"/>
<line class="st7" x1="149.4" y1="45" x2="149.5" y2="45"/>
<line class="st7" x1="149.5" y1="45" x2="150.1" y2="44.6"/>
<line class="st7" x1="149.5" y1="45" x2="149.5" y2="45"/>
<line class="st7" x1="150.1" y1="44.6" x2="150.1" y2="44.7"/>
<line class="st7" x1="149.1" y1="44.7" x2="149.1" y2="44.6"/>
<line class="st7" x1="148.7" y1="45" x2="148.8" y2="45"/>
<line class="st7" x1="148.8" y1="45" x2="149.3" y2="44.6"/>
<line class="st7" x1="148.8" y1="45" x2="148.8" y2="45"/>
<line class="st7" x1="149.3" y1="44.6" x2="149.3" y2="44.7"/>
<line class="st7" x1="148.2" y1="44.7" x2="148.2" y2="44.6"/>
<line class="st7" x1="148" y1="45.1" x2="148.4" y2="44.6"/>
<line class="st7" x1="148.4" y1="44.6" x2="148.4" y2="44.7"/>
<line class="st7" x1="147.3" y1="44.7" x2="147.3" y2="44.6"/>
<line class="st7" x1="147.2" y1="45" x2="147.3" y2="45"/>
<line class="st7" x1="147.3" y1="45" x2="147.5" y2="44.6"/>
<line class="st7" x1="147.3" y1="45" x2="147.3" y2="45"/>
<line class="st7" x1="147.5" y1="44.6" x2="147.5" y2="44.7"/>
<line class="st7" x1="146.4" y1="44.7" x2="146.4" y2="44.6"/>
<line class="st7" x1="146.4" y1="45" x2="146.6" y2="45"/>
<line class="st7" x1="146.6" y1="45" x2="146.6" y2="45"/>
<line class="st7" x1="146.6" y1="44.6" x2="146.6" y2="44.7"/>
<line class="st7" x1="145.6" y1="45" x2="145.6" y2="45"/>
<line class="st7" x1="145.5" y1="44.6" x2="145.6" y2="45"/>
<line class="st7" x1="145.5" y1="44.7" x2="145.5" y2="44.6"/>
<line class="st7" x1="145.6" y1="45" x2="145.8" y2="45"/>
<line class="st7" x1="145.6" y1="44.6" x2="145.6" y2="44.7"/>
<line class="st7" x1="144.9" y1="45" x2="144.9" y2="45"/>
<line class="st7" x1="144.5" y1="44.6" x2="144.9" y2="45"/>
<line class="st7" x1="144.5" y1="44.7" x2="144.5" y2="44.6"/>
<line class="st7" x1="144.9" y1="45" x2="145" y2="45"/>
<line class="st7" x1="144.7" y1="44.6" x2="144.7" y2="44.7"/>
<line class="st7" x1="143.7" y1="44.6" x2="144.7" y2="45.3"/>
<line class="st7" x1="143.7" y1="44.7" x2="143.7" y2="44.6"/>
<line class="st7" x1="143.8" y1="44.6" x2="143.8" y2="44.7"/>
<line class="st7" x1="143.5" y1="45" x2="143.5" y2="45"/>
<line class="st7" x1="142.8" y1="44.6" x2="143.5" y2="45"/>
<line class="st7" x1="142.8" y1="44.7" x2="142.8" y2="44.6"/>
<line class="st7" x1="143.5" y1="45" x2="143.6" y2="45"/>
<line class="st7" x1="143" y1="44.6" x2="143" y2="44.7"/>
<line class="st7" x1="142.8" y1="45" x2="142.8" y2="45"/>
<line class="st7" x1="142" y1="44.6" x2="142.8" y2="45"/>
<line class="st7" x1="142" y1="44.7" x2="142" y2="44.6"/>
<line class="st7" x1="142.8" y1="45" x2="142.9" y2="45"/>
<line class="st7" x1="142.2" y1="44.6" x2="142.2" y2="44.7"/>
<line class="st7" x1="142.3" y1="45" x2="142.3" y2="45"/>
<line class="st7" x1="141.3" y1="44.6" x2="142.3" y2="45"/>
<line class="st7" x1="141.3" y1="44.7" x2="141.3" y2="44.6"/>
<line class="st7" x1="142.3" y1="45" x2="142.3" y2="45"/>
<line class="st7" x1="141.5" y1="44.6" x2="141.5" y2="44.7"/>
<line class="st7" x1="141.8" y1="45" x2="141.8" y2="45"/>
<line class="st7" x1="140.7" y1="44.6" x2="140.8" y2="44.7"/>
<line class="st7" x1="140.7" y1="44.7" x2="140.7" y2="44.6"/>
<line class="st7" x1="140.8" y1="44.6" x2="140.8" y2="44.7"/>
<line class="st7" x1="140.2" y1="44.6" x2="140.3" y2="44.7"/>
<line class="st7" x1="140.2" y1="44.7" x2="140.2" y2="44.6"/>
<line class="st7" x1="140.3" y1="44.6" x2="140.3" y2="44.7"/>
<line class="st7" x1="141" y1="45" x2="141" y2="45"/>
<line class="st7" x1="139.7" y1="44.6" x2="139.8" y2="44.6"/>
<line class="st7" x1="139.7" y1="44.7" x2="139.7" y2="44.6"/>
<line class="st7" x1="139.8" y1="44.6" x2="139.8" y2="44.7"/>
<line class="st7" x1="140.7" y1="45" x2="140.7" y2="45"/>
<line class="st7" x1="139.4" y1="44.6" x2="139.5" y2="44.6"/>
<line class="st7" x1="139.4" y1="44.7" x2="139.4" y2="44.6"/>
<line class="st7" x1="139.5" y1="44.6" x2="139.5" y2="44.7"/>
<line class="st7" x1="140.5" y1="45" x2="140.5" y2="45"/>
<line class="st7" x1="139.2" y1="44.6" x2="139.2" y2="44.6"/>
<line class="st7" x1="139.2" y1="44.7" x2="139.2" y2="44.6"/>
<line class="st7" x1="139.2" y1="44.6" x2="139.2" y2="44.7"/>
<line class="st7" x1="140.4" y1="45" x2="140.4" y2="45"/>
<line class="st7" x1="139.1" y1="44.6" x2="139.1" y2="44.6"/>
<line class="st7" x1="139.1" y1="44.7" x2="139.1" y2="44.6"/>
<line class="st7" x1="139.1" y1="44.6" x2="139.1" y2="44.7"/>
<line class="st7" x1="148" y1="45.1" x2="147.9" y2="45.1"/>
<line class="st7" x1="147.9" y1="45.1" x2="147.8" y2="45.1"/>
<line class="st7" x1="141.8" y1="45.1" x2="141.7" y2="45.1"/>
<line class="st7" x1="141.7" y1="45.1" x2="141.7" y2="45.1"/>
<line class="st7" x1="152.1" y1="45.1" x2="152.1" y2="45.1"/>
<line class="st7" x1="152.1" y1="45.1" x2="152.1" y2="45.1"/>
<line class="st7" x1="152.1" y1="45.1" x2="152.1" y2="45.1"/>
<line class="st7" x1="148" y1="45.1" x2="148" y2="45.1"/>
<line class="st7" x1="147.8" y1="45.1" x2="148" y2="45.1"/>
<line class="st7" x1="141.7" y1="45.1" x2="141.7" y2="45.1"/>
<line class="st7" x1="144.8" y1="45.4" x2="144.7" y2="45.4"/>
<line class="st7" x1="144.7" y1="45.4" x2="144.7" y2="45.4"/>
<line class="st7" x1="150.1" y1="45.4" x2="150.1" y2="45.4"/>
<line class="st7" x1="150.1" y1="45.4" x2="150" y2="45.4"/>
<line class="st7" x1="150.1" y1="45.4" x2="150.1" y2="45.3"/>
<line class="st7" x1="144.7" y1="45.3" x2="144.8" y2="45.3"/>
<line class="st7" x1="144.7" y1="45.4" x2="144.7" y2="45.3"/>
<line class="st7" x1="150.5" y1="17.1" x2="142.5" y2="17.1"/>
<line class="st7" x1="142.7" y1="16.9" x2="150.3" y2="16.9"/>
<line class="st7" x1="150.3" y1="16.9" x2="150.5" y2="17.1"/>
<line class="st7" x1="142.7" y1="16.9" x2="142.5" y2="17.1"/>
<line class="st7" x1="150.5" y1="17.1" x2="150.5" y2="17.5"/>
<line class="st7" x1="142.5" y1="17.1" x2="142.5" y2="17.5"/>
<path class="st7" d="M128.9,42.5c0,0.3-0.1,0.5-0.3,0.8c-0.2,0.2-0.4,0.4-0.7,0.6c-0.3,0.1-0.6,0.3-1,0.3c-0.4,0.1-0.8,0.1-1.1,0.1
	c-0.4,0-0.8,0-1.1-0.1c-0.4-0.1-0.7-0.2-1-0.3c-0.3-0.1-0.5-0.3-0.7-0.6c-0.2-0.2-0.3-0.5-0.3-0.8"/>
<path class="st7" d="M122.9,42.5c0-0.3,0.1-0.5,0.3-0.8c0.2-0.3,0.4-0.5,0.7-0.7c0.3-0.2,0.6-0.4,1-0.5c0.4-0.1,0.8-0.2,1.1-0.2
	c0.4,0,0.8,0.1,1.1,0.2c0.4,0.1,0.7,0.3,1,0.5c0.3,0.2,0.5,0.4,0.7,0.7c0.2,0.3,0.3,0.6,0.3,0.8"/>
<line class="st7" x1="130.6" y1="16.9" x2="130.6" y2="46.9"/>
<line class="st7" x1="121.2" y1="16.9" x2="121.2" y2="46.9"/>
<line class="st7" x1="121.2" y1="16.9" x2="130.6" y2="16.9"/>
<line class="st7" x1="121.2" y1="46.9" x2="130.6" y2="46.9"/>
<path class="st7" d="M158.4,16.8c-0.1,0-0.1,0-0.2,0"/>
<path class="st7" d="M158.2,16.8C158.2,16.8,158.2,16.9,158.2,16.8C158.2,16.9,158.2,16.9,158.2,16.8"/>
<line class="st7" x1="154" y1="17.5" x2="154" y2="17.4"/>
<path class="st7" d="M154.5,17.4c-0.2,0-0.3,0-0.5,0.1"/>
<path class="st7" d="M156.9,17.1c-0.8,0.1-1.6,0.2-2.4,0.3"/>
<line class="st7" x1="157" y1="17" x2="156.9" y2="17.1"/>
<path class="st7" d="M157.8,16.9c-0.2,0-0.5,0.1-0.7,0.1c0,0-0.1,0-0.1,0c0,0,0,0,0,0c0,0,0,0,0,0l0,0"/>
<path class="st7" d="M157.8,16.9c0.1,0,0.3,0,0.4-0.1"/>
<path class="st7" d="M154,17.5C154,17.5,154,17.5,154,17.5"/>
<path class="st7" d="M152.4,18c-2.1,1-4.2,1.5-6.6,1.4c-1.1-0.1-2.2-0.3-3.3-0.6c-0.3-0.1-2.9-1-3.1-1.3"/>
<path class="st7" d="M152.5,17.9c0,0.1-0.1,0.1-0.2,0.1"/>
<line class="st7" x1="152.5" y1="17.8" x2="152.5" y2="17.9"/>
<path class="st7" d="M154,17.5c-0.3,0-0.5,0-0.8,0c-0.2,0-0.7,0-0.7,0.3"/>
<path class="st7" d="M154,17.5C154,17.5,154,17.5,154,17.5"/>
<path class="st7" d="M142.3,17.4c0,0,0.1,0,0.3,0.1c0.2,0.1,0.5,0.1,0.9,0.2c0.4,0.1,0.8,0.2,1.4,0.2c0.5,0.1,1.1,0.1,1.6,0.1
	c0.5,0,1.1,0,1.6-0.1c0.5-0.1,1-0.1,1.4-0.2c0.4-0.1,0.7-0.2,0.9-0.2c0.2-0.1,0.3-0.1,0.3-0.1"/>
<line class="st7" x1="154" y1="17.4" x2="158.4" y2="16.8"/>
<line class="st7" x1="139.3" y1="17.4" x2="142.3" y2="17.4"/>
<line class="st7" x1="150.7" y1="17.4" x2="154" y2="17.4"/>
<path class="st7" d="M123.4,42.2c0,1.3,1.5,1.8,2.5,1.8c1,0,2.5-0.5,2.5-1.8s-1.5-1.8-2.5-1.8C124.9,40.4,123.4,40.9,123.4,42.2z"/>
<path class="st7" d="M154,17.5C154,17.5,154,17.5,154,17.5C154,17.5,154,17.5,154,17.5"/>
<path class="st7" d="M154,17.6c0.2,0,0.3-0.1,0.5-0.1"/>
<line class="st7" x1="126.4" y1="41.5" x2="125.4" y2="41.5"/>
<path class="st7" d="M139.2,17.5c0.3,0.3,2.8,1.2,3.2,1.3c1.1,0.3,2.2,0.6,3.4,0.6c2.4,0.1,4.5-0.4,6.7-1.4"/>
<line class="st7" x1="126.4" y1="42.8" x2="125.3" y2="42.8"/>
<path class="st7" d="M152.4,18.1c0.1,0,0.2,0,0.2-0.1"/>
<line class="st7" x1="125.3" y1="42.8" x2="125.3" y2="41.5"/>
<line class="st7" x1="152.6" y1="18" x2="152.6" y2="17.9"/>
<path class="st7" d="M152.6,17.9c0-0.3,0.5-0.3,0.6-0.3c0.2,0,0.5,0,0.7,0"/>
<path class="st7" d="M156.7,17.2c0,0,0.1,0,0.1-0.1c0,0,0.1,0,0.1-0.1"/>
<path class="st7" d="M154.5,17.5c0.7-0.1,1.5-0.2,2.2-0.3"/>
<line class="st7" x1="139.2" y1="17.5" x2="139.3" y2="17.4"/>
<line class="st7" x1="154.5" y1="18.3" x2="156.7" y2="17.2"/>
<line class="st7" x1="153.9" y1="18.6" x2="154.5" y2="18.3"/>
<line class="st7" x1="125.3" y1="42.8" x2="124.8" y2="42.1"/>
<line class="st7" x1="152.6" y1="18" x2="152.6" y2="19.3"/>
<line class="st7" x1="124.8" y1="42.1" x2="125.4" y2="41.5"/>
<line class="st7" x1="152.6" y1="20.3" x2="152.6" y2="22.4"/>
<line class="st7" x1="125.4" y1="41.5" x2="126.5" y2="41.5"/>
<line class="st7" x1="154.5" y1="21.4" x2="153.8" y2="21"/>
<line class="st7" x1="158.1" y1="23.7" x2="154.5" y2="21.4"/>
<line class="st7" x1="139.2" y1="17.5" x2="139.2" y2="22.1"/>
<path class="st7" d="M152.6,19.3C152.6,19.3,152.6,19.2,152.6,19.3c0.1-0.1,0.1-0.2,0.2-0.2c0.1-0.1,0.2-0.2,0.4-0.3
	c0.1,0,0.2-0.1,0.3-0.1c0.1,0,0.1,0,0.2,0"/>
<line class="st7" x1="153.7" y1="18.6" x2="153.9" y2="18.6"/>
<path class="st7" d="M152.6,20.3C152.6,20.3,152.6,20.3,152.6,20.3c0-0.1,0-0.1-0.1-0.1c0,0,0-0.1,0-0.1c0-0.1,0-0.2,0-0.3
	c0-0.1,0-0.2,0-0.3c0,0,0-0.1,0-0.1c0,0,0-0.1,0-0.1c0,0,0,0,0,0"/>
<line class="st7" x1="153.8" y1="21" x2="153.6" y2="21"/>
<path class="st7" d="M153.6,21C153.6,21,153.6,21,153.6,21c-0.2,0-0.3,0-0.4-0.1c-0.2-0.1-0.3-0.2-0.4-0.3c-0.1-0.1-0.1-0.1-0.1-0.2
	c0,0,0-0.1,0-0.1"/>
<line class="st7" x1="154.5" y1="18.7" x2="154.9" y2="18.7"/>
<line class="st7" x1="154.8" y1="21" x2="154.4" y2="21"/>
<line class="st7" x1="126.5" y1="41.5" x2="127" y2="42.2"/>
<line class="st7" x1="158.7" y1="23.7" x2="159" y2="23.7"/>
<path class="st7" d="M159,23.7C159.1,23.7,159.1,23.7,159,23.7"/>
<path class="st7" d="M159,23.7c-0.1,0-0.2,0-0.3,0"/>
<line class="st7" x1="158.2" y1="23.7" x2="158.7" y2="23.7"/>
<path class="st7" d="M158.7,23.7c-0.1,0-0.2,0-0.3,0c0,0-0.1,0-0.1,0c0,0-0.2,0-0.1,0"/>
<polyline class="st7" points="158.2,23.7 158.2,23.7 158.2,23.7 "/>
<line class="st7" x1="154.9" y1="23.7" x2="158.2" y2="23.7"/>
<line class="st7" x1="158.2" y1="23.7" x2="158.1" y2="23.7"/>
<line class="st7" x1="158.1" y1="23.7" x2="154.8" y2="23.7"/>
<line class="st7" x1="153.9" y1="18.6" x2="154.5" y2="18.7"/>
<line class="st7" x1="126.4" y1="42.8" x2="126.4" y2="41.5"/>
<line class="st7" x1="126.4" y1="41.5" x2="126.4" y2="41.5"/>
<line class="st7" x1="154.4" y1="21" x2="153.8" y2="21"/>
<path class="st7" d="M156,19.9c0,0.7,0.6,1.3,1.3,1.3c0.7,0,1.3-0.6,1.3-1.3c0-0.7-0.6-1.3-1.3-1.3C156.5,18.7,156,19.2,156,19.9z"
	/>
<line class="st7" x1="153.1" y1="19.6" x2="159.3" y2="16.3"/>
<path class="st7" d="M153.1,19.6c-0.2,0.1-0.2,0.2,0,0.3"/>
<line class="st7" x1="159.1" y1="23.7" x2="153.1" y2="19.9"/>
<path class="st7" d="M159.1,23.7c0.2,0.1,0.3,0,0.3-0.2"/>
<line class="st7" x1="159.6" y1="16.5" x2="159.3" y2="23.5"/>
<path class="st7" d="M159.6,16.5c0-0.2-0.1-0.3-0.3-0.2"/>
<path class="st7" d="M156.6,19.7C156.7,19.7,156.7,19.7,156.6,19.7"/>
<path class="st7" d="M157,19.4C157,19.4,157.1,19.4,157,19.4"/>
<path class="st7" d="M157.5,19.6C157.5,19.6,157.5,19.7,157.5,19.6"/>
<path class="st7" d="M157.6,20.1C157.5,20.1,157.5,20.1,157.6,20.1"/>
<path class="st7" d="M157.2,20.4C157.1,20.4,157.1,20.4,157.2,20.4"/>
<path class="st7" d="M156.7,20.2C156.7,20.2,156.7,20.2,156.7,20.2"/>
<line class="st7" x1="156.4" y1="19.9" x2="156.6" y2="19.7"/>
<line class="st7" x1="157.1" y1="19.4" x2="157.3" y2="19.3"/>
<line class="st7" x1="157.5" y1="19.3" x2="157.5" y2="19.6"/>
<line class="st7" x1="157.5" y1="20.2" x2="157.6" y2="20.5"/>
<line class="st7" x1="157.4" y1="20.5" x2="157.2" y2="20.4"/>
<line class="st7" x1="156.6" y1="20.2" x2="156.4" y2="20.1"/>
<line class="st7" x1="156.7" y1="19.7" x2="156.6" y2="19.4"/>
<line class="st7" x1="156.8" y1="19.3" x2="157" y2="19.4"/>
<line class="st7" x1="157.5" y1="19.7" x2="157.8" y2="19.8"/>
<line class="st7" x1="157.8" y1="20" x2="157.6" y2="20.1"/>
<line class="st7" x1="157.1" y1="20.4" x2="156.9" y2="20.6"/>
<line class="st7" x1="156.7" y1="20.5" x2="156.7" y2="20.2"/>
<path class="st7" d="M156.8,19.3c-0.1,0-0.1,0-0.1,0.1"/>
<path class="st7" d="M157.5,19.3c0-0.1-0.1-0.1-0.1-0.1"/>
<path class="st7" d="M157.8,20c0.1-0.1,0.1-0.1,0-0.2"/>
<path class="st7" d="M157.4,20.5c0.1,0,0.1,0,0.1-0.1"/>
<path class="st7" d="M156.7,20.5c0,0.1,0.1,0.1,0.1,0.1"/>
<path class="st7" d="M156.4,19.9c-0.1,0.1-0.1,0.1,0,0.2"/>
<path class="st7" d="M156.1,19.9c0,0.6,0.5,1,1,1c0.6,0,1-0.5,1-1c0-0.6-0.5-1-1-1C156.5,18.9,156.1,19.3,156.1,19.9z"/>
<path class="st7" d="M157.1,21.2c1.6,0,1.7-2.4,0.1-2.5"/>
<path class="st7" d="M156.7,21.1c0.8,0.2,1.6-0.3,1.6-1.1c0-0.8-0.7-1.4-1.5-1.2"/>
<line class="st7" x1="127" y1="42.2" x2="126.4" y2="42.8"/>
<line class="st7" x1="84.6" y1="56.1" x2="84.6" y2="60.7"/>
<line class="st7" x1="154.5" y1="18.7" x2="157.8" y2="16.9"/>
<line class="st7" x1="158.7" y1="23.7" x2="158.7" y2="23.7"/>
<line class="st7" x1="154.5" y1="21.4" x2="154.5" y2="23.5"/>
<line class="st7" x1="152.4" y1="18.1" x2="152.4" y2="22.3"/>
<line class="st7" x1="154.5" y1="17.5" x2="154.5" y2="18.3"/>
<line class="st7" x1="152.6" y1="17.9" x2="152.5" y2="17.8"/>
<line class="st7" x1="152.6" y1="18" x2="152.5" y2="17.9"/>
<line class="st7" x1="152.4" y1="18.1" x2="152.4" y2="18"/>
<line class="st7" x1="154.5" y1="17.5" x2="154.5" y2="17.4"/>
<line class="st7" x1="146.2" y1="45.6" x2="146.2" y2="45.5"/>
<line class="st7" x1="145.5" y1="45.5" x2="145.5" y2="45.4"/>
<line class="st7" x1="144.1" y1="45.6" x2="144.1" y2="45.5"/>
<line class="st7" x1="87.5" y1="17.2" x2="87.5" y2="46.6"/>
<line class="st7" x1="145.1" y1="45.8" x2="145.1" y2="45.7"/>
<line class="st7" x1="146.1" y1="45.8" x2="146.1" y2="45.7"/>
<line class="st7" x1="150" y1="45.5" x2="150" y2="45.5"/>
<line class="st7" x1="148.3" y1="45.7" x2="148.3" y2="45.6"/>
<line class="st7" x1="148.8" y1="45.8" x2="148.8" y2="45.8"/>
<line class="st7" x1="149" y1="45.8" x2="149" y2="45.7"/>
<line class="st7" x1="149.9" y1="45.6" x2="149.9" y2="45.6"/>
<line class="st7" x1="120.3" y1="46.9" x2="120.3" y2="16.9"/>
<line class="st7" x1="149.7" y1="45.6" x2="149.7" y2="45.5"/>
<line class="st7" x1="142.2" y1="45.4" x2="142.2" y2="45.4"/>
<line class="st7" x1="142.3" y1="45.5" x2="142.3" y2="45.4"/>
<line class="st7" x1="154.3" y1="44.6" x2="154.3" y2="23.4"/>
<line class="st7" x1="155.6" y1="44.6" x2="155.6" y2="24.1"/>
<line class="st7" x1="156.7" y1="44.2" x2="156.7" y2="24.8"/>
<line class="st7" x1="67.2" y1="52.5" x2="67.2" y2="11.3"/>
<line class="st7" x1="67.5" y1="52.4" x2="67.5" y2="11.4"/>
<line class="st7" x1="69.4" y1="52.4" x2="69.4" y2="11.4"/>
<line class="st7" x1="158.7" y1="23.7" x2="154.4" y2="21"/>
<g>
	<defs>
		<path id="SVGID_1_" d="M2.9,39.3l0.9-0.5h3.4v0.3h1.6v-0.5h18.5l1.4-0.8h9.4l0.2-0.3V32h14.1l-9.4,3c0,0-3.5,1.3-4.4,3.2
			c0,0-1.2,2-1.5,3.5c0,0-1.5,5.8-4.5,6.2l-26.6-4l-1.9-0.5l-1-0.5L2.9,39.3z"/>
	</defs>
	<clipPath id="SVGID_2_">
		<use xlink:href="#SVGID_1_"  style="overflow:visible;"/>
	</clipPath>
	<line class="st8" x1="-49.6" y1="24.2" x2="-14" y2="59.8"/>
	<line class="st8" x1="-46.9" y1="24.2" x2="-11.3" y2="59.8"/>
	<line class="st8" x1="-44.2" y1="24.2" x2="-8.6" y2="59.8"/>
	<line class="st8" x1="-41.5" y1="24.2" x2="-5.9" y2="59.8"/>
	<line class="st8" x1="-38.8" y1="24.2" x2="-3.2" y2="59.8"/>
	<line class="st8" x1="-36.1" y1="24.2" x2="-0.5" y2="59.8"/>
	<line class="st8" x1="-33.4" y1="24.2" x2="2.2" y2="59.8"/>
	<line class="st8" x1="-30.7" y1="24.2" x2="4.9" y2="59.8"/>
	<line class="st8" x1="-28" y1="24.2" x2="7.6" y2="59.8"/>
	<line class="st8" x1="-25.3" y1="24.2" x2="10.3" y2="59.8"/>
	<line class="st8" x1="-22.6" y1="24.2" x2="13" y2="59.8"/>
	<line class="st8" x1="-19.9" y1="24.2" x2="15.7" y2="59.8"/>
	<line class="st8" x1="-17.2" y1="24.2" x2="18.4" y2="59.8"/>
	<line class="st8" x1="-14.5" y1="24.2" x2="21.1" y2="59.8"/>
	<line class="st8" x1="-11.8" y1="24.2" x2="23.8" y2="59.8"/>
	<line class="st8" x1="-9.1" y1="24.2" x2="26.5" y2="59.8"/>
	<line class="st8" x1="-6.4" y1="24.2" x2="29.2" y2="59.8"/>
	<line class="st8" x1="-3.7" y1="24.2" x2="31.9" y2="59.8"/>
	<line class="st8" x1="-1" y1="24.2" x2="34.6" y2="59.8"/>
	<line class="st8" x1="1.8" y1="24.2" x2="37.3" y2="59.8"/>
	<line class="st8" x1="4.5" y1="24.2" x2="40" y2="59.8"/>
	<line class="st8" x1="7.2" y1="24.2" x2="42.7" y2="59.8"/>
	<line class="st8" x1="9.9" y1="24.2" x2="45.4" y2="59.8"/>
	<line class="st8" x1="12.6" y1="24.2" x2="48.1" y2="59.8"/>
	<line class="st8" x1="15.3" y1="24.2" x2="50.9" y2="59.8"/>
	<line class="st8" x1="18" y1="24.2" x2="53.6" y2="59.8"/>
	<line class="st8" x1="20.7" y1="24.2" x2="56.3" y2="59.8"/>
	<line class="st8" x1="23.4" y1="24.2" x2="59" y2="59.8"/>
	<line class="st8" x1="26.1" y1="24.2" x2="61.7" y2="59.8"/>
	<line class="st8" x1="28.8" y1="24.2" x2="64.4" y2="59.8"/>
	<line class="st8" x1="31.5" y1="24.2" x2="67.1" y2="59.8"/>
	<line class="st8" x1="34.2" y1="24.2" x2="69.8" y2="59.8"/>
	<line class="st8" x1="36.9" y1="24.2" x2="72.5" y2="59.8"/>
	<line class="st8" x1="39.6" y1="24.2" x2="75.2" y2="59.8"/>
	<line class="st8" x1="42.3" y1="24.2" x2="77.9" y2="59.8"/>
	<line class="st8" x1="45" y1="24.2" x2="80.6" y2="59.8"/>
	<line class="st8" x1="47.7" y1="24.2" x2="83.3" y2="59.8"/>
	<line class="st8" x1="50.4" y1="24.2" x2="86" y2="59.8"/>
	<line class="st8" x1="53.1" y1="24.2" x2="88.7" y2="59.8"/>
	<line class="st8" x1="55.8" y1="24.2" x2="91.4" y2="59.8"/>
	<line class="st8" x1="58.5" y1="24.2" x2="94.1" y2="59.8"/>
	<line class="st8" x1="61.2" y1="24.2" x2="96.8" y2="59.8"/>
	<line class="st8" x1="63.9" y1="24.2" x2="99.5" y2="59.8"/>
	<line class="st8" x1="66.6" y1="24.2" x2="102.2" y2="59.8"/>
	<line class="st8" x1="69.3" y1="24.2" x2="104.9" y2="59.8"/>
	<line class="st8" x1="72" y1="24.2" x2="107.6" y2="59.8"/>
	<line class="st8" x1="74.7" y1="24.2" x2="110.3" y2="59.8"/>
	<line class="st8" x1="77.4" y1="24.2" x2="113" y2="59.8"/>
	<line class="st8" x1="80.1" y1="24.2" x2="115.7" y2="59.8"/>
	<line class="st8" x1="82.8" y1="24.2" x2="118.4" y2="59.8"/>
	<line class="st8" x1="85.6" y1="24.2" x2="121.1" y2="59.8"/>
	<line class="st8" x1="88.3" y1="24.2" x2="123.8" y2="59.8"/>
</g>
</svg>
