<svg id="레이어_1" data-name="레이어 1" xmlns="http://www.w3.org/2000/svg" xmlns:xlink="http://www.w3.org/1999/xlink" viewBox="0 0 56.69 56.69"><defs><style>.cls-1,.cls-18,.cls-26,.cls-8{fill:none;}.cls-2{clip-path:url(#clip-path);}.cls-10,.cls-11,.cls-12,.cls-13,.cls-14,.cls-15,.cls-16,.cls-17,.cls-18,.cls-19,.cls-20,.cls-21,.cls-22,.cls-23,.cls-24,.cls-25,.cls-3,.cls-5,.cls-6,.cls-7,.cls-8,.cls-9{stroke:#231916;stroke-linecap:round;stroke-linejoin:round;}.cls-10,.cls-11,.cls-12,.cls-13,.cls-14,.cls-15,.cls-21,.cls-22,.cls-23,.cls-24,.cls-25,.cls-3,.cls-5,.cls-6,.cls-7,.cls-8,.cls-9{stroke-width:0.3px;}.cls-3{fill:url(#linear-gradient);}.cls-4{clip-path:url(#clip-path-2);}.cls-5{fill:url(#linear-gradient-2);}.cls-6{fill:url(#linear-gradient-3);}.cls-7{fill:url(#linear-gradient-4);}.cls-9{fill:url(#linear-gradient-5);}.cls-10{fill:url(#linear-gradient-6);}.cls-11{fill:url(#linear-gradient-7);}.cls-12{fill:url(#linear-gradient-8);}.cls-13{fill:url(#linear-gradient-9);}.cls-14{fill:url(#linear-gradient-10);}.cls-15{fill:url(#linear-gradient-11);}.cls-16,.cls-17,.cls-18,.cls-19,.cls-20{stroke-width:0.2px;}.cls-16{fill:url(#linear-gradient-12);}.cls-17{fill:url(#linear-gradient-13);}.cls-19{fill:#fff;}.cls-20{fill:url(#linear-gradient-14);}.cls-21{fill:url(#linear-gradient-15);}.cls-22{fill:url(#linear-gradient-16);}.cls-23{fill:url(#linear-gradient-17);}.cls-24{fill:url(#linear-gradient-18);}.cls-25{fill:url(#linear-gradient-19);}.cls-26{stroke:#9fa0a0;stroke-width:0.85px;}</style><clipPath id="clip-path"><path class="cls-1" d="M-67.34,4.54s-4.81,0-4.81,4.81v38s0,4.81,4.81,4.81h38s4.81,0,4.81-4.81v-38s0-4.81-4.81-4.81Z"/></clipPath><linearGradient id="linear-gradient" x1="-39.17" y1="48.18" x2="11.92" y2="48.18" gradientUnits="userSpaceOnUse"><stop offset="0" stop-color="#fff"/><stop offset="1" stop-color="#b4aa9a"/></linearGradient><clipPath id="clip-path-2"><path class="cls-1" d="M9.35,4.54s-4.81,0-4.81,4.81v38s0,4.81,4.81,4.81h38s4.81,0,4.81-4.81v-38s0-4.81-4.81-4.81Z"/></clipPath><linearGradient id="linear-gradient-2" x1="-2.1" y1="20.06" x2="8.42" y2="5.04" gradientUnits="userSpaceOnUse"><stop offset="0" stop-color="#b5b3a0"/><stop offset="0" stop-color="#b4aa9a"/><stop offset="0.36" stop-color="#d9d0bd"/><stop offset="0.45" stop-color="#fff5e0"/><stop offset="1" stop-color="#b4aa9a"/></linearGradient><linearGradient id="linear-gradient-3" x1="7.92" y1="30.36" x2="12.22" y2="24.21" gradientUnits="userSpaceOnUse"><stop offset="0.28" stop-color="#5e5d5d"/><stop offset="0.45" stop-color="#b3b3b4"/><stop offset="1" stop-color="#4c4a49"/></linearGradient><linearGradient id="linear-gradient-4" x1="8.14" y1="32.04" x2="23.43" y2="10.19" xlink:href="#linear-gradient-2"/><linearGradient id="linear-gradient-5" x1="11.28" y1="32.25" x2="24.53" y2="13.32" xlink:href="#linear-gradient-2"/><linearGradient id="linear-gradient-6" x1="11.06" y1="24.73" x2="30.82" y2="24.73" xlink:href="#linear-gradient-2"/><linearGradient id="linear-gradient-7" x1="12.73" y1="25.21" x2="30.82" y2="25.21" xlink:href="#linear-gradient-2"/><linearGradient id="linear-gradient-8" x1="19.86" y1="39.77" x2="34.84" y2="18.38" gradientUnits="userSpaceOnUse"><stop offset="0.55" stop-color="#797879"/><stop offset="0.75" stop-color="#dbdbdb"/><stop offset="1" stop-color="#767676"/></linearGradient><linearGradient id="linear-gradient-9" x1="24.11" y1="32.64" x2="41.06" y2="32.64" xlink:href="#linear-gradient-2"/><linearGradient id="linear-gradient-10" x1="28.34" y1="32.66" x2="37.25" y2="32.66" xlink:href="#linear-gradient-3"/><linearGradient id="linear-gradient-11" x1="29.88" y1="40.84" x2="35.08" y2="40.84" gradientUnits="userSpaceOnUse"><stop offset="0" stop-color="#5e5d5d"/><stop offset="0.45" stop-color="#b3b3b4"/><stop offset="1" stop-color="#4c4a49"/></linearGradient><linearGradient id="linear-gradient-12" x1="32.31" y1="41.21" x2="35.1" y2="41.21" xlink:href="#linear-gradient-11"/><linearGradient id="linear-gradient-13" x1="32.47" y1="41.01" x2="34.93" y2="41.01" xlink:href="#linear-gradient-11"/><linearGradient id="linear-gradient-14" x1="32.92" y1="41.21" x2="34.25" y2="41.21" xlink:href="#linear-gradient-11"/><linearGradient id="linear-gradient-15" x1="32.02" y1="39.57" x2="38.92" y2="29.71" xlink:href="#linear-gradient-2"/><linearGradient id="linear-gradient-16" x1="37.23" y1="44.49" x2="45.48" y2="32.7" gradientUnits="userSpaceOnUse"><stop offset="0.48" stop-color="#898989"/><stop offset="0.75" stop-color="#dbdbdb"/><stop offset="1" stop-color="#767676"/></linearGradient><linearGradient id="linear-gradient-17" x1="38.29" y1="39.68" x2="47.58" y2="39.68" gradientUnits="userSpaceOnUse"><stop offset="0" stop-color="#969797"/><stop offset="0.75" stop-color="#dbdbdb"/><stop offset="1" stop-color="#767676"/></linearGradient><linearGradient id="linear-gradient-18" x1="41.22" y1="39.77" x2="44.87" y2="39.77" gradientUnits="userSpaceOnUse"><stop offset="0" stop-color="#5e5d5d"/><stop offset="0.01" stop-color="#b3b3b4"/><stop offset="1" stop-color="#4c4a49"/></linearGradient><linearGradient id="linear-gradient-19" x1="32.47" y1="27.2" x2="36.19" y2="21.9" xlink:href="#linear-gradient-11"/></defs><title>대지 8</title><g class="cls-2"><polygon class="cls-3" points="-5.98 64.82 -39.17 42.96 -27.56 31.54 11.92 54.11 4.73 64.73 -5.98 64.82"/></g><g class="cls-4"><path class="cls-5" d="M-8.34,10.86c-1.47-1-1.34-3.74.27-6.14s4.12-3.57,5.58-2.58l19.31,8.78L10.9,17.76,9.11,27.91Z"/><polygon class="cls-6" points="7.61 23.39 7.57 27.08 5.48 28.49 8.19 30.55 10.53 30.15 12.54 31.17 13.44 25.45 10.84 23.24 7.61 23.39"/><path class="cls-7" d="M5.48,28.49A4,4,0,0,0,7,31.08l2.71,2.08c2.93,2,8.63-1.4,12.73-7.51S27.54,13,24.61,11L21.76,9.16c-2.93-2-8.6,1.34-12.66,7.4A24.13,24.13,0,0,0,6,23.11l2.73,2.05L11,25a2.69,2.69,0,0,1,1.4,1.6L12.25,31a8.79,8.79,0,0,1-1.72-.87l-2.35.34Z"/><path class="cls-8" d="M8.68,25.16a24.48,24.48,0,0,1,3.2-6.63C16,12.42,21.69,9.05,24.61,11s2,8.51-2.13,14.63-9.8,9.48-12.73,7.51a3.93,3.93,0,0,1-1.57-2.67"/><path class="cls-9" d="M22.15,25.63c-3.56,5.3-8.34,8.32-10.69,6.75s-1.36-7.15,2.2-12.45S22,11.62,24.34,13.19,25.7,20.33,22.15,25.63Z"/><path class="cls-10" d="M11.06,32a4.22,4.22,0,0,0,1.57,3.54l1.6.93c2.74,1.85,8.35-1.69,12.52-7.9S32.07,15.8,29.32,14L27.73,13c-2.84-1.91-8.51,1.59-12.68,7.8a25.09,25.09,0,0,0-3.58,7.72,5.69,5.69,0,0,1,.42,2.65c-.21,1.15-.83.78-.83.78"/><path class="cls-11" d="M26.75,28.55c-4.17,6.21-9.78,9.75-12.52,7.9s-1.6-8.37,2.57-14.58S26.58,12.12,29.32,14,30.92,22.33,26.75,28.55Z"/><path class="cls-12" d="M14.83,36.25c-2.45-1.65-1.22-7.8,2.77-13.73s9.21-9.41,11.66-7.76l10.6,7.14c2.46,1.64,1.22,7.79-2.76,13.73S27.89,45,25.43,43.39Z"/><path class="cls-13" d="M37,35.63c-4,5.94-9.21,9.41-11.66,7.76s-1.22-7.8,2.76-13.73,9.21-9.41,11.67-7.76S41,29.7,37,35.63Z"/><line class="cls-8" x1="7.57" y1="27.08" x2="10.19" y2="29.07"/><path class="cls-14" d="M35.13,34.23C33,37.34,30.3,39.17,29,38.3s-.64-4.09,1.45-7.21S35.3,26.15,36.59,27,37.23,31.11,35.13,34.23Z"/><path class="cls-15" d="M29.88,42.61l1.64,1.14a1,1,0,0,0,.72,0c.26-.14,1.33-.78,1.33-.78a13,13,0,0,0,1.34-1.31,5.63,5.63,0,0,0,.17-1.58l-3.65-2.29a14.11,14.11,0,0,0-1.21,2.64C30.16,41.07,29.88,42.61,29.88,42.61Z"/><path class="cls-16" d="M34.4,41.67c-.66,1-1.52,1.59-1.9,1.33s-.15-1.27.51-2.26,1.52-1.59,1.91-1.33S35.07,40.68,34.4,41.67Z"/><path class="cls-17" d="M34.32,41.43c-.6.87-1.35,1.4-1.69,1.17s-.13-1.12.46-2,1.34-1.4,1.68-1.17S34.9,40.55,34.32,41.43Z"/><path class="cls-18" d="M33.22,39.78a17.36,17.36,0,0,0-1.19,2,9.49,9.49,0,0,0-.22,2.1"/><line class="cls-19" x1="31.99" y1="41.87" x2="30.2" y2="40.63"/><path class="cls-20" d="M33.82,40.46a2.88,2.88,0,0,0-.9,1.47l.4,0,.74-.66.19-.81Z"/><path class="cls-21" d="M30,38.15l-.09-.06c-1.07-.88-.52-3.68,1.28-6.36s4.31-4.33,5.49-3.54L42.18,32l-4.8,7.79-.81,2.29-.41,0Z"/><path class="cls-22" d="M39,45.7l-3.24-2.23c-1.3-.87-.56-4.25,1.65-7.54s5.06-5.26,6.36-4.39l3.16,2.18c1.29.87.56,4.24-1.66,7.54s-5.05,5.26-6.35,4.39"/><path class="cls-23" d="M45.28,41.26c-2.21,3.29-5.05,5.26-6.35,4.39s-.56-4.25,1.65-7.55,5.06-5.25,6.36-4.38S47.5,38,45.28,41.26Z"/><path class="cls-24" d="M44,40.39c-.87,1.29-2,2.06-2.5,1.72s-.22-1.67.65-3,2-2.07,2.5-1.72S44.84,39.09,44,40.39Z"/><path class="cls-25" d="M34.35,20.74A5.71,5.71,0,0,0,30.82,23a.41.41,0,0,0,.16.23c.15.13,1.45,1.06,1.45,1.06a.67.67,0,0,1,.25.52c0,.31-.12,1.77-.12,1.77s.08.75.42,1,1.82,1.19,1.82,1.19a1.83,1.83,0,0,0,1.82-.89,8.48,8.48,0,0,0,1-1.93c.17-.7.39-2.46.39-2.46a.53.53,0,0,0-.22-.45C37.51,22.78,34.35,20.74,34.35,20.74Z"/><path class="cls-18" d="M32.28,24.16l2.17,1.43a.32.32,0,0,0,.38,0A7.38,7.38,0,0,1,38,23.38"/><path class="cls-18" d="M34.64,25.67l-.13,2.06s0,.93.42,1"/><path class="cls-18" d="M37,26.62c-.62.92-1.47,1.44-1.89,1.16s-.26-1.26.37-2.19,1.47-1.45,1.89-1.17S37.59,25.69,37,26.62Z"/><polyline class="cls-18" points="36.23 24.71 36.37 25.22 35.84 26.16 35.08 26.46 35.04 26.33"/></g><path class="cls-26" d="M9.35,4.54s-4.81,0-4.81,4.81v38s0,4.81,4.81,4.81h38s4.81,0,4.81-4.81v-38s0-4.81-4.81-4.81Z"/></svg>