<?xml version="1.0" encoding="utf-8"?>
<!-- Generator: Adobe Illustrator 15.0.0, SVG Export Plug-In . SVG Version: 6.00 Build 0)  -->
<!DOCTYPE svg PUBLIC "-//W3C//DTD SVG 1.1//EN" "http://www.w3.org/Graphics/SVG/1.1/DTD/svg11.dtd">
<svg version="1.1" id="Layer_1" xmlns="http://www.w3.org/2000/svg" xmlns:xlink="http://www.w3.org/1999/xlink" x="0px" y="0px"
	 width="496.668px" height="79.99px" viewBox="0 0 496.668 79.99" enable-background="new 0 0 496.668 79.99" xml:space="preserve">
<g>
	<path fill="#008746" d="M0.851,60.896V3.33h21.772c14.448,0,19.596,5.417,19.596,18.541v20.485c0,13.123-5.147,18.54-19.596,18.54
		H0.851z M22.031,55.758c11.282,0,14.712-3.958,14.712-14.166V22.635c0-10.208-3.629-14.234-14.712-14.234H6.327v47.356H22.031z"/>
	<path fill="#008746" d="M49.998,0.414h7.655v7.568h-7.655V0.414z M56.531,19.857v41.039h-5.477V19.857H56.531z"/>
	<path fill="#008746" d="M65.368,33.677c0-8.682,3.232-13.819,12.338-13.819h23.753v47.844c0,7.64-3.827,11.875-11.941,11.875
		H68.667v-4.791h19.398c5.477,0,7.981-2.777,7.981-8.264v-5.625H77.706c-8.378,0-12.338-4.515-12.338-12.431V33.677z M96.048,55.827
		v-30.9H79.224c-5.741,0-8.38,2.777-8.38,8.681v13.472c0,5.973,2.639,8.749,8.38,8.749L96.048,55.827L96.048,55.827z"/>
	<path fill="#008746" d="M109.764,0.414h7.654v7.568h-7.654V0.414z M116.297,19.857v41.039h-5.477V19.857H116.297z"/>
	<path fill="#008746" d="M123.815,21.871h10.227V5.622h5.41v16.249h15.108v4.999h-15.108v23.332c0,4.028,1.519,5.625,5.477,5.625
		h9.632v5.069h-10.095c-8.313,0-10.424-3.889-10.424-11.249V26.87h-10.227V21.871L123.815,21.871z"/>
	<path fill="#008746" d="M159.834,44.578c0-5.276,2.837-8.401,8.973-8.401h21.509v-5.625c0-3.958-1.583-5.973-5.344-5.973h-23.356
		v-4.722h24.478c7.456,0,9.635,3.68,9.635,10.555v30.484h-26.921c-6.136,0-8.973-3.125-8.973-8.402V44.578z M165.311,50.897
		c0,4.026,1.187,5.276,5.344,5.276h19.66V40.898h-19.66c-3.96,0-5.344,1.597-5.344,5.555V50.897z"/>
	<path fill="#008746" d="M210.039,1.247v59.649h-5.477V1.247H210.039z"/>
	<path fill="#008746" d="M236.225,18.329c0-11.665,4.288-14.999,17.749-14.999h19.529V8.4h-19.397
		c-10.028,0-12.404,3.055-12.404,11.457v24.512c0,8.473,2.573,11.389,12.404,11.389h20.056v5.069h-20.188
		c-13.46,0-17.749-3.263-17.749-14.93V18.329L236.225,18.329z"/>
	<path fill="#008746" d="M278.841,44.578c0-5.276,2.838-8.401,8.973-8.401h21.509v-5.625c0-3.958-1.583-5.973-5.344-5.973h-23.356
		v-4.722H305.1c7.456,0,9.634,3.68,9.634,10.555v30.484h-26.92c-6.135,0-8.973-3.125-8.973-8.402L278.841,44.578L278.841,44.578z
		 M284.318,50.897c0,4.026,1.187,5.276,5.344,5.276h19.66V40.898h-19.66c-3.96,0-5.344,1.597-5.344,5.555V50.897z"/>
	<path fill="#008746" d="M319.675,21.871h10.229V5.622h5.409v16.249h15.107v4.999h-15.107v23.332c0,4.028,1.518,5.625,5.477,5.625
		h9.632v5.069h-10.093c-8.313,0-10.424-3.889-10.424-11.249V26.87h-10.229L319.675,21.871L319.675,21.871z"/>
	<path fill="#008746" d="M355.695,44.578c0-5.276,2.837-8.401,8.972-8.401h21.509v-5.625c0-3.958-1.583-5.973-5.344-5.973h-23.356
		v-4.722h24.478c7.456,0,9.634,3.68,9.634,10.555v30.484h-26.92c-6.135,0-8.972-3.125-8.972-8.402V44.578z M361.171,50.897
		c0,4.026,1.188,5.276,5.345,5.276h19.66V40.898h-19.66c-3.96,0-5.345,1.597-5.345,5.555V50.897z"/>
	<path fill="#008746" d="M405.898,1.247v59.649h-5.477V1.247H405.898z"/>
	<path fill="#008746" d="M414.735,42.356v-3.958c0-13.125,4.619-19.235,19.397-19.235s19.334,6.11,19.334,19.235v3.958
		c0,13.123-4.556,19.233-19.334,19.233C419.289,61.591,414.735,55.479,414.735,42.356z M420.212,39.439v1.875
		c0,10.764,2.442,15.275,13.922,15.275c11.414,0,13.922-4.513,13.922-15.275v-1.875c0-10.485-2.111-15.348-13.922-15.348
		C422.324,24.094,420.212,28.954,420.212,39.439z"/>
	<path fill="#008746" d="M459.725,33.677c0-8.682,3.234-13.819,12.34-13.819h23.752v47.844c0,7.64-3.826,11.875-11.942,11.875
		h-20.849v-4.791h19.398c5.475,0,7.979-2.777,7.979-8.264v-5.625h-18.34c-8.379,0-12.34-4.515-12.34-12.431L459.725,33.677
		L459.725,33.677z M490.404,55.827v-30.9h-16.822c-5.739,0-8.381,2.777-8.381,8.681v13.472c0,5.973,2.642,8.749,8.381,8.749
		L490.404,55.827L490.404,55.827z"/>
</g>
</svg>
