<?xml version="1.0" encoding="utf-8"?>
<!-- Generator: Adobe Illustrator 25.4.1, SVG Export Plug-In . SVG Version: 6.00 Build 0)  -->
<svg version="1.1" id="레이어_1" xmlns="http://www.w3.org/2000/svg" xmlns:xlink="http://www.w3.org/1999/xlink" x="0px"
	 y="0px" viewBox="0 0 283.5 283.5" style="enable-background:new 0 0 283.5 283.5;" xml:space="preserve">
<style type="text/css">
	.st0{fill:#E6E6E6;}
</style>
<g>
	<g>
		<path class="st0" d="M202.7,175.3l-15.2-41.6c-1.9-4.9-4.5-9.4-7.8-13.4l-28.4-33.9c-2.4-2.6-5.8-4.1-9.6-4.1
			c-3.9,0-7.3,1.7-9.7,4.4L104.2,120c-3.6,4.3-6.5,9.2-8.4,14.5L81,174.8c-0.6,1.5-0.9,3-0.9,4.6c0,6.2,4.3,11.4,10.1,12.7l44.3,7.8
			c2.4,0.3,4.8,0.6,7.2,0.6c2.4,0,4.9-0.2,7.1-0.6l44.5-7.9c5.7-1.4,10-6.5,10-12.7C203.4,177.9,203.1,176.6,202.7,175.3z
			 M177.3,187.8l-29.4,5.2c-2,0.3-4.1,0.5-6.2,0.5s-4.2-0.2-6.3-0.5l-28.9-5.1c-8.6-1.7-15-9.3-15-18.3c0-2,0.3-4.1,1-5.8l9.7-26.9
			c1.7-4.5,4.1-8.8,7.2-12.4l18-21.5c3.4-4.1,8.5-6.6,14.2-6.6c5.7,0,10.7,2.5,14.1,6.5l18.4,21.8c2.8,3.4,5,7.2,6.7,11.4l10.1,27.7
			c0.6,1.8,0.9,3.7,0.9,5.7C191.9,178.4,185.7,185.9,177.3,187.8z"/>
		<path class="st0" d="M184.9,164.6l-9.5-26.2c-1.4-3.6-3.3-6.9-5.8-9.8l-17.7-21c-2.4-2.8-6.1-4.6-10.1-4.6
			c-4.1,0-7.9,1.9-10.3,4.9l-17.3,20.5c-2.7,3.1-4.7,6.7-6.2,10.6l-9.4,25.9c-0.4,1.3-0.6,2.7-0.6,4.1c0,6.6,4.7,12.1,11,13.2
			l27.5,4.9c1.8,0.2,3.5,0.4,5.4,0.4c1.8,0,3.6-0.2,5.3-0.4l27.5-4.9c6.3-1.1,11-6.7,11-13.2C185.6,167.4,185.4,165.9,184.9,164.6z
			 M141.8,171.4c-11,0-20.1-9-20.1-20.1c0-11,9-20.1,20.1-20.1s20.1,9,20.1,20.1C161.8,162.4,152.8,171.4,141.8,171.4z"/>
	</g>
</g>
</svg>
