<?xml version="1.0" encoding="utf-8"?>
<!-- Generator: Adobe Illustrator 25.3.1, SVG Export Plug-In . SVG Version: 6.00 Build 0)  -->
<svg version="1.1" id="레이어_1" xmlns="http://www.w3.org/2000/svg" xmlns:xlink="http://www.w3.org/1999/xlink" x="0px"
	 y="0px" viewBox="0 0 67.2 75.4" style="enable-background:new 0 0 67.2 75.4;" xml:space="preserve">
<style type="text/css">
	.st0{fill:url(#SVGID_1_);}
	.st1{fill:url(#SVGID_2_);}
	.st2{fill:url(#SVGID_3_);}
	.st3{fill:url(#SVGID_4_);}
	.st4{fill:url(#SVGID_5_);}
	.st5{clip-path:url(#SVGID_7_);fill:url(#SVGID_8_);stroke:#231815;stroke-width:0.65;stroke-miterlimit:3.8637;}
	.st6{fill:none;stroke:#231815;stroke-width:0.2;stroke-linejoin:round;stroke-miterlimit:3.8637;}
	.st7{clip-path:url(#SVGID_10_);fill:#B1B3B5;}
	.st8{clip-path:url(#SVGID_12_);fill:none;stroke:#200000;stroke-width:0.65;stroke-linejoin:round;stroke-miterlimit:3.8637;}
	.st9{fill:url(#SVGID_13_);stroke:#1F1716;stroke-width:0.65;stroke-miterlimit:3.8637;}
	.st10{fill:none;stroke:#1F1716;stroke-width:0.65;stroke-linejoin:round;stroke-miterlimit:3.8637;}
	.st11{fill:none;stroke:#1F1716;stroke-width:0.2;stroke-miterlimit:3.8637;}
	.st12{fill:none;stroke:#1F1716;stroke-width:0.2;stroke-linejoin:round;stroke-miterlimit:3.8637;}
	.st13{fill:url(#SVGID_14_);stroke:#1F1716;stroke-width:0.65;stroke-miterlimit:3.8637;}
	.st14{fill:url(#SVGID_15_);stroke:#1F1716;stroke-width:0.2;stroke-miterlimit:3.8637;}
	.st15{fill:none;}
	.st16{fill:#FFE45F;}
	.st17{fill:none;stroke:#231815;stroke-width:0.2;stroke-linecap:round;stroke-linejoin:round;}
	.st18{fill:none;stroke:#231815;stroke-width:0.65;stroke-linecap:round;stroke-linejoin:round;}
	.st19{fill:#D3D9DB;}
	.st20{fill:none;stroke:#231815;stroke-width:0.2;stroke-miterlimit:3.8637;}
	.st21{fill:none;stroke:#008BD5;stroke-linejoin:round;stroke-miterlimit:3.8637;}
</style>
<linearGradient id="SVGID_1_" gradientUnits="userSpaceOnUse" x1="45.0221" y1="37.2429" x2="47.2379" y2="37.4133" gradientTransform="matrix(1 0 0 -1 0 66.6478)">
	<stop  offset="0" style="stop-color:#808080"/>
	<stop  offset="0.5169" style="stop-color:#FFFFFF"/>
	<stop  offset="1" style="stop-color:#666666"/>
</linearGradient>
<polygon class="st0" points="44.2,18.4 45.4,17 46.6,18.4 48.3,40 47.2,41.6 45.9,40.1 "/>
<linearGradient id="SVGID_2_" gradientUnits="userSpaceOnUse" x1="47.4611" y1="37.5209" x2="49.9437" y2="37.7118" gradientTransform="matrix(1 0 0 -1 0 66.6478)">
	<stop  offset="0" style="stop-color:#808080"/>
	<stop  offset="0.5169" style="stop-color:#FFFFFF"/>
	<stop  offset="1" style="stop-color:#666666"/>
</linearGradient>
<polygon class="st1" points="46.7,18.4 48.2,16.6 49.4,18.2 50.8,39.8 49.8,41.4 48.3,39.9 "/>
<linearGradient id="SVGID_3_" gradientUnits="userSpaceOnUse" x1="50.1111" y1="37.4082" x2="52.639" y2="37.6026" gradientTransform="matrix(1 0 0 -1 0 66.6478)">
	<stop  offset="0" style="stop-color:#808080"/>
	<stop  offset="0.5169" style="stop-color:#FFFFFF"/>
	<stop  offset="1" style="stop-color:#666666"/>
</linearGradient>
<polygon class="st2" points="49.4,18.3 50.4,16.7 51.7,18.3 53.7,39.8 52.3,41.6 50.9,39.8 "/>
<linearGradient id="SVGID_4_" gradientUnits="userSpaceOnUse" x1="52.5565" y1="37.3963" x2="55.2415" y2="37.6028" gradientTransform="matrix(1 0 0 -1 0 66.6478)">
	<stop  offset="0" style="stop-color:#808080"/>
	<stop  offset="0.5169" style="stop-color:#FFFFFF"/>
	<stop  offset="1" style="stop-color:#666666"/>
</linearGradient>
<polygon class="st3" points="51.7,18.3 53,16.6 54.6,18.5 56.3,39.4 54.9,41.7 53.7,39.8 "/>
<linearGradient id="SVGID_5_" gradientUnits="userSpaceOnUse" x1="55.3103" y1="38.4893" x2="56.927" y2="38.6136" gradientTransform="matrix(1 0 0 -1 0 66.6478)">
	<stop  offset="0" style="stop-color:#808080"/>
	<stop  offset="0.5169" style="stop-color:#FFFFFF"/>
	<stop  offset="1" style="stop-color:#666666"/>
</linearGradient>
<polygon class="st4" points="54.6,18.5 56.2,16.7 56.3,18.1 56.3,33.3 56.4,38.7 56.3,39.5 "/>
<g>
	<g>
		<defs>
			<rect id="SVGID_6_" x="-0.2" y="-3" width="81.4" height="81.5"/>
		</defs>
		<clipPath id="SVGID_7_">
			<use xlink:href="#SVGID_6_"  style="overflow:visible;"/>
		</clipPath>
		
			<linearGradient id="SVGID_8_" gradientUnits="userSpaceOnUse" x1="52.595" y1="-20.3195" x2="52.595" y2="38.1817" gradientTransform="matrix(1 0 0 -1 0 66.6478)">
			<stop  offset="0" style="stop-color:#808080"/>
			<stop  offset="1" style="stop-color:#FFFFFF"/>
		</linearGradient>
		<polygon class="st5" points="61.1,86.6 61.1,45.6 55.3,42.9 44.1,42.9 44.1,86.6 		"/>
	</g>
</g>
<path class="st6" d="M61.1,53.9L44,61.5"/>
<g>
	<g>
		<defs>
			<rect id="SVGID_9_" x="-0.2" y="-3" width="81.4" height="81.5"/>
		</defs>
		<clipPath id="SVGID_10_">
			<use xlink:href="#SVGID_9_"  style="overflow:visible;"/>
		</clipPath>
		<polygon class="st7" points="-0.2,-0.4 6,-0.4 6,6.4 9.8,6.4 9.8,10 12.9,10 12.9,13.2 16.3,13.2 16.3,45.5 12.9,45.5 12.9,48.9 
			9.8,48.9 9.8,52.5 6,52.5 6,59.4 -0.2,59.4 		"/>
	</g>
	<g>
		<defs>
			<rect id="SVGID_11_" x="-0.2" y="-3" width="81.4" height="81.5"/>
		</defs>
		<clipPath id="SVGID_12_">
			<use xlink:href="#SVGID_11_"  style="overflow:visible;"/>
		</clipPath>
		<path class="st8" d="M-0.2-0.4H6v6.8h3.8V10h3.1v3.1h3.4v32.3h-3.4v3.4H9.8v3.6H6v6.9h-6.1L-0.2-0.4L-0.2-0.4z M6,6.4v46.2"/>
	</g>
</g>
<linearGradient id="SVGID_13_" gradientUnits="userSpaceOnUse" x1="25.225" y1="49.9027" x2="25.225" y2="25.0755" gradientTransform="matrix(1 0 0 -1 0 66.6478)">
	<stop  offset="0" style="stop-color:#808080"/>
	<stop  offset="0.5169" style="stop-color:#FFFFFF"/>
	<stop  offset="1" style="stop-color:#666666"/>
</linearGradient>
<polygon class="st9" points="6,16.7 43,16.7 44.5,41.7 6,41.7 "/>
<polygon class="st10" points="56.2,16.7 56.2,39.5 54.9,41.6 53.7,39.5 52.3,41.6 50.9,39.8 49.7,41.5 48.4,39.9 47.1,41.8 45.9,40 
	44.4,41.8 42.9,16.7 44.3,18.5 45.4,16.7 46.6,18.4 48.2,16.5 49.5,18.3 50.5,16.6 51.7,18.4 53,16.6 54.7,18.6 "/>
<path class="st11" d="M44.2,18.3l1.7,21.8 M45.4,16.8l1.6,25"/>
<path class="st12" d="M46.6,18.3l1.7,21.6 M48.2,16.6l1.6,24.9 M49.4,18.2L50.9,40 M50.4,16.7l1.8,24.9 M51.7,18.3l2,21.5 M53,16.7
	l1.8,24.9 M54.6,18.5l1.6,19.1"/>
<linearGradient id="SVGID_14_" gradientUnits="userSpaceOnUse" x1="64.6274" y1="44.6327" x2="64.6274" y2="30.5158" gradientTransform="matrix(1 0 0 -1 0 66.6478)">
	<stop  offset="0" style="stop-color:#808080"/>
	<stop  offset="0.5169" style="stop-color:#FFFFFF"/>
	<stop  offset="1" style="stop-color:#666666"/>
</linearGradient>
<path class="st13" d="M56.2,24.9l5.3-2.9H72c2.2,3.1,0.1,5.4-0.5,7.1c2.3,2.1,1.3,5.4,0.1,7.1h-9.8l-5.6-2.9L56.2,24.9L56.2,24.9z
	 M61.6,22v14.1"/>
<linearGradient id="SVGID_15_" gradientUnits="userSpaceOnUse" x1="44.8464" y1="37.3156" x2="43.0461" y2="37.1697" gradientTransform="matrix(1 0 0 -1 0 66.6478)">
	<stop  offset="0" style="stop-color:#808080"/>
	<stop  offset="0.5169" style="stop-color:#FFFFFF"/>
	<stop  offset="1" style="stop-color:#666666"/>
</linearGradient>
<polygon class="st14" points="43,17.1 44.4,41.8 45.9,40.1 44.2,18.3 "/>
<polygon class="st15" points="-0.2,-3 81.3,-3 81.3,78.5 -0.2,78.5 "/>
<polyline class="st16" points="54.6,49.8 54.9,49.4 56.1,49.4 56.4,49.1 56.2,48.3 55.7,47 48.2,42.8 46.7,42.9 46.5,42.7 
	45.6,42.6 44.8,41.6 44.6,41.6 43.9,42.7 43.6,43 43.6,52 44.2,53 44.4,53.3 44.7,54 44.2,54.8 44.3,55.5 44.6,55.9 55.4,49.6 "/>
<g>
	<path class="st17" d="M56,50.3c0.2-0.2,0.3-0.5,0.3-0.7"/>
</g>
<g>
	<path class="st18" d="M54.5,46.5C54.5,46.5,54.5,46.5,54.5,46.5"/>
</g>
<g>
	<path class="st18" d="M44.5,52.7c0.1,0,0.2,0.1,0.3,0.2"/>
</g>
<g>
	<path class="st18" d="M44.3,54.7C44.3,54.7,44.3,54.7,44.3,54.7"/>
</g>
<g>
	<path class="st17" d="M55.8,50c0.5-0.3,0.8-1,0.5-1.6"/>
</g>
<g>
	<path class="st17" d="M55.2,50.4c1.2,0.1,2.2-0.8,2.3-1.9c0.1-1.1-0.8-2.1-1.9-2.2c-0.3,0-0.7,0-1,0.2"/>
</g>
<g>
	<path class="st18" d="M48,54c0,0,0.1-0.1,0.1-0.1"/>
</g>
<g>
	<path class="st18" d="M56.1,48.7c0.1,0,0.2-0.1,0.2-0.2c0,0,0-0.1,0-0.1"/>
</g>
<g>
	<path class="st18" d="M43.6,51.3c0,0,0,0.1,0,0.2"/>
</g>
<g>
	<path class="st18" d="M46.5,42.7c0,0,0.1,0.1,0.2,0.1"/>
</g>
<g>
	<path class="st18" d="M46.3,42.7c0.1,0,0.2,0,0.2,0"/>
</g>
<g>
	<path class="st18" d="M48,42.7c0,0,0.1,0,0.1,0"/>
</g>
<g>
	<path class="st18" d="M46.7,42.8c0.5,0,1.1,0,1.3-0.1"/>
</g>
<g>
	<path class="st18" d="M43.6,44.2c0,0.5,0,1,0,1.1"/>
</g>
<g>
	<path class="st18" d="M44.8,53.8c0,0,0-0.1,0-0.1"/>
</g>
<g>
	<path class="st18" d="M45.4,42.6c0,0,0.1,0.1,0.1,0.1"/>
</g>
<g>
	<path class="st18" d="M53.4,45.8c0.2,0.2,0.6,0.5,1.1,0.7"/>
</g>
<g>
	<path class="st18" d="M54.9,49.3c0,0-0.1,0-0.1,0.1"/>
</g>
<g>
	<path class="st18" d="M44.3,52.9c0,0,0.1,0.2,0.1,0.2"/>
</g>
<g>
	<path class="st18" d="M55,48.8c0,0-0.1,0-0.1,0.1"/>
</g>
<g>
	<path class="st18" d="M44.2,52.4c0,0.1,0.1,0.3,0.2,0.3c0,0,0,0,0,0"/>
</g>
<g>
	<path class="st18" d="M44.2,54.8c-0.1,0.1,0,0.3,0.1,0.3c0,0,0.1,0,0.1,0"/>
</g>
<g>
	<path class="st18" d="M43.6,51.4c0.1,0.3,0.4,0.8,0.7,1.2"/>
</g>
<g>
	<path class="st18" d="M55.7,47.2c0,0,0,0.1,0,0.1"/>
</g>
<g>
	<path class="st18" d="M56,49.3c0.1,0,0.2-0.1,0.2-0.2"/>
</g>
<g>
	<path class="st18" d="M44.3,52.7c0,0,0,0.2,0,0.2"/>
</g>
<g>
	<path class="st18" d="M43.7,42.8c0,0,0.1,0,0.1-0.1"/>
</g>
<g>
	<path class="st17" d="M57.3,49.1c-0.1-0.7-0.8-1.5-1.5-1.6"/>
</g>
<g>
	<line class="st17" x1="55.8" y1="50" x2="55.2" y2="50.4"/>
</g>
<g>
	<line class="st18" x1="54.5" y1="46.5" x2="53.5" y2="45.9"/>
</g>
<g>
	<line class="st18" x1="44.7" y1="55.9" x2="55.2" y2="49.7"/>
</g>
<g>
	<line class="st18" x1="54.8" y1="48.9" x2="54.5" y2="49.5"/>
</g>
<g>
	<line class="st18" x1="55.7" y1="47.3" x2="56.3" y2="48.4"/>
</g>
<g>
	<line class="st18" x1="44.8" y1="53.7" x2="44.4" y2="53.1"/>
</g>
<g>
	<line class="st18" x1="44.2" y1="53.4" x2="44.3" y2="52.9"/>
</g>
<g>
	<line class="st18" x1="44.4" y1="52.7" x2="44.5" y2="52.1"/>
</g>
<g>
	<line class="st18" x1="56" y1="49.3" x2="56.1" y2="48.7"/>
</g>
<g>
	<line class="st18" x1="55.7" y1="47.3" x2="55.7" y2="47.2"/>
</g>
<g>
	<line class="st18" x1="43.6" y1="43.3" x2="43.6" y2="52"/>
</g>
<g>
	<line class="st18" x1="54.5" y1="46.5" x2="55.7" y2="47.1"/>
</g>
<g>
	<line class="st18" x1="44.2" y1="54.8" x2="44.8" y2="53.8"/>
</g>
<g>
	<line class="st18" x1="54.8" y1="49.4" x2="54.8" y2="48.9"/>
</g>
<g>
	<line class="st18" x1="45.5" y1="42.7" x2="46.3" y2="42.7"/>
</g>
<g>
	<line class="st18" x1="43.6" y1="52" x2="44.2" y2="53.2"/>
</g>
<g>
	<line class="st18" x1="55.7" y1="47.3" x2="55.7" y2="47.1"/>
</g>
<g>
	<line class="st18" x1="56.1" y1="48.7" x2="55" y2="48.8"/>
</g>
<g>
	<line class="st18" x1="54.9" y1="49.3" x2="56" y2="49.3"/>
</g>
<g>
	<line class="st18" x1="44.2" y1="53.2" x2="44.3" y2="52.7"/>
</g>
<g>
	<line class="st18" x1="44.4" y1="52.7" x2="45" y2="52.7"/>
</g>
<g>
	<line class="st18" x1="44.2" y1="53.2" x2="44.2" y2="53.4"/>
</g>
<g>
	<line class="st18" x1="43.8" y1="42.7" x2="44.4" y2="41.6"/>
</g>
<g>
	<line class="st18" x1="44.8" y1="41.6" x2="45.4" y2="42.6"/>
</g>
<g>
	<line class="st18" x1="43.6" y1="43.3" x2="43.6" y2="42.8"/>
</g>
<g>
	<line class="st18" x1="55.7" y1="47.1" x2="55.7" y2="47.2"/>
</g>
<g>
	<line class="st18" x1="43.6" y1="42.8" x2="43.7" y2="42.8"/>
</g>
<g>
	<line class="st18" x1="43.6" y1="52" x2="43.6" y2="51.4"/>
</g>
<g>
	<line class="st18" x1="43.6" y1="44.2" x2="43.6" y2="42.8"/>
</g>
<g>
	<line class="st18" x1="54.9" y1="49.3" x2="55" y2="48.8"/>
</g>
<g>
	<line class="st18" x1="44.2" y1="54.8" x2="44.2" y2="55.4"/>
</g>
<g>
	<line class="st18" x1="56.4" y1="49.6" x2="56.4" y2="49.1"/>
</g>
<g>
	<line class="st18" x1="56.3" y1="49.1" x2="56.3" y2="48.5"/>
</g>
<g>
	<line class="st18" x1="43.6" y1="51.3" x2="43.6" y2="45.3"/>
</g>
<g>
	<line class="st18" x1="49.5" y1="53.1" x2="48.2" y2="53.9"/>
</g>
<g>
	<line class="st18" x1="48.2" y1="42.8" x2="53.4" y2="45.8"/>
</g>
<g>
	<path class="st19" d="M47.5,45.6c1.5-0.5,3.1,0.4,3.6,1.9c0.5,1.5-0.4,3.1-1.9,3.6c-1.5,0.5-3.2-0.4-3.6-1.9
		C45,47.7,45.9,46.1,47.5,45.6L47.5,45.6z"/>
	<path class="st20" d="M47.5,45.6c1.5-0.5,3.1,0.4,3.6,1.9c0.5,1.5-0.4,3.1-1.9,3.6c-1.5,0.5-3.2-0.4-3.6-1.9
		C45,47.7,45.9,46.1,47.5,45.6L47.5,45.6z"/>
	<path class="st17" d="M47.6,46.3c0,0,0.1,1.3-1.5,1.5c0,0,1.3,1,0.6,2.3c0,0,1.4-0.6,2.1,0.5c0,0,0.1-1.3,1.8-1.5
		c0,0-1.4-1.1-0.7-2.4C49.9,46.7,48.4,47.4,47.6,46.3z"/>
</g>
<polyline class="st21" points="56.2,39.4 54.9,41.5 53.6,39.4 52.2,41.5 51,39.4 49.9,41.8 48.5,39.8 47,41.6 45.6,39.7 44.3,41.5 
	"/>
</svg>
