<svg id="레이어_1" data-name="레이어 1" xmlns="http://www.w3.org/2000/svg" xmlns:xlink="http://www.w3.org/1999/xlink" viewBox="0 0 102.05 107.72"><defs><style>.cls-1,.cls-10,.cls-5,.cls-8{fill:none;}.cls-2{clip-path:url(#clip-path);}.cls-3,.cls-6,.cls-7{fill:#dde2e6;}.cls-3,.cls-4,.cls-5,.cls-6,.cls-7,.cls-8{stroke:#231815;}.cls-10,.cls-3,.cls-5,.cls-6,.cls-7{stroke-linecap:round;stroke-linejoin:round;}.cls-10,.cls-3,.cls-4{stroke-width:2.31px;}.cls-4{fill:#ffe55f;}.cls-5,.cls-6,.cls-8{stroke-width:0.71px;}.cls-7{stroke-width:1.42px;}.cls-8{stroke-miterlimit:10;}.cls-9{fill:#dde1e4;}.cls-10{stroke:#040000;}</style><clipPath id="clip-path"><rect class="cls-1" x="0.31" y="0.17" width="102.05" height="107.72"/></clipPath></defs><g class="cls-2"><path class="cls-3" d="M85.84,42.64v-54L84.51-12.8H83v-8.43h1.33V-375.75l-3-3.48H19.88l-3,3.48V-21.17h1.4v8.35H16.9L15.44-11V40.29l.44.56V59.94l.45,1v2.7l-.56,3,.68.79h7.3l1.35-1.35h4.6s2.47-5.73,7-7.08H66.31s3.94,3.49,5.39,6.74H77V56.57Z"/><polygon class="cls-4" points="84.86 67.99 85.83 67.01 85.28 63.93 85.28 60.02 86.39 59.46 86.39 42.28 85 40.88 69.06 40.88 67.25 42.55 67.25 58.9 75.5 59.32 76.89 59.88 77.03 63.79 77.03 66.17 78.01 67.71 84.86 67.99"/><path class="cls-5" d="M15.46-11.67V40.46m70.66,0V-11.67L84.83-13M16.75-13l-1.29,1.3m1.72-364.52v153.4m0,9V-21.15m67.22,0V-196.08m0-8.62V-376.19l-2.59-2.58m-62,0-2.59,2.58m1.3,355V-13M83.1-13v-8.18M15.89,40.9h-.43M61.13,58.13h-.86m6.89.86H65m6.47,6.46h5.6m0,.86H72.34m-56-8.18h18.1M72.77,40.9H86.12M64.57,58.13V40.9m2.59,17.23H64.57m-4.3,0V43.47m4.3,14.66h-4.3M20.63,43.47h4.31m9.48,14.66H60.27M15.46-11.67H86.12M84.83-13H16.75m.43-363.22H84.4m-67.22,355H84.4M81.81-378.77h-62M29.25,66.31H27.09m-7.75.43-2.59.87m6.47-.87H19.34m4.74.87-.86-.87m.86.87H16.75m-.86-7.76h0v-.43m62,8.19h6.9m-7.75-7.76h9m-9.91,0h.87m-.87-.43v.43m-9-.86,9,.43m-9-17.23V59m1.3-18.09-1.3,1.29M84.83,40.9H68.46m17.66,1.29L84.83,40.9m1.29,19V42.19M24.51,66.31v.43m-6-.86V59.42m-2.16,4.31-.43,3m8.62,0v-.43m-6-6.89-2.59.43m0-.43V41.33h0m69.37,22.4.43,3M67.16,42.19v-.86m19,0v.86m0-.86-.86-.43m-18.1.43,1.3-1.3m3.88,0H68.46v.87m16.37,0h0m.86.43V40.9M20.63,43.47v5.61l.43,1.73v1.72M15.89,40Zm0,0h0l-.43.43h0v.44m70.66,0v-.44h0M29.68,48.22v-.86h0V46.5h0l-.43-.44h0v-.43l-.43-.43h0l-.44-.43h0L28,44.34h0l-.44-.43h-.43l-.43-.44H24.94M86.12,40.9V22.8l-.43-2.16V7.72M24.94,52.09l-.43.44H21.06M15.89,40v7.75l.43,2.59v7.76M85.69,7.72l-.86.43-.43.43L83.53,9l-.86.43-.43.43-.86.43-.43.43-.86.43-.43.44L78.8,12l-.43.44-.87.43-.42.43-.87.86-.43.43-.86.43-.43.86-.43.43-.44.43-.85.86-.43.44-.44.86-.42.43-.44.86-.43.43-.43.86-.43.87-.44.43-.42.86-.43.86L68,25l-.43.86v.86l-.44.43-.43.87v.86l-.43.86-.43.43V31l-.43.87v1.72l-.43.86v1.29l-.44.87V40.9M15.89,66.74Zm0,0h0v.43h.43v.44h.43m1.73-1.73h0v.43h0l.43.43h.43m3.88,0h.43v-.43h.43m0,1.3Zm0,0v-.44h.43v-.43h0m-8.19-3h0v-.44h0v-.86h0V62h0v-.43h0v-.85h0v-.44h-.43v-.43m61.19,6.89Zm0,0h0v.43h.42v.44h.43m6.9,0h.43v-.44h.43v-.43h0m-8.61-3h0v-.44h0v-.86h0V62h0v-.43h0v-.85h0v-.44h0v-.43m8.61,0v.43h0l-.43.44h0v.85h0V62h0v.43h0v.86h0v.44h0M21.49,48.22h0v.86h.43v.43h0v.43h.43v.43h0l.44.44h.43v.43h.86v.43H25.8l.43-.43h.43l.43-.43h.43v-.44H28v-.43h0l.42-.43h0v-.43h0v-.43h0v-.43h0v-.86h0v-.43h0V46.5H28v-.44h0l-.44-.43h0l-.43-.43h-.43l-.43-.43H23.65v.43h-.43l-.43.43h-.44v.43h0l-.43.44h0v.86h-.43v.42h0Zm39.64,9.91h.43l.43.43h2.58V59h1.3v.43h.86v.43h.43l.44.43h0l.43.44h0l.43.42h.43v.43l.42.43h0l.44.43h0l.43.44h0v.42l.43.44h0v.43l.43.43h0V65l.44.43h0m.86.86Zm0,0H71.9v-.43h-.42v-.43h0M16.75,59l-.43-.86m44-14.66V43l.43-.42V37.45l.43-.43V35.29l.43-.43V33.57l.43-.43V31.85l.43-.44v-.86l.44-.43v-.86l.43-.43V28.4l.43-.43V27.1l.43-.43v-.43l.42-.43v-.43L65,25v-.43l.43-.43.43-.43.43-.86.43-.86.43-.87.44-.43.43-.86.43-.86.43-.43.42-.87.87-.43.43-.86L71,15.9l.44-.86.86-.43.43-.86.43-.43.42-.43.87-.43.43-.86.43-.44.86-.43.43-.43V9.87h.44l.42-.43h0L77.93,9h.44l.43-.43h0l.43-.43h0l.43-.43h.43l.43-.43h0L81,6.86h.43V6.42h.43L82.24,6h.43V5.56h.43V5.13h.43L84,4.7h.43V4.27h.43m-55.58,62h.43l.43-.43h0v-.43h0m-3.45,0h0v.43h0v.43h.43m57.74-62Zm0,0h.43V4.7h.43v.43h0v.43h0V6h0v.87h0v.86M27.09,43h.43v.43H28v.44h.42l.44.43h0v.43h.43v.43h0v.43h.43v.43h0v.87h0v.85h0v.44h0v.43l-.43.43h0v.43h0l-.43.43h0v.43h-.44v.44H28v.43h-.44v.43h-.86v.42H24.94M26.23,43h.43m9.91,16h-.86v.43h-.43l-.43.43h-.43l-.43.43h0l-.43.44h0l-.44.42h-.43v.43l-.43.43h0l-.43.43h0v.44H31.4v.42l-.43.44h0v.43l-.43.43h0v.86h-.43"/><path class="cls-6" d="M46.59-379.1l1.88,3.25m4.29,0,1.88-3.25m-1.88,9.39v-6.14m-4.29,0v6.14m0,0,2.14,1.29m0,0,2.15-1.29m-4.29-6.14h2.14m0,0h2.15m-4.29,6.14h2.14m0,0h2.15M54.64,58.51l-1.88-3.26m-4.29,0-1.88,3.26m1.88-9.39v6.13m4.29,0V49.12m0,0-2.15-1.29m0,0-2.14,1.29m0,6.13h4.29m-4.29-6.13h4.29"/><line class="cls-7" x1="65.01" y1="58.99" x2="32.69" y2="58.99"/><path class="cls-8" d="M15.89,66.74h0m69.8,0h0"/><path class="cls-8" d="M24.51,66.74h0m52.57,0h0"/><path class="cls-7" d="M84.83,67.61h0m0-80.58h0"/><path class="cls-7" d="M84.83,67.61h0m-3-446.38h0"/><polygon class="cls-6" points="70.18 49.94 70.18 50.37 70.18 50.37 70.18 50.81 70.18 51.24 70.18 51.66 70.61 51.66 70.61 52.09 70.61 52.53 71.04 52.95 71.04 52.95 71.04 53.39 71.48 53.82 71.48 53.82 71.9 54.25 71.9 54.25 72.33 54.68 72.77 54.68 72.77 55.11 73.2 55.11 73.62 55.55 73.62 55.55 74.06 55.55 74.49 55.97 74.92 55.97 74.92 55.97 75.35 55.97 75.78 55.97 76.21 56.41 76.21 56.41 76.64 56.41 77.08 56.41 77.5 55.97 77.93 55.97 77.93 55.97 78.37 55.97 78.8 55.97 79.23 55.55 79.23 55.55 79.66 55.55 80.09 55.11 80.09 55.11 80.52 54.68 80.95 54.68 80.95 54.25 81.38 54.25 81.38 53.82 81.81 53.82 81.81 53.39 82.25 52.95 82.25 52.95 82.25 52.53 82.67 52.09 82.67 51.66 82.67 51.66 82.67 51.24 83.1 50.81 83.1 50.37 83.1 50.37 83.1 49.94 83.1 49.51 83.1 49.08 83.1 48.65 82.67 48.65 82.67 48.22 82.67 47.78 82.67 47.35 82.25 47.35 82.25 46.93 82.25 46.5 81.81 46.5 81.81 46.06 81.38 45.63 81.38 45.63 80.95 45.2 80.95 45.2 80.52 44.77 80.09 44.77 80.09 44.34 79.66 44.34 79.23 43.91 79.23 43.91 78.8 43.91 78.37 43.48 77.93 43.48 77.93 43.48 77.5 43.48 77.08 43.48 76.64 43.48 76.21 43.48 76.21 43.48 75.78 43.48 75.35 43.48 74.92 43.48 74.92 43.48 74.49 43.91 74.06 43.91 73.62 43.91 73.62 44.34 73.2 44.34 72.77 44.77 72.77 44.77 72.33 45.2 71.9 45.2 71.9 45.63 71.48 45.63 71.48 46.06 71.04 46.5 71.04 46.5 71.04 46.93 70.61 47.35 70.61 47.35 70.61 47.78 70.18 48.22 70.18 48.65 70.18 48.65 70.18 49.08 70.18 49.51 70.18 49.94"/><line class="cls-5" x1="78.37" y1="47.36" x2="78.37" y2="47.78"/><line class="cls-5" x1="74.49" y1="47.78" x2="74.49" y2="47.36"/><line class="cls-5" x1="78.37" y1="51.67" x2="78.37" y2="51.67"/><line class="cls-5" x1="74.49" y1="51.67" x2="74.49" y2="51.67"/><line class="cls-5" x1="75.35" y1="52.53" x2="75.35" y2="52.53"/><line class="cls-5" x1="77.5" y1="52.53" x2="77.5" y2="52.53"/><line class="cls-5" x1="73.62" y1="49.94" x2="73.62" y2="50.37"/><line class="cls-5" x1="79.66" y1="49.94" x2="79.66" y2="50.37"/><line class="cls-5" x1="74.49" y1="47.36" x2="74.49" y2="47.36"/><line class="cls-5" x1="78.37" y1="47.36" x2="78.37" y2="47.36"/><polyline class="cls-5" points="78.37 47.35 78.37 47.78 78.37 47.78 78.37 48.22 78.37 48.22 78.37 48.22 78.8 48.65 78.8 48.65 78.8 48.65 78.8 49.08 78.8 49.08 79.23 49.08 79.23 49.08 79.23 49.08 79.66 49.51"/><path class="cls-5" d="M78.37,47.36Z"/><path class="cls-5" d="M78.37,47.36Z"/><polyline class="cls-5" points="78.37 47.35 78.37 46.93 78.37 46.93 78.37 46.93 77.93 46.93 77.93 46.93 77.93 46.93 77.93 46.93 77.93 46.93 77.5 46.93 77.5 46.93"/><polyline class="cls-5" points="75.35 46.93 75.78 46.93 75.78 47.35 75.78 47.35 76.21 47.35 76.21 47.35 76.21 47.35 76.64 47.35 76.64 47.35 77.08 47.35 77.08 47.35 77.08 47.35 77.5 47.35 77.5 46.93 77.5 46.93"/><path class="cls-5" d="M75.35,46.93Z"/><path class="cls-5" d="M75.35,46.93Z"/><polyline class="cls-5" points="75.35 46.93 74.92 46.93 74.92 46.93 74.92 46.93 74.92 46.93 74.92 46.93 74.92 47.35 74.49 47.35 74.49 47.35 74.49 47.35 74.49 47.35"/><polyline class="cls-5" points="73.62 49.51 73.62 49.08 74.06 49.08 74.06 49.08 74.06 49.08 74.49 49.08 74.49 48.65 74.49 48.65 74.49 48.65 74.49 48.22 74.49 48.22 74.49 48.22 74.49 47.78 74.49 47.78 74.49 47.35"/><path class="cls-5" d="M73.62,49.51Z"/><polyline class="cls-5" points="73.62 49.51 73.62 49.51 73.2 49.51 73.2 49.51 73.2 49.51 73.2 49.94 73.2 49.94 73.2 49.94 73.2 49.94 73.62 50.37 73.62 50.37 73.62 50.37 73.62 50.37"/><polyline class="cls-5" points="74.49 52.09 74.49 52.09 74.49 51.66 74.49 51.66 74.49 51.66 74.49 51.24 74.49 51.24 74.49 51.24 74.49 50.81 74.49 50.81 74.06 50.81 74.06 50.37 74.06 50.37 73.62 50.37 73.62 50.37"/><path class="cls-5" d="M74.49,52.09Z"/><polyline class="cls-5" points="74.49 52.09 74.49 52.53 74.92 52.53 74.92 52.53 74.92 52.53 74.92 52.53 74.92 52.53 74.92 52.53 75.35 52.53 75.35 52.53 75.35 52.53 75.35 52.53 75.35 52.53"/><path class="cls-5" d="M77.5,52.53Z"/><polyline class="cls-5" points="77.5 52.53 77.08 52.53 77.08 52.09 77.08 52.09 76.64 52.09 76.64 52.09 76.21 52.09 76.21 52.09 76.21 52.09 75.78 52.53 75.78 52.53 75.78 52.53 75.35 52.53"/><polyline class="cls-5" points="77.5 52.53 77.5 52.53 77.93 52.53 77.93 52.53 77.93 52.53 77.93 52.53 77.93 52.53 78.37 52.53 78.37 52.53 78.37 52.53 78.37 52.53 78.37 52.53 78.37 52.09 78.37 52.09 78.37 52.09"/><polyline class="cls-5" points="79.66 50.37 79.23 50.37 79.23 50.37 79.23 50.37 78.8 50.81 78.8 50.81 78.8 50.81 78.8 51.24 78.8 51.24 78.37 51.24 78.37 51.66 78.37 51.66 78.37 51.66 78.37 52.09 78.37 52.09"/><path class="cls-5" d="M79.66,50.37Z"/><polyline class="cls-5" points="79.66 50.37 79.66 50.37 79.66 49.94 79.66 49.94 79.66 49.94 79.66 49.94 79.66 49.51 79.66 49.51 79.66 49.51 79.66 49.51 79.66 49.51 79.66 49.51 79.66 49.51"/><polyline class="cls-5" points="74.49 52.09 74.92 52.09 74.92 52.09 74.92 52.09 74.92 52.53 74.92 52.53 74.92 52.53 75.35 52.53 75.35 52.53 75.35 52.53 75.35 52.53 75.35 52.53"/><polyline class="cls-5" points="77.5 52.53 77.5 52.53 77.93 52.53 77.93 52.53 77.93 52.53 77.93 52.53 78.37 52.53 78.37 52.53 78.37 52.09 78.37 52.09 78.37 52.09 78.37 52.09"/><polyline class="cls-5" points="74.49 51.66 74.49 51.24 74.49 51.24 74.49 51.24 74.49 50.81 74.49 50.81 74.49 50.81 74.49 50.37 74.06 50.37 74.06 50.37 74.06 50.37 73.62 49.94 73.62 49.94"/><polyline class="cls-5" points="73.2 49.51 73.2 49.94 73.2 49.94 73.62 49.94 73.62 49.94 73.62 49.94 73.62 49.94"/><path class="cls-5" d="M74.49,47.36Z"/><path class="cls-5" d="M78.37,47.36Z"/><path class="cls-5" d="M79.66,49.94Z"/><path class="cls-5" d="M79.66,49.94Z"/><polyline class="cls-5" points="79.66 49.94 79.66 49.94 79.66 49.51"/><polyline class="cls-5" points="79.66 49.94 79.23 49.94 79.23 50.37 79.23 50.37 78.8 50.37 78.8 50.37 78.8 50.81 78.8 50.81 78.8 50.81 78.37 51.24 78.37 51.24 78.37 51.24 78.37 51.66"/><polyline class="cls-5" points="77.5 52.53 77.5 52.09 77.5 52.09 77.08 52.09 77.08 52.09 77.08 52.09 76.64 52.09 76.64 52.09 76.21 52.09 76.21 52.09 76.21 52.09 75.78 52.09 75.78 52.09 75.78 52.09 75.35 52.53"/><path class="cls-9" d="M15,68.37H4.11a10,10,0,0,0,.39,9.35s4.53,5.46,5.89,10a9.5,9.5,0,0,1-1.85,6.67L6.35,97.65s-3.61,4.63-3,7.7H95.9s3.22-4.34,3-12c0,0-1.21-5.7-4.23-8.52,0,0-3.22-4.54-1.56-8.34a23.53,23.53,0,0,1,4.72-8.23H86.74v4.29s-.29.87-1,1H77.39a1.66,1.66,0,0,1-.93-1.41v-3.8H25.4v4.24a1.11,1.11,0,0,1-.93.87H16a1.29,1.29,0,0,1-.92-1Z"/><path class="cls-1" d="M24.7,73.23a.74.74,0,0,0,.74-.74m-10.19,0a.74.74,0,0,0,.74.74"/><polyline class="cls-1" points="4.11 68.33 3.72 68.73 3.72 69.12 3.72 69.52 3.72 69.91 3.32 70.31 3.32 70.7 3.32 71.09 3.32 71.49 3.32 71.88 3.32 71.88 3.32 72.28 2.93 72.67 2.93 73.07 2.93 73.07 2.93 73.46 3.32 73.86 3.32 74.25 3.32 74.25 3.32 74.65 3.32 75.04 3.32 75.43 3.32 75.43 3.72 76.22 4.11 76.62 4.11 77.41 4.51 77.8 4.9 78.19 5.3 78.98 5.69 79.38 6.48 80.56 7.27 81.75 8.06 82.93 8.45 83.32 8.85 83.72 8.85 84.51 9.24 84.9 9.64 85.69 9.64 86.08 10.03 86.48 10.03 86.88 10.03 87.27 10.03 87.67 10.43 87.67 10.43 88.06 10.43 88.45 10.43 88.45 10.43 88.85 10.43 89.24 10.43 89.64 10.43 89.64 10.43 90.03 10.03 90.43 10.03 90.43 10.03 91.22 9.64 91.61 9.64 92.4 9.24 92.79 8.85 93.19 8.45 93.98 8.45 94.37 8.06 95.16 7.27 96.34 6.48 97.53 5.69 98.31 5.3 99.1 4.9 99.5 4.51 100.29 4.51 100.68 4.11 101.47 3.72 101.86 3.72 102.66 3.32 103.05 3.32 103.44 3.32 103.84 3.32 103.84 3.32 104.23 3.32 104.63 3.32 105.02 3.32 105.42"/><path class="cls-1" d="M15.16,68.33v4.34M76.5,68.33v4.34"/><path class="cls-1" d="M76.61,72.49a.74.74,0,0,0,.74.74"/><path class="cls-1" d="M86.06,73.23a.75.75,0,0,0,.75-.74"/><polyline class="cls-1" points="97.8 68.33 97.02 69.12 96.62 69.52 96.23 70.31 95.83 70.7 95.44 71.49 95.04 71.88 95.04 72.67 94.65 73.07 94.25 73.86 93.86 74.25 93.86 75.04 93.47 75.43 93.47 75.83 93.07 76.62 93.07 77.01 93.07 77.8 92.68 78.19 92.68 78.98 92.68 79.38 92.68 80.17 93.07 80.17 93.07 80.56 93.07 80.96 93.07 81.75 93.47 82.14 93.86 82.93 93.86 83.32 94.25 83.72 94.65 84.51 94.65 84.9 95.04 85.3 95.83 86.48 96.62 87.67 96.62 88.06 97.02 88.85 97.41 89.24 97.8 90.03 97.8 90.43 98.2 90.82 98.2 91.61 98.59 92 98.59 92.79 98.99 93.19 98.99 93.98 98.99 94.37 98.99 95.16 98.99 95.55 98.99 96.34 98.99 96.74 98.99 97.53 98.59 97.92 98.59 98.71 98.59 99.1 98.2 99.89 98.2 100.68 97.8 101.08 97.8 101.86 97.41 102.26 97.41 103.05 97.02 103.44 96.62 104.23 96.23 105.02 95.83 105.42"/><line class="cls-1" x1="86.76" y1="69.91" x2="87.94" y2="68.33"/><path class="cls-10" d="M15,68.37H4.11a10,10,0,0,0,.39,9.35s4.53,5.46,5.89,10a9.5,9.5,0,0,1-1.85,6.67L6.35,97.65s-3.61,4.63-3,7.7H95.9s3.22-4.34,3-12c0,0-1.21-5.7-4.23-8.52,0,0-3.22-4.54-1.56-8.34a23.53,23.53,0,0,1,4.72-8.23H86.74v4.29s-.29.87-1,1H77.39a1.66,1.66,0,0,1-.93-1.41v-3.8H25.4v4.24a1.11,1.11,0,0,1-.93.87H16a1.29,1.29,0,0,1-.92-1Z"/><path class="cls-5" d="M30.15,68.33v37.09"/><line class="cls-5" x1="71.77" y1="68.33" x2="71.77" y2="105.42"/><line class="cls-5" x1="2.93" y1="73.07" x2="7.66" y2="68.33"/><line class="cls-5" x1="5.3" y1="78.98" x2="15.16" y2="69.52"/><line class="cls-5" x1="8.85" y1="84.11" x2="19.5" y2="73.46"/><line class="cls-5" x1="9.64" y1="91.22" x2="30.15" y2="71.1"/><line class="cls-5" x1="4.11" y1="105.42" x2="30.15" y2="79.38"/><line class="cls-5" x1="12.4" y1="105.42" x2="30.15" y2="87.67"/><line class="cls-5" x1="20.68" y1="105.42" x2="30.15" y2="95.95"/><line class="cls-5" x1="71.77" y1="76.62" x2="76.5" y2="71.88"/><line class="cls-5" x1="71.77" y1="84.9" x2="83.21" y2="73.46"/><line class="cls-5" x1="71.77" y1="93.19" x2="96.62" y2="68.33"/><line class="cls-5" x1="71.77" y1="101.47" x2="93.07" y2="80.17"/><line class="cls-5" x1="76.11" y1="105.42" x2="95.44" y2="86.09"/><line class="cls-5" x1="84.39" y1="105.42" x2="98.2" y2="91.61"/><line class="cls-5" x1="92.68" y1="105.42" x2="98.2" y2="99.89"/><line class="cls-5" x1="28.97" y1="105.42" x2="30.15" y2="104.63"/></g></svg>