<svg id="레이어_1" data-name="레이어 1" xmlns="http://www.w3.org/2000/svg" viewBox="0 0 114.72 136.32"><defs><style>.cls-1{fill:#e6e6e6;stroke-width:0.6px;}.cls-1,.cls-2{stroke:#231815;}.cls-2{fill:none;stroke-width:0.7px;}.cls-3{fill:#e60012;}.cls-4{fill:#7d0000;}</style></defs><polygon class="cls-1" points="58.81 2.93 3.61 25.3 3.85 89.1 51.76 132.14 108.67 101.99 109.15 76.6 100.16 70.03 110.61 65.01 110.86 35.76 58.81 2.93"/><polyline class="cls-2" points="3.12 25.06 52 65.43 110.61 36.25"/><polyline class="cls-2" points="99.91 70.03 52.25 94.59 34.98 80 34.74 90.95 52.25 106.02 109.15 76.6"/><line class="cls-2" x1="43.18" y1="87.02" x2="35.43" y2="91.18"/><polygon class="cls-3" points="35.72 91.41 43.22 87.33 52.22 94.91 100.06 70.24 108.56 76.49 52.22 105.66 35.72 91.41"/><polygon class="cls-4" points="35.39 80.74 35.06 90.83 42.72 86.91 35.39 80.74"/><line class="cls-1" x1="52" y1="65.43" x2="52.72" y2="94.16"/><line class="cls-1" x1="52.22" y1="105.66" x2="51.76" y2="132.14"/></svg>