<svg xmlns="http://www.w3.org/2000/svg" xmlns:xlink="http://www.w3.org/1999/xlink" viewBox="0 0 89.02 96.38"><defs><style>.cls-1,.cls-2{fill:#e6e6e6;}.cls-2,.cls-3,.cls-4,.cls-5,.cls-6,.cls-7{stroke:#231815;stroke-width:0.52px;}.cls-2,.cls-3{stroke-linecap:round;stroke-linejoin:round;}.cls-3{fill:#d3d3d4;}.cls-4{fill:none;}.cls-5{fill:url(#linear-gradient);}.cls-6{fill:url(#linear-gradient-2);}.cls-7{fill:url(#linear-gradient-3);}</style><linearGradient id="linear-gradient" x1="40.24" y1="48.28" x2="24.55" y2="48.28" gradientUnits="userSpaceOnUse"><stop offset="0" stop-color="#700"/><stop offset="1" stop-color="#e60012"/><stop offset="1"/></linearGradient><linearGradient id="linear-gradient-2" x1="55.74" y1="38.08" x2="37.34" y2="38.08" xlink:href="#linear-gradient"/><linearGradient id="linear-gradient-3" x1="71.39" y1="29.5" x2="52.99" y2="29.5" xlink:href="#linear-gradient"/></defs><g id="레이어_1" data-name="레이어 1"><polygon class="cls-1" points="5.5 26.32 55.73 1.63 71.12 8.79 71.21 41.7 84.9 49.42 84.72 63.56 37.07 93.59 5.23 72.83 5.5 26.32"/><polygon class="cls-2" points="5.41 26.23 55.82 1.54 71.21 8.79 25.01 37.59 5.41 26.23"/><polyline class="cls-3" points="25.01 37.59 24.92 70.31 37.07 77.29 84.9 49.69 84.81 63.65 36.98 93.59 5.32 72.83 5.41 26.23 24.92 37.59"/><line class="cls-4" x1="37.07" y1="77.29" x2="37.07" y2="93.5"/><path class="cls-5" d="M24.92,70.4V37.58S23.1,27.52,40.33,26.16l-.27,32.55S24.83,60.16,24.92,70.4Z"/><path class="cls-6" d="M55.56,50.28V17.37S43.05,17.55,40,26.25V58.8S43.41,51,55.56,50.28Z"/><path class="cls-7" d="M71.21,41.7V8.79S58.7,9,55.61,17.67V50.22S59.06,42.42,71.21,41.7Z"/><line class="cls-4" x1="84.99" y1="49.51" x2="71.21" y2="41.7"/></g></svg>