<svg xmlns="http://www.w3.org/2000/svg" viewBox="0 0 108.97 96.38"><defs><style>.cls-1{fill:#e6e6e6;}.cls-1,.cls-2{stroke:#231815;stroke-width:0.6px;}.cls-2{fill:#d3d3d4;}.cls-3{fill:#e60012;}.cls-3,.cls-4{stroke:#231b00;stroke-width:0.75px;}.cls-4{fill:#7d0000;}</style></defs><g id="레이어_1" data-name="레이어 1"><polygon class="cls-1" points="2.97 21.38 85.26 9.29 105.09 42.12 7.53 58.99 2.97 21.38"/><polygon class="cls-2" points="7.53 58.99 9.58 84.74 102.81 67.87 105.09 42.12 7.53 58.99"/><path class="cls-3" d="M28.09,35.65s3.08-12.54,23.14-13.21c0,0,19.19-.19,23.14,13.4,0,0-4,12.82-23,12C51.33,47.8,34.36,48.57,28.09,35.65Z"/><path class="cls-4" d="M28.09,35.65s-4.15-15.81,20.83-18.8c0,0,31.3-1.57,25,20.3-2-11-25.5-9.34-25.5-9.34-18,3.88-16.87,13-16.87,13A11.36,11.36,0,0,1,28.09,35.65Z"/><path class="cls-2" d="M43.35,27.41l.27,11s1.48,4.78,9.06,4.58c0,0,5.92.62,8-3.77L61,27.41Z"/><path class="cls-1" d="M61,27.41C61,30.5,57,33,52.15,33s-8.8-2.51-8.8-5.6,3.94-5.6,8.8-5.6S61,24.32,61,27.41Z"/></g></svg>