<svg id="레이어_1" data-name="레이어 1" xmlns="http://www.w3.org/2000/svg" xmlns:xlink="http://www.w3.org/1999/xlink" viewBox="0 0 99.12 95.28"><defs><style>.cls-1{fill:none;}.cls-2{fill:#e6e6e6;}.cls-3{fill:#231815;}.cls-4{clip-path:url(#clip-path);}.cls-5{fill:#e60012;}.cls-6{fill:#e60212;}.cls-7{fill:#e60612;}.cls-8{fill:#e60b13;}.cls-9{fill:#e60e13;}.cls-10{fill:#e61214;}.cls-11{fill:#e61514;}.cls-12{fill:#e61715;}.cls-13{fill:#e61a15;}.cls-14{fill:#e61d16;}.cls-15{fill:#e71f16;}.cls-16{fill:#e72117;}.cls-17{fill:#e72318;}.cls-18{fill:#e72518;}.cls-19{fill:#e72719;}.cls-20{fill:#e72919;}.cls-21{fill:#e72b1a;}.cls-22{fill:#e72c1b;}.cls-23{fill:#e72e1b;}.cls-24{fill:#e7301c;}.cls-25{fill:#e7311c;}.cls-26{fill:#e8331d;}.cls-27{fill:#e8341e;}.cls-28{fill:#e8361e;}.cls-29{fill:#e8371f;}.cls-30{fill:#e83820;}.cls-31{fill:#e83920;}.cls-32{fill:#e83b21;}.cls-33{fill:#e83c21;}.cls-34{fill:#e83d22;}.cls-35{fill:#e83e23;}.cls-36{fill:#e84023;}.cls-37{fill:#e84124;}.cls-38{fill:#e84225;}.cls-39{fill:#e94325;}.cls-40{fill:#e94426;}.cls-41{fill:#e94626;}.cls-42{fill:#e94727;}.cls-43{fill:#e94828;}.cls-44{fill:#e94929;}.cls-45{fill:#e94a29;}.cls-46{fill:#e94b2a;}.cls-47{fill:#e94c2b;}.cls-48{fill:#e94d2b;}.cls-49{fill:#ea4e2c;}.cls-50{fill:#ea4f2d;}.cls-51{fill:#ea512d;}.cls-52{fill:#ea522e;}.cls-53{fill:#ea532f;}.cls-54{fill:#ea542f;}.cls-55{fill:#ea5530;}.cls-56{fill:#ea5631;}.cls-57{fill:#ea5732;}.cls-58{fill:#ea5832;}.cls-59{fill:#ea5933;}.cls-60{fill:#eb5a34;}.cls-61{fill:#eb5b34;}.cls-62{fill:#eb5b35;}.cls-63{fill:#eb5c36;}.cls-64{fill:#eb5d37;}.cls-65{fill:#eb5e37;}.cls-66{fill:#eb5f38;}.cls-67{fill:#eb6039;}.cls-68{fill:#eb613a;}.cls-69{fill:#eb6139;}.cls-70{fill:#ea6039;}.cls-71{fill:#e95f38;}.cls-72{fill:#e85e37;}.cls-73{fill:#e75d37;}.cls-74{fill:#e65d36;}.cls-75{fill:#e65c36;}.cls-76{fill:#e55c35;}.cls-77{fill:#e45b35;}.cls-78{fill:#e45a35;}.cls-79{fill:#e35a34;}.cls-80{fill:#e25934;}.cls-81{fill:#e25933;}.cls-82{fill:#e15833;}.cls-83{fill:#e05732;}.cls-84{fill:#df5732;}.cls-85{fill:#df5632;}.cls-86{fill:#de5531;}.cls-87{fill:#dd5531;}.cls-88{fill:#dd5430;}.cls-89{fill:#dc5430;}.cls-90{fill:#db5330;}.cls-91{fill:#db532f;}.cls-92{fill:#da522f;}.cls-93{fill:#d9522f;}.cls-94{fill:#d9512e;}.cls-95{fill:#d8512e;}.cls-96{fill:#d7502d;}.cls-97{fill:#d74f2d;}.cls-98{fill:#d64f2d;}.cls-99{fill:#d54e2c;}.cls-100{fill:#d44d2c;}.cls-101{fill:#d34d2b;}.cls-102{fill:#d34c2b;}.cls-103{fill:#d24c2a;}.cls-104{fill:#d14b2a;}.cls-105{fill:#d04a29;}.cls-106{fill:#cf4929;}.cls-107{fill:#ce4828;}.cls-108{fill:#cd4828;}.cls-109{fill:#cc4727;}.cls-110{fill:#cb4627;}.cls-111{fill:#ca4626;}.cls-112{fill:#ca4526;}.cls-113{fill:#c94425;}.cls-114{fill:#c84425;}.cls-115{fill:#c84325;}.cls-116{fill:#c74324;}.cls-117{fill:#c64224;}.cls-118{fill:#c54223;}.cls-119{fill:#c54123;}.cls-120{fill:#c44122;}.cls-121{fill:#c34022;}.cls-122{fill:#c33f22;}.cls-123{fill:#c23f21;}.cls-124{fill:#c13e21;}.cls-125{fill:#c13e20;}.cls-126{fill:#c03d20;}.cls-127{fill:#bf3d20;}.cls-128{fill:#be3c1f;}.cls-129{fill:#bd3b1e;}.cls-130{fill:#bc3a1e;}.cls-131{fill:#bb3a1e;}.cls-132{fill:#bb391d;}.cls-133{fill:#ba391d;}.cls-134{fill:#b9381c;}.cls-135{fill:#b8371c;}.cls-136{fill:#b7371b;}.cls-137{fill:#b6361b;}.cls-138{fill:#b6351a;}.cls-139{fill:#b5351a;}.cls-140{fill:#b4341a;}.cls-141{fill:#b33419;}.cls-142{fill:#b33319;}.cls-143{fill:#b23318;}.cls-144{fill:#b13218;}.cls-145{fill:#b13117;}.cls-146{fill:#b03117;}.cls-147{fill:#af3016;}.cls-148{fill:#ae3016;}.cls-149{fill:#ae2f15;}.cls-150{fill:#ad2f15;}.cls-151{fill:#ac2e14;}.cls-152{fill:#ab2d14;}.cls-153{fill:#ab2d13;}.cls-154{fill:#aa2c13;}.cls-155{fill:#a92c12;}.cls-156{fill:#a82b12;}.cls-157{fill:#a82b11;}.cls-158{fill:#a72a11;}.cls-159{fill:#a62910;}.cls-160{fill:#a52910;}.cls-161{fill:#a5280f;}.cls-162{fill:#a4280f;}.cls-163{fill:#a3270e;}.cls-164{fill:#a2260e;}.cls-165{fill:#a2260d;}.cls-166{fill:#a1250d;}.cls-167{fill:#a0250c;}.cls-168{fill:#9f240b;}.cls-169{fill:#9f230b;}.cls-170{fill:#9e230a;}.cls-171{fill:#9d220a;}.cls-172{fill:#9c2209;}.cls-173{fill:#9b2109;}.cls-174{fill:#9b2108;}.cls-175{fill:#9a2008;}.cls-176{fill:#991f07;}.cls-177{fill:#981f07;}.cls-178{fill:#981e06;}.cls-179{fill:#971d06;}.cls-180{fill:#961d05;}.cls-181{fill:#951c05;}.cls-182{fill:#941b04;}.cls-183{fill:#931a03;}.cls-184{fill:#921903;}.cls-185{fill:#911902;}.cls-186{fill:#911802;}.cls-187{fill:#901701;}.cls-188{fill:#8f1701;}.cls-189{fill:#8e1600;}.cls-190{fill:#8d1500;}.cls-191{fill:#8c1400;}.cls-192{fill:#8b1300;}.cls-193{fill:#8a1200;}.cls-194{fill:#891200;}.cls-195{fill:#891100;}.cls-196{fill:#881000;}.cls-197{fill:#870f00;}.cls-198{fill:#860e00;}.cls-199{fill:#850d00;}.cls-200{fill:#840c00;}.cls-201{fill:#830b00;}.cls-202{fill:#820a00;}.cls-203{fill:#810900;}.cls-204{fill:#800800;}.cls-205{fill:#800700;}.cls-206{fill:#7f0600;}.cls-207{fill:#7e0500;}.cls-208{fill:#7d0400;}.cls-209{fill:#7c0300;}.cls-210{fill:#7c0200;}.cls-211{fill:#7b0100;}.cls-212{fill:#7a0000;}.cls-213{fill:#790000;}.cls-214{fill:#780000;}.cls-215{fill:#700;}.cls-216{fill:#760000;}.cls-217{fill:#750000;}.cls-218{fill:#740000;}.cls-219{fill:#730000;}.cls-220{fill:#720000;}.cls-221{fill:#710000;}.cls-222{fill:#700000;}.cls-223{fill:#6f0000;}.cls-224{fill:#6e0000;}.cls-225{fill:#6d0000;}.cls-226{fill:#6c0000;}.cls-227{fill:#6b0000;}.cls-228{fill:#6a0000;}.cls-229{fill:#690000;}.cls-230{fill:#680000;}.cls-231{fill:#670000;}.cls-232{fill:#600;}.cls-233{fill:#650000;}.cls-234{fill:#640000;}.cls-235{fill:#630000;}.cls-236{fill:#620000;}.cls-237{fill:#610000;}.cls-238{fill:#600000;}.cls-239{fill:#5f0000;}.cls-240{fill:#5e0000;}.cls-241{fill:#5d0000;}.cls-242{fill:#5c0000;}.cls-243{fill:#5b0000;}.cls-244{fill:#5a0000;}.cls-245{fill:#590000;}.cls-246{fill:#580000;}.cls-247{fill:#570000;}.cls-248{fill:#560000;}.cls-249{fill:#500;}.cls-250{fill:#540000;}.cls-251{fill:#530000;}.cls-252{fill:#520000;}.cls-253{fill:#510000;}.cls-254{fill:#500000;}</style><clipPath id="clip-path"><path id="SVGID" class="cls-1" d="M2.59,39.63s11.87-14.72,31-17.45c0,0,14.73-1.69,26.71-19.14l36.16,21a53.69,53.69,0,0,1-29,21.87S53.36,48.47,37.21,68.45Z"/></clipPath></defs><path class="cls-2" d="M2.61,39.61,4.12,64.77l33.59,28L94.36,54.7l2.2-30.63L60.29,3s-10.88,16.72-27,19.24C33.25,22.28,16.58,23.6,2.61,39.61Z"/><path class="cls-3" d="M37.68,93.19,3.8,64.93,2.27,39.49l.09-.1C16.26,23.47,33.06,22,33.23,22,49,19.49,59.9,3,60,2.86l.17-.26L96.89,23.89l-2.22,31-.13.09ZM4.44,64.61,37.73,92.38,94,54.51l2.18-30.26L60.39,3.47C58.92,5.6,48.31,20.26,33.3,22.6c-.19,0-16.66,1.5-30.36,17.12Z"/><path class="cls-3" d="M37.26,68.92,2.4,39.86l.41-.5L37.16,68C38.94,65.74,51.76,50,66.24,45.84c.2,0,15.38-2.14,30.05-22l.53.38C82,44.33,66.53,46.46,66.37,46.48c-15.27,4.43-28.77,22-28.9,22.17Z"/><rect class="cls-3" x="37.13" y="68.45" width="0.65" height="24.34" transform="translate(-1.64 0.78) rotate(-1.17)"/><g class="cls-4"><polygon class="cls-5" points="2.59 36.07 3.03 35.54 42.66 68.45 2.59 68.45 2.59 36.07"/><polygon class="cls-5" points="3.03 35.54 3.24 35.29 43.17 68.45 42.66 68.45 3.03 35.54"/><polygon class="cls-6" points="3.24 35.29 3.45 35.04 43.68 68.45 43.17 68.45 3.24 35.29"/><polygon class="cls-7" points="3.45 35.04 3.66 34.79 44.19 68.45 43.68 68.45 3.45 35.04"/><polygon class="cls-8" points="3.66 34.79 3.86 34.54 44.7 68.45 44.19 68.45 3.66 34.79"/><polygon class="cls-9" points="3.86 34.54 4.07 34.29 45.21 68.45 44.7 68.45 3.86 34.54"/><polygon class="cls-10" points="4.07 34.29 4.28 34.04 45.72 68.45 45.21 68.45 4.07 34.29"/><polygon class="cls-11" points="4.28 34.04 4.49 33.79 46.23 68.45 45.72 68.45 4.28 34.04"/><polygon class="cls-12" points="4.49 33.79 4.7 33.53 46.74 68.45 46.23 68.45 4.49 33.79"/><polygon class="cls-13" points="4.7 33.53 4.9 33.28 47.24 68.45 46.74 68.45 4.7 33.53"/><polygon class="cls-14" points="4.9 33.28 5.11 33.03 47.75 68.45 47.24 68.45 4.9 33.28"/><polygon class="cls-15" points="5.11 33.03 5.32 32.78 48.26 68.45 47.75 68.45 5.11 33.03"/><polygon class="cls-16" points="5.32 32.78 5.53 32.53 48.77 68.45 48.26 68.45 5.32 32.78"/><polygon class="cls-17" points="5.53 32.53 5.74 32.28 49.28 68.45 48.77 68.45 5.53 32.53"/><polygon class="cls-18" points="5.74 32.28 5.94 32.03 49.79 68.45 49.28 68.45 5.74 32.28"/><polygon class="cls-19" points="5.94 32.03 6.15 31.78 50.3 68.45 49.79 68.45 5.94 32.03"/><polygon class="cls-20" points="6.15 31.78 6.36 31.53 50.81 68.45 50.3 68.45 6.15 31.78"/><polygon class="cls-21" points="6.36 31.53 6.57 31.28 51.32 68.45 50.81 68.45 6.36 31.53"/><polygon class="cls-22" points="6.57 31.28 6.77 31.03 51.83 68.45 51.32 68.45 6.57 31.28"/><polygon class="cls-23" points="6.77 31.03 6.98 30.78 52.34 68.45 51.83 68.45 6.77 31.03"/><polygon class="cls-24" points="6.98 30.78 7.19 30.53 52.85 68.45 52.34 68.45 6.98 30.78"/><polygon class="cls-25" points="7.19 30.53 7.4 30.28 53.36 68.45 52.85 68.45 7.19 30.53"/><polygon class="cls-26" points="7.4 30.28 7.61 30.03 53.87 68.45 53.36 68.45 7.4 30.28"/><polygon class="cls-27" points="7.61 30.03 7.81 29.78 54.38 68.45 53.87 68.45 7.61 30.03"/><polygon class="cls-28" points="7.81 29.78 8.02 29.53 54.88 68.45 54.38 68.45 7.81 29.78"/><polygon class="cls-29" points="8.02 29.53 8.23 29.28 55.39 68.45 54.88 68.45 8.02 29.53"/><polygon class="cls-30" points="8.23 29.28 8.44 29.03 55.9 68.45 55.39 68.45 8.23 29.28"/><polygon class="cls-31" points="8.44 29.03 8.64 28.78 56.41 68.45 55.9 68.45 8.44 29.03"/><polygon class="cls-32" points="8.64 28.78 8.85 28.53 56.92 68.45 56.41 68.45 8.64 28.78"/><polygon class="cls-33" points="8.85 28.53 9.06 28.28 57.43 68.45 56.92 68.45 8.85 28.53"/><polygon class="cls-34" points="9.06 28.28 9.27 28.03 57.94 68.45 57.43 68.45 9.06 28.28"/><polygon class="cls-35" points="9.27 28.03 9.48 27.78 58.45 68.45 57.94 68.45 9.27 28.03"/><polygon class="cls-36" points="9.48 27.78 9.68 27.53 58.96 68.45 58.45 68.45 9.48 27.78"/><polygon class="cls-37" points="9.68 27.53 9.89 27.28 59.47 68.45 58.96 68.45 9.68 27.53"/><polygon class="cls-38" points="9.89 27.28 10.1 27.03 59.98 68.45 59.47 68.45 9.89 27.28"/><polygon class="cls-39" points="10.1 27.03 10.31 26.78 60.49 68.45 59.98 68.45 10.1 27.03"/><polygon class="cls-40" points="10.31 26.78 10.52 26.53 61 68.45 60.49 68.45 10.31 26.78"/><polygon class="cls-41" points="10.52 26.53 10.72 26.28 61.51 68.45 61 68.45 10.52 26.53"/><polygon class="cls-42" points="10.72 26.28 10.93 26.03 62.01 68.45 61.51 68.45 10.72 26.28"/><polygon class="cls-43" points="10.93 26.03 11.14 25.77 62.52 68.45 62.01 68.45 10.93 26.03"/><polygon class="cls-44" points="11.14 25.77 11.35 25.52 63.03 68.45 62.52 68.45 11.14 25.77"/><polygon class="cls-45" points="11.35 25.52 11.55 25.27 63.54 68.45 63.03 68.45 11.35 25.52"/><polygon class="cls-46" points="11.55 25.27 11.76 25.02 64.05 68.45 63.54 68.45 11.55 25.27"/><polygon class="cls-47" points="11.76 25.02 11.97 24.77 64.56 68.45 64.05 68.45 11.76 25.02"/><polygon class="cls-48" points="11.97 24.77 12.18 24.52 65.07 68.45 64.56 68.45 11.97 24.77"/><polygon class="cls-49" points="12.18 24.52 12.39 24.27 65.58 68.45 65.07 68.45 12.18 24.52"/><polygon class="cls-50" points="12.39 24.27 12.6 24.02 66.09 68.45 65.58 68.45 12.39 24.27"/><polygon class="cls-51" points="12.6 24.02 12.8 23.77 66.35 68.25 66.19 68.45 66.09 68.45 12.6 24.02"/><rect class="cls-52" x="39.52" y="11.08" width="0.33" height="69.61" transform="translate(-20.97 47.1) rotate(-50.3)"/><rect class="cls-53" x="39.73" y="10.83" width="0.33" height="69.61" transform="translate(-20.7 47.16) rotate(-50.29)"/><rect class="cls-54" x="39.94" y="10.58" width="0.33" height="69.61" transform="translate(-20.43 47.23) rotate(-50.29)"/><rect class="cls-55" x="40.14" y="10.33" width="0.33" height="69.61" transform="translate(-20.17 47.3) rotate(-50.29)"/><rect class="cls-56" x="40.35" y="10.08" width="0.33" height="69.61" transform="translate(-19.9 47.37) rotate(-50.29)"/><rect class="cls-57" x="40.56" y="9.83" width="0.33" height="69.61" transform="translate(-19.63 47.44) rotate(-50.29)"/><rect class="cls-58" x="40.77" y="9.58" width="0.33" height="69.61" transform="translate(-19.36 47.52) rotate(-50.3)"/><rect class="cls-59" x="40.98" y="9.33" width="0.33" height="69.61" transform="translate(-19.1 47.58) rotate(-50.29)"/><rect class="cls-60" x="41.18" y="9.08" width="0.33" height="69.61" transform="translate(-18.83 47.66) rotate(-50.3)"/><rect class="cls-61" x="41.39" y="8.83" width="0.33" height="69.61" transform="translate(-18.56 47.72) rotate(-50.29)"/><rect class="cls-62" x="41.6" y="8.58" width="0.33" height="69.61" transform="translate(-18.29 47.79) rotate(-50.29)"/><rect class="cls-63" x="41.81" y="8.33" width="0.33" height="69.61" transform="translate(-18.03 47.86) rotate(-50.29)"/><rect class="cls-64" x="42.01" y="8.08" width="0.33" height="69.61" transform="translate(-17.76 47.93) rotate(-50.29)"/><rect class="cls-65" x="42.22" y="7.83" width="0.33" height="69.61" transform="translate(-17.49 48.01) rotate(-50.3)"/><rect class="cls-66" x="42.43" y="7.57" width="0.33" height="69.61" transform="translate(-17.22 48.07) rotate(-50.29)"/><rect class="cls-67" x="42.64" y="7.32" width="0.33" height="69.61" transform="translate(-16.96 48.14) rotate(-50.29)"/><rect class="cls-68" x="42.85" y="7.07" width="0.33" height="69.61" transform="translate(-16.69 48.21) rotate(-50.29)"/><rect class="cls-68" x="43.08" y="6.87" width="0.19" height="69.61" transform="translate(-16.47 48.27) rotate(-50.29)"/><rect class="cls-69" x="43.2" y="6.72" width="0.19" height="69.61" transform="translate(-16.31 48.31) rotate(-50.29)"/><rect class="cls-70" x="43.33" y="6.57" width="0.19" height="69.61" transform="translate(-16.15 48.35) rotate(-50.29)"/><rect class="cls-70" x="43.45" y="6.42" width="0.19" height="69.61" transform="translate(-15.99 48.39) rotate(-50.29)"/><rect class="cls-71" x="43.58" y="6.27" width="0.19" height="69.61" transform="translate(-15.83 48.43) rotate(-50.29)"/><rect class="cls-71" x="43.7" y="6.13" width="0.19" height="69.61" transform="translate(-15.67 48.48) rotate(-50.29)"/><rect class="cls-72" x="43.82" y="5.98" width="0.19" height="69.61" transform="translate(-15.51 48.52) rotate(-50.29)"/><rect class="cls-72" x="43.95" y="5.83" width="0.19" height="69.61" transform="translate(-15.35 48.54) rotate(-50.27)"/><rect class="cls-73" x="44.07" y="5.68" width="0.19" height="69.61" transform="translate(-15.19 48.6) rotate(-50.29)"/><rect class="cls-74" x="44.2" y="5.53" width="0.19" height="69.61" transform="translate(-15.03 48.64) rotate(-50.29)"/><rect class="cls-75" x="44.32" y="5.38" width="0.19" height="69.61" transform="translate(-14.87 48.68) rotate(-50.29)"/><rect class="cls-76" x="44.45" y="5.23" width="0.19" height="69.61" transform="translate(-14.71 48.72) rotate(-50.29)"/><rect class="cls-77" x="44.57" y="5.08" width="0.19" height="69.61" transform="translate(-14.55 48.77) rotate(-50.29)"/><rect class="cls-78" x="44.69" y="4.93" width="0.19" height="69.61" transform="translate(-14.39 48.81) rotate(-50.29)"/><rect class="cls-79" x="44.82" y="4.78" width="0.19" height="69.61" transform="translate(-14.23 48.85) rotate(-50.29)"/><rect class="cls-80" x="44.94" y="4.63" width="0.19" height="69.61" transform="translate(-14.07 48.89) rotate(-50.29)"/><rect class="cls-81" x="45.07" y="4.48" width="0.19" height="69.61" transform="translate(-13.91 48.93) rotate(-50.29)"/><rect class="cls-82" x="45.19" y="4.33" width="0.19" height="69.61" transform="translate(-13.75 48.97) rotate(-50.29)"/><rect class="cls-82" x="45.32" y="4.18" width="0.19" height="69.61" transform="translate(-13.59 49.01) rotate(-50.29)"/><rect class="cls-83" x="45.44" y="4.03" width="0.19" height="69.61" transform="translate(-13.43 49.04) rotate(-50.28)"/><rect class="cls-84" x="45.57" y="3.88" width="0.19" height="69.61" transform="translate(-13.27 49.1) rotate(-50.29)"/><rect class="cls-85" x="45.69" y="3.73" width="0.19" height="69.61" transform="translate(-13.11 49.14) rotate(-50.29)"/><rect class="cls-86" x="45.81" y="3.58" width="0.19" height="69.61" transform="translate(-12.95 49.18) rotate(-50.29)"/><rect class="cls-87" x="45.94" y="3.43" width="0.19" height="69.61" transform="translate(-12.79 49.22) rotate(-50.29)"/><rect class="cls-88" x="46.06" y="3.28" width="0.19" height="69.61" transform="translate(-12.63 49.27) rotate(-50.29)"/><rect class="cls-89" x="46.19" y="3.13" width="0.19" height="69.61" transform="translate(-12.47 49.31) rotate(-50.29)"/><rect class="cls-90" x="46.31" y="2.98" width="0.19" height="69.61" transform="translate(-12.31 49.35) rotate(-50.29)"/><rect class="cls-91" x="46.44" y="2.83" width="0.19" height="69.61" transform="translate(-12.15 49.37) rotate(-50.27)"/><rect class="cls-92" x="46.56" y="2.68" width="0.19" height="69.61" transform="translate(-11.99 49.43) rotate(-50.29)"/><rect class="cls-93" x="46.69" y="2.53" width="0.19" height="69.61" transform="translate(-11.83 49.47) rotate(-50.29)"/><rect class="cls-94" x="46.81" y="2.38" width="0.19" height="69.61" transform="translate(-11.67 49.52) rotate(-50.29)"/><rect class="cls-95" x="46.93" y="2.23" width="0.19" height="69.61" transform="translate(-11.51 49.56) rotate(-50.29)"/><rect class="cls-96" x="47.06" y="2.08" width="0.19" height="69.61" transform="translate(-11.35 49.58) rotate(-50.27)"/><rect class="cls-97" x="47.18" y="1.93" width="0.19" height="69.61" transform="translate(-11.19 49.64) rotate(-50.29)"/><rect class="cls-98" x="47.31" y="1.78" width="0.19" height="69.61" transform="translate(-11.03 49.68) rotate(-50.29)"/><rect class="cls-99" x="47.43" y="1.63" width="0.19" height="69.61" transform="translate(-10.87 49.72) rotate(-50.29)"/><rect class="cls-99" x="47.56" y="1.48" width="0.19" height="69.61" transform="translate(-10.71 49.77) rotate(-50.29)"/><rect class="cls-100" x="47.68" y="1.33" width="0.19" height="69.61" transform="translate(-10.55 49.81) rotate(-50.29)"/><rect class="cls-101" x="47.8" y="1.18" width="0.19" height="69.61" transform="translate(-10.39 49.85) rotate(-50.29)"/><rect class="cls-102" x="47.93" y="1.03" width="0.19" height="69.61" transform="translate(-10.23 49.89) rotate(-50.29)"/><rect class="cls-103" x="48.05" y="0.88" width="0.19" height="69.61" transform="translate(-10.07 49.93) rotate(-50.29)"/><rect class="cls-104" x="48.18" y="0.73" width="0.19" height="69.61" transform="translate(-9.91 49.97) rotate(-50.29)"/><rect class="cls-104" x="48.3" y="0.58" width="0.19" height="69.61" transform="translate(-9.75 50.01) rotate(-50.29)"/><rect class="cls-105" x="48.43" y="0.43" width="0.19" height="69.61" transform="translate(-9.59 50.06) rotate(-50.29)"/><rect class="cls-106" x="48.55" y="0.28" width="0.19" height="69.61" transform="translate(-9.43 50.08) rotate(-50.27)"/><rect class="cls-106" x="48.68" y="0.13" width="0.19" height="69.61" transform="translate(-9.27 50.14) rotate(-50.29)"/><rect class="cls-107" x="48.8" y="-0.02" width="0.19" height="69.61" transform="translate(-9.11 50.18) rotate(-50.29)"/><rect class="cls-108" x="48.92" y="-0.17" width="0.19" height="69.61" transform="translate(-8.95 50.22) rotate(-50.29)"/><rect class="cls-109" x="49.05" y="-0.32" width="0.19" height="69.61" transform="translate(-8.79 50.26) rotate(-50.29)"/><rect class="cls-109" x="49.17" y="-0.47" width="0.19" height="69.61" transform="translate(-8.63 50.31) rotate(-50.29)"/><rect class="cls-110" x="49.3" y="-0.62" width="0.19" height="69.61" transform="translate(-8.47 50.35) rotate(-50.29)"/><rect class="cls-111" x="49.42" y="-0.77" width="0.19" height="69.61" transform="translate(-8.3 50.39) rotate(-50.29)"/><rect class="cls-112" x="49.55" y="-0.92" width="0.19" height="69.61" transform="translate(-8.15 50.43) rotate(-50.29)"/><rect class="cls-113" x="49.67" y="-1.06" width="0.19" height="69.61" transform="translate(-7.98 50.47) rotate(-50.29)"/><rect class="cls-114" x="49.8" y="-1.21" width="0.19" height="69.61" transform="translate(-7.82 50.51) rotate(-50.29)"/><rect class="cls-115" x="49.92" y="-1.36" width="0.19" height="69.61" transform="translate(-7.66 50.56) rotate(-50.29)"/><rect class="cls-116" x="50.04" y="-1.51" width="0.19" height="69.61" transform="translate(-7.5 50.6) rotate(-50.29)"/><rect class="cls-117" x="50.17" y="-1.66" width="0.19" height="69.61" transform="translate(-7.36 50.59) rotate(-50.25)"/><rect class="cls-118" x="50.29" y="-1.81" width="0.19" height="69.61" transform="translate(-7.18 50.68) rotate(-50.29)"/><rect class="cls-119" x="50.42" y="-1.96" width="0.19" height="69.61" transform="translate(-7.02 50.72) rotate(-50.29)"/><rect class="cls-120" x="50.54" y="-2.11" width="0.19" height="69.61" transform="translate(-6.86 50.76) rotate(-50.29)"/><rect class="cls-121" x="50.67" y="-2.26" width="0.19" height="69.61" transform="translate(-6.7 50.81) rotate(-50.29)"/><rect class="cls-122" x="50.79" y="-2.41" width="0.19" height="69.61" transform="translate(-6.54 50.85) rotate(-50.29)"/><rect class="cls-123" x="50.92" y="-2.56" width="0.19" height="69.61" transform="translate(-6.38 50.89) rotate(-50.29)"/><rect class="cls-124" x="51.04" y="-2.71" width="0.19" height="69.61" transform="translate(-6.22 50.93) rotate(-50.29)"/><rect class="cls-125" x="51.16" y="-2.86" width="0.19" height="69.61" transform="translate(-6.06 50.97) rotate(-50.29)"/><rect class="cls-126" x="51.29" y="-3.01" width="0.19" height="69.61" transform="translate(-5.9 51.02) rotate(-50.29)"/><rect class="cls-127" x="51.41" y="-3.16" width="0.19" height="69.61" transform="translate(-5.74 51.06) rotate(-50.29)"/><rect class="cls-128" x="51.54" y="-3.31" width="0.19" height="69.61" transform="translate(-5.58 51.1) rotate(-50.29)"/><rect class="cls-128" x="51.66" y="-3.46" width="0.19" height="69.61" transform="translate(-5.43 51.12) rotate(-50.27)"/><rect class="cls-129" x="51.79" y="-3.61" width="0.19" height="69.61" transform="translate(-5.26 51.18) rotate(-50.29)"/><rect class="cls-130" x="51.91" y="-3.76" width="0.19" height="69.61" transform="translate(-5.1 51.22) rotate(-50.29)"/><rect class="cls-131" x="52.03" y="-3.91" width="0.19" height="69.61" transform="translate(-4.94 51.26) rotate(-50.29)"/><rect class="cls-132" x="52.16" y="-4.06" width="0.19" height="69.61" transform="translate(-4.78 51.3) rotate(-50.29)"/><rect class="cls-133" x="52.28" y="-4.21" width="0.19" height="69.61" transform="translate(-4.62 51.35) rotate(-50.29)"/><rect class="cls-134" x="52.41" y="-4.36" width="0.19" height="69.61" transform="translate(-4.46 51.39) rotate(-50.29)"/><rect class="cls-134" x="52.53" y="-4.51" width="0.19" height="69.61" transform="translate(-4.3 51.43) rotate(-50.29)"/><rect class="cls-135" x="52.66" y="-4.66" width="0.19" height="69.61" transform="translate(-4.14 51.47) rotate(-50.29)"/><rect class="cls-136" x="52.78" y="-4.81" width="0.19" height="69.61" transform="translate(-3.98 51.51) rotate(-50.29)"/><rect class="cls-137" x="52.91" y="-4.96" width="0.19" height="69.61" transform="translate(-3.82 51.55) rotate(-50.29)"/><rect class="cls-138" x="53.03" y="-5.11" width="0.19" height="69.61" transform="translate(-3.66 51.6) rotate(-50.29)"/><rect class="cls-139" x="53.15" y="-5.26" width="0.19" height="69.61" transform="translate(-3.51 51.62) rotate(-50.27)"/><rect class="cls-140" x="53.28" y="-5.41" width="0.19" height="69.61" transform="translate(-3.34 51.68) rotate(-50.29)"/><rect class="cls-141" x="53.4" y="-5.56" width="0.19" height="69.61" transform="translate(-3.18 51.72) rotate(-50.29)"/><rect class="cls-142" x="53.53" y="-5.71" width="0.19" height="69.61" transform="translate(-3.02 51.76) rotate(-50.29)"/><rect class="cls-143" x="53.65" y="-5.86" width="0.19" height="69.61" transform="translate(-2.86 51.8) rotate(-50.29)"/><rect class="cls-144" x="53.78" y="-6.01" width="0.19" height="69.61" transform="translate(-2.71 51.82) rotate(-50.27)"/><rect class="cls-145" x="53.9" y="-6.16" width="0.19" height="69.61" transform="translate(-2.54 51.89) rotate(-50.29)"/><rect class="cls-146" x="54.03" y="-6.31" width="0.19" height="69.61" transform="translate(-2.38 51.93) rotate(-50.29)"/><rect class="cls-147" x="54.15" y="-6.46" width="0.19" height="69.61" transform="translate(-2.22 51.97) rotate(-50.29)"/><rect class="cls-148" x="54.27" y="-6.61" width="0.19" height="69.61" transform="translate(-2.06 52.01) rotate(-50.29)"/><rect class="cls-149" x="54.4" y="-6.76" width="0.19" height="69.61" transform="translate(-1.9 52.05) rotate(-50.29)"/><rect class="cls-150" x="54.52" y="-6.91" width="0.19" height="69.61" transform="translate(-1.74 52.1) rotate(-50.29)"/><rect class="cls-151" x="54.65" y="-7.06" width="0.19" height="69.61" transform="translate(-1.58 52.14) rotate(-50.29)"/><rect class="cls-152" x="54.77" y="-7.21" width="0.19" height="69.61" transform="translate(-1.43 52.16) rotate(-50.28)"/><rect class="cls-153" x="54.9" y="-7.36" width="0.19" height="69.61" transform="translate(-1.26 52.22) rotate(-50.29)"/><rect class="cls-154" x="55.02" y="-7.51" width="0.19" height="69.61" transform="translate(-1.1 52.26) rotate(-50.29)"/><rect class="cls-155" x="55.14" y="-7.66" width="0.19" height="69.61" transform="translate(-0.94 52.3) rotate(-50.29)"/><rect class="cls-156" x="55.27" y="-7.81" width="0.19" height="69.61" transform="translate(-0.78 52.34) rotate(-50.29)"/><rect class="cls-157" x="55.39" y="-7.96" width="0.19" height="69.61" transform="translate(-0.62 52.39) rotate(-50.29)"/><rect class="cls-158" x="55.52" y="-8.11" width="0.19" height="69.61" transform="translate(-0.46 52.43) rotate(-50.29)"/><rect class="cls-159" x="55.64" y="-8.25" width="0.19" height="69.61" transform="translate(-0.3 52.47) rotate(-50.29)"/><rect class="cls-160" x="55.77" y="-8.4" width="0.19" height="69.61" transform="translate(-0.14 52.51) rotate(-50.29)"/><rect class="cls-161" x="55.89" y="-8.55" width="0.19" height="69.61" transform="translate(0.02 52.55) rotate(-50.29)"/><rect class="cls-162" x="56.02" y="-8.7" width="0.19" height="69.61" transform="translate(0.18 52.6) rotate(-50.29)"/><rect class="cls-163" x="56.14" y="-8.85" width="0.19" height="69.61" transform="translate(0.34 52.63) rotate(-50.29)"/><rect class="cls-164" x="56.26" y="-9" width="0.19" height="69.61" transform="translate(0.5 52.66) rotate(-50.27)"/><rect class="cls-165" x="56.39" y="-9.15" width="0.19" height="69.61" transform="translate(0.66 52.72) rotate(-50.29)"/><rect class="cls-166" x="56.51" y="-9.3" width="0.19" height="69.61" transform="translate(0.82 52.76) rotate(-50.29)"/><rect class="cls-167" x="56.64" y="-9.45" width="0.19" height="69.61" transform="translate(0.98 52.8) rotate(-50.29)"/><polygon class="cls-168" points="30.02 3.04 30.02 3.04 30.32 3.04 83.7 47.37 83.57 47.52 30.02 3.04"/><polygon class="cls-169" points="30.63 3.04 83.82 47.22 83.7 47.37 30.32 3.04 30.63 3.04"/><polygon class="cls-170" points="30.93 3.04 83.95 47.07 83.82 47.22 30.63 3.04 30.93 3.04"/><polygon class="cls-171" points="31.24 3.04 84.07 46.92 83.95 47.07 30.93 3.04 31.24 3.04"/><polygon class="cls-172" points="31.54 3.04 84.19 46.77 84.07 46.92 31.24 3.04 31.54 3.04"/><polygon class="cls-173" points="31.85 3.04 84.32 46.62 84.19 46.77 31.54 3.04 31.85 3.04"/><polygon class="cls-174" points="32.15 3.04 84.44 46.47 84.32 46.62 31.85 3.04 32.15 3.04"/><polygon class="cls-175" points="32.45 3.04 84.57 46.32 84.44 46.47 32.15 3.04 32.45 3.04"/><polygon class="cls-176" points="32.76 3.04 84.69 46.17 84.57 46.32 32.45 3.04 32.76 3.04"/><polygon class="cls-177" points="33.06 3.04 84.82 46.02 84.69 46.17 32.76 3.04 33.06 3.04"/><polygon class="cls-178" points="33.37 3.04 84.94 45.87 84.82 46.02 33.06 3.04 33.37 3.04"/><polygon class="cls-179" points="33.67 3.04 85.07 45.72 84.94 45.87 33.37 3.04 33.67 3.04"/><polygon class="cls-180" points="33.98 3.04 85.19 45.57 85.07 45.72 33.67 3.04 33.98 3.04"/><polygon class="cls-181" points="34.28 3.04 85.31 45.42 85.19 45.57 33.98 3.04 34.28 3.04"/><polygon class="cls-182" points="34.59 3.04 85.44 45.27 85.31 45.42 34.28 3.04 34.59 3.04"/><polygon class="cls-182" points="34.89 3.04 85.56 45.12 85.44 45.27 34.59 3.04 34.89 3.04"/><polygon class="cls-183" points="35.2 3.04 85.69 44.97 85.56 45.12 34.89 3.04 35.2 3.04"/><polygon class="cls-184" points="35.5 3.04 85.81 44.82 85.69 44.97 35.2 3.04 35.5 3.04"/><polygon class="cls-185" points="35.81 3.04 85.94 44.67 85.81 44.82 35.5 3.04 35.81 3.04"/><polygon class="cls-186" points="36.11 3.04 86.06 44.52 85.94 44.67 35.81 3.04 36.11 3.04"/><polygon class="cls-187" points="36.42 3.04 86.19 44.37 86.06 44.52 36.11 3.04 36.42 3.04"/><polygon class="cls-188" points="36.72 3.04 86.31 44.22 86.19 44.37 36.42 3.04 36.72 3.04"/><polygon class="cls-189" points="37.03 3.04 86.43 44.07 86.31 44.22 36.72 3.04 37.03 3.04"/><polygon class="cls-190" points="37.33 3.04 86.56 43.92 86.43 44.07 37.03 3.04 37.33 3.04"/><polygon class="cls-190" points="37.64 3.04 86.68 43.77 86.56 43.92 37.33 3.04 37.64 3.04"/><polygon class="cls-191" points="37.94 3.04 86.81 43.62 86.68 43.77 37.64 3.04 37.94 3.04"/><polygon class="cls-192" points="38.25 3.04 86.93 43.47 86.81 43.62 37.94 3.04 38.25 3.04"/><polygon class="cls-193" points="38.55 3.04 87.06 43.32 86.93 43.47 38.25 3.04 38.55 3.04"/><polygon class="cls-194" points="38.85 3.04 87.18 43.17 87.06 43.32 38.55 3.04 38.85 3.04"/><polygon class="cls-195" points="39.16 3.04 87.31 43.02 87.18 43.17 38.85 3.04 39.16 3.04"/><polygon class="cls-196" points="39.47 3.04 87.43 42.87 87.31 43.02 39.16 3.04 39.47 3.04"/><polygon class="cls-197" points="39.77 3.04 87.55 42.72 87.43 42.87 39.47 3.04 39.77 3.04"/><polygon class="cls-198" points="40.07 3.04 87.68 42.57 87.55 42.72 39.77 3.04 40.07 3.04"/><polygon class="cls-199" points="40.38 3.04 87.8 42.42 87.68 42.57 40.07 3.04 40.38 3.04"/><polygon class="cls-199" points="40.68 3.04 87.93 42.27 87.8 42.42 40.38 3.04 40.68 3.04"/><polygon class="cls-200" points="40.99 3.04 88.05 42.12 87.93 42.27 40.68 3.04 40.99 3.04"/><polygon class="cls-201" points="41.29 3.04 88.18 41.97 88.05 42.12 40.99 3.04 41.29 3.04"/><polygon class="cls-202" points="41.6 3.04 88.3 41.82 88.18 41.97 41.29 3.04 41.6 3.04"/><polygon class="cls-203" points="41.9 3.04 88.42 41.67 88.3 41.82 41.6 3.04 41.9 3.04"/><polygon class="cls-204" points="42.21 3.04 88.55 41.52 88.42 41.67 41.9 3.04 42.21 3.04"/><polygon class="cls-205" points="42.51 3.04 88.67 41.37 88.55 41.52 42.21 3.04 42.51 3.04"/><polygon class="cls-206" points="42.82 3.04 88.8 41.22 88.67 41.37 42.51 3.04 42.82 3.04"/><polygon class="cls-207" points="43.12 3.04 88.92 41.07 88.8 41.22 42.82 3.04 43.12 3.04"/><polygon class="cls-208" points="43.43 3.04 89.05 40.92 88.92 41.07 43.12 3.04 43.43 3.04"/><polygon class="cls-209" points="43.73 3.04 89.17 40.77 89.05 40.92 43.43 3.04 43.73 3.04"/><polygon class="cls-210" points="44.04 3.04 89.3 40.63 89.17 40.77 43.73 3.04 44.04 3.04"/><polygon class="cls-211" points="44.34 3.04 89.42 40.48 89.3 40.63 44.04 3.04 44.34 3.04"/><polygon class="cls-212" points="44.65 3.04 89.54 40.33 89.42 40.48 44.34 3.04 44.65 3.04"/><polygon class="cls-213" points="44.95 3.04 89.67 40.18 89.54 40.33 44.65 3.04 44.95 3.04"/><polygon class="cls-214" points="45.26 3.04 89.79 40.03 89.67 40.18 44.95 3.04 45.26 3.04"/><polygon class="cls-214" points="45.56 3.04 89.92 39.88 89.79 40.03 45.26 3.04 45.56 3.04"/><polygon class="cls-215" points="45.87 3.04 90.04 39.73 89.92 39.88 45.56 3.04 45.87 3.04"/><polygon class="cls-216" points="46.17 3.04 90.17 39.58 90.04 39.73 45.87 3.04 46.17 3.04"/><polygon class="cls-217" points="46.47 3.04 90.29 39.43 90.17 39.58 46.17 3.04 46.47 3.04"/><polygon class="cls-218" points="46.78 3.04 90.42 39.28 90.29 39.43 46.47 3.04 46.78 3.04"/><polygon class="cls-219" points="47.08 3.04 90.54 39.13 90.42 39.28 46.78 3.04 47.08 3.04"/><polygon class="cls-219" points="47.39 3.04 90.66 38.98 90.54 39.13 47.08 3.04 47.39 3.04"/><polygon class="cls-220" points="47.69 3.04 90.79 38.83 90.66 38.98 47.39 3.04 47.69 3.04"/><polygon class="cls-221" points="48 3.04 90.91 38.68 90.79 38.83 47.69 3.04 48 3.04"/><polygon class="cls-222" points="48.3 3.04 91.04 38.53 90.91 38.68 48 3.04 48.3 3.04"/><polygon class="cls-223" points="48.61 3.04 91.16 38.38 91.04 38.53 48.3 3.04 48.61 3.04"/><polygon class="cls-223" points="48.91 3.04 91.29 38.23 91.16 38.38 48.61 3.04 48.91 3.04"/><polygon class="cls-224" points="49.22 3.04 91.41 38.08 91.29 38.23 48.91 3.04 49.22 3.04"/><polygon class="cls-225" points="49.52 3.04 91.53 37.93 91.41 38.08 49.22 3.04 49.52 3.04"/><polygon class="cls-226" points="49.83 3.04 91.66 37.78 91.53 37.93 49.52 3.04 49.83 3.04"/><polygon class="cls-227" points="50.13 3.04 91.78 37.63 91.66 37.78 49.83 3.04 50.13 3.04"/><polygon class="cls-228" points="50.44 3.04 91.91 37.48 91.78 37.63 50.13 3.04 50.44 3.04"/><polygon class="cls-228" points="50.74 3.04 92.03 37.33 91.91 37.48 50.44 3.04 50.74 3.04"/><polygon class="cls-229" points="51.05 3.04 92.16 37.18 92.03 37.33 50.74 3.04 51.05 3.04"/><polygon class="cls-230" points="51.35 3.04 92.28 37.03 92.16 37.18 51.05 3.04 51.35 3.04"/><polygon class="cls-231" points="51.66 3.04 92.41 36.88 92.28 37.03 51.35 3.04 51.66 3.04"/><polygon class="cls-232" points="51.96 3.04 92.53 36.73 92.41 36.88 51.66 3.04 51.96 3.04"/><polygon class="cls-233" points="52.27 3.04 92.65 36.58 92.53 36.73 51.96 3.04 52.27 3.04"/><polygon class="cls-233" points="52.57 3.04 92.78 36.43 92.65 36.58 52.27 3.04 52.57 3.04"/><polygon class="cls-234" points="52.87 3.04 92.9 36.28 92.78 36.43 52.57 3.04 52.87 3.04"/><polygon class="cls-235" points="53.18 3.04 93.03 36.13 92.9 36.28 52.87 3.04 53.18 3.04"/><polygon class="cls-236" points="53.48 3.04 93.15 35.98 93.03 36.13 53.18 3.04 53.48 3.04"/><polygon class="cls-237" points="53.79 3.04 93.28 35.83 93.15 35.98 53.48 3.04 53.79 3.04"/><polygon class="cls-238" points="54.09 3.04 93.4 35.68 93.28 35.83 53.79 3.04 54.09 3.04"/><polygon class="cls-239" points="54.4 3.04 93.53 35.53 93.4 35.68 54.09 3.04 54.4 3.04"/><polygon class="cls-239" points="54.7 3.04 93.65 35.38 93.53 35.53 54.4 3.04 54.7 3.04"/><polygon class="cls-240" points="55.01 3.04 93.77 35.23 93.65 35.38 54.7 3.04 55.01 3.04"/><polygon class="cls-241" points="55.31 3.04 93.9 35.08 93.77 35.23 55.01 3.04 55.31 3.04"/><polygon class="cls-242" points="55.62 3.04 94.02 34.93 93.9 35.08 55.31 3.04 55.62 3.04"/><polygon class="cls-243" points="55.92 3.04 94.15 34.78 94.02 34.93 55.62 3.04 55.92 3.04"/><polygon class="cls-244" points="56.23 3.04 94.27 34.63 94.15 34.78 55.92 3.04 56.23 3.04"/><polygon class="cls-245" points="56.53 3.04 94.4 34.48 94.27 34.63 56.23 3.04 56.53 3.04"/><polygon class="cls-246" points="56.84 3.04 94.52 34.33 94.4 34.48 56.53 3.04 56.84 3.04"/><polygon class="cls-246" points="57.14 3.04 94.64 34.18 94.52 34.33 56.84 3.04 57.14 3.04"/><polygon class="cls-247" points="57.45 3.04 94.77 34.03 94.64 34.18 57.14 3.04 57.45 3.04"/><polygon class="cls-248" points="57.75 3.04 94.89 33.88 94.77 34.03 57.45 3.04 57.75 3.04"/><polygon class="cls-249" points="58.05 3.04 95.02 33.73 94.89 33.88 57.75 3.04 58.05 3.04"/><polygon class="cls-250" points="58.36 3.04 95.14 33.59 95.02 33.73 58.05 3.04 58.36 3.04"/><polygon class="cls-251" points="58.66 3.04 95.27 33.44 95.14 33.59 58.36 3.04 58.66 3.04"/><polygon class="cls-252" points="58.97 3.04 95.39 33.28 95.27 33.44 58.66 3.04 58.97 3.04"/><polygon class="cls-253" points="59.27 3.04 95.52 33.14 95.39 33.28 58.97 3.04 59.27 3.04"/><polygon class="cls-254" points="59.58 3.04 95.64 32.99 95.52 33.14 59.27 3.04 59.58 3.04"/><polygon class="cls-254" points="96.45 32.02 95.64 32.99 59.58 3.04 96.45 3.04 96.45 32.02"/></g><path class="cls-3" d="M37.25,68.91,2.13,39.68l.2-.25c.12-.15,12.18-14.86,31.21-17.58.15,0,14.73-1.88,26.48-19l.17-.25L96.89,24l-.16.28a54.48,54.48,0,0,1-29.2,22c-.18,0-14.19,2.77-30.07,22.4ZM3.05,39.59,37.16,68c16-19.61,30.07-22.34,30.21-22.37A54.07,54.07,0,0,0,96,24.18L60.38,3.47c-11.89,17.15-26.61,19-26.76,19C16.21,25,4.71,37.66,3.05,39.59Z"/></svg>