<svg id="레이어_1" data-name="레이어 1" xmlns="http://www.w3.org/2000/svg" viewBox="0 0 123.39 106.84"><defs><style>.cls-1{fill:#e6e6e6;}.cls-1,.cls-2,.cls-3,.cls-4{stroke:#231815;}.cls-1,.cls-2{stroke-linecap:round;stroke-linejoin:round;stroke-width:0.66px;}.cls-2{fill:none;}.cls-3{fill:#e60012;}.cls-3,.cls-4{stroke-width:0.7px;}.cls-4{fill:#7d0000;stroke-miterlimit:10;}</style></defs><polygon class="cls-1" points="3.66 40.11 73.5 3.03 119.65 27.14 118.39 60.23 50.22 103.17 4.77 73.75 3.66 40.11"/><polyline class="cls-2" points="50.22 103.17 49.94 69.11 3.66 40.11"/><line class="cls-2" x1="119.65" y1="27.14" x2="49.94" y2="69.11"/><ellipse class="cls-3" cx="62.48" cy="33.6" rx="24.61" ry="14.63"/><path class="cls-4" d="M69.67,45.66c3.74-1.42,6.24-3.9,6.24-6.74,0-4.41-6-8-13.43-8s-13.42,3.57-13.42,8c0,2.84,2.49,5.32,6.24,6.74a21.27,21.27,0,0,1,14.37,0Z"/><path class="cls-1" d="M69.67,45.66a21.27,21.27,0,0,0-14.37,0,21.44,21.44,0,0,0,14.37,0Z"/></svg>