<svg xmlns="http://www.w3.org/2000/svg" viewBox="0 0 98.33 96.38"><defs><style>.cls-1{fill:#e6e6e6;}.cls-1,.cls-3,.cls-4{stroke:#231815;stroke-width:0.6px;}.cls-2{fill:#7d0000;stroke:#231b00;stroke-width:0.7px;}.cls-3{fill:#e60012;}.cls-4{fill:#d3d3d4;}</style></defs><g id="레이어_1" data-name="레이어 1"><polygon class="cls-1" points="4.34 18.99 34.68 1.73 50.72 7.39 21.95 27.01 4.34 18.99"/><polygon class="cls-2" points="50.72 7.39 51.51 40.96 23.52 61.1 21.95 27.01 50.72 7.39"/><polygon class="cls-3" points="51.71 41.05 67.14 46.02 48.31 72.26 48.05 72.17 23.73 61.19 51.71 41.05"/><polygon class="cls-1" points="74.72 14.98 48.11 37.99 69.88 48.52 94.31 22.01 74.72 14.98"/><polygon class="cls-4" points="94.31 22.01 90.91 64.06 68.42 92.31 69.88 48.52 94.31 22.01"/><polygon class="cls-1" points="4.34 18.99 7.48 63 68.42 92.31 69.88 48.52 48.11 37.99 47.84 72.08 23.52 61.1 21.95 27.01 4.34 18.99"/></g></svg>