<svg id="레이어_1" data-name="레이어 1" xmlns="http://www.w3.org/2000/svg" viewBox="0 0 123.97 108.57"><defs><style>.cls-1{fill:#e6e6e6;}.cls-1,.cls-3,.cls-5{stroke:#231815;}.cls-1,.cls-3{stroke-linecap:round;stroke-linejoin:round;stroke-width:0.66px;}.cls-2{fill:#7d0000;}.cls-3,.cls-5{fill:none;}.cls-4{fill:#e60012;}.cls-5{stroke-width:0.4px;}</style></defs><polygon class="cls-1" points="3.66 40.69 73.5 3.6 119.65 27.72 118.39 60.81 50.22 103.75 4.77 74.33 3.66 40.69"/><path class="cls-2" d="M55.85,46.05s-5.22-1.74-6.59-6.27c0,0-.53-7.73,12.53-8.15,0,0,12.32-.3,14.06,7,0,0,1.18,4.72-6.65,7.45C69.2,46.11,64.36,42.89,55.85,46.05Z"/><path class="cls-2" d="M38.51,37.62S35.84,20.77,61.69,20.09c0,0,27-.63,25.16,17,0,0-4.29-11.43-24.29-11.56C62.56,25.55,43.85,25,38.51,37.62Z"/><polyline class="cls-3" points="50.22 103.75 49.94 69.69 3.66 40.69"/><line class="cls-3" x1="119.65" y1="27.72" x2="49.94" y2="69.69"/><path class="cls-3" d="M38.51,37.62S35.58,21.17,61.37,20.06c0,0,28.31-.42,25.38,17.28L62.63,27.72,47.15,32.88Z"/><path class="cls-4" d="M61.65,25.63c-19.24.28-23.14,12-23.14,12,5,11.16,24.54,11,24.54,11,19.93-.56,23.7-11.3,23.7-11.3C81.17,24.52,61.65,25.63,61.65,25.63ZM65.28,47s-13,1.68-15.9-7c0,0-1.53-7.53,12.41-8.36,0,0,10.6-.42,13.8,5.71C75.59,37.34,78.8,44.73,65.28,47Z"/><path class="cls-5" d="M61.65,25.63c-19.24.28-23.14,12-23.14,12,5,11.16,24.54,11,24.54,11,19.93-.56,23.7-11.3,23.7-11.3C81.17,24.52,61.65,25.63,61.65,25.63ZM65.28,47s-13,1.68-15.9-7c0,0-1.53-7.53,12.41-8.36,0,0,10.6-.42,13.8,5.71C75.59,37.34,78.8,44.73,65.28,47Z"/><path class="cls-3" d="M55.66,46s7-2.93,13.66-.14"/></svg>